<?xml version="1.0" encoding="UTF-8" standalone="no"?>
<svg
   width="2500"
   height="2500"
   viewBox="0 0 192.756 192.756"
   version="1.1"
   id="svg316"
   xmlns="http://www.w3.org/2000/svg"
   xmlns:svg="http://www.w3.org/2000/svg">
  <defs
     id="defs320" />
  <g
     fill-rule="evenodd"
     clip-rule="evenodd"
     id="g314">
    <path
       d="M 33.272,96.299 C 33.113,88.65 26.898,82.435 19.249,82.435 11.6,82.435 5.544,88.809 5.544,96.458 H 2.834 C 2.834,88.012 9.527,81.16 17.973,81 c 8.446,0 15.458,6.853 15.458,15.299 z"
       fill="#313f94"
       id="path302" />
    <path
       d="m 33.113,96.458 c 0,-6.215 -4.94,-11.155 -11.155,-11.155 -6.215,0 -10.677,4.94 -10.677,11.155 H 8.253 c 0,-7.012 5.737,-12.589 12.749,-12.749 6.853,0 12.43,6.374 12.589,12.589 z"
       fill="#313f94"
       id="path304" />
    <path
       d="m 33.272,96.299 c 0,-4.462 -3.824,-8.127 -8.446,-8.127 -4.622,0 -7.968,3.665 -7.968,8.287 H 13.99 c 0,-5.418 4.144,-9.88 9.562,-9.88 5.418,0 9.721,4.462 9.88,9.721 h -0.16 z"
       fill="#313f94"
       id="path306" />
    <path
       d="m 3.153,96.458 c 0,7.649 6.215,13.864 13.864,13.864 7.809,0 13.864,-6.375 13.864,-14.023 h 2.709 c 0,8.445 -6.853,15.457 -15.298,15.457 -8.446,0 -15.298,-6.852 -15.458,-15.298 z"
       fill="#313f94"
       id="path308" />
    <path
       d="m 3.153,96.299 c 0,6.215 4.94,11.154 11.155,11.154 6.215,0 10.836,-4.939 10.677,-11.154 h 3.028 c 0,7.012 -5.737,12.748 -12.589,12.748 -7.012,0 -12.589,-6.373 -12.589,-12.589 z"
       fill="#313f94"
       id="path310" />
    <path
       d="m 2.994,96.458 c 0.159,4.462 3.984,8.128 8.446,8.128 4.622,0 7.968,-3.666 7.968,-8.287 h 2.868 c 0,5.418 -4.143,9.881 -9.562,9.881 -5.417,0 -9.72,-4.303 -9.72,-9.722 z m 54.341,3.507 h -5.1 l 4.144,-8.925 z m -8.924,8.285 1.434,-3.188 h 7.968 l 0.479,3.188 H 66.26 L 61.798,83.55 H 53.67 l -13.227,24.7 z m 21.513,0 4.303,-24.7 h 8.127 l -4.302,24.7 z M 93.988,89.605 h 3.985 c 1.273,0 2.07,0.16 2.549,0.638 0.318,0.318 0.479,0.956 0.318,1.593 -0.158,0.797 -0.479,1.435 -1.115,1.753 -0.479,0.479 -1.434,0.638 -2.709,0.638 H 93.191 Z M 90.8,108.25 92.235,99.645 h 3.187 c 0.956,0 1.754,0.16 2.23,0.32 0.479,0.318 0.797,0.637 0.957,1.115 0.158,0.477 0.158,1.115 0,1.912 l -0.16,1.912 c -0.318,1.594 -0.318,2.709 -0.318,3.346 h 8.287 v -0.797 c -0.16,0 -0.479,0 -0.479,-0.158 -0.158,-0.16 -0.158,-0.479 0,-1.115 l 0.639,-3.826 c 0.158,-1.752 0.158,-3.027 -0.32,-3.664 -0.477,-0.797 -1.434,-1.436 -2.867,-2.072 0.797,-0.159 1.434,-0.479 2.07,-0.796 0.797,-0.638 1.436,-1.275 1.912,-2.072 0.639,-0.957 0.957,-1.913 1.275,-3.188 0.16,-0.956 0.16,-1.753 0,-2.39 a 5.303,5.303 0 0 0 -0.797,-1.912 7.528,7.528 0 0 0 -1.594,-1.594 C 105.46,84.347 104.663,84.028 103.548,83.869 102.433,83.71 101,83.55 99.246,83.55 H 87.294 l -4.303,24.7 z m 33.147,-19.123 c 1.115,0 1.912,0.159 2.23,0.159 0.479,0.16 0.797,0.479 0.957,0.797 0.318,0.319 0.318,0.797 0.318,1.275 -0.16,0.638 -0.479,1.116 -1.115,1.594 -0.479,0.319 -1.436,0.637 -2.709,0.637 H 120.6 l 0.797,-4.462 z m -1.275,19.123 c 1.912,0 3.188,-0.158 3.984,-0.318 0.796,-0.16 1.752,-0.479 2.549,-0.797 0.957,-0.479 1.594,-0.797 2.072,-1.275 0.797,-0.477 1.275,-1.273 1.754,-2.07 a 7.174,7.174 0 0 0 1.115,-2.869 c 0.158,-1.434 0,-2.709 -0.479,-3.666 -0.637,-1.115 -1.434,-1.752 -2.709,-2.071 2.391,-1.434 3.824,-3.187 4.143,-5.259 0.479,-2.231 -0.158,-3.825 -1.912,-4.94 -1.275,-0.957 -3.346,-1.435 -6.533,-1.435 h -12.111 l -4.303,24.7 z m 0.478,-10.357 c 1.594,0 2.549,0.318 3.027,0.637 0.479,0.479 0.637,0.957 0.479,1.754 -0.16,0.637 -0.479,1.273 -1.115,1.752 -0.639,0.318 -1.594,0.639 -3.188,0.639 h -3.346 l 0.797,-4.781 h 3.346 z M 141.795,83.55 h 7.969 l -2.709,15.298 c -0.16,0.957 -0.16,1.754 0,2.232 0.158,0.477 0.477,0.955 1.115,1.273 0.637,0.32 1.275,0.479 2.07,0.479 1.117,0 2.232,-0.318 2.869,-0.955 0.797,-0.639 1.275,-1.754 1.594,-3.029 l 2.709,-15.298 h 7.969 l -2.551,14.501 c -0.318,1.754 -0.637,3.188 -1.115,4.303 -0.479,0.957 -1.115,1.912 -1.912,2.709 -0.797,0.797 -1.754,1.594 -2.709,2.072 -1.115,0.637 -2.23,1.115 -3.506,1.434 -1.434,0.16 -2.869,0.32 -4.303,0.32 -1.754,0 -3.188,-0.16 -4.463,-0.32 -1.273,-0.318 -2.23,-0.797 -3.027,-1.434 -0.955,-0.637 -1.594,-1.275 -2.072,-2.072 -0.477,-0.797 -0.797,-1.912 -0.797,-3.186 -0.158,-0.797 0,-2.232 0.32,-3.984 z m 48.127,7.171 h -7.809 c 0,-0.638 -0.318,-1.275 -0.639,-1.594 -0.477,-0.319 -1.115,-0.478 -2.07,-0.478 -0.957,0 -1.754,0.159 -2.23,0.478 -0.479,0.319 -0.639,0.638 -0.797,1.116 0,0.478 0,0.637 0.318,0.956 0.318,0.319 1.115,0.637 2.549,0.956 l 3.027,0.797 c 2.709,0.797 4.623,1.753 5.578,3.028 0.957,1.274 1.275,2.709 0.957,4.461 -0.32,1.436 -0.797,2.551 -1.594,3.666 -0.797,1.115 -1.754,2.072 -2.709,2.709 -0.957,0.637 -2.232,1.115 -3.666,1.594 -1.434,0.318 -3.027,0.479 -4.621,0.479 -1.594,0 -3.188,-0.16 -4.621,-0.639 -1.436,-0.479 -2.551,-1.115 -3.348,-1.912 -0.797,-0.797 -1.434,-1.752 -1.752,-2.867 -0.16,-0.797 -0.16,-1.754 -0.16,-2.869 h 7.809 c 0,0.797 0.318,1.434 0.797,1.752 0.479,0.479 1.436,0.639 2.709,0.639 1.115,0 1.912,-0.16 2.391,-0.479 0.479,-0.319 0.639,-0.637 0.797,-1.115 0,-0.479 0,-0.957 -0.318,-1.275 -0.318,-0.318 -1.115,-0.637 -2.551,-0.955 L 175.26,98.53 c -1.273,-0.318 -2.709,-0.797 -3.824,-1.434 -1.115,-0.638 -2.07,-1.435 -2.549,-2.55 -0.479,-0.956 -0.479,-2.071 -0.318,-3.506 0.318,-1.434 0.797,-2.549 1.592,-3.665 0.797,-1.115 1.754,-1.912 2.869,-2.55 0.957,-0.797 2.23,-1.115 3.506,-1.434 1.276,-0.319 2.551,-0.478 3.824,-0.478 1.594,0 2.869,0.159 4.145,0.478 1.273,0.319 2.07,0.797 2.867,1.275 0.639,0.478 1.115,1.115 1.436,1.753 0.477,0.637 0.637,1.275 0.797,1.912 0.157,0.637 0.317,1.434 0.317,2.39 z"
       fill="#313f94"
       id="path312" />
  </g>
</svg>
