<?xml version="1.0" encoding="UTF-8" standalone="no"?>
<svg
   width="2500"
   height="2500"
   viewBox="0 0 192.756 192.756"
   version="1.1"
   id="svg32"
   sodipodi:docname="bank-of-america-4.svg"
   inkscape:export-filename="bank-of-america-4.svg"
   inkscape:export-xdpi="96"
   inkscape:export-ydpi="96"
   xmlns:inkscape="http://www.inkscape.org/namespaces/inkscape"
   xmlns:sodipodi="http://sodipodi.sourceforge.net/DTD/sodipodi-0.dtd"
   xmlns="http://www.w3.org/2000/svg"
   xmlns:svg="http://www.w3.org/2000/svg">
  <defs
     id="defs36" />
  <sodipodi:namedview
     id="namedview34"
     pagecolor="#ffffff"
     bordercolor="#111111"
     borderopacity="1"
     inkscape:showpageshadow="0"
     inkscape:pageopacity="0"
     inkscape:pagecheckerboard="1"
     inkscape:deskcolor="#d1d1d1"
     showgrid="false" />
  <g
     fill-rule="evenodd"
     clip-rule="evenodd"
     id="g30">
    <path
       d="m 86.538,105.278 c 2.396,0.932 4.792,1.931 7.122,3.062 a 151.233,151.233 0 0 0 -21.566,10.717 c -2.33,-1.199 -4.726,-2.396 -7.122,-3.462 6.922,-3.993 14.111,-7.454 21.566,-10.317 z m -8.92,-3.128 a 129.119,129.119 0 0 0 -22.299,9.518 c 2.263,0.866 4.526,1.731 6.723,2.663 a 122.992,122.992 0 0 1 21.633,-10.117 c -1.997,-0.733 -3.993,-1.465 -6.057,-2.064 z"
       fill="#2267ad"
       id="path22" />
    <path
       d="m 133.73,116.794 c 0.133,0.399 0.467,0.532 0.799,0.532 0.199,0 0.4,0 0.533,-0.133 a 0.51,0.51 0 0 0 0.133,-0.333 c 0,-0.266 -0.199,-0.399 -0.467,-0.399 l -0.465,-0.133 c -0.133,-0.067 -0.334,-0.067 -0.467,-0.2 -0.133,-0.133 -0.199,-0.332 -0.199,-0.532 0,-0.532 0.467,-0.731 0.932,-0.731 0.4,0 0.799,0.199 0.932,0.665 l -0.332,0.066 c 0,-0.267 -0.334,-0.466 -0.666,-0.466 -0.199,0 -0.533,0.133 -0.533,0.399 0,0.333 0.201,0.399 0.467,0.466 l 0.398,0.066 c 0.201,0.066 0.4,0.133 0.533,0.199 0.133,0.2 0.199,0.334 0.199,0.6 0,0.199 -0.066,0.466 -0.266,0.599 -0.199,0.134 -0.467,0.2 -0.732,0.2 -0.533,0 -0.865,-0.267 -1.064,-0.799 z m 2.596,0.799 h -0.265 v -2.662 h 0.464 l 0.868,2.129 0.73,-2.129 h 0.533 v 2.662 h -0.332 v -2.33 l -0.867,2.33 h -0.266 l -0.865,-2.33 z M 102.713,104.946 A 138.835,138.835 0 0 0 83.809,97.557 c -2.33,0.665 -4.593,1.397 -6.79,2.13 a 134.92,134.92 0 0 1 19.437,7.521 c 2.064,-0.799 4.126,-1.53 6.257,-2.262 z m 9.918,-2.929 c -6.191,-2.729 -12.648,-4.992 -19.238,-6.789 -2.13,0.399 -4.193,0.865 -6.256,1.397 6.523,1.931 12.912,4.327 19.037,7.256 2.129,-0.666 4.326,-1.331 6.457,-1.864 z m 15.974,5.325 c -15.643,5.259 -30.287,12.78 -43.532,22.166 3.328,2.063 6.523,4.193 9.651,6.522 a 176.64,176.64 0 0 1 41.336,-24.429 119.018,119.018 0 0 0 -7.455,-4.259 z m -10.783,-5.059 c -16.242,4.26 -31.484,11.183 -45.263,20.368 3.062,1.531 6.124,3.129 9.119,4.859 13.513,-9.319 28.49,-16.641 44.464,-21.434 -2.728,-1.33 -5.458,-2.661 -8.32,-3.793 z"
       fill="#cd2e29"
       id="path24" />
    <path
       d="m 73.158,70.533 c 3.927,0 5.924,2.929 5.924,6.856 0,4.061 -1.931,6.923 -5.924,6.923 -4.06,0 -5.924,-2.862 -5.924,-6.923 0,-3.927 1.997,-6.856 5.924,-6.856 z m 0,11.116 c 1.065,0 1.531,-0.932 1.531,-4.26 0,-3.062 -0.333,-4.193 -1.531,-4.193 -1.198,0 -1.531,1.131 -1.531,4.193 0,3.328 0.466,4.26 1.531,4.26 z m 8.654,-7.788 h -1.731 v -2.929 h 1.731 v -1.464 c 0,-3.262 1.598,-4.46 4.393,-4.46 0.799,0 1.464,0.133 2.13,0.2 v 3.262 a 2.88,2.88 0 0 0 -0.798,-0.133 c -1.131,0 -1.531,0.466 -1.531,1.264 v 1.332 h 2.329 v 2.929 h -2.329 v 10.184 h -4.194 z m -49.457,0.732 c 0,-0.799 -0.333,-1.331 -1.064,-1.331 -1.065,0 -1.398,0.932 -1.398,1.73 l -3.728,-0.799 c 0.465,-2.529 2.862,-3.594 5.258,-3.594 2.529,0 5.192,1.064 5.192,3.993 v 7.322 c 0,1.464 0.2,1.93 0.399,2.13 h -4.393 c -0.066,-0.399 -0.133,-0.999 -0.133,-1.198 -0.732,0.732 -1.997,1.465 -3.195,1.465 -2.13,0 -3.728,-1.465 -3.661,-3.861 0.066,-3.395 3.927,-4.46 6.723,-4.792 z m 0,3.128 c -1.464,0.133 -2.596,0.732 -2.596,2.396 0,0.932 0.466,1.398 1.265,1.398 0.466,0 0.999,-0.333 1.331,-0.799 z m 10.983,-3.062 v 9.386 h -4.26 V 70.932 h 4.127 l 0.067,1.332 c 0.932,-0.932 2.063,-1.664 3.727,-1.664 1.864,0 2.929,1.264 2.929,3.062 v 10.384 h -4.26 v -9.053 c 0,-0.732 -0.267,-1.131 -0.999,-1.131 -0.465,-10e-4 -0.932,0.265 -1.331,0.797 z m 9.186,-9.252 h 4.26 v 9.452 h 0.066 l 3.129,-3.927 h 4.193 l -3.527,3.994 3.527,9.119 H 59.779 L 57.716,78.32 h -0.067 l -0.865,0.999 v 4.726 h -4.26 z m -31.418,8.92 c 1.997,0.666 3.461,2.33 3.461,4.727 0,3.194 -2.529,4.992 -6.124,4.992 H 11.32 V 65.407 h 7.322 c 3.328,0 5.458,1.997 5.458,4.526 0,2.463 -1.664,3.728 -2.995,4.26 v 0.134 z m -5.258,6.257 h 1.73 c 1.065,0 2.396,-0.466 2.396,-2.33 0,-1.397 -0.865,-2.329 -2.396,-2.329 h -1.73 z m 0,-7.789 h 1.597 c 1.664,0 2.33,-0.932 2.33,-1.997 0,-1.797 -1.198,-2.063 -2.263,-2.063 h -1.664 z m 158.42,1.798 c 0,-0.799 -0.4,-1.331 -1.131,-1.331 -1,0 -1.332,0.932 -1.398,1.73 l -3.66,-0.799 c 0.465,-2.529 2.861,-3.594 5.258,-3.594 2.529,0 5.191,1.064 5.191,3.993 v 7.322 c 0,1.464 0.199,1.93 0.334,2.13 h -4.328 c -0.066,-0.399 -0.133,-0.999 -0.133,-1.198 -0.732,0.732 -1.996,1.465 -3.262,1.465 -2.062,0 -3.727,-1.465 -3.66,-3.861 0.133,-3.395 3.994,-4.46 6.789,-4.792 z m 0,3.128 c -1.465,0.133 -2.596,0.732 -2.596,2.396 0,0.932 0.465,1.398 1.197,1.398 0.533,0 0.998,-0.333 1.398,-0.799 v -2.995 z m -43.598,0.666 c -0.068,1.131 0.266,3.128 1.996,3.128 0.998,0 1.863,-0.799 2.062,-1.797 l 2.863,0.999 c -0.199,0.599 -1.465,3.595 -5.26,3.595 -4.061,0 -5.924,-3.262 -5.924,-6.923 0,-3.728 1.998,-6.856 5.857,-6.856 4.061,0 5.525,3.528 5.525,6.989 v 0.865 z m 3.193,-2.53 c 0,-1.198 -0.133,-2.662 -1.598,-2.662 -1.197,0 -1.664,1.464 -1.596,2.662 z m 15.311,-4.925 h 4.26 v 13.113 h -4.26 z m 0,-5.525 h 4.26 v 3.795 h -4.26 z m 13.644,10.384 c 0,-0.532 0,-1.198 -0.199,-1.664 -0.199,-0.533 -0.533,-0.932 -1.197,-0.932 -1.398,0 -1.598,1.73 -1.598,4.393 0,2.929 0.465,3.927 1.598,3.927 1.463,0 1.596,-1.531 1.596,-2.529 l 3.328,0.466 c -0.332,3.195 -2.195,4.859 -5.258,4.859 -3.793,0 -5.791,-3.328 -5.791,-6.59 0,-3.594 1.998,-7.188 5.99,-7.188 4.461,0 5.193,3.927 5.193,5.258 z M 95.723,65.407 h 6.191 l 3.928,18.638 h -4.527 l -0.732,-3.794 h -4.327 l -0.865,3.794 h -4.06 z m 1.132,11.582 h 3.061 l -1.33,-7.588 h -0.135 z m 42.666,-6.057 h 4.127 v 1.731 h 0.066 c 0.865,-1.398 2.463,-2.063 4.127,-2.063 v 4.26 c -0.533,-0.2 -0.998,-0.333 -1.73,-0.333 -1.131,0 -1.863,0.399 -2.33,0.999 v 8.52 h -4.26 z m -21.5,3.727 v 9.386 h -4.193 v -8.986 c 0,-0.732 -0.199,-1.198 -0.998,-1.198 -0.4,0 -1.064,0.333 -1.398,0.798 v 9.386 h -4.193 V 70.932 h 4.127 l 0.066,1.332 c 0.932,-0.865 2.264,-1.664 3.795,-1.664 1.33,0 2.195,0.732 2.596,1.73 h 0.066 c 0.732,-0.799 1.996,-1.73 3.729,-1.73 1.797,0 2.994,1.131 2.994,2.995 v 10.451 h -4.193 V 75.06 c 0,-0.732 -0.199,-1.198 -0.998,-1.198 -0.534,-10e-4 -1.132,0.465 -1.4,0.797 z m 62.571,7.855 c 0,-0.999 0.797,-1.797 1.863,-1.797 a 1.79,1.79 0 0 1 1.797,1.797 1.79,1.79 0 0 1 -1.797,1.797 c -1.066,10e-4 -1.863,-0.799 -1.863,-1.797 z m 0.332,0 c 0,0.798 0.666,1.397 1.531,1.397 0.799,0 1.465,-0.599 1.465,-1.397 0,-0.799 -0.666,-1.465 -1.465,-1.465 -0.865,0 -1.531,0.666 -1.531,1.465 z"
       fill="#2267ad"
       id="path26" />
    <path
       d="m 183.32,83.512 h -0.332 l -0.6,-0.932 h -0.334 v 0.932 h -0.332 v -1.997 h 0.932 c 0.133,0 0.334,0 0.467,0.066 0.199,0.133 0.266,0.266 0.266,0.466 0,0.399 -0.332,0.533 -0.666,0.533 z m -0.931,-1.198 c 0.266,0 0.666,0.066 0.666,-0.267 0,-0.266 -0.201,-0.333 -0.467,-0.333 h -0.533 v 0.599 h 0.334 z"
       fill="#2267ad"
       id="path28" />
  </g>
</svg>
