<?xml version="1.0" encoding="UTF-8" standalone="no"?>
<svg
   width="2500"
   height="2500"
   viewBox="0 0 192.756 192.756"
   version="1.1"
   id="svg194"
   xmlns="http://www.w3.org/2000/svg"
   xmlns:svg="http://www.w3.org/2000/svg">
  <defs
     id="defs198" />
  <g
     fill-rule="evenodd"
     clip-rule="evenodd"
     id="g192">
    <path
       d="m 85.375,79.017 c -2.027,0 -2.695,4.226 -2.695,10.994 0,7.286 -0.711,12.804 2.91,12.804 1.724,0 2.446,-1.164 2.393,-2.91 -0.292,-9.517 0.948,-20.888 -2.608,-20.888 z m 30.221,0.561 c 0,-0.992 -4.549,-1.812 -7.049,-1.812 -4.396,0 -17.934,1.251 -17.934,7.718 0,4.093 5.423,3.75 10.67,3.75 4.752,0 9.764,1.005 9.895,3.815 0.139,3.028 -5.52,4.548 -12.611,4.548 -2.177,0 -4.009,-0.797 -4.009,-2.414 0,-1.013 0.798,-1.53 2.026,-1.53 2.295,0 4.409,1.53 7.092,1.53 2.5,0 4.592,-0.884 4.592,-1.94 0,-2.004 -8.084,-2.048 -10.822,-2.048 -3.341,0 -4.958,2.264 -4.958,3.988 0,2.414 3.233,7.177 11.51,7.177 5.174,0 11.059,-2.414 11.059,-8.406 0,-6.327 -6.154,-7.534 -10.508,-7.534 -1.908,0 -8.634,-0.191 -8.634,-1.487 0,-3.167 19.681,-0.667 19.681,-5.355 z m 4.224,22.59 c -1.811,0 -3.104,-3.072 -3.104,-5.4 0,-1.723 1.467,-17.018 4.947,-17.018 2.975,0 9.086,13.139 10.51,13.139 1.045,0 0.797,-3.341 0.15,-6.585 -0.955,-4.794 -2.555,-9.816 -2.555,-10.089 0,-0.518 -0.129,-1.552 0.775,-1.552 2.285,0 6.898,7.76 6.898,15.704 0,2.77 -0.85,9.829 -5.012,9.829 -3.783,0 -8.191,-12.545 -9.453,-12.545 -1.422,0 -1.324,9.485 -1.324,10.325 0.002,0.84 -0.052,4.192 -1.832,4.192 z m 21.631,-10.465 c -0.541,-0.234 -0.645,-0.932 -0.645,-1.811 0,-1.258 0.799,-1.957 2.035,-2.204 0.73,-2.077 1.15,-3.627 1.479,-4.654 -0.662,-0.041 -0.342,-0.007 -0.744,-0.051 -2.268,-0.245 -2.408,-1.218 -2.959,-2.651 -0.371,-0.97 12.596,-2.781 14.988,-2.781 2.392,0 2.975,0.97 3.492,1.488 0.517,0.518 1.486,1.358 1.486,2.134 0,0.776 -1.234,1.87 -2.91,2.005 -2.014,0.163 -5.635,0.19 -8.371,0.133 -0.176,0.64 -0.619,1.98 -1.254,4.022 2.699,-0.152 5.705,-0.305 6.322,-0.27 1.148,0.064 1.924,0.339 1.859,1.956 -0.07,1.763 -0.551,1.843 -2.135,2.134 -0.631,0.116 -4.244,0.304 -7.385,0.449 -0.678,2.211 -1.078,3.243 -1.129,3.431 -0.291,1.045 0.193,1.939 0.711,1.939 0.518,0 7.502,-1.767 8.666,-1.767 1.164,0 1.896,1.271 1.896,2.435 0,1.164 -6.684,6.059 -11.209,6.059 -4.527,0 -5.885,-5.303 -5.885,-6.791 0.003,-0.636 0.721,-2.367 1.692,-5.205 z M 36.065,84.611 35.935,99.699 C 26.21,96.306 20.489,90.321 20.489,88.458 20.49,86.123 28.861,85.031 36.065,84.611 l 0.134,-5.088 c -8.968,1.472 -17.112,4.974 -17.112,8.742 0,3.295 7.477,10.683 16.903,15.235 0.185,3.941 0.887,5.717 3.102,5.717 2.133,0 2.785,-0.686 2.907,-3.395 3.016,0.947 6.015,1.52 9.035,1.52 15.585,0 28.325,-7.545 28.325,-20.112 0,-14.809 -22.311,-35.072 -56.575,-35.072 -7.849,0 -12.134,2.393 -12.632,3.298 -0.355,0.646 -1.649,2.199 -1.649,2.684 0,1.261 2.415,1.703 2.986,1.703 1.606,0 2.36,-0.689 2.36,-1.099 0,-1.035 -2.36,-0.711 -2.36,-1.584 0,-1.423 5.788,-1.944 10.638,-1.875 25.038,0.356 50.831,16.965 50.831,31.882 0,9.398 -10.477,14.938 -22.634,14.938 -3.817,0 -6.362,-0.371 -8.378,-0.768 -0.089,-2.646 -0.224,-6.143 -0.224,-10.743 0,-2.221 -0.055,-4.264 -0.075,-6.2 0.436,-0.006 0.85,-0.009 1.239,-0.009 4.354,0 15.585,0.604 15.585,3.201 0,1.843 -2.113,2.354 -2.113,3.567 0,0.42 0.064,0.636 2.209,0.636 2.748,0 4.785,-3.417 4.785,-5.205 0,-5.756 -11.436,-7.804 -18.635,-7.804 -1.036,0 -2.07,0.069 -3.137,0.139 -0.266,-7.281 -1.019,-11.392 -3.115,-11.392 -1.29,0 -1.979,4.719 -2.268,11.996 z M 89.12,60.644 89.055,60.614 c -0.86,-0.237 -1.848,-0.323 -2.305,-0.355 -2.28,-0.159 -6.217,3.606 -6.391,6.101 -0.031,0.45 0.083,0.889 0.392,1.327 1.803,-2.331 4.719,-5.236 8.369,-7.043 z M 78.729,71.268 c -1.13,-1.329 -1.751,-2.928 -1.637,-4.554 0.364,-5.204 8.747,-10.459 14.575,-10.052 2.903,0.204 4.694,1.305 4.626,2.273 0.24,0.004 0.481,0.014 0.725,0.032 2.193,0.153 4.023,1.794 3.822,4.675 -0.238,3.397 -8.125,11.425 -15.286,10.924 a 10.5,10.5 0 0 1 -3.027,-0.667 c -0.765,1.324 -1.438,1.975 -2.182,1.923 -1.291,-0.09 -1.802,-1.887 -1.616,-4.554 z m 5.455,-1.214 c 0.787,0.308 1.589,0.509 2.295,0.558 4.581,0.32 10.828,-2.808 11.131,-7.13 0.086,-1.225 -0.717,-1.8 -2.007,-1.891 -2.822,-0.197 -9.746,5.022 -11.419,8.463 z"
       id="path188" />
    <path
       d="m 169.871,96.74 c 0.342,0.096 0.674,0.15 0.984,0.162 3.49,0.121 10.25,-3.05 10.49,-9.944 0.055,-1.551 -0.418,-2.862 -1.193,-2.889 -0.843,-0.029 -4.898,2.36 -10.281,12.671 l -4.646,-3.809 c 5.326,-8.348 11.744,-13.664 14.736,-13.56 1.939,0.068 4.393,4.824 4.289,7.818 -0.373,10.665 -10.674,15.545 -15.822,15.366 -0.434,-0.014 -0.818,-0.207 -1.281,-0.373 a 54.878,54.878 0 0 0 -2.371,6.604 c 5.361,0.354 10.51,0.762 15.35,1.176 3.795,0.344 1.725,2.068 -0.344,2.068 -0.496,0 -6.572,-0.334 -15.758,-0.379 -1.721,7.354 -1.463,12.441 -2.752,12.396 -1.293,-0.045 -4.543,-3.33 -4.469,-5.463 0.084,-2.383 0.367,-4.725 0.812,-7.002 -31.014,0.27 -85.381,3.918 -102,24.936 -2.069,4.139 -3.966,4.656 -6.381,3.623 -2.415,-1.035 -3.276,-6.727 -0.862,-9.83 24.715,-22.416 71.702,-24 110.03,-21.908 a 53.94,53.94 0 0 1 3.83,-10.191 c -1.203,-1.717 -1.893,-3.634 -1.826,-5.514 0.246,-7.066 7.283,-15.075 8.855,-15.02 0.695,0.024 0.666,0.412 0.641,1.123 -0.086,2.44 -5.045,9.05 -5.15,12.087 -0.025,0.709 0.143,1.384 0.473,2.044 z"
       id="path190" />
  </g>
</svg>
