<?xml version="1.0" encoding="utf-8"?>
<!-- Generator: Adobe Illustrator 27.0.0, SVG Export Plug-In . SVG Version: 6.00 Build 0)  -->
<svg version="1.1" id="Слой_1" xmlns="http://www.w3.org/2000/svg" xmlns:xlink="http://www.w3.org/1999/xlink" x="0px" y="0px"
	 viewBox="0 0 110 30" style="enable-background:new 0 0 110 30;" xml:space="preserve">
<style type="text/css">
	.st0{fill:#00374E;}
	.st1{fill:#009A61;}
	.st2{fill:#FFFFFF;}
</style>
<g>
	<path class="st0" d="M7.01,20.25c-0.89,0.76-2.03,1.2-3.18,1.2c-1.97,0.16-3.7-1.3-3.82-3.24c0-0.1,0-0.21,0-0.33
		c-0.08-1.3,0.72-2.53,1.97-2.99c0.93-0.39,1.93-0.62,2.96-0.7l1.97-0.16v-0.39c0-1.24-0.84-1.79-2.25-1.79
		c-1.03,0.06-2.05,0.33-2.96,0.82L0.7,10.88c1.33-0.72,2.84-1.09,4.36-1.11c3.06,0,4.51,1.36,4.51,3.98v4.55
		c-0.08,0.97,0.02,1.96,0.28,2.9H7.44L7.01,20.25L7.01,20.25z M5.16,16.11c-0.58-0.02-1.19,0.12-1.69,0.43
		c-0.44,0.27-0.72,0.74-0.72,1.24c0,0.82,0.68,1.52,1.51,1.52c0.06,0,0.1,0,0.16,0c0.84-0.02,1.61-0.33,2.25-0.82v-2.35H5.16V16.11z
		 M11.22,15.82c0-3.56,2.68-5.91,6.18-5.91c0.5-0.02,1.03,0.02,1.55,0.12V4.68h2.8v16.09c-1.33,0.56-2.76,0.84-4.24,0.82
		C14.03,21.45,11.22,19.55,11.22,15.82L11.22,15.82z M18.96,18.98v-6.61c-0.46-0.12-0.93-0.17-1.39-0.12
		c-1.89-0.06-3.46,1.42-3.52,3.26c0,0.1,0,0.19,0,0.33c-0.16,1.75,1.17,3.28,2.96,3.44c0.18,0.02,0.38,0.02,0.56,0
		C17.98,19.14,18.54,19.14,18.96,18.98z M22.76,10.2h2.96l2.8,7.58l2.8-7.54h2.8L29.5,21.37h-2.11L22.76,10.2L22.76,10.2z"/>
	<path class="st1" d="M34.57,15.82c-0.08-3.19,2.51-5.83,5.77-5.91c0.08,0,0.16,0,0.22,0c1.05,0.02,2.11,0.25,3.06,0.7v2.33
		c-0.84-0.56-1.79-0.84-2.8-0.82c-2.11,0-3.36,1.52-3.36,3.56c0,2.33,1.27,3.56,3.24,3.56c0.93,0,1.85-0.21,2.68-0.7l0.84,1.92
		c-1.19,0.72-2.57,1.09-3.96,1.09c-3.12,0.06-5.67-2.41-5.73-5.44C34.57,16.03,34.57,15.93,34.57,15.82z M51.73,20.25
		c-0.89,0.8-2.03,1.24-3.24,1.24c-1.97,0.16-3.7-1.3-3.82-3.24c0-0.1,0-0.21,0-0.33c-0.08-1.3,0.72-2.53,1.97-2.99
		c0.93-0.39,1.93-0.62,2.96-0.7l1.97-0.12v-0.43c0-1.24-0.84-1.79-2.25-1.79c-1.03,0.06-2.05,0.33-2.96,0.82l-0.93-1.83
		c1.33-0.72,2.86-1.09,4.38-1.11c3.06,0,4.51,1.36,4.51,3.98v4.55c-0.08,0.97,0.02,1.96,0.28,2.9h-2.43L51.73,20.25L51.73,20.25z
		 M49.9,16.11c-0.58-0.02-1.19,0.12-1.69,0.43c-0.44,0.25-0.72,0.72-0.72,1.2c0,0.82,0.68,1.52,1.51,1.52c0.06,0,0.1,0,0.16,0
		c0.84-0.02,1.61-0.33,2.25-0.82v-2.33C51.45,16.09,49.9,16.11,49.9,16.11z M56.52,18.28c0.91,0.6,1.97,0.93,3.06,0.97
		c1.11,0,1.97-0.27,1.97-1.24c0-1.92-5.37-1.24-5.37-4.8c0-1.92,1.69-3.28,4.36-3.28c1.13,0.02,2.29,0.19,3.36,0.54v2.33
		c-1.01-0.45-2.13-0.66-3.24-0.7c-0.99,0-1.55,0.27-1.55,0.97c0,1.79,5.37,1.09,5.37,4.95c0,2.47-2.11,3.44-4.63,3.44
		c-1.47,0-2.94-0.37-4.24-1.11C55.65,20.34,56.52,18.28,56.52,18.28z M66.09,4.68h2.8v6.76c1.05-0.91,2.41-1.44,3.82-1.52
		c1.83,0,3.64,0.82,3.64,3.98v7.27h-2.8v-6.49c0-1.36-0.28-2.47-1.69-2.47c-1.05,0.08-2.07,0.52-2.84,1.26v7.69h-2.8V4.7L66.09,4.68
		z M94.65,30C103.1,30,110,23.3,110,15S103.14,0,94.65,0S79.29,6.7,79.29,15S86.18,30,94.65,30L94.65,30z"/>
	<path class="st2" d="M86.47,22.97l7.88-16.9l0.56,5.91L89.7,22.83L86.47,22.97L86.47,22.97z"/>
	<path class="st0" d="M87.05,15.82h14.92l-1.69,2.06H88.44C88.44,17.9,87.05,15.82,87.05,15.82z M84.52,12.1h19.71l-1.69,2.06H85.96
		C85.92,14.18,84.52,12.1,84.52,12.1z"/>
	<path class="st2" d="M102.22,22.97l-7.88-16.9l-0.56,5.91l5.19,10.86L102.22,22.97L102.22,22.97z"/>
</g>
</svg>
