<?xml version="1.0" encoding="utf-8"?>
<!-- Generator: Adobe Illustrator 27.0.0, SVG Export Plug-In . SVG Version: 6.00 Build 0)  -->
<svg version="1.1" id="Слой_1" xmlns="http://www.w3.org/2000/svg" xmlns:xlink="http://www.w3.org/1999/xlink" x="0px" y="0px"
	 viewBox="0 0 1200 800" style="enable-background:new 0 0 1200 800;" xml:space="preserve">
<style type="text/css">
	.st0{fill:#004580;}
</style>
<path class="st0" d="M217.6,410.8c3.9,1.3,8.5,3.3,13.7,5.9c9.1,5.2,17,12.4,23.5,21.6c7.9,13.1,11.8,28.8,11.8,47
	c0,62.8-37.9,94.1-113.7,94.1H5.9c-3.9,0-5.9-2-5.9-5.9v-302c0-3.9,2-5.9,5.9-5.9h154.9c27.5,0,49.7,7.6,66.7,22.6
	c17,15,25.5,35,25.5,59.8c0,14.4-3.3,27.1-9.8,38.2C236.6,397.4,228.1,405.6,217.6,410.8L217.6,410.8z M151,534.3
	c22.2,0,38.5-3.6,49-10.8c10.4-7.2,15.7-19.6,15.7-37.3c0-17.6-5.2-30-15.7-37.3c-10.5-7.2-26.8-10.8-49-10.8H58.8
	c-5.2,0-7.9,2-7.9,5.9v84.3c0,3.9,2.6,5.9,7.9,5.9L151,534.3L151,534.3z M58.8,310.8c-3.9,0-5.9,2-5.9,5.9v70.6c0,3.9,2,5.9,5.9,5.9
	H149c34,0,51-13.7,51-41.2c0-27.5-17-41.2-51-41.2H58.8z M535.3,410.8c3.9,1.3,7.9,3.3,11.8,5.9c10.4,5.2,18.3,12.4,23.5,21.6
	c9.1,13.1,13.7,28.8,13.7,47c0,62.8-37.9,94.1-113.7,94.1H323.5c-3.9,0-5.9-2-5.9-5.9v-302c0-3.9,2-5.9,5.9-5.9h154.9
	c26.1,0,48,7.6,65.7,22.6c17.6,15,26.5,35,26.5,59.8c0,14.4-3.3,27.1-9.8,38.2C554.2,397.4,545.7,405.6,535.3,410.8L535.3,410.8z
	 M374.5,310.8c-3.9,0-5.9,2-5.9,5.9v70.6c0,3.9,2,5.9,5.9,5.9h92.2c34,0,51-13.7,51-41.2c0-27.5-17-41.2-51-41.2L374.5,310.8z
	 M468.6,534.3c22.2,0,38.5-3.6,49-10.8c10.4-7.2,15.7-19.6,15.7-37.3c0-17.6-5.2-30-15.7-37.3c-10.5-7.2-26.8-10.8-49-10.8h-94.1
	c-3.9,0-5.9,2-5.9,5.9v84.3c0,3.9,2,5.9,5.9,5.9L468.6,534.3L468.6,534.3z M864.7,269.6c1.3-2.6,2.6-3.9,3.9-3.9h51
	c1.3,0,2.6,0.7,3.9,2c1.3,1.3,1.3,2.6,0,3.9L760.8,577.4c-1.3,1.3-2.9,2-4.9,2s-3.6-0.6-4.9-2L588.2,271.6c-1.3-1.3-1.7-2.6-1-3.9
	c0.6-1.3,2.3-2,4.9-2h49c2.6,0,4.6,1.3,5.9,3.9L751,465.7c0,1.3,1.3,2,3.9,2c2.6,0,4.6-0.6,5.9-2L864.7,269.6z M923.5,530.4
	c-1.3,2.6-3.3,3.9-5.9,3.9h-51c-1.3,0-2.3-0.6-2.9-2c-0.7-1.3-1-2.6-1-3.9l162.8-305.9c1.3-1.3,3.3-2,5.9-2c2.6,0,4.6,0.7,5.9,2
	L1200,528.4c0,1.3-0.3,2.6-1,3.9c-0.7,1.3-1.7,2-2.9,2h-51c-2.6,0-4.6-1.3-5.9-3.9l-102-196.1c-1.3-2.6-3.3-3.9-5.9-3.9
	c-2.6,0-4.6,1.3-5.9,3.9L923.5,530.4z"/>
</svg>
