<?xml version="1.0" encoding="utf-8"?>
<!-- Generator: Adobe Illustrator 27.0.0, SVG Export Plug-In . SVG Version: 6.00 Build 0)  -->
<svg version="1.1" id="Слой_1" xmlns="http://www.w3.org/2000/svg" xmlns:xlink="http://www.w3.org/1999/xlink" x="0px" y="0px"
	 viewBox="0 0 110 30" style="enable-background:new 0 0 110 30;" xml:space="preserve">
<style type="text/css">
	.st0{fill:#0A6F59;}
	.st1{fill:#F3A606;}
	.st2{fill:#211C19;}
	.st3{fill:#FFFFFF;}
</style>
<g id="XMLID_1_">
	<path id="XMLID_2_" class="st0" d="M12.32,6.3H8.01v3.35l-6.88,5.31l6.88,5.33v3.32h4.29l1.59,1.23l5.32,4.08l5.29-4.08l1.63-1.23
		h4.27v-3.32l1.63-1.23l5.29-4.09L32,10.86l-1.63-1.23V6.3H26.1l-1.63-1.23l-5.29-4.08L12.32,6.3 M6.43,5.06h6.37l6.44-4.96
		l6.44,4.96h6.35v4.92l6.44,4.99l-6.44,4.94v4.92h-6.37l-6.44,4.96l-6.44-4.96H6.43v-4.92l-6.44-4.96l6.44-4.99V5.06z M3.36,14.94
		L19.2,2.73l15.82,12.21L19.2,27.15L3.36,14.94z"/>
	<path id="XMLID_6_" class="st1" d="M30.38,11.38c-1.77,1.67-4.15,2.9-6.74,3.54c-1.42,0.34-2.55,0.47-4.03,0.52
		c-1.17-0.02-2.38,0.12-3.39,0.59c-1.86,0.79-3.19,2.28-3.3,4.03c-0.18,3.54,3.64,4.52,6.28,7.12l4.63-3.59l6.52-5.06l4.62-3.56
		L30.38,11.38 M8.01,18.5c1.72-1.57,3.94-2.77,6.4-3.42c2.71-0.88,4.99-0.32,7.25-1.03c1.86-0.56,3.3-1.91,3.76-3.49
		c0.85-3.88-3.21-5.23-6.16-7.84l-4.68,3.57l-6.55,5.06l-4.66,3.59L8.01,18.5z M1.13,14.94l6.88-5.33V6.27h4.29l6.91-5.33l6.91,5.33
		h4.27v3.35l6.9,5.33l-6.91,5.33v3.32h-4.27l-6.91,5.33l-6.91-5.33H8.01v-3.32L1.13,14.94z"/>
	<path id="XMLID_10_" class="st0" d="M65.91,21.85l-2.55-3.96l-2.59,3.96H65.91 M42.23,20.87v2.45h7.61l0.18-0.05h0.06
		c0.18-0.05,0.33-0.12,0.48-0.17l0.09-0.05l0.12-0.1l0.09-0.1l0.12-0.1l0.06-0.1c0.12-0.1,0.14-0.27,0.21-0.39
		c0.03-0.39,0-0.69-0.36-0.98l-0.09-0.1l-0.12-0.07l-0.14-0.1l-0.14-0.05l-0.14-0.07l-0.06-0.02l-0.09-0.02
		C47.52,20.64,44.87,20.72,42.23,20.87z M42.23,16.91v2.45h7.61l0.09-0.02h0.09l0.06-0.02c0.18-0.05,0.36-0.1,0.48-0.2
		c0.21-0.05,0.36-0.25,0.45-0.39c0.12-0.1,0.14-0.27,0.21-0.42c0.03-0.42-0.03-0.64-0.36-0.96l-0.09-0.1l-0.12-0.1l-0.14-0.05
		l-0.27-0.15l-0.06-0.02h-0.09l-0.06-0.02l-0.09-0.02h-0.09l-0.09,0.02L42.23,16.91L42.23,16.91z M72.28,15.43h3.19l8.96,6.93v-6.93
		h3.19v9.38h-3.19l-8.96-6.93v6.93h-3.19V15.43z M94.44,20.13l8.23-4.69h-3.51l-7.04,3.96v-3.96H88.9v9.38h3.21v-3.96l7,3.96h3.51
		L94.44,20.13z M95.96,5.06h3.19v3.96l7.04-3.96h3.51l-8.23,4.69l8.23,4.69h-3.51l-7.04-3.96v3.96h-3.19V5.06z M88.9,10.49v3.96
		h-3.19v-3.96l-6.1-5.43h3.21l4.48,3.96l4.48-3.96h3.21L88.9,10.49z M72.28,5.06h3.19v7.91h8.96v1.47H72.28V5.06L72.28,5.06z
		 M63.35,7.53l2.55,3.96H60.8L63.35,7.53z M67.84,14.45h3.19l-6.07-9.38h-3.21l-6.09,9.38h3.19l0.96-1.47h7.04L67.84,14.45z
		 M39.04,5.06h3.19v3.96h8.92V5.06h3.21v9.38h-3.21v-3.96h-8.92v3.96h-3.19V5.06z M39.04,15.43h12.47l0.14,0.02h0.18l0.14,0.02
		l0.14,0.05l0.14,0.02l0.18,0.05c0.36,0.1,0.69,0.27,0.99,0.47c0.6,0.44,0.96,0.96,0.99,1.62c0.06,1.4-1.38,2.45-3.03,2.45
		c1.56-0.05,3.07,1.03,3.03,2.33c0,0.64-0.33,1.23-0.9,1.67c-0.3,0.22-0.6,0.39-0.99,0.49l-0.12,0.05l-0.18,0.02l-0.14,0.05
		l-0.14,0.02l-0.14,0.02l-0.18,0.02H39.04V15.43L39.04,15.43z M58.85,24.82h-3.19l6.07-9.38h3.21L71,24.82h-3.19l-0.99-1.47h-7.04
		L58.85,24.82z"/>
	<path id="XMLID_24_" class="st2" d="M55.78,0.13c0.87,0,1.72,0,2.59,0v0.25h-1.03V1.6h-0.51V0.38H55.8V0.13 M36.7,1.11l0.42-0.61
		l0.42,0.61H36.7z M37.39,0.13h-0.51L35.85,1.6h0.51l0.21-0.25h1.17l0.18,0.25h0.54L37.39,0.13z M40.23,0.13
		c-0.39,0.05-0.3,0.25-0.3,0.49h0.51V0.38h1.29v0.37H41.1v0.25h0.64v0.37h-1.29V1.11h-0.51c0.03,0.15-0.09,0.37,0.14,0.47l0.12,0.05
		h1.77l0.06-0.02l0.06-0.02c0.21-0.07,0.14-0.39,0.14-0.49c-0.06-0.12-0.12-0.2-0.3-0.17l0.06-0.02h0.06l0.06-0.02l0.09-0.07
		l0.06-0.1V0.35l-0.09-0.15l-0.06-0.02l-0.06-0.02l-0.06-0.02L40.23,0.13L40.23,0.13z M44.59,1.11l0.45-0.61l0.42,0.61H44.59z
		 M45.32,0.13h-0.54L43.79,1.6h0.51l0.18-0.25h1.2l0.18,0.25h0.54L45.32,0.13z M52.02,0.13h1.99l0.18,0.07
		c0.14,0.25,0.06,0.05,0.09,0.44h-0.51V0.4h-1.53v0.98h1.53V1.14h0.51v0.29l-0.09,0.15L54.13,1.6l-0.12,0.05h-2.04l-0.18-0.07
		L51.7,1.43V0.35C51.78,0.21,51.81,0.16,52.02,0.13z M60.74,1.11l0.45-0.61l0.42,0.61H60.74z M61.43,0.13H60.9L59.91,1.6h0.51
		l0.18-0.25h1.2l0.18,0.25h0.51L61.43,0.13z M63.96,0.13h0.54v0.61H66V0.13h0.54V1.6H66V0.99h-1.51V1.6h-0.54V0.13z M32,0.13h0.51
		v0.61l1.17-0.61h0.6L32.9,0.89l1.17,0.59h0.21L33.95,1.9h-0.25l0.09-0.27h-0.11l-1.17-0.61v0.61H32L32,0.13L32,0.13z M93.83,1.02
		v0.37h1.08l0.06-0.02h0.06l0.06-0.05l0.03-0.05V1.11l-0.02-0.05l-0.06-0.05l-0.06-0.02h-1.14v0.02H93.83z M93.32,0.13h2.04v0.25
		h-1.53v0.37h1.35l0.12,0.05h0.06l0.03,0.02l0.06,0.02l0.12,0.1l0.06,0.1l0.03,0.02v0.27l-0.03,0.02L95.6,1.41l-0.03,0.02
		l-0.03,0.05L95.5,1.51l-0.06,0.02l-0.06,0.05L95.35,1.6H95.3l-0.06,0.02h-0.06l-0.06,0.02h-1.81L93.32,0.13L93.32,0.13z
		 M98.01,1.11l0.42-0.61l0.42,0.61H98.01z M98.7,0.13h-0.51L97.16,1.6h0.54l0.18-0.25h1.17l0.21,0.25h0.51L98.7,0.13z M101.25,0.13
		h0.51v0.61h1.53V0.13h0.51V1.6h-0.51V0.99h-1.53V1.6h-0.51V0.13z M105.34,0.13h0.54v0.61l1.17-0.61h0.6l-1.38,0.76l1.38,0.74h-0.6
		l-1.17-0.61v0.61h-0.54V0.13z M109.19,1.63V0.16h0.51v1.47H109.19z M71.65,1.02l-0.69,0.61h-0.6l0.85-0.74l-0.85-0.76h0.6
		l0.69,0.61l0.69-0.61h0.6l-0.87,0.76l0.87,0.74h-0.6L71.65,1.02z M75.32,1.11l0.42-0.61l0.45,0.61H75.32z M76.01,0.13h-0.54
		L74.48,1.6H75l0.18-0.25h1.2l0.18,0.25h0.51L76.01,0.13z M83.16,1.02v0.37h1.08l0.06-0.02h0.03l0.06-0.05l0.03-0.05l0.03-0.02v-0.1
		l-0.03-0.02L84.4,1.07l-0.06-0.05l-0.03-0.02h-1.14v0.02H83.16z M85.2,1.63V0.16h0.54v1.47H85.2z M82.63,0.13h0.54v0.61h1.35
		l0.12,0.05h0.03l0.12,0.05C84.88,0.97,85,1.02,85,1.19v0.1l-0.03,0.05v0.02l-0.09,0.07l-0.03,0.05l-0.12,0.1L84.67,1.6h-0.06
		l-0.06,0.02H84.5l-0.06,0.02h-1.81L82.63,0.13L82.63,0.13z M80.09,0.13h-0.51L78.55,1.6h0.51l0.78-1.13L80.6,1.6h0.54L80.09,0.13z
		 M87.25,0.13h0.54v0.61l1.17-0.61h0.6l-1.38,0.76l1.14,0.59h0.25L89.23,1.9h-0.27l0.12-0.27h-0.12l-1.17-0.61v0.61h-0.54V0.13
		L87.25,0.13z M107.99,29.26l0.42-0.61l0.45,0.61H107.99z M97.17,28.28c0.87,0,1.72,0,2.59,0v0.22h-1.03v1.23H98.2V28.5h-1.03V28.28
		L97.17,28.28z M80.94,29.26l0.42-0.61l0.45,0.61H80.94z M81.63,28.28h-0.55l-0.99,1.47h0.51l0.18-0.22h1.2l0.18,0.22h0.51
		L81.63,28.28z M83.8,28.28h-0.09l-0.06,0.02l-0.09,0.07l-0.06,0.1v0.29h0.51v-0.25h1.29v0.37h-0.64v0.25h0.64v0.39h-1.29v-0.25
		h-0.51c0.03,0.25-0.09,0.29,0.14,0.47l0.06,0.02h1.9l0.06-0.02c0.21-0.15,0.12-0.25,0.14-0.49c-0.06-0.12-0.14-0.22-0.3-0.2h0.06
		l0.09-0.02l0.03-0.02l0.06-0.02c0.14-0.25,0.06-0.05,0.09-0.44V28.5l-0.06-0.1l-0.03-0.02l-0.06-0.05l-0.06-0.02L83.8,28.28
		L83.8,28.28z M87.52,29.26l0.42-0.61l0.42,0.61H87.52z M88.18,28.28h-0.51l-1.03,1.47h0.51l0.18-0.22h1.2l0.18,0.22h0.54
		L88.18,28.28z M91.34,29.14l-0.69,0.61h-0.6l0.85-0.74l-0.85-0.74h0.6l0.69,0.59l0.69-0.59h0.6l-0.85,0.74l0.85,0.74h-0.6
		L91.34,29.14z M93.96,28.28H96l0.06,0.02l0.09,0.07l0.06,0.1v0.29h-0.5v-0.25h-1.53v1.01h1.53v-0.25h0.51
		c-0.03,0.25,0.09,0.29-0.14,0.47l-0.06,0.02h-2.16l-0.06-0.02l-0.09-0.07l-0.06-0.1v-1.1C93.71,28.36,93.77,28.26,93.96,28.28z
		 M101.16,29.26l0.45-0.61l0.42,0.61H101.16z M101.85,28.28h-0.51l-1.03,1.47h0.51l0.18-0.22h1.2l0.18,0.22h0.51L101.85,28.28z
		 M103.72,28.28h0.54v0.59h1.51v-0.59h0.54v1.47h-0.54v-0.61h-1.51v0.61h-0.54V28.28z M76.94,28.28h0.51v0.59l1.17-0.59h0.6
		l-1.38,0.74l1.38,0.74h-0.6l-1.17-0.61v0.61h-0.51V28.28z M108.68,28.28h-0.51l-1.03,1.47h0.54l0.18-0.22h1.2l0.18,0.22h0.51
		L108.68,28.28z M32,28.28h0.51v0.59h1.53v-0.59h0.51v1.47h-0.51v-0.61h-1.53v0.61H32V28.28z M36.27,29.26l0.42-0.61l0.42,0.61
		H36.27z M36.96,28.28h-0.51l-1.03,1.47h0.51l0.18-0.22h1.2l0.18,0.22h0.54L36.96,28.28z M42.32,28.28h2.04l0.06,0.02l0.03,0.05
		l0.06,0.02l0.06,0.1v1.1l-0.06,0.1l-0.06,0.02l-0.03,0.05l-0.06,0.02H42.2l-0.06-0.02l-0.03-0.05l-0.06-0.02l-0.03-0.05v-0.05
		l-0.03-0.05v-1.01l0.03-0.05v-0.05l0.03-0.05l0.06-0.02l0.03-0.05l0.06-0.02L42.32,28.28L42.32,28.28z M39.34,28.87V28.5h1.12
		l0.03,0.02l0.06,0.02l0.09,0.07v0.05l0.03,0.02l-0.03,0.05v0.05l-0.09,0.07l-0.06,0.02L39.34,28.87L39.34,28.87z M38.83,29.76h0.51
		v-0.61h1.42l0.03-0.02l0.12-0.05l0.03-0.02L41,29.02l0.03-0.05l0.03-0.02l0.03-0.05l0.01-0.02l0.03-0.05v-0.1l0.03-0.05l-0.03-0.02
		v-0.1l-0.06-0.1l-0.03-0.02l-0.03-0.05l-0.03-0.02l-0.06-0.02l-0.03-0.02l-0.12-0.05l-0.03-0.02h-1.92L38.83,29.76L38.83,29.76z
		 M46.1,29.51h1.38V28.5C46.34,28.46,45.95,28.55,46.1,29.51z M45.41,29.51h0.25c0.09-0.61-0.18-0.61,0.27-1.03l0.06-0.05l0.18-0.1
		l0.09-0.02l0.18-0.05h1.53v1.23h0.25v0.22h-2.8L45.41,29.51L45.41,29.51z M49.08,28.28h0.51v0.59h1.53v-0.59h0.51v1.47h-0.51v-0.61
		h-1.53v0.61h-0.51V28.28z M53.01,29.14v0.39h1.03l0.06-0.02h0.03l0.06-0.02l0.09-0.07v-0.05l0.03-0.05l-0.03-0.02v-0.05l-0.09-0.07
		l-0.06-0.02H54.1l-0.06-0.02L53.01,29.14L53.01,29.14z M55.05,29.76v-1.47h0.51v1.47H55.05z M52.47,28.28H53v0.59h1.2l0.09,0.02
		h0.12l0.03,0.02l0.06,0.02l0.06,0.02l0.03,0.02l0.06,0.02l0.03,0.02l0.03,0.05l0.03,0.02l0.06,0.1v0.1l0.03,0.02l-0.03,0.05v0.1
		l-0.03,0.05l-0.03,0.02l-0.03,0.05l-0.03,0.02l-0.03,0.05l-0.06,0.02l-0.06-0.02l-0.12,0.05l-0.03,0.02h-1.92L52.47,28.28
		L52.47,28.28z M57.22,28.28v-0.25h0.99v0.25H57.22z M58.97,28.28h-0.51l-1.53,1.08v-1.08h-0.51v1.47h0.51l1.53-1.08
		c0,0.37,0,0.71,0,1.08h0.51V28.28z M62.57,29.14v0.39h1.03l0.06-0.02h0.06l0.12-0.1l0.03-0.05v-0.07l-0.03-0.05l-0.12-0.1h-0.06
		l-0.06-0.02h-1.03V29.14z M62.06,28.28h2.04v0.22h-1.53v0.37h1.24l0.06,0.02h0.12l0.06,0.02c0.06,0.02,0.14,0.07,0.21,0.12
		c0.12,0.12,0.09,0.07,0.14,0.2c0,0.15,0,0.12-0.03,0.25l-0.06,0.02v0.05l-0.06,0.02l-0.03,0.05l-0.03,0.02l-0.06,0.02l-0.03,0.02
		l-0.06,0.02l-0.06,0.02h-1.92L62.06,28.28L62.06,28.28z M65.94,29.26l0.45-0.61l0.42,0.61H65.94z M66.67,28.28h-0.54l-0.99,1.47
		h0.51l0.18-0.22h1.2l0.18,0.22h0.51L66.67,28.28z M68.53,28.28h0.51v0.59h1.53v-0.59h0.54v1.47h-0.54v-0.61h-1.53v0.61h-0.51V28.28
		z M72.04,28.28h0.51v0.59l1.2-0.59h0.6l-1.38,0.74l1.38,0.74h-0.6l-1.2-0.61v0.61h-0.51V28.28z M47.87,0.13h0.51v0.61l1.17-0.61
		h0.6l-1.38,0.76l1.17,0.59h0.21L49.82,1.9h-0.27l0.12-0.27h-0.12l-1.17-0.61v0.61h-0.51L47.87,0.13L47.87,0.13z"/>
	<rect id="XMLID_86_" x="42.52" y="28.53" class="st3" width="1.53" height="1.01"/>
</g>
</svg>
