<?xml version="1.0" encoding="utf-8"?>
<!-- Generator: Adobe Illustrator 27.0.0, SVG Export Plug-In . SVG Version: 6.00 Build 0)  -->
<svg version="1.1" id="Слой_1" xmlns="http://www.w3.org/2000/svg" xmlns:xlink="http://www.w3.org/1999/xlink" x="0px" y="0px"
	 viewBox="0 0 110 30" style="enable-background:new 0 0 110 30;" xml:space="preserve">
<style type="text/css">
	.st0{fill:#396FB6;}
	.st1{fill:#343434;}
</style>
<g>
	<path class="st0" d="M9.19,8.81L5.45,21.08c-0.27,0.86-0.71,1.48-1.34,1.93C3.47,23.45,2.77,23.67,2,23.67s-1.34-0.22-1.69-0.66
		c-0.35-0.44-0.4-1.09-0.13-1.91l3.7-12.15c0.24-0.84,0.69-1.46,1.32-1.9C5.81,6.62,6.5,6.41,7.28,6.41S8.64,6.63,9,7.06
		C9.35,7.47,9.42,8.06,9.19,8.81z M7.91,4.43c-0.73,0-1.32-0.18-1.72-0.54C5.77,3.54,5.68,3.02,5.88,2.35
		c0.18-0.61,0.6-1.09,1.25-1.48c0.64-0.39,1.34-0.59,2.05-0.59c0.69,0,1.25,0.18,1.67,0.54c0.42,0.36,0.53,0.86,0.33,1.54
		c-0.2,0.66-0.62,1.16-1.25,1.54C9.28,4.25,8.62,4.43,7.91,4.43z"/>
	<path class="st0" d="M24.75,27.13l1.83-5.99c-1.27,0.82-2.51,1.45-3.76,1.88c-1.23,0.43-2.51,0.64-3.88,0.64
		c-1.65,0-3.03-0.34-4.16-1.04c-1.14-0.7-1.89-1.7-2.27-2.99c-0.38-1.31-0.29-2.82,0.24-4.6c0.55-1.81,1.41-3.34,2.58-4.65
		c1.16-1.29,2.54-2.27,4.12-2.95c1.58-0.68,3.21-1.02,4.88-1.02c1.43,0,2.64,0.23,3.61,0.72c0.99,0.47,1.72,1.2,2.23,2.15l0.16-0.52
		c0.24-0.77,0.64-1.38,1.25-1.77c0.58-0.41,1.25-0.61,1.98-0.61s1.27,0.2,1.63,0.59c0.33,0.39,0.4,1,0.16,1.78l-5.59,18.35
		c-0.58,1.88-1.69,2.82-3.37,2.82c-1.03,0-1.63-0.25-1.78-0.77C24.44,28.7,24.51,28,24.75,27.13z M18.08,15
		c-0.35,1.14-0.42,2.13-0.2,2.95c0.2,0.82,0.62,1.43,1.25,1.85c0.62,0.39,1.38,0.59,2.25,0.59c0.94,0,1.87-0.2,2.79-0.59
		s1.74-1,2.45-1.83c0.73-0.82,1.27-1.83,1.65-3.04c0.27-0.86,0.35-1.61,0.29-2.3c-0.07-0.68-0.27-1.26-0.62-1.7
		c-0.33-0.45-0.78-0.79-1.34-1.02c-0.55-0.22-1.18-0.34-1.87-0.34c-1.43,0-2.75,0.47-3.96,1.41C19.49,11.94,18.63,13.28,18.08,15z"
		/>
	<path class="st1" d="M46.73,8.8l-0.16,0.52c1.3-0.99,2.54-1.7,3.76-2.17c1.21-0.47,2.49-0.7,3.85-0.7c1.63,0,3.03,0.34,4.19,1.02
		c1.16,0.68,1.94,1.66,2.34,2.95c0.4,1.29,0.33,2.82-0.2,4.6c-0.4,1.31-1.01,2.5-1.78,3.6c-0.8,1.09-1.69,2-2.72,2.75
		c-1.03,0.74-2.14,1.31-3.37,1.72c-1.21,0.39-2.45,0.59-3.7,0.59c-1.52,0-2.7-0.25-3.59-0.74c-0.87-0.49-1.65-1.2-2.27-2.15
		l-1.94,6.38c-0.58,1.86-1.69,2.81-3.39,2.81c-1.01,0-1.58-0.23-1.76-0.72c-0.18-0.49-0.13-1.18,0.16-2.11l5.57-18.31
		c0.24-0.81,0.64-1.41,1.21-1.81c0.55-0.39,1.23-0.59,1.98-0.59c0.75,0,1.3,0.2,1.65,0.61C46.9,7.44,46.97,8.03,46.73,8.8z
		 M55.22,14.97c0.33-1.13,0.42-2.08,0.24-2.88c-0.18-0.81-0.58-1.41-1.21-1.85c-0.62-0.43-1.41-0.64-2.31-0.64
		c-1.47,0-2.83,0.47-4.12,1.38c-1.3,0.93-2.2,2.29-2.75,4.08c-0.51,1.68-0.42,3.01,0.29,3.93c0.71,0.93,1.8,1.41,3.28,1.41
		c0.87,0,1.76-0.2,2.64-0.61c0.87-0.41,1.67-1.02,2.36-1.85C54.34,17.11,54.87,16.13,55.22,14.97z"/>
	<path class="st1" d="M77.42,21.28c-1.52,0.81-2.95,1.39-4.25,1.78s-2.72,0.59-4.21,0.59c-1.36,0-2.47-0.22-3.39-0.64
		c-0.9-0.43-1.52-1.02-1.85-1.75c-0.33-0.74-0.35-1.54-0.11-2.4c0.35-1.16,1.12-2.15,2.27-2.97c1.16-0.82,2.58-1.38,4.27-1.65
		c0.35-0.05,1.23-0.2,2.64-0.41c1.41-0.22,2.61-0.41,3.61-0.59c1.01-0.18,2.09-0.39,3.3-0.66c0.27-1.13,0.24-1.95-0.09-2.47
		c-0.33-0.52-1.3-0.79-2.86-0.79c-1.34,0-2.4,0.15-3.17,0.45c-0.78,0.3-1.49,0.75-2.16,1.36c-0.66,0.61-1.14,1-1.38,1.2
		c-0.27,0.2-0.71,0.29-1.38,0.29c-0.6,0-1.07-0.16-1.41-0.47c-0.33-0.3-0.44-0.7-0.29-1.18c0.22-0.75,0.78-1.46,1.65-2.18
		c0.87-0.7,2.07-1.29,3.61-1.73c1.54-0.47,3.34-0.68,5.41-0.68c2.31,0,4.07,0.22,5.28,0.66c1.21,0.45,1.92,1.14,2.18,2.1
		c0.27,0.94,0.16,2.22-0.33,3.79c-0.31,1-0.55,1.85-0.78,2.54c-0.22,0.7-0.47,1.46-0.73,2.32c-0.24,0.81-0.33,1.63-0.27,2.5
		c0.07,0.86,0.07,1.43-0.02,1.66c-0.13,0.43-0.51,0.84-1.14,1.2c-0.62,0.36-1.25,0.54-1.89,0.54c-0.53,0-1.03-0.2-1.43-0.61
		C78.15,22.66,77.77,22.03,77.42,21.28z M78.94,15.12c-0.84,0.23-2.05,0.47-3.61,0.72c-1.56,0.25-2.64,0.45-3.23,0.55
		c-0.6,0.12-1.23,0.36-1.85,0.7c-0.62,0.34-1.03,0.84-1.23,1.45c-0.2,0.64-0.07,1.2,0.4,1.65c0.47,0.45,1.21,0.68,2.18,0.68
		c1.05,0,2.07-0.18,3.08-0.55c1.01-0.37,1.78-0.84,2.38-1.43c0.66-0.64,1.23-1.7,1.69-3.16L78.94,15.12z"/>
	<path class="st1" d="M92.28,24.17l0.78-0.94l-2.49-13.17c-0.18-0.75-0.2-1.31-0.09-1.65c0.11-0.36,0.33-0.7,0.64-1.02
		c0.33-0.3,0.71-0.55,1.18-0.75c0.47-0.2,0.92-0.29,1.36-0.29c0.75,0,1.27,0.2,1.54,0.59c0.27,0.39,0.44,0.94,0.51,1.66L97,19.05
		l7.22-9.66c0.58-0.79,1.07-1.41,1.47-1.85c0.4-0.45,0.78-0.75,1.14-0.89c0.35-0.16,0.8-0.23,1.36-0.23c0.4,0,0.75,0.09,1.07,0.25
		c0.31,0.18,0.53,0.39,0.64,0.7c0.11,0.29,0.11,0.59,0.02,0.91c-0.11,0.2-0.29,0.49-0.51,0.84c-0.22,0.36-0.49,0.74-0.75,1.11
		L97.34,24.73C96.35,26,95.47,27,94.68,27.73c-0.78,0.74-1.72,1.29-2.77,1.66c-1.05,0.37-2.38,0.57-3.96,0.57
		c-1.56,0-2.68-0.15-3.37-0.41c-0.69-0.27-0.94-0.77-0.71-1.48c0.15-0.49,0.44-0.86,0.9-1.13c0.44-0.27,1.03-0.39,1.76-0.39
		c0.29,0,0.55,0.03,0.8,0.09c0.31,0.05,0.6,0.09,0.84,0.09c0.6,0,1.12-0.07,1.49-0.22c0.4-0.15,0.78-0.39,1.16-0.75
		C91.24,25.43,91.72,24.89,92.28,24.17z"/>
</g>
</svg>
