<?xml version="1.0" encoding="utf-8"?>
<!-- Generator: Adobe Illustrator 27.0.0, SVG Export Plug-In . SVG Version: 6.00 Build 0)  -->
<svg version="1.1" id="Слой_1" xmlns="http://www.w3.org/2000/svg" xmlns:xlink="http://www.w3.org/1999/xlink" x="0px" y="0px"
	 viewBox="0 0 110 30" style="enable-background:new 0 0 110 30;" xml:space="preserve">
<style type="text/css">
	.st0{display:none;fill-rule:evenodd;clip-rule:evenodd;fill:#343284;}
	.st1{display:none;fill-rule:evenodd;clip-rule:evenodd;fill:#F3931B;}
	.st2{fill:#58358B;}
	.st3{fill:#FFFFFF;}
</style>
<g id="g18">
	<path id="path20" class="st0" d="M-31,115.97c12.85-0.65,25.07-1.64,37.73-2.2C3.09,87.02-9.83,72.85-48.89,72.85
		c-38.36,0-55.02,19.72-57.22,37.84c-2.48,20.39,12.87,33.45,37.41,40.58c21.19,6.21,38.95,10.52,39.51,20.93
		c0.6,11.19-12.19,17.48-18.53,17.48c-11.32,0-23.64-12.54-25.11-24.03c-12.32,0.98-25.11,1.03-37.43,2.01
		c0,31.22,25.38,47.76,59.02,47.76c31.37,0,62.19-13.19,62.19-46.94c0-40.97-44.32-40.95-73.34-51.04
		c-10.14-5.6-4.85-17.85,4.69-18.93C-38.42,96.17-35.11,107.13-31,115.97L-31,115.97z"/>
	<path id="path22" class="st0" d="M89.78,76.17c25.14,0,42.94,13.85,42.94,41.94c0,25.74-17.71,42.17-43.42,42.17
		c-11.66,0-20.45,0-32.11,0c0,16.43,0,32.86,0,49.28c0,3.39,0,3.39-2.99,3.39c-11.04,0-22.47,0-33.5,0c-4.19,0-4.19,0-4.19-3.15
		c0-42.01,0-85.76,0-127.77c0-5.85,0-5.85,5.89-5.85C45.65,76.17,66.52,76.17,89.78,76.17L89.78,76.17z M60.42,134.23
		c-2.37,0-3.23-0.97-3.23-2.45c0-8.83,0-17.65,0-26.48c0-1.94,1.58-3.03,3.03-3.03c4.69,0,9.38,0,14.08,0
		c12.12,1.79,16.55,8.35,16.55,16.91c0,12.25-10.92,15.05-20.4,15.05C67.11,134.23,63.76,134.23,60.42,134.23L60.42,134.23z"/>
	<path id="path24" class="st1" d="M141.87,79.95c0-1.72,1.23-3.03,2.59-3.03c35.6,0,71.19,0,106.79,0c2.36-0.11,2.61,0.86,2.61,1.78
		c0,8.13,0,16.27,0,24.4c0.11,1.13-0.82,1.65-1.65,1.65c-22.54,0-45.08,0-67.62,0c-1.41,0-1.88,1.45-1.88,3.03
		c0,5.49,0,10.98,0,16.48c0,1.78,1.27,3.4,3.4,3.4c19.94,0,39.89,0,59.83,0c0.46,0.46,0.91,0.91,1.37,1.37c0,7.63,0,15.25,0,22.88
		c-0.68,0.98-1.37,1.96-2.05,2.94c-20.1,0-40.19,0-60.29,0c-1.39,0-2.26,0.86-2.26,2.26c0,7.32,0,14.63,0,21.95
		c0,1.21,1.44,2.56,3.13,2.56c22.22,0,44.44,0,66.66,0c0.88,0,1.36,0.84,1.36,1.36c0,8.89,0,17.77,0,26.66
		c0,0.63-0.71,1.31-1.31,1.31c-36.53,0-73.06,0-109.59,0c-0.58,0-1.09-0.57-1.09-1.09C141.87,166.56,141.87,123.25,141.87,79.95
		L141.87,79.95z"/>
	<path id="path26" class="st0" d="M311.83,152.53v58.43H273.8c-0.58,0-1.09-0.57-1.09-1.09v-52.2c0-1.4,0.97-2.2,1.69-2.2
		c3.64,0,7.28,0,10.92,0c1.09,0,1.37,0.94,1.37,1.76c0,8.13,0,16.26,0,24.39c0,3.08,2.58,1.75,3.97,0
		C297.71,171.92,304.77,162.22,311.83,152.53L311.83,152.53z"/>
	<path id="path28" class="st0" d="M271.05,79.95c0-1.72,1.23-3.03,2.59-3.03c11.64,0,23.27,0,34.91,0c2.42,0,3.29,1.48,3.29,2.65
		v49.89l-21.37-29.91c-0.46-0.65-1.52-0.61-1.52,0.73c0,7.18,0,14.36,0,21.54c0,1.2-0.59,3.48-2.3,3.48h-0.22h0h-0.22h0h-0.21h-0.01
		h-0.21h-0.02h-0.2h-0.03h-0.19h-0.04h-0.18h-0.06h-0.16h-0.07h-0.15h-0.09h-0.13h-0.11h-0.11h-0.13h-0.09h-0.15h-0.06h-0.18h-0.04
		h-0.2h-0.01h-0.22h-0.01h-0.2h-0.04h-0.18h-0.07h-0.15h-0.1h-0.11h-0.14h-0.08h-0.17h-0.05h-0.2h-0.02h-0.22h-0.02h-0.2h-0.05
		h-0.16h-0.09h-0.13h-0.13h-0.09h-0.17h-0.05h-0.2h-0.01h-0.22h-0.02h-0.19h-0.06h-0.16h-0.1h-0.12h-0.14h-0.08h-0.18h-0.04h-0.22h0
		h-0.22h-0.04h-0.18h-0.08h-0.14h-0.12h-0.1h-0.15h-0.06h-0.19h-0.03h-0.22h-0.01h-0.21h-0.05h-0.17h-0.08h-0.13h-0.12h-0.1h-0.15
		h-0.06h-0.19h-0.03h-0.22h0h-0.21h-0.04h-0.18h-0.07h-0.15h-0.1h-0.12h-0.13h-0.09h-0.15h-0.06h-0.18h-0.04h-0.2h-0.01h-0.22h-0.01
		h-0.21h-0.03h-0.19h-0.05h-0.17h-0.07h-0.15c-0.76,0-1.66-1.71-1.66-2.69L271.05,79.95L271.05,79.95z"/>
</g>
<g id="g34" transform="translate(.0248 -6.071)">
	<circle id="ellipse30" class="st2" cx="15.61" cy="20.95" r="14.63"/>
	<path id="path32" class="st2" d="M74.99,29.31V24c0-1.31-0.49-1.96-1.72-1.96c-0.49,0-1.06,0.08-1.39,0.16v7.77
		c0,0.25-0.25,0.49-0.49,0.49h-1.88c-0.25,0-0.49-0.25-0.49-0.49v-9.07c0-0.33,0.25-0.57,0.49-0.65c1.23-0.41,2.45-0.65,3.76-0.65
		c2.94,0,4.58,1.55,4.58,4.41v6.05c0,0.25-0.25,0.49-0.49,0.49h-1.14C75.48,30.54,74.99,29.96,74.99,29.31z M82.34,26.12l-0.08,0.74
		c0,0.98,0.65,1.55,1.72,1.55c0.82,0,1.55-0.25,2.37-0.65c0.08,0,0.16-0.08,0.25-0.08c0.16,0,0.25,0.08,0.33,0.16
		c0.08,0.08,0.25,0.33,0.25,0.33c0.16,0.25,0.33,0.57,0.33,0.82c0,0.41-0.25,0.82-0.57,0.98c-0.9,0.49-1.96,0.74-3.11,0.74
		c-1.31,0-2.37-0.33-3.19-0.98c-0.82-0.74-1.31-1.72-1.31-2.94v-3.19c0-2.53,1.64-4.09,4.41-4.09c2.7,0,4.25,1.47,4.25,4.09v1.96
		c0,0.25-0.25,0.49-0.49,0.49h-5.15L82.34,26.12z M82.26,24.32h3.11v-0.82c0-0.98-0.57-1.64-1.55-1.64c-0.98,0-1.55,0.57-1.55,1.64
		V24.32z M103.11,26.12l-0.08,0.74c0,0.98,0.65,1.55,1.72,1.55c0.82,0,1.55-0.25,2.37-0.65c0.08,0,0.16-0.08,0.25-0.08
		c0.16,0,0.25,0.08,0.33,0.16c0.08,0.08,0.25,0.33,0.25,0.33c0.16,0.25,0.33,0.57,0.33,0.82c0,0.41-0.25,0.82-0.57,0.98
		c-0.9,0.49-1.96,0.74-3.11,0.74c-1.31,0-2.37-0.33-3.19-0.98c-0.82-0.74-1.31-1.72-1.31-2.94v-3.19c0-2.53,1.64-4.09,4.41-4.09
		c2.7,0,4.25,1.47,4.25,4.09v1.96c0,0.25-0.25,0.49-0.49,0.49h-5.15L103.11,26.12z M103.03,24.32h3.11v-0.82
		c0-0.98-0.57-1.64-1.55-1.64c-0.98,0-1.55,0.57-1.55,1.64V24.32z M54.96,30.54h1.14c0.25,0,0.49-0.25,0.49-0.49V24
		c0-2.78-1.47-4.41-3.92-4.41c-0.74,0-1.55,0.16-2.04,0.33v-3.02c0-0.65-0.57-1.23-1.23-1.23h-1.14c-0.25,0-0.49,0.25-0.49,0.49
		v13.9c0,0.25,0.25,0.49,0.49,0.49h1.88c0.25,0,0.49-0.25,0.49-0.49v-7.68c0.41-0.16,0.98-0.25,1.39-0.25
		c1.23,0,1.72,0.57,1.72,1.96v5.31C53.81,29.96,54.3,30.54,54.96,30.54z M67.3,23.67v3.02c0,2.53-1.72,4.09-4.58,4.09
		c-2.78,0-4.58-1.55-4.58-4.09v-3.02c0-2.53,1.72-4.09,4.58-4.09S67.3,21.13,67.3,23.67L67.3,23.67z M64.44,23.67
		c0-0.98-0.57-1.64-1.64-1.64c-1.06,0-1.64,0.57-1.64,1.64v3.02c0,0.98,0.57,1.55,1.64,1.55c1.06,0,1.64-0.57,1.64-1.55V23.67z
		 M46.21,22.28c0,2.62-1.96,4.41-4.58,4.41c-0.65,0-1.23-0.08-1.8-0.33v3.68c0,0.25-0.25,0.49-0.49,0.49h-1.88
		c-0.25,0-0.49-0.25-0.49-0.49v-13c0-0.33,0.25-0.57,0.49-0.65c1.23-0.41,2.45-0.65,3.76-0.65c2.94,0,4.99,1.8,4.99,4.58V22.28z
		 M43.27,20.15c0-1.31-0.9-1.96-2.13-1.96c-0.74,0-1.23,0.25-1.23,0.25v5.4c0.49,0.25,0.74,0.33,1.31,0.33
		c1.23,0,2.13-0.74,2.13-1.96v-2.04H43.27z M99.02,22.28c0,2.62-1.96,4.41-4.58,4.41c-0.65,0-1.23-0.08-1.8-0.33v3.68
		c0,0.25-0.25,0.49-0.49,0.49h-1.88c-0.25,0-0.49-0.25-0.49-0.49v-13c0-0.33,0.25-0.57,0.49-0.65c1.23-0.41,2.45-0.65,3.76-0.65
		c2.94,0,4.99,1.8,4.99,4.58V22.28z M96.08,20.15c0-1.31-0.9-1.96-2.13-1.96c-0.74,0-1.23,0.25-1.23,0.25v5.4
		c0.49,0.25,0.74,0.33,1.31,0.33c1.23,0,2.13-0.74,2.13-1.96v-2.04H96.08z"/>
</g>
<path id="path36" class="st3" d="M22.28,11.06c0-0.57-0.49-1.06-1.06-1.06h-1.96l-4.5-5.15c-0.41-0.49-1.06-0.65-1.72-0.49
	l-1.55,0.49c-0.25,0.08-0.33,0.41-0.16,0.57l4.91,4.66H8.79c-0.25,0-0.41,0.16-0.41,0.41v0.82c0,0.57,0.49,1.06,1.06,1.06h1.14v3.92
	c0,2.94,1.55,4.66,4.17,4.66c0.82,0,1.47-0.08,2.29-0.41v2.62c0,0.74,0.57,1.31,1.31,1.31h1.14c0.25,0,0.49-0.25,0.49-0.49V12.28
	h1.88c0.25,0,0.41-0.16,0.41-0.41V11.06z M17.05,18.09c-0.49,0.25-1.14,0.33-1.64,0.33c-1.31,0-1.96-0.65-1.96-2.13v-3.92h3.6V18.09
	z"/>
</svg>
