<?xml version="1.0" encoding="utf-8"?>
<!-- Generator: Adobe Illustrator 27.0.0, SVG Export Plug-In . SVG Version: 6.00 Build 0)  -->
<svg version="1.1" id="Слой_1" xmlns="http://www.w3.org/2000/svg" xmlns:xlink="http://www.w3.org/1999/xlink" x="0px" y="0px"
	 viewBox="0 0 110 30" style="enable-background:new 0 0 110 30;" xml:space="preserve">
<style type="text/css">
	.st0{fill-rule:evenodd;clip-rule:evenodd;fill:#343284;}
	.st1{fill-rule:evenodd;clip-rule:evenodd;fill:#F3931B;}
	.st2{display:none;fill-rule:evenodd;clip-rule:evenodd;fill:#343284;}
	.st3{display:none;fill-rule:evenodd;clip-rule:evenodd;fill:#F3931B;}
</style>
<g id="g6">
	<path id="path8" class="st0" d="M27.22,9.24c2.63-0.13,5.13-0.33,7.72-0.45c-0.74-5.47-3.39-8.37-11.38-8.37
		c-7.85,0-11.26,4.04-11.71,7.74c-0.51,4.17,2.63,6.84,7.65,8.3c4.34,1.27,7.97,2.15,8.08,4.28c0.12,2.29-2.49,3.58-3.79,3.58
		c-2.32,0-4.84-2.57-5.14-4.92c-2.52,0.2-5.14,0.21-7.66,0.41c0,6.39,5.19,9.77,12.08,9.77c6.42,0,12.73-2.7,12.73-9.6
		c0-8.38-9.07-8.38-15.01-10.45c-2.08-1.15-0.99-3.65,0.96-3.87C25.7,5.18,26.38,7.43,27.22,9.24L27.22,9.24z"/>
	<path id="path10" class="st0" d="M51.94,1.09c5.14,0,8.79,2.83,8.79,8.58c0,5.27-3.62,8.63-8.89,8.63c-2.39,0-4.18,0-6.57,0
		c0,3.36,0,6.72,0,10.09c0,0.69,0,0.69-0.61,0.69c-2.26,0-4.6,0-6.86,0c-0.86,0-0.86,0-0.86-0.64c0-8.6,0-17.55,0-26.15
		c0-1.2,0-1.2,1.2-1.2C42.91,1.09,47.17,1.09,51.94,1.09L51.94,1.09z M45.93,12.97c-0.49,0-0.66-0.2-0.66-0.5c0-1.81,0-3.61,0-5.42
		c0-0.4,0.32-0.62,0.62-0.62c0.96,0,1.92,0,2.88,0c2.48,0.37,3.39,1.71,3.39,3.46c0,2.51-2.23,3.08-4.17,3.08
		C47.3,12.97,46.61,12.97,45.93,12.97L45.93,12.97z"/>
	<path id="path12" class="st1" d="M62.59,1.87c0-0.35,0.25-0.62,0.53-0.62c7.28,0,14.57,0,21.85,0c0.48-0.02,0.53,0.18,0.53,0.36
		c0,1.66,0,3.33,0,4.99c0.02,0.23-0.17,0.34-0.34,0.34c-4.61,0-9.23,0-13.84,0c-0.29,0-0.38,0.3-0.38,0.62c0,1.12,0,2.25,0,3.37
		c0,0.36,0.26,0.7,0.7,0.7c4.08,0,8.16,0,12.24,0c0.09,0.09,0.19,0.19,0.28,0.28c0,1.56,0,3.12,0,4.68c-0.14,0.2-0.28,0.4-0.42,0.6
		c-4.11,0-8.23,0-12.34,0c-0.29,0-0.46,0.18-0.46,0.46c0,1.5,0,2.99,0,4.49c0,0.25,0.3,0.52,0.64,0.52c4.55,0,9.09,0,13.64,0
		c0.18,0,0.28,0.17,0.28,0.28c0,1.82,0,3.64,0,5.46c0,0.13-0.15,0.27-0.27,0.27c-7.48,0-14.95,0-22.43,0
		c-0.12,0-0.22-0.12-0.22-0.22C62.59,19.59,62.59,10.73,62.59,1.87L62.59,1.87z"/>
	<path id="path14" class="st0" d="M97.37,16.72v11.96h-7.78c-0.12,0-0.22-0.12-0.22-0.22V17.77c0-0.29,0.2-0.45,0.35-0.45
		c0.74,0,1.49,0,2.23,0c0.22,0,0.28,0.19,0.28,0.36c0,1.66,0,3.33,0,4.99c0,0.63,0.53,0.36,0.81,0
		C94.49,20.69,95.93,18.7,97.37,16.72L97.37,16.72z"/>
	<path id="path16" class="st1" d="M89.03,1.87c0-0.35,0.25-0.62,0.53-0.62c2.38,0,4.76,0,7.14,0c0.49,0,0.67,0.3,0.67,0.54V12
		L93,5.88c-0.09-0.13-0.31-0.12-0.31,0.15c0,1.47,0,2.94,0,4.41c0,0.25-0.12,0.71-0.47,0.71h-0.04h0h-0.04h0h-0.04h0h-0.04h0H92
		h-0.01h-0.04h-0.01h-0.04H91.9h-0.03h-0.01h-0.03H91.8h-0.03h-0.02h-0.02H91.7h-0.02h-0.03h-0.01H91.6H91.6h-0.04h0h-0.04h0h-0.04
		h-0.01h-0.04H91.4h-0.03h-0.02h-0.02H91.3h-0.02h-0.03h-0.01H91.2h0h-0.04h0h-0.04h-0.01h-0.03h-0.02h-0.03h-0.03h-0.02h-0.03
		h-0.01h-0.04h0h-0.04h0h-0.04h-0.01h-0.03h-0.02h-0.02h-0.03h-0.02h-0.04h-0.01h-0.04h0h-0.04h-0.01h-0.04h-0.02h-0.03h-0.02h-0.02
		h-0.03h-0.01h-0.04H90.3h-0.04h0h-0.04h-0.01h-0.03h-0.02h-0.03H90.1h-0.02h-0.03h-0.01H90h-0.01h-0.04h0H89.9H89.9h-0.04h-0.01
		h-0.03h-0.02h-0.02h-0.03h-0.02h-0.03h-0.01h-0.04h-0.01h-0.04h0h-0.04h0H89.5H89.5h-0.04h-0.01h-0.03H89.4h-0.03
		c-0.16,0-0.34-0.35-0.34-0.55L89.03,1.87L89.03,1.87z"/>
</g>
<g id="g18">
	<path id="path20" class="st2" d="M-31,115.97c12.85-0.65,25.07-1.64,37.73-2.2C3.09,87.02-9.83,72.85-48.89,72.85
		c-38.36,0-55.02,19.72-57.22,37.84c-2.48,20.39,12.87,33.45,37.41,40.58c21.19,6.21,38.95,10.52,39.51,20.93
		c0.6,11.19-12.19,17.48-18.53,17.48c-11.32,0-23.64-12.54-25.11-24.03c-12.32,0.98-25.11,1.03-37.43,2.01
		c0,31.22,25.38,47.76,59.02,47.76c31.37,0,62.19-13.19,62.19-46.94c0-40.97-44.32-40.95-73.34-51.04
		c-10.14-5.6-4.85-17.85,4.69-18.93C-38.42,96.17-35.11,107.13-31,115.97L-31,115.97z"/>
	<path id="path22" class="st2" d="M89.78,76.17c25.14,0,42.94,13.85,42.94,41.94c0,25.74-17.71,42.17-43.42,42.17
		c-11.66,0-20.45,0-32.11,0c0,16.43,0,32.86,0,49.28c0,3.39,0,3.39-2.99,3.39c-11.04,0-22.47,0-33.5,0c-4.19,0-4.19,0-4.19-3.15
		c0-42.01,0-85.76,0-127.77c0-5.85,0-5.85,5.89-5.85C45.65,76.17,66.52,76.17,89.78,76.17L89.78,76.17z M60.42,134.23
		c-2.37,0-3.23-0.97-3.23-2.45c0-8.83,0-17.65,0-26.48c0-1.94,1.58-3.03,3.03-3.03c4.69,0,9.38,0,14.08,0
		c12.12,1.79,16.55,8.35,16.55,16.91c0,12.25-10.92,15.05-20.4,15.05C67.11,134.23,63.76,134.23,60.42,134.23L60.42,134.23z"/>
	<path id="path24" class="st3" d="M141.87,79.95c0-1.72,1.23-3.03,2.59-3.03c35.6,0,71.19,0,106.79,0c2.36-0.11,2.61,0.86,2.61,1.78
		c0,8.13,0,16.27,0,24.4c0.11,1.13-0.82,1.65-1.65,1.65c-22.54,0-45.08,0-67.62,0c-1.41,0-1.88,1.45-1.88,3.03
		c0,5.49,0,10.98,0,16.48c0,1.78,1.27,3.4,3.4,3.4c19.94,0,39.89,0,59.83,0c0.46,0.46,0.91,0.91,1.37,1.37c0,7.63,0,15.25,0,22.88
		c-0.68,0.98-1.37,1.96-2.05,2.94c-20.1,0-40.19,0-60.29,0c-1.39,0-2.26,0.86-2.26,2.26c0,7.32,0,14.63,0,21.95
		c0,1.21,1.44,2.56,3.13,2.56c22.22,0,44.44,0,66.66,0c0.88,0,1.36,0.84,1.36,1.36c0,8.89,0,17.77,0,26.66
		c0,0.63-0.71,1.31-1.31,1.31c-36.53,0-73.06,0-109.59,0c-0.58,0-1.09-0.57-1.09-1.09C141.87,166.56,141.87,123.25,141.87,79.95
		L141.87,79.95z"/>
	<path id="path26" class="st2" d="M311.83,152.53v58.43H273.8c-0.58,0-1.09-0.57-1.09-1.09v-52.2c0-1.4,0.97-2.2,1.69-2.2
		c3.64,0,7.28,0,10.92,0c1.09,0,1.37,0.94,1.37,1.76c0,8.13,0,16.26,0,24.39c0,3.08,2.58,1.75,3.97,0
		C297.71,171.92,304.77,162.22,311.83,152.53L311.83,152.53z"/>
	<path id="path28" class="st2" d="M271.05,79.95c0-1.72,1.23-3.03,2.59-3.03c11.64,0,23.27,0,34.91,0c2.42,0,3.29,1.48,3.29,2.65
		v49.89l-21.37-29.91c-0.46-0.65-1.52-0.61-1.52,0.73c0,7.18,0,14.36,0,21.54c0,1.2-0.59,3.48-2.3,3.48h-0.22h0h-0.22h0h-0.21h-0.01
		h-0.21h-0.02h-0.2h-0.03h-0.19h-0.04h-0.18h-0.06h-0.16h-0.07h-0.15h-0.09h-0.13h-0.11h-0.11h-0.13h-0.09h-0.15h-0.06h-0.18h-0.04
		h-0.2h-0.01h-0.22h-0.01h-0.2h-0.04h-0.18h-0.07h-0.15h-0.1h-0.11h-0.14h-0.08h-0.17h-0.05h-0.2h-0.02h-0.22h-0.02h-0.2h-0.05
		h-0.16h-0.09h-0.13h-0.13h-0.09h-0.17h-0.05h-0.2h-0.01h-0.22h-0.02h-0.19h-0.06h-0.16h-0.1h-0.12h-0.14h-0.08h-0.18h-0.04h-0.22h0
		h-0.22h-0.04h-0.18h-0.08h-0.14h-0.12h-0.1h-0.15h-0.06h-0.19h-0.03h-0.22h-0.01h-0.21h-0.05h-0.17h-0.08h-0.13h-0.12h-0.1h-0.15
		h-0.06h-0.19h-0.03h-0.22h0h-0.21h-0.04h-0.18h-0.07h-0.15h-0.1h-0.12h-0.13h-0.09h-0.15h-0.06h-0.18h-0.04h-0.2h-0.01h-0.22h-0.01
		h-0.21h-0.03h-0.19h-0.05h-0.17h-0.07h-0.15c-0.76,0-1.66-1.71-1.66-2.69L271.05,79.95L271.05,79.95z"/>
</g>
</svg>
