<?xml version="1.0" encoding="utf-8"?>
<!-- Generator: Adobe Illustrator 27.0.0, SVG Export Plug-In . SVG Version: 6.00 Build 0)  -->
<svg version="1.1" id="Слой_1" xmlns="http://www.w3.org/2000/svg" xmlns:xlink="http://www.w3.org/1999/xlink" x="0px" y="0px"
	 viewBox="0 0 110 30" style="enable-background:new 0 0 110 30;" xml:space="preserve">
<style type="text/css">
	.st0{fill:#6A6B6B;}
	.st1{fill:#67696D;}
	.st2{fill:#28813B;}
	.st3{fill:#EA661D;}
</style>
<g id="g30" transform="translate(33.9766,61.0674)">
	<path id="path32" class="st0" d="M-29.38-36.77h0.79l-0.73,2.07c-0.11,0.31-0.09,0.54,0.06,0.69c0.15,0.15,0.43,0.23,0.83,0.23
		c0.4,0,0.73-0.08,0.99-0.23c0.26-0.15,0.44-0.39,0.55-0.69l0.73-2.07h0.8l-0.75,2.12c-0.16,0.46-0.45,0.81-0.87,1.03
		c-0.42,0.23-0.96,0.34-1.63,0.34c-0.67,0-1.14-0.11-1.39-0.34c-0.25-0.23-0.3-0.57-0.13-1.04L-29.38-36.77z"/>
</g>
<g id="g34" transform="translate(47.7734,43.3633)">
	<path id="path36" class="st0" d="M-39.26-15.66l1.25-3.54l2.38,2.08c0.06,0.06,0.13,0.12,0.19,0.19c0.06,0.07,0.13,0.14,0.19,0.23
		l0.83-2.36h0.74l-1.25,3.54l-2.43-2.12c-0.07-0.06-0.13-0.12-0.18-0.18c-0.06-0.06-0.11-0.13-0.16-0.2l-0.84,2.37H-39.26z"/>
</g>
<g id="g38" transform="translate(67.2119,43.3633)">
	<path id="path40" class="st0" d="M-53.18-15.66l1.2-3.41h0.8l-1.2,3.41H-53.18z"/>
</g>
<g id="g42" transform="translate(74.0488,43.3633)">
	<path id="path44" class="st0" d="M-58.07-15.66l1.2-3.41h2.73l-0.17,0.47h-1.94l-0.3,0.85h1.94l-0.17,0.49h-1.94l-0.57,1.6H-58.07z
		"/>
</g>
<g id="g46" transform="translate(86.7686,43.3633)">
	<path id="path48" class="st0" d="M-67.18-15.66l1.2-3.41h0.8l-1.2,3.41H-67.18z"/>
</g>
<g id="g50" transform="translate(93.6055,43.3633)">
	<path id="path52" class="st0" d="M-72.08-15.66l1.2-3.41h2.73l-0.17,0.47h-1.94l-0.3,0.85h1.94l-0.17,0.49h-1.94l-0.39,1.1h1.94
		l-0.17,0.5H-72.08z"/>
</g>
<g id="g54" transform="translate(109.8818,45.9639)">
	<path id="path56" class="st0" d="M-83.73-18.76h0.67c0.37,0,0.65-0.02,0.85-0.05c0.2-0.03,0.38-0.09,0.54-0.17
		c0.22-0.11,0.41-0.25,0.56-0.41c0.15-0.16,0.26-0.35,0.34-0.57c0.08-0.22,0.1-0.41,0.06-0.57c-0.03-0.16-0.13-0.3-0.27-0.41
		c-0.11-0.08-0.26-0.14-0.44-0.17c-0.18-0.03-0.48-0.05-0.89-0.05h-0.29h-0.29L-83.73-18.76z M-84.71-18.26l1.2-3.41h1.07
		c0.7,0,1.18,0.02,1.45,0.07c0.27,0.05,0.49,0.13,0.66,0.25c0.23,0.15,0.38,0.34,0.44,0.58c0.06,0.24,0.04,0.51-0.07,0.81
		s-0.27,0.57-0.5,0.8c-0.23,0.23-0.51,0.43-0.85,0.58c-0.25,0.11-0.53,0.2-0.82,0.25c-0.29,0.05-0.72,0.07-1.3,0.07h-0.21H-84.71z"
		/>
</g>
<g id="g58" transform="translate(136.8799,53.666)">
	<path id="path60" class="st0" d="M-103.06-27.95h0.2c0.44,0,0.75-0.03,0.92-0.1c0.17-0.07,0.29-0.18,0.35-0.35
		c0.06-0.18,0.03-0.31-0.1-0.38c-0.13-0.07-0.41-0.11-0.83-0.11h-0.2L-103.06-27.95z M-103.27-27.49l-0.54,1.53h-0.75l1.2-3.41h1.2
		c0.36,0,0.62,0.01,0.77,0.04c0.16,0.03,0.29,0.07,0.39,0.13c0.13,0.08,0.21,0.19,0.25,0.32c0.04,0.13,0.03,0.28-0.03,0.44
		c-0.06,0.16-0.15,0.31-0.29,0.45c-0.14,0.14-0.29,0.24-0.47,0.32c-0.15,0.06-0.31,0.11-0.49,0.13c-0.18,0.03-0.45,0.04-0.8,0.04
		h-0.16H-103.27z"/>
</g>
<g id="g62" transform="translate(148.4458,50.3164)">
	<path id="path64" class="st0" d="M-111.34-23.95h1.37l-0.23-0.78c-0.01-0.05-0.02-0.11-0.03-0.17c-0.01-0.06-0.01-0.14-0.02-0.22
		c-0.05,0.07-0.11,0.14-0.16,0.21c-0.05,0.06-0.1,0.12-0.15,0.18L-111.34-23.95z M-109.62-22.62l-0.25-0.88h-1.94l-0.88,0.88h-0.84
		l3.62-3.54l1.12,3.54H-109.62z"/>
</g>
<g id="g66" transform="translate(161.5161,43.3633)">
	<path id="path68" class="st0" d="M-120.7-15.66l0.55-1.56l-1-1.85h0.84l0.62,1.16c0.01,0.03,0.03,0.07,0.05,0.12
		c0.02,0.05,0.04,0.1,0.06,0.16c0.05-0.05,0.1-0.11,0.15-0.15c0.05-0.05,0.1-0.09,0.16-0.13l1.46-1.14h0.8l-2.34,1.85l-0.55,1.56
		H-120.7z"/>
</g>
<g id="g70" transform="translate(188.2803,52.1074)">
	<path id="path72" class="st0" d="M-139.87-26.09c0-0.03,0.01-0.1,0.03-0.22c0.02-0.1,0.03-0.18,0.04-0.25
		c-0.05,0.08-0.1,0.16-0.17,0.23c-0.06,0.08-0.14,0.16-0.22,0.24l-1.92,1.82l-0.63-1.85c-0.03-0.08-0.05-0.15-0.06-0.22
		c-0.01-0.07-0.02-0.14-0.03-0.21c-0.03,0.07-0.06,0.15-0.1,0.22c-0.04,0.08-0.09,0.16-0.15,0.25l-1.12,1.68h-0.73l2.41-3.55
		l0.69,2.15c0.01,0.03,0.02,0.09,0.04,0.17s0.04,0.18,0.06,0.29c0.08-0.1,0.2-0.22,0.35-0.37c0.04-0.04,0.07-0.07,0.09-0.09
		l2.17-2.15l-0.07,3.55h-0.74L-139.87-26.09z"/>
</g>
<g id="g74" transform="translate(192.9419,43.3633)">
	<path id="path76" class="st0" d="M-143.21-15.66l1.2-3.41h2.73l-0.17,0.47h-1.94l-0.3,0.85h1.94l-0.17,0.49h-1.94l-0.39,1.1h1.94
		l-0.18,0.5H-143.21z"/>
</g>
<g id="g78" transform="translate(205.791,43.3633)">
	<path id="path80" class="st0" d="M-152.41-15.66l1.25-3.54l2.38,2.08c0.06,0.06,0.13,0.12,0.19,0.19s0.13,0.14,0.19,0.23l0.83-2.36
		h0.74l-1.25,3.54l-2.43-2.12c-0.07-0.06-0.13-0.12-0.18-0.18c-0.06-0.06-0.11-0.13-0.16-0.2l-0.84,2.37H-152.41z"/>
</g>
<g id="g82" transform="translate(234.4102,58.625)">
	<path id="path84" class="st0" d="M-172.9-33.86l-1.04,2.94h-0.8l1.04-2.94h-1.3l0.17-0.47h3.39l-0.17,0.47H-172.9z"/>
</g>
<g id="g86" transform="translate(237.3213,46.9072)">
	<path id="path88" class="st0" d="M-174.98-19.89l0.71-0.2c0.01,0.15,0.08,0.27,0.21,0.35c0.13,0.08,0.32,0.12,0.57,0.12
		c0.24,0,0.44-0.05,0.61-0.14c0.17-0.09,0.29-0.21,0.34-0.37c0.07-0.2-0.11-0.38-0.53-0.54c-0.06-0.02-0.1-0.04-0.14-0.05
		c-0.48-0.18-0.78-0.35-0.9-0.5c-0.13-0.15-0.15-0.33-0.08-0.54c0.1-0.28,0.31-0.5,0.65-0.67s0.72-0.26,1.16-0.26
		c0.36,0,0.65,0.05,0.86,0.15c0.21,0.1,0.33,0.24,0.36,0.42l-0.7,0.22c-0.06-0.11-0.14-0.19-0.24-0.24
		c-0.1-0.05-0.23-0.07-0.38-0.07c-0.21,0-0.4,0.04-0.55,0.12c-0.15,0.08-0.25,0.18-0.3,0.31c-0.07,0.2,0.14,0.4,0.63,0.57
		c0.04,0.01,0.07,0.03,0.09,0.03c0.43,0.15,0.71,0.31,0.84,0.45c0.13,0.15,0.15,0.33,0.07,0.55c-0.11,0.32-0.35,0.58-0.71,0.77
		c-0.36,0.19-0.79,0.28-1.29,0.28c-0.42,0-0.74-0.07-0.96-0.2C-174.88-19.45-174.99-19.64-174.98-19.89"/>
</g>
<g id="g90" transform="translate(258.0459,43.3633)">
	<path id="path92" class="st0" d="M-189.82-15.66l1.2-3.41h0.8l-1.2,3.41H-189.82z"/>
</g>
<g id="g94" transform="translate(264.8828,43.3633)">
	<path id="path96" class="st0" d="M-194.72-15.66l1.25-3.54l2.38,2.08c0.06,0.06,0.13,0.12,0.19,0.19s0.13,0.14,0.19,0.23l0.83-2.36
		h0.74l-1.25,3.54l-2.43-2.12c-0.07-0.06-0.13-0.12-0.18-0.18c-0.06-0.06-0.11-0.13-0.16-0.2l-0.84,2.37H-194.72z"/>
</g>
<g id="g98" transform="translate(293.502,58.625)">
	<path id="path100" class="st0" d="M-215.21-33.86l-1.04,2.94h-0.8l1.04-2.94h-1.3l0.17-0.47h3.39l-0.17,0.47H-215.21z"/>
</g>
<g id="g102" transform="translate(296.5557,43.3633)">
	<path id="path104" class="st0" d="M-217.4-15.66l1.2-3.41h2.73l-0.17,0.47h-1.94l-0.3,0.85h1.94l-0.17,0.49h-1.94l-0.39,1.1h1.94
		l-0.18,0.5H-217.4z"/>
</g>
<g id="g106" transform="translate(314.6416,53.5225)">
	<path id="path108" class="st0" d="M-230.35-27.78h0.14c0.42,0,0.71-0.03,0.88-0.1s0.27-0.19,0.34-0.36
		c0.07-0.19,0.04-0.32-0.08-0.4c-0.12-0.08-0.38-0.12-0.78-0.12H-230L-230.35-27.78z M-230.55-27.35l-0.54,1.52h-0.75l1.2-3.41h1.11
		c0.33,0,0.57,0.01,0.74,0.04c0.17,0.03,0.31,0.08,0.41,0.15c0.12,0.08,0.2,0.19,0.24,0.32c0.04,0.13,0.03,0.27-0.03,0.43
		c-0.1,0.27-0.27,0.49-0.51,0.64c-0.24,0.15-0.56,0.25-0.94,0.28l1.14,1.55h-0.9l-1.09-1.52H-230.55z"/>
</g>
<g id="g110" transform="translate(322.9258,43.3633)">
	<path id="path112" class="st0" d="M-236.28-15.66l1.2-3.41h2.73l-0.17,0.47h-1.94l-0.3,0.85h1.94l-0.17,0.49h-1.94l-0.57,1.6
		H-236.28z"/>
</g>
<g id="g114" transform="translate(340.0449,50.3164)">
	<path id="path116" class="st0" d="M-248.54-23.95h1.37l-0.23-0.78c-0.01-0.05-0.02-0.11-0.03-0.17c-0.01-0.06-0.01-0.14-0.02-0.22
		c-0.05,0.07-0.11,0.14-0.16,0.21c-0.05,0.06-0.1,0.12-0.16,0.18L-248.54-23.95z M-246.81-22.62l-0.25-0.88h-1.94l-0.88,0.88h-0.84
		l3.62-3.54l1.12,3.54H-246.81z"/>
</g>
<g id="g118" transform="translate(367.3555,56.7627)">
	<path id="path120" class="st0" d="M-268.09-31.64c-0.18-0.13-0.38-0.23-0.61-0.3c-0.23-0.07-0.48-0.1-0.76-0.1
		c-0.54,0-1.01,0.12-1.43,0.36c-0.42,0.24-0.7,0.55-0.83,0.93c-0.13,0.37-0.07,0.67,0.17,0.91c0.24,0.24,0.61,0.36,1.11,0.36
		c0.29,0,0.58-0.04,0.87-0.11c0.29-0.07,0.58-0.18,0.87-0.32l-0.22,0.63c-0.25,0.11-0.51,0.19-0.78,0.24
		c-0.27,0.05-0.55,0.08-0.85,0.08c-0.37,0-0.71-0.04-0.99-0.13c-0.29-0.09-0.52-0.21-0.71-0.38c-0.18-0.16-0.3-0.35-0.35-0.58
		c-0.05-0.22-0.03-0.46,0.06-0.71c0.09-0.25,0.24-0.48,0.44-0.7c0.21-0.22,0.46-0.41,0.76-0.58c0.3-0.17,0.63-0.29,0.97-0.38
		c0.35-0.09,0.7-0.13,1.07-0.13c0.29,0,0.55,0.03,0.79,0.09c0.24,0.06,0.46,0.15,0.67,0.26L-268.09-31.64z"/>
</g>
<g id="g122" transform="translate(367.627,43.3633)">
	<path id="path124" class="st0" d="M-268.29-15.66l1.2-3.41h2.73l-0.17,0.47h-1.94l-0.3,0.85h1.94l-0.17,0.49h-1.94l-0.39,1.1h1.94
		l-0.18,0.5H-268.29z"/>
</g>
<g id="g126" transform="translate(316.4629,76.4951)">
	<path id="path128" class="st1" d="M-231.65-55.17h-5.48l7.62-18.64h5.48L-231.65-55.17z"/>
</g>
<g id="g130" transform="translate(306.4521,170.2881)">
	<path id="path132" class="st1" d="M-224.48-167.01c-0.38-0.35-0.97-0.53-1.76-0.53h-30.11l-1.49,3.65h5.48v0h21.91l-1.59,3.9
		h-21.91l0-0.01h-5.48l-4.55,11.12h5.48l3.05-7.46h24.63c0.77,0,1.49-0.18,2.17-0.53c0.68-0.36,1.13-0.79,1.34-1.32l3.05-7.47
		C-224.03-166.21-224.11-166.66-224.48-167.01"/>
</g>
<g id="g134" transform="translate(156.1196,82.541)">
	<path id="path136" class="st1" d="M-116.84-62.38c-0.3,0.74-1.29,1.25-2.42,1.25h-28.25c-0.77,0-1.34-0.18-1.72-0.53
		c-0.38-0.36-0.46-0.8-0.24-1.32l6.89-16.82h5.48l-6.16,15.02h21.92l6.16-15.02h5.48L-116.84-62.38z"/>
</g>
<g id="g138" transform="translate(376.5859,173.1689)">
	<path id="path140" class="st2" d="M-274.7-170.45l6.93,9.34l-14.57,9.34L-274.7-170.45z"/>
</g>
<g id="g142" transform="translate(359.4717,173.1689)">
	<path id="path144" class="st3" d="M-262.45-170.45l6.93,9.34l-14.58,9.34L-262.45-170.45z"/>
</g>
</svg>
