<svg width="2929" height="533" viewBox="0 0 2929 533" fill="none" xmlns="http://www.w3.org/2000/svg">
<path fill-rule="evenodd" clip-rule="evenodd" d="M325.693 216.143H216.293V316.857H325.693V216.143ZM216.045 316.857L113.013 257.448C104.961 252.805 100 244.218 100 234.924L100 176.654C100 134.319 134.364 100 176.753 100L434 100L325.855 216.093L428.986 275.552C437.038 280.195 442 288.782 442 298.077V356.346C442 398.681 407.632 433 365.238 433H108L215.002 316.857H216.045Z" fill="#F43E3A"/>
<path fill-rule="evenodd" clip-rule="evenodd" d="M325.693 216.143H216.293V316.857H325.693V216.143ZM216.045 316.857L113.013 257.448C104.961 252.805 100 244.218 100 234.924L100 176.654C100 134.319 134.364 100 176.753 100L434 100L325.855 216.093L428.986 275.552C437.038 280.195 442 288.782 442 298.077V356.346C442 398.681 407.632 433 365.238 433H108L215.002 316.857H216.045Z" fill="url(#paint0_linear_1523_1747)"/>
<path d="M714.445 384.816C704.572 384.816 694.492 383.985 684.203 382.322C674.019 380.763 664.354 378.425 655.209 375.307V347.56C661.652 349.742 668.303 351.561 675.162 353.016C682.021 354.471 688.776 355.562 695.427 356.289C702.078 357.017 708.469 357.381 714.601 357.381C732.579 357.381 745.726 354.159 754.039 347.716C762.353 341.273 766.51 331.971 766.51 319.812C766.51 309.42 763.392 301.47 757.157 295.962C750.922 290.35 740.062 285.57 724.577 281.621L710.548 278.036C690.802 272.943 675.941 265.253 665.965 254.965C655.988 244.572 651 230.907 651 213.967C651 193.494 658.223 177.438 672.668 165.799C687.113 154.056 708.677 148.184 737.36 148.184C746.817 148.184 756.014 148.808 764.951 150.055C773.889 151.198 781.943 152.861 789.113 155.043V182.79C781.423 180.4 773.265 178.633 764.64 177.49C756.118 176.243 747.492 175.62 738.763 175.62C725.876 175.62 715.432 177.075 707.43 179.984C699.428 182.894 693.556 187.103 689.815 192.611C686.074 198.119 684.203 204.666 684.203 212.252C684.203 222.125 687.009 229.815 692.621 235.323C698.337 240.831 708.365 245.508 722.707 249.353L736.736 252.938C751.182 256.575 763.029 261.304 772.278 267.124C781.631 272.839 788.542 279.854 793.01 288.168C797.479 296.482 799.713 306.303 799.713 317.63C799.713 331.764 796.336 343.871 789.581 353.951C782.93 363.928 773.213 371.566 760.431 376.866C747.752 382.166 732.423 384.816 714.445 384.816ZM905.539 381.854V222.697H841.783V196.352H1002.34V222.697H938.431V381.854H905.539ZM1129.46 384.193C1111.9 384.193 1096.57 380.815 1083.48 374.06C1070.38 367.305 1060.2 356.913 1052.92 342.883C1045.65 328.854 1042.01 310.979 1042.01 289.259C1042.01 267.435 1045.65 249.509 1052.92 235.479C1060.2 221.346 1070.38 210.901 1083.48 204.146C1096.67 197.391 1112 194.014 1129.46 194.014C1147.13 194.014 1162.51 197.391 1175.6 204.146C1188.8 210.901 1198.99 221.346 1206.16 235.479C1213.43 249.509 1217.07 267.435 1217.07 289.259C1217.07 310.979 1213.43 328.854 1206.16 342.883C1198.88 356.913 1188.65 367.305 1175.45 374.06C1162.35 380.815 1147.02 384.193 1129.46 384.193ZM1129.46 358.316C1140.58 358.316 1150.19 356.081 1158.3 351.613C1166.41 347.04 1172.64 339.766 1177.01 329.789C1181.37 319.709 1183.55 306.406 1183.55 289.883C1183.55 272.839 1181.32 259.174 1176.85 248.885C1172.49 238.597 1166.25 231.218 1158.14 226.75C1150.04 222.177 1140.48 219.891 1129.46 219.891C1118.55 219.891 1109.04 222.125 1100.94 226.594C1092.93 231.062 1086.75 238.337 1082.38 248.418C1078.02 258.498 1075.84 271.8 1075.84 288.324C1075.84 305.471 1077.97 319.189 1082.23 329.477C1086.59 339.662 1092.78 347.04 1100.78 351.613C1108.89 356.081 1118.45 358.316 1129.46 358.316ZM1376.97 384.193C1356.91 384.193 1339.72 381.023 1325.37 374.684C1311.03 368.344 1299.96 358.212 1292.17 344.286C1284.48 330.361 1280.64 312.07 1280.64 289.415C1280.64 267.799 1284.48 249.924 1292.17 235.791C1299.96 221.657 1311.19 211.161 1325.84 204.302C1340.6 197.443 1358.37 194.014 1379.15 194.014C1386.53 194.014 1393.76 194.43 1400.82 195.261C1407.99 195.989 1414.85 197.184 1421.4 198.846V225.503C1414.85 223.84 1408.25 222.645 1401.6 221.917C1395.05 221.086 1388.3 220.67 1381.34 220.67C1366.79 220.67 1354.58 222.956 1344.7 227.529C1334.93 231.998 1327.56 239.272 1322.57 249.353C1317.68 259.329 1315.24 272.58 1315.24 289.103C1315.24 306.147 1317.68 319.657 1322.57 329.633C1327.56 339.61 1334.83 346.78 1344.39 351.145C1354.06 355.406 1365.85 357.536 1379.78 357.536C1386.84 357.536 1393.76 357.017 1400.51 355.978C1407.27 354.938 1414.23 353.328 1421.4 351.145V377.801C1415.06 379.776 1408.04 381.335 1400.35 382.478C1392.77 383.621 1384.97 384.193 1376.97 384.193ZM1608.33 381.854L1535.53 287.233L1603.81 196.352H1639.04L1568.11 290.818L1568.58 282.244L1644.65 381.854H1608.33ZM1488.92 381.854V196.352H1521.81V381.854H1488.92ZM1516.82 300.795V273.047H1549.25V300.795H1516.82ZM1740.85 384.193C1732.12 384.193 1723.24 383.517 1714.2 382.166C1705.15 380.919 1696.79 379.152 1689.1 376.866V350.522C1694.92 352.288 1700.84 353.743 1706.87 354.886C1712.9 356.03 1718.77 356.913 1724.48 357.536C1730.3 358.16 1735.76 358.472 1740.85 358.472C1751.04 358.472 1759.3 357.381 1765.64 355.198C1771.98 353.016 1776.55 349.898 1779.35 345.845C1782.26 341.792 1783.72 336.856 1783.72 331.036C1783.72 326.152 1782.73 321.995 1780.76 318.565C1778.78 315.136 1775.3 312.174 1770.31 309.68C1765.43 307.186 1758.57 304.9 1749.74 302.821L1738.67 300.483C1719.96 296.43 1706.35 290.194 1697.83 281.777C1689.31 273.359 1685.04 262.187 1685.04 248.262C1685.04 237.558 1687.75 228.153 1693.15 220.047C1698.66 211.837 1707.13 205.446 1718.56 200.873C1729.99 196.3 1744.59 194.014 1762.36 194.014C1770.05 194.014 1777.74 194.482 1785.43 195.417C1793.12 196.248 1800.09 197.495 1806.32 199.158V225.347C1799.36 223.476 1792.24 222.073 1784.97 221.138C1777.69 220.203 1770.37 219.735 1762.99 219.735C1751.76 219.735 1742.83 220.826 1736.17 223.008C1729.52 225.191 1724.69 228.309 1721.68 232.361C1718.77 236.311 1717.31 241.039 1717.31 246.547C1717.31 253.925 1719.55 259.693 1724.02 263.85C1728.48 267.903 1737.06 271.436 1749.74 274.45L1760.8 276.788C1773.79 279.594 1784.29 283.284 1792.29 287.856C1800.4 292.429 1806.32 298.093 1810.06 304.848C1813.91 311.603 1815.83 319.709 1815.83 329.166C1815.83 340.285 1813.03 349.95 1807.41 358.16C1801.8 366.37 1793.44 372.761 1782.32 377.334C1771.2 381.906 1757.38 384.193 1740.85 384.193ZM1999.58 381.854V151.146H2147.36V178.737H2032.63V381.854H1999.58ZM2021.72 280.374V252.782H2131.93V280.374H2021.72ZM2208.07 381.854V196.352H2240.96V381.854H2208.07ZM2326.74 381.854V196.352H2359.47L2462.67 343.039H2456.74V196.352H2487.45V381.854H2454.56L2351.52 235.167H2357.29V381.854H2326.74ZM2573.28 381.854V196.352H2703.75V221.294H2605.55V356.913H2705V381.854H2573.28ZM2593.23 299.548V274.606H2690.5V299.548H2593.23ZM2891.23 381.854L2838.23 309.056L2818.9 286.453L2752.03 196.352H2789.13L2838.7 263.227L2857.72 285.986L2928.18 381.854H2891.23ZM2748.44 381.854L2818.9 286.453L2838.7 263.227L2887.96 196.352H2923.81L2857.72 285.986L2838.23 309.056L2785.23 381.854H2748.44Z" fill="#101011"/>
<defs>
<linearGradient id="paint0_linear_1523_1747" x1="100" y1="293.365" x2="442" y2="293.365" gradientUnits="userSpaceOnUse">
<stop stop-color="#F77951"/>
<stop offset="1" stop-color="#F2403B"/>
</linearGradient>
</defs>
</svg>
