<svg width="205" height="242" viewBox="0 0 205 242" fill="none" xmlns="http://www.w3.org/2000/svg">
    <path d="M102.5 0L205 157C205 157 168.035 119.572 102.5 119.572C36.9653 119.572 1.12393 155.278 0 157L102.5 0Z" fill="white"/>
    <path d="M24.5178 176.9L20.1178 187.55H29.8678L25.6678 176.9H24.5178ZM19.8178 170.35H30.5178L42.2678 198H34.4678L32.7178 193.95H17.4178L15.7178 198H7.81777L19.8178 170.35ZM43.624 180.7H59.374V187.15H43.624V180.7ZM63.7006 170.35H81.6506C84.1839 170.35 86.2506 171.05 87.8506 172.45C89.4839 173.85 90.3006 175.7 90.3006 178C90.3006 180 89.6506 181.45 88.3506 182.35C90.8839 183.817 92.1506 186.133 92.1506 189.3C92.1506 191.733 91.2673 193.8 89.5006 195.5C87.7673 197.167 85.6339 198 83.1006 198H63.7006V170.35ZM71.0506 176.95V180.65H81.6006C81.9673 180.65 82.3006 180.467 82.6006 180.1C82.9339 179.7 83.1006 179.267 83.1006 178.8C83.1006 178.367 82.9506 177.95 82.6506 177.55C82.3839 177.15 81.9506 176.95 81.3506 176.95H71.0506ZM71.0506 187.05V191.35H82.9006C83.5006 191.35 83.9839 191.167 84.3506 190.8C84.7506 190.4 84.9506 189.883 84.9506 189.25C84.9506 188.617 84.7339 188.1 84.3006 187.7C83.8673 187.267 83.3339 187.05 82.7006 187.05H71.0506ZM105.572 178.25C104.039 179.75 103.272 181.733 103.272 184.2C103.272 186.667 104.039 188.667 105.572 190.2C107.139 191.7 109.106 192.45 111.472 192.45C113.806 192.45 115.739 191.7 117.272 190.2C118.839 188.667 119.622 186.667 119.622 184.2C119.622 181.733 118.839 179.75 117.272 178.25C115.739 176.717 113.806 175.95 111.472 175.95C109.106 175.95 107.139 176.717 105.572 178.25ZM122.422 173.8C125.489 176.533 127.022 180 127.022 184.2C127.022 188.4 125.489 191.867 122.422 194.6C119.356 197.333 115.706 198.7 111.472 198.7C107.239 198.7 103.589 197.333 100.522 194.6C97.4558 191.867 95.9225 188.4 95.9225 184.2C95.9225 180 97.4558 176.533 100.522 173.8C103.589 171.067 107.239 169.7 111.472 169.7C115.706 169.7 119.356 171.067 122.422 173.8ZM140.924 178.25C139.391 179.75 138.624 181.733 138.624 184.2C138.624 186.667 139.391 188.667 140.924 190.2C142.491 191.7 144.457 192.45 146.824 192.45C149.157 192.45 151.091 191.7 152.624 190.2C154.191 188.667 154.974 186.667 154.974 184.2C154.974 181.733 154.191 179.75 152.624 178.25C151.091 176.717 149.157 175.95 146.824 175.95C144.457 175.95 142.491 176.717 140.924 178.25ZM157.774 173.8C160.841 176.533 162.374 180 162.374 184.2C162.374 188.4 160.841 191.867 157.774 194.6C154.707 197.333 151.057 198.7 146.824 198.7C142.591 198.7 138.941 197.333 135.874 194.6C132.807 191.867 131.274 188.4 131.274 184.2C131.274 180 132.807 176.533 135.874 173.8C138.941 171.067 142.591 169.7 146.824 169.7C151.057 169.7 154.707 171.067 157.774 173.8ZM166.826 170.35H174.126V180.1H180.626L187.276 170.35H195.776L186.876 183.15L196.376 198H187.626L180.826 186.85H174.126V198H166.826V170.35ZM45.6582 215.41H56.1582C57.6382 215.41 58.8382 215.79 59.7582 216.55C60.6982 217.31 61.1682 218.31 61.1682 219.55C61.1682 220.99 60.6582 222.07 59.6382 222.79C60.4982 223.13 61.1682 223.67 61.6482 224.41C62.1282 225.13 62.3682 225.98 62.3682 226.96C62.3682 228.38 61.8582 229.58 60.8382 230.56C59.8182 231.52 58.4782 232 56.8182 232H45.6582V215.41ZM47.9982 217.57V222.22H56.5182C57.2582 222.22 57.8282 222 58.2282 221.56C58.6482 221.12 58.8582 220.58 58.8582 219.94C58.8582 218.36 57.8882 217.57 55.9482 217.57H47.9982ZM47.9982 224.32V229.84H56.6982C57.7782 229.84 58.5982 229.57 59.1582 229.03C59.7382 228.49 60.0282 227.81 60.0282 226.99C60.0282 226.17 59.7682 225.52 59.2482 225.04C58.7282 224.56 58.0382 224.32 57.1782 224.32H47.9982ZM65.1114 215.41H74.7714C76.6714 215.41 78.2614 216 79.5414 217.18C80.8214 218.34 81.4614 219.85 81.4614 221.71C81.4614 223.05 81.1314 224.21 80.4714 225.19C79.8114 226.15 78.9214 226.87 77.8014 227.35L80.4414 232H77.8614L75.6114 227.98H67.4514V232H65.1114V215.41ZM67.4514 217.57V225.82H74.7414C76.0614 225.82 77.1214 225.46 77.9214 224.74C78.7214 224 79.1214 222.99 79.1214 221.71C79.1214 220.45 78.7114 219.45 77.8914 218.71C77.0914 217.95 76.0414 217.57 74.7414 217.57H67.4514ZM86.1315 223.72C86.1515 225.76 86.8015 227.37 88.0815 228.55C89.3815 229.73 91.0315 230.32 93.0315 230.32C95.0115 230.32 96.6515 229.73 97.9515 228.55C99.2515 227.35 99.9015 225.74 99.9015 223.72C99.9015 221.7 99.2515 220.1 97.9515 218.92C96.6515 217.72 95.0115 217.12 93.0315 217.12C91.0315 217.12 89.3815 217.71 88.0815 218.89C86.8015 220.07 86.1515 221.68 86.1315 223.72ZM99.6315 217.45C101.392 219.05 102.272 221.14 102.272 223.72C102.272 226.3 101.392 228.4 99.6315 230.02C97.8915 231.62 95.6915 232.42 93.0315 232.42C90.3715 232.42 88.1615 231.62 86.4015 230.02C84.6615 228.4 83.7915 226.3 83.7915 223.72C83.7915 221.14 84.6615 219.05 86.4015 217.45C88.1615 215.83 90.3715 215.02 93.0315 215.02C95.6915 215.02 97.8915 215.83 99.6315 217.45ZM105.189 215.41H107.529V222.1H114.219L118.839 215.41H121.569L116.319 223.06L122.019 232H119.229L114.309 224.26H107.529V232H105.189V215.41ZM124.35 215.41H138.99V217.54H126.69V222.43H137.73V224.56H126.69V229.84H139.44V232H124.35V215.41ZM142.602 215.41H152.262C154.162 215.41 155.752 216 157.032 217.18C158.312 218.34 158.952 219.85 158.952 221.71C158.952 223.05 158.622 224.21 157.962 225.19C157.302 226.15 156.412 226.87 155.292 227.35L157.932 232H155.352L153.102 227.98H144.942V232H142.602V215.41ZM144.942 217.57V225.82H152.232C153.552 225.82 154.612 225.46 155.412 224.74C156.212 224 156.612 222.99 156.612 221.71C156.612 220.45 156.202 219.45 155.382 218.71C154.582 217.95 153.532 217.57 152.232 217.57H144.942Z" fill="white"/>
</svg>
