<svg width="21px" height="21px" viewBox="0 0 21 21" version="1.1" xmlns="http://www.w3.org/2000/svg" xmlns:xlink="http://www.w3.org/1999/xlink">
    <g stroke="none" stroke-width="1" fill="none" fill-rule="evenodd">
        <path d="M3.2390887,2.91517982 C1.24298609,4.82655836 0,7.51812161 0,10.5 C0,13.4818784 1.24298609,16.1734417 3.2390887,18.0848201 L11.6666667,10.5 L3.2390887,2.91517982 L3.2390887,2.91517982 L3.2390887,2.91517982 L3.2390887,2.91517982 L3.2390887,2.91517982 Z" fill="#227FBB"></path>
        <path d="M20.9993591,10.5 C20.9993591,16.2989902 16.2984943,21 10.4996831,21 C7.68281461,21 5.12502756,19.8907067 3.2393098,18.0851208 L11.6669617,10.5 L20.9993591,10.5 L20.9993591,10.5 L20.9993591,10.5 L20.9993591,10.5 L20.9993591,10.5 Z" fill="#E94B35"></path>
        <path d="M20.999352,10.5 C20.999352,4.70100985 16.2984872,0 10.499676,0 C7.6828075,0 5.12502045,1.10929325 3.23930269,2.9148792 L3.23930269,2.9148792 L11.6669546,10.5 L20.999352,10.5 L20.999352,10.5 L20.999352,10.5 L20.999352,10.5 L20.999352,10.5 Z" fill="#F0F0F0"></path>
    </g>
</svg>