<svg width="24px" height="24px" viewBox="0 0 24 24" version="1.1" xmlns="http://www.w3.org/2000/svg" xmlns:xlink="http://www.w3.org/1999/xlink">
    <g stroke="none" stroke-width="1" fill="none" fill-rule="evenodd">
        <path d="M21.6,22.2 L21.6,4.2 C21.6,3.2058 20.7942,2.4 19.8,2.4 L1.8,2.4 C0.8058,2.4 0,3.2058 0,4.2 L0,22.2 C0,23.1942 0.8058,24 1.8,24 L19.8,24 C20.7942,24 21.6,23.1942 21.6,22.2 Z" fill="#1C9957"></path>
        <path d="M1.8,24 L19.8,24 C20.7942,24 10.8,14.4 10.8,14.4 C10.8,14.4 0.8058,24 1.8,24 Z" fill="#3E7BF1"></path>
        <path d="M21.6,22.2 L21.6,4.2 C21.6,3.2058 12,13.2 12,13.2 C12,13.2 21.6,23.1942 21.6,22.2 Z" fill="#CBCCC9"></path>
        <path d="M19.8,24 C20.7942,24 21.6,23.1942 21.6,22.2 L21.6,22.053 L12.147,12.6 L10.2,14.547 L19.653,24 L19.8,24 Z" fill="#EFEFEF"></path>
        <path d="M21.6,4.2 C21.6,3.2058 20.7942,2.4 19.8,2.4 L19.653,2.4 L0,22.053 L0,22.2 C0,23.1942 0.8058,24 1.8,24 L1.947,24 L21.6,4.347 L21.6,4.2 Z" fill="#FFD73D"></path>
        <path d="M18,0 C14.6862,0 12,2.6862 12,6 C12,10.0878 16.5996,11.577 17.5998,17.9106 C17.664,18.3186 17.6688,18.6 18,18.6 C18.3312,18.6 18.336,18.3186 18.4002,17.9106 C19.4004,11.577 24,10.0878 24,6 C24,2.6862 21.3138,0 18,0 Z" fill="#D73F35"></path>
        <circle fill="#752622" cx="18" cy="6" r="2.1"></circle>
        <path d="M5.0958,6.3186 L5.0958,7.5792 L6.8922,7.5792 C6.657,8.3436 6.0192,8.8902 5.0958,8.8902 C3.996,8.8902 3.105,7.9992 3.105,6.8994 C3.105,5.7996 3.9966,4.9086 5.0958,4.9086 C5.5902,4.9086 6.0414,5.0898 6.3894,5.388 L7.3182,4.4598 C6.732,3.9258 5.952,3.6 5.0958,3.6 C3.273,3.6 1.7952,5.0778 1.7952,6.9 C1.7952,8.7222 3.273,10.2 5.0958,10.2 C7.9818,10.2 8.478,7.6098 8.2062,6.3234 L5.0958,6.3186 Z" fill="#FFFFFF"></path>
    </g>
</svg>