<svg width="21px" height="21px" viewBox="0 0 21 21" version="1.1" xmlns="http://www.w3.org/2000/svg" xmlns:xlink="http://www.w3.org/1999/xlink">
    <g stroke="none" stroke-width="1" fill="none" fill-rule="evenodd">
        <path d="M20.4025301,14 C18.9611028,18.0781734 15.0717662,21 10.5,21 C5.92823386,21 2.03889727,18.0781734 0.597469924,14 L20.4025305,14 L20.4025305,14 L20.4025301,14 L20.4025301,14 L20.4025301,14 Z" fill="#1AAF5D"></path>
        <path d="M20.40253,14.0000001 C20.7894603,12.9052739 21,11.727224 21,10.5 C21,9.27277598 20.7894603,8.09472619 20.40253,6.99999995 L0.597469481,7 C0.210539753,8.09472619 0,9.27277598 0,10.5 C0,11.727224 0.210539753,12.9052739 0.597469924,14 L20.4025305,14 L20.4025305,14 L20.40253,14.0000001 L20.40253,14.0000001 L20.40253,14.0000001 Z" fill="#F0F0F0"></path>
        <path d="M20.4025301,6.99999995 C18.9611028,2.92182654 15.0717662,0 10.5,0 C5.92823386,0 2.03889727,2.92182654 0.597469924,6.99999995 L20.4025305,7 L20.4025305,7 L20.4025301,6.99999995 L20.4025301,6.99999995 L20.4025301,6.99999995 Z" fill="#E94B35"></path>
    </g>
</svg>