<svg viewBox="0 0 32 40" id="icon_download_android" xmlns="http://www.w3.org/2000/svg">
<g fill="#A3CC28" fill-rule="nonzero">
<path d="M25.166 13.19H6.834c-.408 0-.739.354-.739.79v16.452c0 .436.33.79.739.79h3.268v5.544c0 1.286.974 2.33 2.177 2.33 1.202 0 2.176-1.044 2.176-2.33v-5.544H17.5v5.544c0 1.286.975 2.33 2.177 2.33s2.177-1.044 2.177-2.33v-5.544h3.313c.408 0 .739-.354.739-.79V13.98c0-.437-.33-.79-.739-.79zM2.286 13.19C1.023 13.19 0 14.203 0 15.453v9.19c0 1.249 1.023 2.262 2.286 2.262 1.262 0 2.285-1.013 2.285-2.263v-9.189a2.274 2.274 0 0 0-2.285-2.263zM29.714 13.19c-1.262 0-2.285 1.013-2.285 2.263v9.19c0 1.249 1.023 2.262 2.285 2.262 1.263 0 2.286-1.013 2.286-2.263v-9.189c0-1.25-1.023-2.263-2.286-2.263zM6.847 12.19h18.306c.477 0 .834-.485.735-1.001-.605-3.186-2.442-5.872-4.936-7.423L22.517.65a.462.462 0 0 0-.154-.594c-.192-.117-.432-.04-.538.17l-1.577 3.141A9.278 9.278 0 0 0 16 2.335c-1.518 0-2.957.37-4.248 1.031L10.175.226c-.106-.212-.347-.288-.538-.171a.462.462 0 0 0-.154.594l1.565 3.117c-2.493 1.551-4.33 4.236-4.936 7.423-.099.516.258 1.001.735 1.001zm14.615-4.645c0 .519-.38.94-.851.94-.47 0-.851-.421-.851-.94 0-.52.38-.94.85-.94.471 0 .852.42.852.94zm-10.073-.94c.47 0 .851.42.851.94 0 .519-.38.94-.851.94-.47 0-.851-.421-.851-.94 0-.52.38-.94.85-.94z"></path>
</g>
</svg>