<svg viewBox="0 0 30 35" id="icon_download_apple" xmlns="http://www.w3.org/2000/svg">
<g fill-rule="evenodd">
<path d="M26.05 22.544c-.95-1.362-1.424-2.897-1.424-4.603 0-1.555.448-2.98 1.342-4.274.482-.702 1.266-1.514 2.354-2.436-.716-.88-1.431-1.569-2.148-2.064-1.294-.895-2.76-1.342-4.398-1.342-.977 0-2.168.234-3.572.702-1.35.468-2.334.702-2.953.702-.468 0-1.418-.206-2.85-.62-1.445-.412-2.664-.618-3.655-.618-2.368 0-4.323.99-5.864 2.972-1.556 2.01-2.334 4.583-2.334 7.722 0 3.33 1.012 6.792 3.036 10.384 2.05 3.565 4.123 5.347 6.215 5.347.702 0 1.61-.234 2.726-.702 1.115-.454 2.092-.681 2.932-.681.895 0 1.934.22 3.118.66 1.253.44 2.217.66 2.891.66 1.762 0 3.531-1.348 5.307-4.046 1.156-1.72 2.003-3.44 2.54-5.161-1.225-.372-2.313-1.239-3.263-2.602z"></path>
<path d="M19.03 6.586c.867-.867 1.507-1.817 1.92-2.849.399-1.032.598-1.968.598-2.808 0-.055-.003-.123-.01-.206a2.876 2.876 0 0 1-.01-.206 1.98 1.98 0 0 1-.052-.227 1.917 1.917 0 0 0-.052-.227c-2.422.564-4.143 1.583-5.162 3.055-1.032 1.487-1.57 3.255-1.61 5.306.922-.083 1.637-.2 2.147-.351.744-.248 1.486-.744 2.23-1.487z"></path>
</g></svg>