<svg viewBox="0 0 152 114" id="icon_download_desktop-large" xmlns="http://www.w3.org/2000/svg">
<g fill="none" fill-rule="evenodd">
<path d="M150.407 87.958c0 1.674-1.397 3.045-3.102 3.045H4.271c-1.705 0-3.102-1.371-3.102-3.045V4.225c0-1.674 1.397-3.047 3.102-3.047h143.034c1.705 0 3.102 1.373 3.102 3.047v83.733z" stroke="#FF5722" stroke-width="1.2" fill="#FFF"></path>
<path stroke="#FF5722" stroke-width=".6" fill="#FFF" d="M7.176 83.136H144.394V7.263H7.176z"></path>
<path d="M75.86 3.704a.697.697 0 0 0-.703.689c0 .383.314.694.703.694a.695.695 0 0 0 .699-.694.694.694 0 0 0-.699-.689z" fill="#FF5722"></path>
<path d="M56.42 108.539h-.003c-3.332 2.458-8.175 4.425 3.51 4.425h31.717c11.685 0 6.841-1.967 3.503-4.425h-.002c-3.336-2.456-3.501-17.536-3.501-17.536H59.927s-.167 15.08-3.509 17.536z" stroke="#FF5722" stroke-width="1.2" fill="#FFF"></path>
</g></svg>