<svg viewBox="0 0 101 57" id="icon_download_desktop-small" xmlns="http://www.w3.org/2000/svg">
<g fill="none" fill-rule="evenodd">
<path d="M50.708 53.225h39.784c.167-.364.263-.764.263-1.184V4.269c0-1.618-1.392-2.942-3.101-2.942H12.823c-1.707 0-3.103 1.324-3.103 2.942V52.04c0 .42.096.82.267 1.184h40.721z" stroke="#FF5722" stroke-width="1.2" fill="#FFF"></path>
<path stroke="#FF5722" stroke-width=".6" fill="#FFF" d="M13.816 48.307h73.226V5.088H13.816z"></path>
<path stroke="#FF5722" stroke-width="1.2" fill="#FFF" d="M90.492 53.225H.752v.567h99.414v-.567zM100.166 53.792s-4.075 2.2-16.197 2.2H50.485h.213-33.75c-12.12 0-16.196-2.2-16.196-2.2"></path>
<path d="M58.396 53.5s-.058 1.133-1.947 1.133h-12.79c-1.89 0-1.948-1.133-1.948-1.133" stroke="#FF5722" stroke-width=".6" fill="#FFF"></path>
<path d="M51.027 3.598c0-.312-.266-.565-.596-.565-.328 0-.597.253-.597.565 0 .311.269.57.597.57.33 0 .596-.259.596-.57" fill="#FF5722"></path>
</g>
</svg>