<svg viewBox="0 0 137 78" id="icon_download_desktop-medium" xmlns="http://www.w3.org/2000/svg">
<g fill="none" fill-rule="evenodd">
<path fill="#FFF" d="M15.022 70.721h106.691V3.78H15.023z"></path>
<path d="M123.226 70V5.05c0-2.256-1.873-4.1-4.163-4.1H17.648c-2.288 0-4.164 1.844-4.164 4.1V70a4.05 4.05 0 0 0 1.187 2.859h107.37A4.054 4.054 0 0 0 123.226 70z" stroke="#FF5722" stroke-width="1.2" fill="#FFF"></path>
<path d="M1.236 75.244v-2.386h134.298v2.386s-.814 1.751-7.769 1.751H9.007c-6.917 0-7.761-1.732-7.77-1.751z" stroke="#FF5722" stroke-width="1.2" fill="#FFF"></path>
<path d="M68.987 3.214a.565.565 0 0 0-.57-.561.568.568 0 0 0-.572.561.57.57 0 0 0 .573.566c.317 0 .57-.254.57-.566" fill="#FF5722"></path>
<path d="M68.355 72.858H58.734s.273 1.614 1.776 1.614h15.392c1.506 0 1.778-1.614 1.778-1.614h-9.325zM16.766 68.25h102.55V5.107H16.765z" stroke="#FF5722" stroke-width=".6" fill="#FFF"></path>
</g></svg>