<svg viewBox="0 0 21 17" id="icon_download_desktop-mini" xmlns="http://www.w3.org/2000/svg">
<path d="M20.598 15.92l-1.282-4.977a.822.822 0 0 0-.091-.217c.073-.198.113-.41.113-.632V1.888c0-1.029-.862-1.866-1.921-1.866h-14.2c-1.06 0-1.922.837-1.922 1.866v8.206c0 .222.04.434.114.632a.82.82 0 0 0-.091.217L.026 15.96a.818.818 0 0 0 .156.717.87.87 0 0 0 .68.322h18.911a.85.85 0 0 0 .862-.836.815.815 0 0 0-.037-.243zm-8.098-.228H8.135a.172.172 0 0 1-.13-.059.162.162 0 0 1-.038-.135l.34-1.833a.169.169 0 0 1 .168-.136h3.684c.082 0 .153.058.167.136l.337 1.818a.16.16 0 0 1 .007.044.167.167 0 0 1-.17.165zm5.16-5.598a.236.236 0 0 1-.143.215h-14.4a.236.236 0 0 1-.143-.215V1.888c0-.13.109-.236.243-.236h14.2a.24.24 0 0 1 .243.236v8.206z" fill="#FF5722" fill-rule="evenodd"></path>
</svg>