<svg xmlns="http://www.w3.org/2000/svg" xmlns:xlink="http://www.w3.org/1999/xlink" version="1.1" width="40" height="50" viewBox="0 0 256 256" xml:space="preserve">

    <defs></defs>
    <g style="stroke: none; stroke-width: 0; stroke-dasharray: none; stroke-linecap: butt; stroke-linejoin: miter; stroke-miterlimit: 10; fill: none; fill-rule: nonzero; opacity: 1;" transform="translate(1.4065934065934016 1.4065934065934016) scale(2.81 2.81)">
        <path d="M 14.561 41.807 c -0.829 0 -1.5 -0.671 -1.5 -1.5 v -5.007 c 0 -8.87 3.551 -17.113 9.998 -23.21 c 0.603 -0.57 1.553 -0.542 2.121 0.059 c 0.569 0.602 0.542 1.551 -0.059 2.121 c -5.842 5.524 -9.06 12.993 -9.06 21.03 v 5.007 C 16.061 41.135 15.389 41.807 14.561 41.807 z" style="stroke: none; stroke-width: 1; stroke-dasharray: none; stroke-linecap: butt; stroke-linejoin: miter; stroke-miterlimit: 10; fill: #FF5722; fill-rule: nonzero; opacity: 1;" transform=" matrix(1 0 0 1 0 0) " stroke-linecap="round"/>
        <path d="M 75.439 41.807 c -0.828 0 -1.5 -0.671 -1.5 -1.5 v -5.007 c 0 -8.037 -3.217 -15.505 -9.059 -21.03 c -0.603 -0.569 -0.629 -1.519 -0.06 -2.121 c 0.569 -0.603 1.519 -0.627 2.12 -0.059 c 6.447 6.097 9.998 14.34 9.998 23.21 v 5.007 C 76.939 41.135 76.268 41.807 75.439 41.807 z" style="stroke: none; stroke-width: 1; stroke-dasharray: none; stroke-linecap: butt; stroke-linejoin: miter; stroke-miterlimit: 10; fill: #FF5722; fill-rule: nonzero; opacity: 1;" transform=" matrix(1 0 0 1 0 0) " stroke-linecap="round"/>
        <path d="M 14.561 72.165 c -3.07 0 -5.568 -2.497 -5.568 -5.567 V 45.06 c 0 -3.07 2.498 -5.568 5.568 -5.568 s 5.568 2.498 5.568 5.568 v 21.538 C 20.128 69.668 17.631 72.165 14.561 72.165 z M 14.561 41.492 c -1.967 0 -3.568 1.601 -3.568 3.568 v 21.538 c 0 1.967 1.601 3.567 3.568 3.567 s 3.568 -1.601 3.568 -3.567 V 45.06 C 18.128 43.092 16.528 41.492 14.561 41.492 z" style="stroke: none; stroke-width: 1; stroke-dasharray: none; stroke-linecap: butt; stroke-linejoin: miter; stroke-miterlimit: 10; fill: #FF5722; fill-rule: nonzero; opacity: 1;" transform=" matrix(1 0 0 1 0 0) " stroke-linecap="round"/>
        <path d="M 75.439 72.165 c -3.07 0 -5.568 -2.497 -5.568 -5.567 V 45.06 c 0 -3.07 2.498 -5.568 5.568 -5.568 s 5.568 2.498 5.568 5.568 v 21.538 C 81.008 69.668 78.51 72.165 75.439 72.165 z M 75.439 41.492 c -1.968 0 -3.568 1.601 -3.568 3.568 v 21.538 c 0 1.967 1.601 3.567 3.568 3.567 s 3.568 -1.601 3.568 -3.567 V 45.06 C 79.008 43.092 77.407 41.492 75.439 41.492 z" style="stroke: none; stroke-width: 1; stroke-dasharray: none; stroke-linecap: butt; stroke-linejoin: miter; stroke-miterlimit: 10; fill: #FF5722; fill-rule: nonzero; opacity: 1;" transform=" matrix(1 0 0 1 0 0) " stroke-linecap="round"/>
        <path d="M 62.804 16.18 c -0.778 0 -1.564 -0.245 -2.243 -0.741 c -4.542 -3.325 -9.923 -5.082 -15.561 -5.082 s -11.019 1.757 -15.561 5.082 c -1.507 1.104 -3.542 0.963 -4.84 -0.336 l -1.94 -1.94 c -0.744 -0.744 -1.135 -1.772 -1.073 -2.822 c 0.063 -1.065 0.583 -2.057 1.425 -2.721 C 29.336 2.635 36.94 0 45 0 c 8.061 0 15.664 2.635 21.988 7.62 c 0.843 0.665 1.363 1.657 1.426 2.722 c 0.062 1.049 -0.329 2.078 -1.073 2.821 l -1.939 1.94 C 64.688 15.816 63.752 16.18 62.804 16.18 z M 45 8.357 c 6.065 0 11.854 1.891 16.742 5.468 c 0.707 0.517 1.651 0.459 2.245 -0.136 l 1.939 -1.94 c 0.345 -0.345 0.52 -0.803 0.49 -1.29 c -0.029 -0.495 -0.272 -0.958 -0.667 -1.269 C 59.782 4.486 52.606 2 45 2 S 30.218 4.486 24.25 9.19 c -0.395 0.311 -0.638 0.773 -0.667 1.269 c -0.029 0.487 0.146 0.945 0.49 1.29 l 1.94 1.94 c 0.595 0.594 1.54 0.651 2.244 0.136 C 33.146 10.248 38.935 8.357 45 8.357 z" style="stroke: none; stroke-width: 1; stroke-dasharray: none; stroke-linecap: butt; stroke-linejoin: miter; stroke-miterlimit: 10; fill: #FF5722; fill-rule: nonzero; opacity: 1;" transform=" matrix(1 0 0 1 0 0) " stroke-linecap="round"/>
        <path d="M 45 90 c -3.554 0 -6.445 -2.892 -6.445 -6.445 S 41.446 77.11 45 77.11 s 6.445 2.891 6.445 6.444 S 48.554 90 45 90 z M 45 79.11 c -2.451 0 -4.445 1.994 -4.445 4.444 C 40.555 86.006 42.549 88 45 88 c 2.451 0 4.445 -1.994 4.445 -4.445 C 49.445 81.104 47.451 79.11 45 79.11 z" style="stroke: none; stroke-width: 1; stroke-dasharray: none; stroke-linecap: butt; stroke-linejoin: miter; stroke-miterlimit: 10; fill: #FF5722; fill-rule: nonzero; opacity: 1;" transform=" matrix(1 0 0 1 0 0) " stroke-linecap="round"/>
        <path d="M 64.301 85.055 H 50.445 c -0.828 0 -1.5 -0.672 -1.5 -1.5 s 0.672 -1.5 1.5 -1.5 h 13.855 c 5.314 0 9.639 -4.324 9.639 -9.639 v -1.251 c 0 -0.828 0.672 -1.5 1.5 -1.5 s 1.5 0.672 1.5 1.5 v 1.251 C 76.939 79.385 71.27 85.055 64.301 85.055 z" style="stroke: none; stroke-width: 1; stroke-dasharray: none; stroke-linecap: butt; stroke-linejoin: miter; stroke-miterlimit: 10; fill: #FF5722; fill-rule: nonzero; opacity: 1;" transform=" matrix(1 0 0 1 0 0) " stroke-linecap="round"/>
        <path d="M 32.735 56.609 h -5.879 c -0.562 0 -1.076 -0.313 -1.333 -0.813 s -0.215 -1.1 0.111 -1.557 l 5.362 -7.538 c 0.282 -0.396 0.321 -0.898 0.105 -1.341 c -0.097 -0.198 -0.392 -0.664 -1.036 -0.692 c -0.001 0 -0.002 0 -0.004 0 c -0.975 0 -1.706 0.732 -1.706 1.631 c 0 0.828 -0.671 1.5 -1.5 1.5 s -1.5 -0.672 -1.5 -1.5 c 0 -2.555 2.079 -4.633 4.633 -4.633 l 0.206 0.005 c 1.567 0.07 2.912 0.958 3.603 2.375 c 0.695 1.424 0.558 3.108 -0.357 4.395 l -3.677 5.169 h 2.971 c 0.829 0 1.5 0.672 1.5 1.5 S 33.564 56.609 32.735 56.609 z" style="stroke: none; stroke-width: 1; stroke-dasharray: none; stroke-linecap: butt; stroke-linejoin: miter; stroke-miterlimit: 10; fill: #FF5722; fill-rule: nonzero; opacity: 1;" transform=" matrix(1 0 0 1 0 0) " stroke-linecap="round"/>
        <path d="M 43.573 56.609 c -0.829 0 -1.5 -0.672 -1.5 -1.5 v -4.654 c 0 -0.828 0.671 -1.5 1.5 -1.5 s 1.5 0.672 1.5 1.5 v 4.654 C 45.073 55.938 44.401 56.609 43.573 56.609 z" style="stroke: none; stroke-width: 1; stroke-dasharray: none; stroke-linecap: butt; stroke-linejoin: miter; stroke-miterlimit: 10; fill: #FF5722; fill-rule: nonzero; opacity: 1;" transform=" matrix(1 0 0 1 0 0) " stroke-linecap="round"/>
        <path d="M 45.467 54.39 h -9.208 c -0.563 0 -1.078 -0.314 -1.334 -0.815 c -0.257 -0.5 -0.212 -1.102 0.116 -1.559 l 6.976 -9.724 c 0.483 -0.672 1.419 -0.827 2.093 -0.344 c 0.673 0.483 0.827 1.42 0.344 2.093 l -5.272 7.349 h 6.286 c 0.828 0 1.5 0.672 1.5 1.5 S 46.295 54.39 45.467 54.39 z" style="stroke: none; stroke-width: 1; stroke-dasharray: none; stroke-linecap: butt; stroke-linejoin: miter; stroke-miterlimit: 10; fill: #FF5722; fill-rule: nonzero; opacity: 1;" transform=" matrix(1 0 0 1 0 0) " stroke-linecap="round"/>
        <path d="M 56.137 69.104 c -0.259 0 -0.52 -0.066 -0.758 -0.206 c -0.715 -0.419 -0.954 -1.339 -0.535 -2.053 l 5.681 -9.684 h -4.387 c -0.828 0 -1.5 -0.672 -1.5 -1.5 s 0.672 -1.5 1.5 -1.5 h 7.006 c 0.538 0 1.034 0.288 1.302 0.755 c 0.268 0.466 0.264 1.04 -0.008 1.504 l -7.006 11.942 C 57.152 68.84 56.651 69.104 56.137 69.104 z" style="stroke: none; stroke-width: 1; stroke-dasharray: none; stroke-linecap: butt; stroke-linejoin: miter; stroke-miterlimit: 10; fill: #FF5722; fill-rule: nonzero; opacity: 1;" transform=" matrix(1 0 0 1 0 0) " stroke-linecap="round"/>
        <path d="M 43.25 69.104 c -0.25 0 -0.503 -0.063 -0.736 -0.194 c -0.721 -0.407 -0.976 -1.322 -0.568 -2.043 l 13.806 -24.438 c 0.406 -0.723 1.323 -0.975 2.043 -0.568 c 0.722 0.408 0.977 1.323 0.568 2.044 L 44.558 68.342 C 44.282 68.83 43.773 69.104 43.25 69.104 z" style="stroke: none; stroke-width: 1; stroke-dasharray: none; stroke-linecap: butt; stroke-linejoin: miter; stroke-miterlimit: 10; fill: #FF5722; fill-rule: nonzero; opacity: 1;" transform=" matrix(1 0 0 1 0 0) " stroke-linecap="round"/>
        <path d="M 14.561 71.165 L 14.561 71.165 c -2.523 0 -4.568 -2.045 -4.568 -4.568 V 45.06 c 0 -2.523 2.045 -4.568 4.568 -4.568 h 0 c 2.523 0 4.568 2.045 4.568 4.568 v 21.538 C 19.128 69.12 17.083 71.165 14.561 71.165 z" style="stroke: none; stroke-width: 1; stroke-dasharray: none; stroke-linecap: butt; stroke-linejoin: miter; stroke-miterlimit: 10; fill: #FF5722; fill-rule: nonzero; opacity: 1;" transform=" matrix(1 0 0 1 0 0) " stroke-linecap="round"/>
        <path d="M 75.439 71.165 L 75.439 71.165 c -2.523 0 -4.568 -2.045 -4.568 -4.568 V 45.06 c 0 -2.523 2.045 -4.568 4.568 -4.568 h 0 c 2.523 0 4.568 2.045 4.568 4.568 v 21.538 C 80.007 69.12 77.962 71.165 75.439 71.165 z" style="stroke: none; stroke-width: 1; stroke-dasharray: none; stroke-linecap: butt; stroke-linejoin: miter; stroke-miterlimit: 10; fill: #FF5722; fill-rule: nonzero; opacity: 1;" transform=" matrix(1 0 0 1 0 0) " stroke-linecap="round"/>
        <path d="M 45 9.357 c 6.042 0 11.623 1.961 16.152 5.275 c 1.09 0.798 2.587 0.719 3.542 -0.236 l 1.94 -1.94 c 1.153 -1.153 1.016 -3.041 -0.265 -4.05 C 60.488 3.77 53.07 1 45 1 h 0 C 36.93 1 29.512 3.77 23.63 8.405 c -1.28 1.009 -1.417 2.898 -0.265 4.05 l 1.94 1.94 c 0.955 0.955 2.452 1.034 3.542 0.236 C 33.377 11.317 38.958 9.357 45 9.357 z" style="stroke: none; stroke-width: 1; stroke-dasharray: none; stroke-linecap: butt; stroke-linejoin: miter; stroke-miterlimit: 10; fill: #FF5722; fill-rule: nonzero; opacity: 1;" transform=" matrix(1 0 0 1 0 0) " stroke-linecap="round"/>
        <circle cx="44.995" cy="83.555" r="5.445" style="stroke: none; stroke-width: 1; stroke-dasharray: none; stroke-linecap: butt; stroke-linejoin: miter; stroke-miterlimit: 10; fill: #FF5722; fill-rule: nonzero; opacity: 1;" transform="  matrix(1 0 0 1 0 0) "/>
    </g>
</svg>
