<svg xmlns="http://www.w3.org/2000/svg" width="32" height="26" viewBox="0 0 32 26">
    <path fill="#FF5722" d="M32 21.517v1.345H8v-1.345zm-30.667.678c0 1.124.888 2.022 2 2.022 1.113 0 2-.897
    2-2.022a2.001 2.001 0 0 0-2-2.023c-1.112 0-2 .898-2 2.023zm5.334-.005c0 1.849-1.5 3.362-3.334 3.362C1.5 25.552 0
    24.039 0 22.19c0-1.85 1.5-3.362 3.333-3.362 1.833 0 3.334 1.513 3.334 3.362zM32 12.103v1.355H8v-1.355zm-30.667.673c0
    1.122.888 2.017 2 2.017 1.113 0 2-.895 2-2.017a1.999 1.999 0 0 0-2-2.017c-1.112 0-2 .895-2 2.017zm5.334.005c0
    1.851-1.5 3.367-3.334 3.367C1.5 16.148 0 14.632 0 12.78c0-1.852 1.5-3.367 3.333-3.367 1.833 0 3.334 1.515 3.334
    3.367zM32 2.69v1.344H8V2.69zM4 3.362a.67.67 0 0 1-.667.672.67.67 0 0 1-.666-.672.67.67 0 0 1 .666-.672.67.67 0 0 1
    .667.672zm-2.667.005c0 1.125.888 2.022 2 2.022 1.113 0 2-.897 2-2.022a2.001 2.001 0 0 0-2-2.022c-1.112 0-2 .897-2
    2.022zm5.334-.005c0 1.849-1.5 3.362-3.334 3.362C1.5 6.724 0 5.211 0 3.362 0 1.513 1.5 0 3.333 0c1.833 0 3.334 1.513
    3.334 3.362z"></path>
</svg>