<svg xmlns="http://www.w3.org/2000/svg" width="36" height="27" viewBox="0 0 36 27">
    <path fill="#FF5722" d="M13.307 23.907a.79.79 0 0 0-.688.383.768.768 0 0 0 0 .776.79.79 0 0 0 .688.383h9.395a.79.79
    0 0 0 .688-.383.768.768 0 0 0 0-.776.79.79 0 0 0-.688-.383zM18 16.97c.247 0
    .455.111.595.28.031.081.077.154.135.22a.767.767 0 0 1-.73 1.042.767.767 0 0
    1-.783-.771c0-.434.343-.771.783-.771zm9.04-5.257a.783.783 0 0 0-.424.114l-7.125 4.15A2.328 2.328 0 0 0 18
    15.427c-1.287 0-2.347 1.045-2.347 2.313 0 1.267 1.06 2.312 2.347 2.312 1.286 0 2.346-1.045 2.346-2.312
    0-.15-.018-.301-.046-.446l7.11-4.143a.767.767 0 0 0 .37-.858.78.78 0 0 0-.74-.581zM17.987 0a.78.78 0 0 0-.143.018
    18.104 18.104 0 0 0-8.998 2.463.929.929 0 0 0-.183.105 17.952 17.952 0 0 0-6.429 6.625.756.756 0 0 0-.098.174 17.405
    17.405 0 0 0-2.12 8.2.729.729 0 0 0 0 .303c.024 3.258.85 6.119 2.453 8.741a.788.788 0 0 0 .908.334.772.772 0 0 0
    .544-.791l.036.472 2.937-1.677A.756.756 0 0 0 7.3 24.3a.768.768 0 0 0-.397-.678.796.796 0 0 0-.795.012L3.5
    25.123c-1.112-2.029-1.784-4.157-1.9-6.611h3.104a.79.79 0 0 0 .687-.383.768.768 0 0 0 0-.777.79.79 0 0
    0-.687-.382H1.599a15.92 15.92 0 0 1 1.613-6.248c.44.235 1.143.608 2.722 1.454.248.139.55.136.795-.009a.767.767 0 0
    0-.05-1.349C5.1 9.975 4.4 9.602 3.958 9.368a16.356 16.356 0 0 1 4.929-5.095l1.61 2.64a.787.787 0 0 0
    1.362-.018.769.769 0 0 0-.02-.777l-1.611-2.64a16.554 16.554 0 0 1 6.99-1.9v3.059a.773.773 0 0 0 .388.677.8.8 0 0 0
    .789 0 .773.773 0 0 0 .388-.677v-3.06c2.267.106 4.412.66 6.346 1.579L23.646 5.85a.765.765 0 0 0 .009.783.784.784 0 0
    0 .697.37.786.786 0 0 0 .672-.418l1.479-2.692a16.363 16.363 0 0 1 5.163 4.866l-2.68 1.587a.771.771 0 0
    0-.387.674c.006.28.158.533.406.669a.8.8 0 0 0 .788-.021l2.68-1.587A15.953 15.953 0 0 1 34.4 16.97h-3.105a.79.79 0 0
    0-.687.382.768.768 0 0 0 0 .777.79.79 0 0 0 .687.383h3.105c-.117 2.454-.789 4.582-1.898 6.612l-2.612-1.49a.796.796 0
    0 0-.794-.013.768.768 0 0 0-.398.678c0 .28.156.536.407.668l2.936 1.677.036-.472a.772.772 0 0 0 .544.791.788.788 0 0
    0 .908-.334c1.604-2.62 2.429-5.48 2.456-8.732a.864.864 0 0 0 0-.307 17.46 17.46 0 0 0-2.511-8.88.685.685 0 0
    0-.089-.159h-.003c0-.003-.003-.003-.006-.006a17.974 17.974 0 0 0-6.706-6.329.789.789 0 0 0-.217-.114A18.08 18.08 0 0
    0 18.149.018.72.72 0 0 0 17.987 0z"></path>
</svg>