<?xml version="1.0" encoding="utf-8"?>
<!-- Generator: Adobe Illustrator 27.0.0, SVG Export Plug-In . SVG Version: 6.00 Build 0)  -->
<svg version="1.1" id="Слой_1" xmlns="http://www.w3.org/2000/svg" xmlns:xlink="http://www.w3.org/1999/xlink" x="0px" y="0px"
	 viewBox="0 0 100 100" style="enable-background:new 0 0 100 100;" xml:space="preserve">
<style type="text/css">
	.st0{fill:#EA592D;}
	.st1{fill:#020203;}
</style>
<circle class="st0" cx="50" cy="49.87" r="19.97"/>
<path class="st1" d="M50,98.88c-0.05,0-0.1-0.01-0.14-0.02c-23.08-5.77-39.19-26.4-39.19-50.18V12.77c0-0.34,0.27-0.61,0.61-0.61
	c13.6,0,26.86-3.86,38.33-11.16c0.11-0.07,0.26-0.11,0.4-0.11c0.12,0,0.23,0.03,0.31,0.08c11.51,7.32,24.78,11.19,38.38,11.19
	c0.34,0,0.61,0.27,0.61,0.61v35.91c0,23.78-16.11,44.41-39.18,50.18C50.1,98.87,50.05,98.88,50,98.88z M49.47,2.53
	c-11.03,6.81-23.68,10.55-36.6,10.83l-0.98,0.02v35.29c0,23.02,15.57,43.13,37.85,48.89L50,97.63l0.25-0.07
	C72.54,91.81,88.1,71.7,88.1,48.68V13.38l-0.98-0.02c-12.94-0.28-25.59-4.03-36.6-10.83L50,2.2L49.47,2.53z"/>
<path class="st1" d="M50,92.2c-0.06,0-0.11-0.01-0.17-0.02c-19.26-5.55-32.71-23.44-32.71-43.5V18.96c0-0.32,0.25-0.59,0.56-0.61
	c11.34-0.93,22.12-4.25,32.02-9.87c0.09-0.05,0.2-0.08,0.3-0.08c0.11,0,0.21,0.03,0.3,0.08c9.92,5.62,20.69,8.94,32.01,9.87
	c0.32,0.03,0.56,0.29,0.56,0.61v29.72c0,20.06-13.45,37.94-32.71,43.49C50.11,92.19,50.06,92.2,50,92.2z M49.52,9.98
	c-9.41,5.2-19.59,8.38-30.27,9.45l-0.9,0.09v29.16c0,19.29,12.9,36.64,31.36,42.18L50,90.95l0.29-0.09
	c18.47-5.55,31.36-22.89,31.36-42.18V19.52l-0.9-0.09c-10.66-1.07-20.85-4.25-30.26-9.46L50,9.71L49.52,9.98z"/>
<path class="st1" d="M50,24.67c-0.34,0-0.61-0.27-0.61-0.61V9.54c0-0.34,0.27-0.61,0.61-0.61c0.34,0,0.61,0.27,0.61,0.61v14.52
	C50.61,24.4,50.34,24.67,50,24.67z"/>
<path class="st1" d="M50,90.81c-0.34,0-0.61-0.28-0.61-0.61V75.68c0-0.34,0.27-0.61,0.61-0.61c0.34,0,0.61,0.28,0.61,0.61V90.2
	C50.61,90.54,50.34,90.81,50,90.81z"/>
<path class="st1" d="M17.74,50.48c-0.34,0-0.61-0.28-0.61-0.61s0.27-0.61,0.61-0.61h6.45c0.34,0,0.61,0.27,0.61,0.61
	s-0.27,0.61-0.61,0.61H17.74z"/>
<path class="st1" d="M75.81,50.48c-0.34,0-0.61-0.28-0.61-0.61s0.27-0.61,0.61-0.61h6.45c0.34,0,0.61,0.27,0.61,0.61
	s-0.28,0.61-0.61,0.61H75.81z"/>
<path class="st1" d="M62.91,50.48c-0.34,0-0.61-0.28-0.61-0.61s0.27-0.61,0.61-0.61s0.61,0.27,0.61,0.61S63.24,50.48,62.91,50.48z"
	/>
<path class="st1" d="M37.09,50.48c-0.34,0-0.61-0.28-0.61-0.61s0.27-0.61,0.61-0.61c0.34,0,0.61,0.27,0.61,0.61
	S37.43,50.48,37.09,50.48z"/>
<g>
	<path class="st1" d="M50,60.16c-3.01,0-5.45-2.45-5.45-5.45c0-0.34,0.27-0.61,0.61-0.61c0.34,0,0.61,0.28,0.61,0.61
		c0,2.33,1.9,4.23,4.23,4.23s4.23-1.9,4.23-4.23s-1.9-4.23-4.23-4.23c-3.01,0-5.45-2.45-5.45-5.45s2.45-5.45,5.45-5.45
		c3.01,0,5.45,2.45,5.45,5.45c0,0.34-0.28,0.61-0.61,0.61s-0.61-0.27-0.61-0.61c0-2.33-1.9-4.23-4.23-4.23s-4.23,1.9-4.23,4.23
		c0,2.33,1.9,4.23,4.23,4.23c3.01,0,5.45,2.45,5.45,5.45S53.01,60.16,50,60.16z"/>
	<path class="st1" d="M50,40.8c-0.34,0-0.61-0.27-0.61-0.61v-3.23c0-0.34,0.27-0.61,0.61-0.61c0.34,0,0.61,0.27,0.61,0.61v3.23
		C50.61,40.53,50.34,40.8,50,40.8z"/>
	<path class="st1" d="M50,63.39c-0.34,0-0.61-0.28-0.61-0.61v-3.23c0-0.34,0.27-0.61,0.61-0.61c0.34,0,0.61,0.28,0.61,0.61v3.23
		C50.61,63.11,50.34,63.39,50,63.39z"/>
</g>
</svg>
