<?xml version="1.0" encoding="utf-8"?>
<!-- Generator: Adobe Illustrator 22.0.1, SVG Export Plug-In . SVG Version: 6.00 Build 0)  -->
<svg version="1.1" id="Слой_1" xmlns="http://www.w3.org/2000/svg" xmlns:xlink="http://www.w3.org/1999/xlink" x="0px" y="0px"
	 viewBox="0 0 120 120" style="enable-background:new 0 0 120 120;" xml:space="preserve">
<style type="text/css">
	.st0{fill:#FF5722;}
</style>
<circle class="st0" cx="60.4" cy="60.5" r="28.1"/>
<path d="M60.4,89.4c-15.9,0-28.9-13.1-28.9-28.9s13.1-28.9,28.9-28.9s28.9,13.1,28.9,28.9S76.3,89.4,60.4,89.4z M60.4,33.2
	c-15.1,0-27.3,12.3-27.3,27.3s12.3,27.3,27.3,27.3s27.3-12.3,27.3-27.3S75.5,33.2,60.4,33.2z"/>
<path d="M51.5,69.3V51.7h12.9c2.6,0,4.8,2.2,4.8,4.8c0,1.2-0.4,2.4-1.2,3.2l-0.8,0.8l0.8,0.8c0.8,0.8,1.2,2,1.2,3.2
	c0,2.6-2.2,4.8-4.8,4.8H51.5z M53.2,67.7h11.3c1.8,0,3.2-1.4,3.2-3.2c0-1.8-1.4-3.2-3.2-3.2H53.2V67.7z M53.2,59.7h11.3
	c1.8,0,3.2-1.4,3.2-3.2c0-1.8-1.4-3.2-3.2-3.2H53.2V59.7z"/>
<rect x="55.6" y="49.6" width="1.6" height="3.6"/>
<rect x="55.6" y="67.7" width="1.6" height="3.6"/>
<rect x="63.6" y="49.6" width="1.6" height="3.6"/>
<rect x="63.6" y="67.7" width="1.6" height="3.6"/>
<path d="M43.5,72.8c-2.6-3.6-4-7.8-4-12.3c0-11.5,9.4-20.9,20.9-20.9c4.4,0,8.6,1.4,12.3,4l-1,1.2c-3.2-2.4-7.2-3.6-11.3-3.6
	c-10.7,0-19.3,8.6-19.3,19.3c0,4,1.2,8,3.6,11.3L43.5,72.8z"/>
<path d="M60.4,81.4c-4.4,0-8.6-1.4-12.3-4l1-1.2c3.2,2.4,7.2,3.6,11.3,3.6c10.7,0,19.3-8.6,19.3-19.3c0-4-1.2-8-3.6-11.3l1.2-1
	c2.6,3.6,4,7.8,4,12.3C81.3,72,71.8,81.4,60.4,81.4z"/>
<path d="M38.3,94.7C29,90,23.4,80.8,23.4,70.6V45.6H25v24.9c0,9.6,5.4,18.3,14.1,22.7l21.3,10.7l21.3-10.7c3.6-1.8,6.8-4.6,9.2-8
	l1.4,0.8c-2.4,3.6-5.8,6.6-9.8,8.6l-22.1,11.1L38.3,94.7z"/>
<polygon points="95.8,67.3 95.8,28.9 60.4,21.1 35.7,26.5 35.3,25.1 60.4,19.5 97.4,27.7 97.4,67.3 "/>
<polygon points="0.3,67.1 27.4,40 27.4,17.5 32.4,17.5 20.2,3.4 7.9,17.5 12.9,17.5 12.9,25.1 11.3,25.1 11.3,19.1 4.3,19.1 20.2,1 
	36.1,19.1 29,19.1 29,40.8 1.5,68.3 "/>
<polygon points="84.7,101.9 91.7,101.9 91.7,80.2 119.3,52.7 120.5,53.9 93.4,81 93.4,103.5 88.3,103.5 100.6,117.6 112.9,103.5 
	107.8,103.5 107.8,95.9 109.4,95.9 109.4,101.9 116.5,101.9 100.6,120 "/>
<rect x="107.8" y="91.9" width="1.6" height="1.6"/>
<rect x="107.8" y="87.8" width="1.6" height="1.6"/>
<rect x="107.8" y="83.8" width="1.6" height="1.6"/>
<rect x="11.3" y="35.6" width="1.6" height="1.6"/>
<rect x="11.3" y="31.6" width="1.6" height="1.6"/>
<rect x="11.3" y="27.5" width="1.6" height="1.6"/>
</svg>
