<?xml
version="1.0" encoding="utf-8"?>
<!-- Generator: Adobe Illustrator 27.0.0, SVG Export Plug-In . SVG Version: 6.00 Build 0)  -->
<svg version="1.1" id="Слой_1" xmlns="http://www.w3.org/2000/svg" xmlns:xlink="http://www.w3.org/1999/xlink" x="0px" y="0px" viewBox="0 0 100 100" style="enable-background:new 0 0 100 100;" xml:space="preserve">
    <style type="text/css">
        .st0 {
            fill: #020203;
        }
        .st1 {
            fill: #4572C4;
        }
    </style>
    <path class="st0" d="M40.32,82.86c-0.34,0-0.61-0.28-0.61-0.61c0-0.34,0.28-0.61,0.61-0.61h11.3c2.33,0,4.23-1.9,4.23-4.23
        	c0-2.33-1.9-4.23-4.23-4.23H39.68c-3.68,0-7.25,1.08-10.32,3.12c-0.1,0.07-0.22,0.1-0.34,0.1h-8.07c-0.34,0-0.61-0.28-0.61-0.61
        	c0-0.34,0.28-0.61,0.61-0.61h7.88l0.25-0.16c3.17-2.01,6.84-3.07,10.6-3.07h11.93c3.01,0,5.46,2.45,5.46,5.46s-2.45,5.45-5.46,5.45
        	H40.32z"/>
    <path class="st0" d="M32.6,99c-2.45,0-4.86-0.67-6.96-1.93l-5-3c-0.29-0.17-0.38-0.55-0.21-0.84c0.11-0.19,0.31-0.3,0.53-0.3
        	c0.11,0,0.22,0.03,0.31,0.09l5,3c1.91,1.15,4.1,1.75,6.33,1.75h36.54c4.15,0,8.04-1.61,10.98-4.55L87,86.34
        	c0.71-0.71,1.12-1.69,1.12-2.69v-0.2c0-2.1-1.71-3.81-3.81-3.81h-0.2c-1,0-1.98,0.41-2.69,1.12l-6.5,6.5
        	c-1.33,1.33-3.11,2.07-5,2.07H52.67c-1.89,0-3.66-0.74-5-2.07l-4.56-4.56c-0.12-0.12-0.18-0.27-0.18-0.43s0.06-0.32,0.18-0.43
        	s0.27-0.18,0.43-0.18s0.32,0.06,0.43,0.18l4.56,4.56c1.1,1.1,2.57,1.71,4.13,1.71h17.24c1.56,0,3.03-0.61,4.13-1.71l6.5-6.5
        	c0.94-0.94,2.24-1.47,3.56-1.47h0.2c2.78,0,5.04,2.26,5.04,5.04v0.2c0,1.33-0.54,2.62-1.47,3.56l-6.89,6.89
        	C77.82,97.26,73.61,99,69.14,99H32.6z"/>
    <path class="st0" d="M1.59,99c-0.34,0-0.61-0.28-0.61-0.61V72.57c0-0.34,0.28-0.61,0.61-0.61h19.36c0.34,0,0.61,0.28,0.61,0.61
        	v25.82c0,0.34-0.28,0.61-0.61,0.61H1.59z M2.2,97.77h18.14V73.18H2.2V97.77z"/>
    <path class="st0" d="M61.3,89.32c-0.1,0-0.26-0.03-0.4-0.15c-0.13-0.11-0.2-0.26-0.21-0.42s0.04-0.32,0.15-0.44l8.36-9.75
        	c0.96-1.12,2.35-1.76,3.82-1.76c2.78,0,5.04,2.26,5.04,5.04v2.03c0,0.34-0.28,0.61-0.61,0.61c-0.34,0-0.61-0.28-0.61-0.61v-2.03
        	c0-2.1-1.71-3.81-3.81-3.81c-1.12,0-2.17,0.49-2.89,1.33l-8.36,9.75C61.64,89.24,61.48,89.32,61.3,89.32z"/>
    <path class="st0" d="M79.05,66.73c-0.34,0-0.61-0.28-0.61-0.61V54.83c0-0.34,0.28-0.61,0.61-0.61s0.61,0.28,0.61,0.61v11.29
        	C79.66,66.45,79.39,66.73,79.05,66.73z"/>
    <path class="st0" d="M91.96,66.73c-0.34,0-0.61-0.28-0.61-0.61V22.54c0-0.34,0.28-0.61,0.61-0.61h5.36L85.5,2.73L73.69,21.93h5.36
        	c0.34,0,0.61,0.28,0.61,0.61v16.15c0,0.34-0.28,0.61-0.61,0.61s-0.61-0.28-0.61-0.61V23.15h-5.84c-0.22,0-0.43-0.12-0.54-0.31
        	c-0.11-0.19-0.1-0.43,0.01-0.62L84.98,1.24C85.09,1.06,85.32,1,85.5,1s0.41,0.06,0.52,0.24l12.91,20.98
        	c0.12,0.19,0.12,0.43,0.01,0.62c-0.11,0.19-0.31,0.31-0.54,0.31h-5.84v42.96C92.57,66.45,92.3,66.73,91.96,66.73z"/>
    <path class="st0" d="M43.55,66.73c-0.34,0-0.61-0.28-0.61-0.61V54.83c0-0.34,0.28-0.61,0.61-0.61s0.61,0.28,0.61,0.61v11.29
        	C44.16,66.45,43.88,66.73,43.55,66.73z"/>
    <path class="st0" d="M30.64,66.73c-0.34,0-0.61-0.28-0.61-0.61V23.15h-5.84c-0.22,0-0.43-0.12-0.54-0.31s-0.1-0.43,0.01-0.62
        	L36.57,1.24C36.68,1.06,36.91,1,37.09,1c0.18,0,0.41,0.06,0.52,0.24l12.91,20.98c0.12,0.19,0.12,0.43,0.01,0.62
        	c-0.11,0.19-0.31,0.31-0.54,0.31h-5.84v15.54c0,0.34-0.28,0.61-0.61,0.61s-0.61-0.28-0.61-0.61V22.54c0-0.34,0.28-0.61,0.61-0.61
        	h5.36L37.09,2.73L25.28,21.93h5.36c0.34,0,0.61,0.28,0.61,0.61v43.57C31.25,66.45,30.97,66.73,30.64,66.73z"/>
    <circle class="st1" cx="61.3" cy="46.75" r="19.98"/>
    <path class="st0" d="M74.21,47.36c-0.34,0-0.61-0.28-0.61-0.61s0.28-0.61,0.61-0.61c0.34,0,0.61,0.28,0.61,0.61
        	S74.54,47.36,74.21,47.36z"/>
    <circle class="st0" cx="48.39" cy="46.75" r="0.61"/>
    <path class="st0" d="M61.3,57.04c-3.01,0-5.46-2.45-5.46-5.46c0-0.34,0.28-0.61,0.61-0.61c0.34,0,0.61,0.28,0.61,0.61
        	c0,2.33,1.9,4.23,4.23,4.23s4.23-1.9,4.23-4.23c0-2.33-1.9-4.23-4.23-4.23c-3.01,0-5.46-2.45-5.46-5.46s2.45-5.46,5.46-5.46
        	c3.01,0,5.46,2.45,5.46,5.46c0,0.34-0.28,0.61-0.61,0.61c-0.34,0-0.61-0.28-0.61-0.61c0-2.33-1.9-4.23-4.23-4.23
        	s-4.23,1.9-4.23,4.23s1.9,4.23,4.23,4.23c3.01,0,5.46,2.45,5.46,5.45S64.3,57.04,61.3,57.04z"/>
    <path class="st0" d="M61.3,37.68c-0.34,0-0.61-0.28-0.61-0.61v-3.23c0-0.34,0.28-0.61,0.61-0.61s0.61,0.28,0.61,0.61v3.23
        	C61.91,37.4,61.63,37.68,61.3,37.68z"/>
    <path class="st0" d="M61.3,60.27c-0.34,0-0.61-0.28-0.61-0.61v-3.23c0-0.34,0.28-0.61,0.61-0.61s0.61,0.28,0.61,0.61v3.23
    	C61.91,60,61.63,60.27,61.3,60.27z"/>
</svg>
