<?xml
version="1.0" encoding="utf-8"?>
<!-- Generator: Adobe Illustrator 22.0.1, SVG Export Plug-In . SVG Version: 6.00 Build 0)  -->
<svg version="1.1" id="Слой_1" xmlns="http://www.w3.org/2000/svg" xmlns:xlink="http://www.w3.org/1999/xlink" x="0px" y="0px" viewBox="0 0 120 120" style="enable-background:new 0 0 120 120;" xml:space="preserve">
    <style type="text/css">
        .st0 {
            fill: #4572C4;
        }
    </style>
    <g>
        <rect x="18.2" y="93.4" class="st0" width="20.6" height="11.9"/>
        <polygon class="st0" points="2.6,99.4 18.2,110.9 18.2,88 	"/>
    </g>
    <g>
        <rect x="80.7" y="14.4" class="st0" width="20.6" height="11.9"/>
        <polygon class="st0" points="116.8,20.2 101.2,8.7 101.2,31.6 	"/>
    </g>
    <path d="M83.4,120c-20,0-36.4-16.4-36.4-36.4s16.4-36.4,36.4-36.4s36.4,16.4,36.4,36.4S103.4,120,83.4,120z M83.4,48.8
        	c-19.2,0-34.8,15.6-34.8,34.8s15.6,34.8,34.8,34.8s34.8-15.6,34.8-34.8S102.6,48.8,83.4,48.8z"/>
    <polygon points="100.4,27.1 80.7,27.1 80.7,25.5 102,25.5 102,30.6 115.6,20.4 102,10.1 102,15.2 80.7,15.2 80.7,13.6 100.4,13.6
        	100.4,6.9 118.4,20.4 100.4,33.8 "/>
    <polygon points="1,99.4 19,86 19,92.7 38.7,92.7 38.7,94.3 17.4,94.3 17.4,89.2 3.8,99.4 17.4,109.7 17.4,104.6 38.7,104.6
        	38.7,106.2 19,106.2 19,112.9 "/>
    <path d="M70.8,100.2V67h16.6c4.7,0,8.7,4,8.7,8.7c0,2.8-1.2,5.3-3.6,6.9l-1.2,1l1.2,1c2.2,1.6,3.6,4.2,3.6,6.9c0,4.7-4,8.7-8.7,8.7
        	H70.8z M72.4,98.6h15c4,0,7.1-3.2,7.1-7.1s-3.2-7.1-7.1-7.1h-15V98.6z M72.4,82.8h15c4,0,7.1-3.2,7.1-7.1s-3.2-7.1-7.1-7.1h-15V82.8
        	z"/>
    <rect x="74.7" y="63.1" width="1.6" height="3.6"/>
    <rect x="86.6" y="63.1" width="1.6" height="3.6"/>
    <rect x="74.7" y="100.6" width="1.6" height="3.6"/>
    <rect x="86.6" y="100.6" width="1.6" height="3.6"/>
    <path d="M61.1,101.4c-4-4.9-6.1-11.3-6.1-17.8C55,68,67.8,55.2,83.4,55.2c6.5,0,12.7,2.2,17.8,6.1l-1,1.2
        	c-4.7-3.8-10.7-5.7-16.6-5.7c-14.8,0-26.9,12.1-26.9,26.9c0,6.1,2,11.9,5.7,16.6L61.1,101.4z"/>
    <path d="M83.4,112.1c-6.5,0-12.7-2.2-17.8-6.1l1-1.2c4.7,3.8,10.7,5.7,16.6,5.7c14.8,0,26.9-12.1,26.9-26.9c0-6.1-2-11.9-5.7-16.6
        	l1.2-1c4,4.9,6.1,11.3,6.1,17.8C111.9,99.2,99,112.1,83.4,112.1z"/>
    <path d="M32,52.8c-4.7,0-8.7-4-8.7-8.7v-0.8h1.6v0.8c0,4,3.2,7.1,7.1,7.1h7.9c4,0,7.1-3.2,7.1-7.1S43.9,37,39.9,37H32
        	c-4.7,0-8.7-4-8.7-8.7s4-8.7,8.7-8.7h7.9c4.7,0,8.7,4,8.7,8.7v0.8H47v-0.8c0-4-3.2-7.1-7.1-7.1H32c-4,0-7.1,3.2-7.1,7.1
        	s3.2,7.1,7.1,7.1h7.9c4.7,0,8.7,4,8.7,8.7s-4,8.7-8.7,8.7H32z"/>
    <rect x="35.2" y="15.6" width="1.6" height="3.6"/>
    <rect x="35.2" y="53.2" width="1.6" height="3.6"/>
    <path d="M13.6,54c-4-4.9-6.1-11.3-6.1-17.8C7.5,20.6,20.4,7.7,36,7.7c6.5,0,12.7,2.2,17.8,6.1l-1,1.2C47.8,11.3,42.1,9.3,36,9.3
        	C21.1,9.3,9.1,21.3,9.1,36.2c0,6.1,2,11.9,5.7,16.6L13.6,54z"/>
    <path d="M36,64.6c-6.5,0-12.7-2.2-17.8-6.1l1-1.2c4.7,3.8,10.7,5.7,16.6,5.7c14.8,0,26.9-12.1,26.9-26.9c0-6.1-2-11.9-5.7-16.6
        	l1.2-1c4,4.9,6.1,11.3,6.1,17.8C64.4,51.8,51.6,64.6,36,64.6z"/>
    <path d="M36,72.6c-20,0-36.4-16.4-36.4-36.4S16-0.2,36-0.2s36.4,16.4,36.4,36.4c0,2.4-0.2,4.5-0.8,6.9L70,42.7
        	c0.4-2.2,0.6-4.5,0.6-6.5C70.6,17,55,1.4,35.8,1.4S1.2,17,1.2,36.2S16.8,71,36,71c2.2,0,4.3-0.2,6.5-0.6l0.4,1.6
        	C40.5,72.4,38.3,72.6,36,72.6z"/>
    <rect x="92.5" y="33.4" width="1.6" height="1.6"/>
    <rect x="84.6" y="33.4" width="1.6" height="1.6"/>
    <rect x="33.2" y="84.8" width="1.6" height="1.6"/>
    <rect x="25.3" y="84.8" width="1.6" height="1.6"/>
</svg>
