<svg style="fill:#4572C4" xmlns="http://www.w3.org/2000/svg" xmlns:xlink="http://www.w3.org/1999/xlink" width="25px" height="13px" viewBox="0 0 27 13">
    <g stroke="none" stroke-width="1" fill-rule="evenodd" transform="translate(-269, -307)">
        <path d="M289.692943,307.000101 C289.468865,306.995797 289.264179,307.129247 289.173686,307.333727 C289.085348,307.54036 289.130594,307.779279 289.287879,307.938558 L293.687559,312.516763 L269.829748,312.516763 C269.631525,312.51461 269.44623,312.617927 269.347119,312.790121 C269.245853,312.962314 269.245853,313.173252 269.347119,313.345446 C269.44623,313.517639 269.631525,313.620956 269.829748,313.618803 L293.687559,313.618803 L289.287879,318.197008 C289.076729,318.416555 289.085348,318.765248 289.305116,318.976185 C289.524885,319.187123 289.873928,319.180666 290.085079,318.958966 L295.74735,313.067783 L290.085079,307.1766 C289.983813,307.066826 289.84161,307.004406 289.692943,307.000101 Z"></path>
    </g>
</svg>
