<?xml version="1.0" encoding="utf-8"?>
<svg viewBox="0 0 500 500" xmlns="http://www.w3.org/2000/svg">
  <g id="g4" transform="matrix(0.81823, 0, 0, 0.81823, -7.014282, 29.559759)" style="">
    <g id="g6">
      <path id="path8" style="fill:#343084;fill-rule:evenodd" d="m 144.9411,235.0502 c 15.7099,-0.7996 30.6346,-2.0001 46.1098,-2.6883 -4.4482,-32.6903 -20.236,-50.0125 -67.9791,-50.0125 -46.8808,0 -67.2378,24.0995 -69.9259,46.241 -3.0251,24.9168 15.7303,40.8773 45.7175,49.5963 25.9007,7.589 47.6064,12.8628 48.2831,25.5833 0.7279,13.68 -14.8995,21.367 -22.6406,21.367 -13.8354,0 -28.8862,-15.3255 -30.6873,-29.3726 -15.0577,1.1951 -30.6885,1.2594 -45.7461,2.4545 0,38.1574 31.0121,58.3673 72.1312,58.3673 38.3448,0 76.0045,-16.1246 76.0045,-57.3619 0,-50.066 -54.1715,-50.0513 -89.6278,-62.3812 -12.3987,-6.8451 -5.9332,-21.8211 5.7362,-23.1369 23.5596,-2.8593 27.6041,10.5432 32.6245,21.344 z"/>
      <path id="path10" style="fill:#343084;fill-rule:evenodd" d="m 292.5513,186.4035 c 30.7264,0 52.4835,16.931 52.4835,51.2518 0,31.4546 -21.6471,51.5336 -53.0691,51.5336 -14.2532,0 -24.9914,0 -39.2446,0 0,20.0772 0,40.1544 0,60.2316 -2e-4,4.1381 -2e-4,4.1381 -3.6544,4.1381 -13.487,0 -27.4575,0 -40.9445,0 -5.1264,0 -5.1264,0 -5.1264,-3.8501 0,-51.3422 0,-104.8121 0,-156.1544 0,-7.1506 0,-7.1506 7.1954,-7.1506 28.4298,0 53.9303,0 82.3601,0 z m -35.8838,70.9579 c -2.9026,0 -3.9464,-1.1914 -3.9464,-2.9933 0,-10.7856 0,-21.5711 0,-32.3567 0,-2.3731 1.9369,-3.7063 3.7063,-3.7063 5.7342,0 11.4684,0 17.2026,0 14.8068,2.1853 20.2267,10.2076 20.2267,20.6686 0,14.9669 -13.3416,18.3877 -24.9302,18.3877 -4.0864,0 -8.1725,0 -12.259,0 z"/>
      <path id="path12" style="fill:#ff9400;fill-rule:evenodd" d="m 356.2106,191.0265 c 0,-2.0968 1.505,-3.7009 3.1635,-3.7009 43.505,0 87.0103,0 130.5153,0 2.88,-0.1301 3.1938,1.0542 3.1938,2.1753 0,9.9419 0,19.8836 0,29.8256 0.1341,1.3844 -1.0049,2.0171 -2.0171,2.0171 -27.548,0 -55.0959,0 -82.6438,0 -1.7272,0 -2.2984,1.7702 -2.2984,3.7037 0,6.7128 0,13.4252 0,20.1379 0,2.1717 1.5489,4.1579 4.1576,4.1579 24.3746,0 48.7491,0 73.1237,0 0.5561,0.5561 1.1126,1.1126 1.6687,1.6687 0,9.3218 0,18.6438 0,27.9655 -0.8359,1.1996 -1.6716,2.399 -2.5075,3.5986 -24.5622,0 -49.1241,0 -73.6863,0 -1.7048,0 -2.7562,1.0517 -2.7562,2.7561 0,8.9425 0,17.8847 0,26.8271 0,1.4791 1.7632,3.1266 3.824,3.1266 27.1556,0 54.3115,0 81.4671,0 1.0769,0 1.6682,1.025 1.6682,1.6682 0,10.861 0,21.7216 0,32.5826 0,0.7662 -0.8668,1.6035 -1.6038,1.6035 -44.6454,0 -89.2908,0 -133.9362,0 -0.7101,0 -1.3326,-0.701 -1.3326,-1.3328 0,-52.9268 0,-105.8539 0,-158.7807 z"/>
      <path id="path14" style="fill:#343084;fill-rule:evenodd" d="m 563.9278,279.7277 0,71.4123 -46.4749,0 c -0.71,0 -1.3325,-0.701 -1.3325,-1.3328 l 0,-63.7971 c 0,-1.7085 1.18,-2.6924 2.0619,-2.6924 4.4476,0 8.8948,0 13.3424,0 1.3371,0 1.675,1.1438 1.675,2.1538 0,9.938 0,19.8762 0,29.8142 0,3.7664 3.1578,2.1433 4.8467,0 8.6272,-11.8528 17.2542,-23.7053 25.8814,-35.558 z"/>
      <path id="path16" style="fill:#ff9400;fill-rule:evenodd" d="m 514.0888,191.0265 c 0,-2.0968 1.5049,-3.7009 3.1635,-3.7009 14.2202,0 28.4402,0 42.6605,0 2.9554,0 4.015,1.8093 4.015,3.2377 l 0,60.9786 -26.1207,-36.5525 c -0.5644,-0.7908 -1.8547,-0.7398 -1.8547,0.8975 0,8.7755 0,17.5507 0,26.3262 0,1.4661 -0.7242,4.248 -2.8122,4.248 l -0.2659,0 -0.001,0 -0.2645,0 -0.006,0 -0.2599,0 -0.0131,0 -0.2531,0 -0.0227,0 -0.2432,0 -0.0351,0 -0.2308,0 -0.0501,0 -0.2158,0 -0.0677,0 -0.1981,0 -0.0874,0 -0.1785,0 -0.1095,0 -0.1567,0 -0.1332,0 -0.1327,0 -0.1593,0 -0.1066,0 -0.1874,0 -0.0785,0 -0.2174,0 -0.0485,0 -0.2491,0 -0.0168,0 -0.2658,0 -0.0168,0 -0.2494,0 -0.0513,0 -0.2146,0 -0.0879,0 -0.178,0 -0.1259,0 -0.14,0 -0.165,0 -0.1009,0 -0.2052,0 -0.0607,0 -0.2469,0 -0.0192,0 -0.2659,0 -0.0233,0 -0.2426,0 -0.0666,0 -0.1993,0 -0.1108,0 -0.1551,0 -0.1559,0 -0.11,0 -0.2018,0 -0.0644,0 -0.2477,0 -0.0182,0 -0.2658,0 -0.0284,0 -0.2375,0 -0.0757,0 -0.1902,0 -0.123,0 -0.1429,0 -0.1704,0 -0.0955,0 -0.218,0 -0.0482,0 -0.2656,0 -3e-4,0 -0.2659,0 -0.047,0 -0.2188,0 -0.0944,0 -0.1715,0 -0.1418,0 -0.1241,0 -0.1882,0 -0.078,0 -0.2341,0 -0.0318,0 -0.2659,0 -0.0141,0 -0.2518,0 -0.0592,0 -0.2067,0 -0.1034,0 -0.1624,0 -0.1469,0 -0.119,0 -0.1894,0 -0.0768,0 -0.2307,0 -0.0352,0 -0.2659,0 -0.005,0 -0.2608,0 -0.0442,0 -0.2217,0 -0.0822,0 -0.1837,0 -0.1187,0 -0.1474,0 -0.1534,0 -0.1125,0 -0.1868,0 -0.0791,0 -0.2186,0 -0.0473,0 -0.2486,0 -0.0173,0 -0.2659,0 -0.0108,0 -0.2554,0 -0.0365,0 -0.2293,0 -0.0607,0 -0.2052,0 -0.0828,0 -0.1831,0 c -0.9278,0 -2.0316,-2.0934 -2.0316,-3.2907 l 0,-52.1439 z"/>
    </g>
    <g id="g18" style="visibility: hidden;">
      <path id="path20" style="fill:#343084;fill-rule:evenodd" d="m 144.9411,488.1146 c 15.7099,-0.7996 30.6346,-2.0001 46.1098,-2.6883 -4.4482,-32.6903 -20.236,-50.0125 -67.9791,-50.0125 -46.8808,0 -67.2378,24.0996 -69.9259,46.241 -3.0251,24.9168 15.7303,40.8773 45.7175,49.5963 25.9007,7.589 47.6064,12.8628 48.2831,25.5833 0.7279,13.68 -14.8995,21.367 -22.6406,21.367 -13.8354,0 -28.8862,-15.3255 -30.6873,-29.3726 -15.0577,1.1951 -30.6885,1.2594 -45.7461,2.4545 0,38.1575 31.0121,58.3673 72.1312,58.3673 38.3448,0 76.0045,-16.1246 76.0045,-57.3618 0,-50.0661 -54.1715,-50.0514 -89.6278,-62.3812 -12.3987,-6.8451 -5.9332,-21.8211 5.7362,-23.137 23.5596,-2.8593 27.6041,10.5432 32.6245,21.344 z"/>
      <path id="path22" style="fill:#343084;fill-rule:evenodd" d="m 292.5513,439.4679 c 30.7264,0 52.4835,16.931 52.4835,51.2518 0,31.4546 -21.6471,51.5336 -53.0691,51.5336 -14.2532,0 -24.9914,0 -39.2446,0 0,20.0772 0,40.1544 0,60.2316 -2e-4,4.1381 -2e-4,4.1381 -3.6544,4.1381 -13.487,0 -27.4575,0 -40.9445,0 -5.1264,0 -5.1264,0 -5.1264,-3.8501 0,-51.3422 0,-104.8121 0,-156.1543 0,-7.1507 0,-7.1507 7.1954,-7.1507 28.4298,0 53.9303,0 82.3601,0 z m -35.8838,70.958 c -2.9026,0 -3.9464,-1.1914 -3.9464,-2.9934 0,-10.7856 0,-21.5711 0,-32.3567 0,-2.3731 1.9369,-3.7063 3.7063,-3.7063 5.7342,0 11.4684,0 17.2026,0 14.8068,2.1853 20.2267,10.2076 20.2267,20.6686 0,14.9669 -13.3416,18.3878 -24.9302,18.3878 -4.0864,0 -8.1725,0 -12.259,0 z"/>
      <path id="path24" style="fill:#ff9400;fill-rule:evenodd" d="m 356.2106,444.0909 c 0,-2.0968 1.505,-3.7009 3.1635,-3.7009 43.505,0 87.0103,0 130.5153,0 2.88,-0.1301 3.1938,1.0542 3.1938,2.1753 0,9.9419 0,19.8836 0,29.8256 0.1341,1.3844 -1.0049,2.0171 -2.0171,2.0171 -27.548,0 -55.0959,0 -82.6438,0 -1.7272,0 -2.2984,1.7702 -2.2984,3.7037 0,6.7128 0,13.4252 0,20.1379 0,2.1717 1.5489,4.1579 4.1576,4.1579 24.3746,0 48.7491,0 73.1237,0 0.5561,0.5562 1.1126,1.1126 1.6687,1.6688 0,9.3217 0,18.6437 0,27.9654 -0.8359,1.1997 -1.6716,2.399 -2.5075,3.5986 -24.5622,0 -49.1241,0 -73.6863,0 -1.7048,0 -2.7562,1.0517 -2.7562,2.7561 0,8.9425 0,17.8847 0,26.8271 0,1.4791 1.7632,3.1266 3.824,3.1266 27.1556,0 54.3115,0 81.4671,0 1.0769,0 1.6682,1.025 1.6682,1.6682 0,10.861 0,21.7216 0,32.5826 0,0.7662 -0.8668,1.6035 -1.6038,1.6035 -44.6454,0 -89.2908,0 -133.9362,0 -0.7101,0 -1.3326,-0.701 -1.3326,-1.3328 0,-52.9268 0,-105.8539 0,-158.7807 z"/>
      <path id="path26" style="fill:#343084;fill-rule:evenodd" d="m 563.9278,532.7921 0,71.4123 -46.4749,0 c -0.71,0 -1.3325,-0.701 -1.3325,-1.3328 l 0,-63.7971 c 0,-1.7085 1.18,-2.6924 2.0619,-2.6924 4.4476,0 8.8948,0 13.3424,0 1.3371,0 1.675,1.1438 1.675,2.1538 0,9.938 0,19.8763 0,29.8142 0,3.7664 3.1578,2.1433 4.8467,0 8.6272,-11.8527 17.2542,-23.7052 25.8814,-35.558 z"/>
      <path id="path28" style="fill:#343084;fill-rule:evenodd" d="m 514.0888,444.0909 c 0,-2.0968 1.5049,-3.7009 3.1635,-3.7009 14.2202,0 28.4402,0 42.6605,0 2.9554,0 4.015,1.8093 4.015,3.2377 l 0,60.9786 -26.1207,-36.5524 c -0.5644,-0.7909 -1.8547,-0.7399 -1.8547,0.8974 0,8.7755 0,17.5507 0,26.3262 0,1.4661 -0.7242,4.248 -2.8122,4.248 l -0.2659,0 -0.001,0 -0.2645,0 -0.006,0 -0.2599,0 -0.0131,0 -0.2531,0 -0.0227,0 -0.2432,0 -0.0351,0 -0.2308,0 -0.0501,0 -0.2158,0 -0.0677,0 -0.1981,0 -0.0874,0 -0.1785,0 -0.1095,0 -0.1567,0 -0.1332,0 -0.1327,0 -0.1593,0 -0.1066,0 -0.1874,0 -0.0785,0 -0.2174,0 -0.0485,0 -0.2491,0 -0.0168,0 -0.2658,0 -0.0168,0 -0.2494,0 -0.0513,0 -0.2146,0 -0.0879,0 -0.178,0 -0.1259,0 -0.14,0 -0.165,0 -0.1009,0 -0.2052,0 -0.0607,0 -0.2469,0 -0.0192,0 -0.2659,0 -0.0233,0 -0.2426,0 -0.0666,0 -0.1993,0 -0.1108,0 -0.1551,0 -0.1559,0 -0.11,0 -0.2018,0 -0.0644,0 -0.2477,0 -0.0182,0 -0.2658,0 -0.0284,0 -0.2375,0 -0.0757,0 -0.1902,0 -0.123,0 -0.1429,0 -0.1704,0 -0.0955,0 -0.218,0 -0.0482,0 -0.2656,0 -3e-4,0 -0.2659,0 -0.047,0 -0.2188,0 -0.0944,0 -0.1715,0 -0.1418,0 -0.1241,0 -0.1882,0 -0.078,0 -0.2341,0 -0.0318,0 -0.2659,0 -0.0141,0 -0.2518,0 -0.0592,0 -0.2067,0 -0.1034,0 -0.1624,0 -0.1469,0 -0.119,0 -0.1894,0 -0.0768,0 -0.2307,0 -0.0352,0 -0.2659,0 -0.005,0 -0.2608,0 -0.0442,0 -0.2217,0 -0.0822,0 -0.1837,0 -0.1187,0 -0.1474,0 -0.1534,0 -0.1125,0 -0.1868,0 -0.0791,0 -0.2186,0 -0.0473,0 -0.2486,0 -0.0173,0 -0.2659,0 -0.0108,0 -0.2554,0 -0.0365,0 -0.2293,0 -0.0607,0 -0.2052,0 -0.0828,0 -0.1831,0 c -0.9278,0 -2.0316,-2.0934 -2.0316,-3.2907 l 0,-52.1439 z"/>
    </g>
  </g>
</svg>