<?xml version="1.0" encoding="utf-8"?>
<!-- Generator: Adobe Illustrator 22.0.1, SVG Export Plug-In . SVG Version: 6.00 Build 0)  -->
<svg version="1.1" id="Слой_1" xmlns="http://www.w3.org/2000/svg" xmlns:xlink="http://www.w3.org/1999/xlink" x="0px" y="0px"
	 viewBox="0 0 120 120" style="enable-background:new 0 0 120 120;" xml:space="preserve">
<style type="text/css">
	.st0{fill:#FF5722;}
</style>
<rect x="39.3" y="13.8" transform="matrix(0.8424 -0.5388 0.5388 0.8424 -8.214 25.942)" width="1.9" height="26.4"/>
<circle class="st0" cx="60.3" cy="60.1" r="27.2"/>
<path d="M60.3,88c-15.3,0-28-12.6-28-28s12.6-28,28-28s28,12.6,28,28S75.6,88,60.3,88z M60.3,33.6c-14.6,0-26.4,11.9-26.4,26.4
	s11.9,26.4,26.4,26.4s26.4-11.9,26.4-26.4S74.8,33.6,60.3,33.6z"/>
<path d="M51.7,68.6V51.5h12.4c2.5,0,4.7,2.1,4.7,4.7c0,1.2-0.4,2.3-1.2,3.1l-0.8,0.8l0.8,0.8c0.8,0.8,1.2,1.9,1.2,3.1
	c0,2.5-2.1,4.7-4.7,4.7H51.7z M53.3,67.1h10.9c1.7,0,3.1-1.4,3.1-3.1s-1.4-3.1-3.1-3.1H53.3V67.1z M53.3,59.3h10.9
	c1.7,0,3.1-1.4,3.1-3.1s-1.4-3.1-3.1-3.1H53.3V59.3z"/>
<rect x="55.6" y="49.6" width="1.6" height="3.5"/>
<rect x="55.6" y="67.1" width="1.6" height="3.5"/>
<rect x="63.4" y="49.6" width="1.6" height="3.5"/>
<rect x="63.4" y="67.1" width="1.6" height="3.5"/>
<path d="M43.9,71.9c-2.5-3.5-3.9-7.6-3.9-11.9c0-11.1,9.1-20.2,20.2-20.2c4.3,0,8.4,1.4,11.9,3.9l-1,1.2c-3.1-2.3-7-3.5-10.9-3.5
	c-10.3,0-18.7,8.4-18.7,18.7c0,3.9,1.2,7.8,3.5,10.9L43.9,71.9z"/>
<path d="M60.3,80.3c-4.3,0-8.4-1.4-11.9-3.9l1-1.2c3.1,2.3,7,3.5,10.9,3.5c10.3,0,18.7-8.4,18.7-18.7c0-3.9-1.2-7.8-3.5-10.9l1.2-1
	c2.5,3.5,3.9,7.6,3.9,11.9C80.5,71.1,71.3,80.3,60.3,80.3z"/>
<rect x="87.5" y="57.9" transform="matrix(0.9992 -3.991502e-02 3.991502e-02 0.9992 -2.2697 3.926)" width="19.4" height="1.7"/>
<rect x="95.6" y="23.2" transform="matrix(0.7281 -0.6854 0.6854 0.7281 -1.7874 77.1291)" width="1.6" height="35.2"/>
<rect x="76.6" y="9.6" transform="matrix(0.9286 -0.371 0.371 0.9286 -0.2177 29.8597)" width="1.7" height="11.9"/>
<rect x="35.2" y="7.6" transform="matrix(0.9916 -0.1294 0.1294 0.9916 -0.643 6.8737)" width="34.8" height="1.6"/>
<rect x="17.7" y="26.3" transform="matrix(0.1322 -0.9912 0.9912 0.1322 -3.3721 50.5303)" width="19" height="1.7"/>
<rect x="30.7" y="40.2" transform="matrix(0.4856 -0.8742 0.8742 0.4856 -22.8748 50.8796)" width="2.1" height="9.3"/>
<polygon points="35,86.1 40.8,79.3 42,80.5 36.2,87.3 "/>
<polygon points="9.7,84.2 10.3,82.6 26.1,88 25.5,89.6 "/>
<polygon points="5.9,76.8 23.9,43.7 25.7,44.5 7.6,77.6 "/>
<rect x="70.9" y="30.7" transform="matrix(0.53 -0.848 0.848 0.53 8.7963 79.4493)" width="10.3" height="2.1"/>
<rect x="85.5" y="22.2" transform="matrix(0.9839 -0.179 0.179 0.9839 -2.6402 16.8789)" width="13.4" height="1.7"/>
<rect x="107.1" y="24.9" transform="matrix(0.9637 -0.2671 0.2671 0.9637 -6.4316 30.2523)" width="1.7" height="27.8"/>
<rect x="5.1" y="31.7" width="1.6" height="45.9"/>
<rect x="7.6" y="19.6" transform="matrix(0.8 -0.6 0.6 0.8 -8.8282 14.4181)" width="19.2" height="1.7"/>
<rect x="72.7" y="85.7" transform="matrix(0.9451 -0.3268 0.3268 0.9451 -28.1138 29.4113)" width="1.6" height="25.3"/>
<rect x="93.8" y="75.5" transform="matrix(0.3688 -0.9295 0.9295 0.3688 -3.71 147.0015)" width="25.3" height="1.6"/>
<rect x="78.6" y="102.1" transform="matrix(0.6757 -0.7371 0.7371 0.6757 -46.5561 99.9312)" width="23.5" height="1.6"/>
<rect x="56.4" y="113.7" width="20.2" height="1.6"/>
<polygon points="35,96.2 36.2,95 50.6,111.6 49.4,112.7 "/>
<rect x="89.4" y="72.8" transform="matrix(0.6287 -0.7776 0.7776 0.6287 -30.6227 100.6926)" width="1.6" height="19.2"/>
<rect x="14.4" y="27" transform="matrix(0.5145 -0.8575 0.8575 0.5145 -22.768 30.1816)" width="1.7" height="16.3"/>
<path d="M73.9,10.3c-2.5,0-4.7-2.1-4.7-4.7S71.3,1,73.9,1c2.5,0,4.7,2.1,4.7,4.7S76.4,10.3,73.9,10.3z M73.9,2.6
	c-1.7,0-3.1,1.4-3.1,3.1s1.4,3.1,3.1,3.1c1.7,0,3.1-1.4,3.1-3.1S75.6,2.6,73.9,2.6z"/>
<path d="M25.3,45.3c-2.5,0-4.7-2.1-4.7-4.7s2.1-4.7,4.7-4.7s4.7,2.1,4.7,4.7S27.8,45.3,25.3,45.3z M25.3,37.5
	c-1.7,0-3.1,1.4-3.1,3.1s1.4,3.1,3.1,3.1s3.1-1.4,3.1-3.1S27,37.5,25.3,37.5z"/>
<path d="M103,25.9c-2.5,0-4.7-2.1-4.7-4.7s2.1-4.7,4.7-4.7c2.5,0,4.7,2.1,4.7,4.7S105.5,25.9,103,25.9z M103,18.1
	c-1.7,0-3.1,1.4-3.1,3.1c0,1.7,1.4,3.1,3.1,3.1s3.1-1.4,3.1-3.1C106.1,19.5,104.8,18.1,103,18.1z"/>
<path d="M5.9,86.1c-2.5,0-4.7-2.1-4.7-4.7c0-2.5,2.1-4.7,4.7-4.7s4.7,2.1,4.7,4.7C10.5,84,8.4,86.1,5.9,86.1z M5.9,78.3
	c-1.7,0-3.1,1.4-3.1,3.1s1.4,3.1,3.1,3.1S9,83.2,9,81.4S7.6,78.3,5.9,78.3z"/>
<path d="M79.7,119.1c-2.5,0-4.7-2.1-4.7-4.7c0-2.5,2.1-4.7,4.7-4.7c2.5,0,4.7,2.1,4.7,4.7C84.4,117,82.2,119.1,79.7,119.1z
	 M79.7,111.4c-1.7,0-3.1,1.4-3.1,3.1s1.4,3.1,3.1,3.1s3.1-1.4,3.1-3.1S81.4,111.4,79.7,111.4z"/>
<path d="M101.1,95.8c-2.5,0-4.7-2.1-4.7-4.7c0-2.5,2.1-4.7,4.7-4.7c2.5,0,4.7,2.1,4.7,4.7C105.7,93.7,103.6,95.8,101.1,95.8z
	 M101.1,88c-1.7,0-3.1,1.4-3.1,3.1s1.4,3.1,3.1,3.1s3.1-1.4,3.1-3.1S102.8,88,101.1,88z"/>
<path d="M81.6,29.8c-2.5,0-4.7-2.1-4.7-4.7s2.1-4.7,4.7-4.7c2.5,0,4.7,2.1,4.7,4.7S84.2,29.8,81.6,29.8z M81.6,22
	c-1.7,0-3.1,1.4-3.1,3.1c0,1.7,1.4,3.1,3.1,3.1s3.1-1.4,3.1-3.1C84.7,23.3,83.4,22,81.6,22z"/>
<path d="M29.2,18.1c-3.7,0-6.6-2.9-6.6-6.6s2.9-6.6,6.6-6.6s6.6,2.9,6.6,6.6S32.9,18.1,29.2,18.1z M29.2,6.4c-2.7,0-5.1,2.3-5.1,5.1
	s2.3,5.1,5.1,5.1s5.1-2.3,5.1-5.1S31.9,6.4,29.2,6.4z"/>
<path d="M31.1,97.8c-3.7,0-6.6-2.9-6.6-6.6c0-3.7,2.9-6.6,6.6-6.6s6.6,2.9,6.6,6.6C37.7,94.8,34.8,97.8,31.1,97.8z M31.1,86.1
	c-2.7,0-5.1,2.3-5.1,5.1s2.3,5.1,5.1,5.1s5.1-2.3,5.1-5.1S33.8,86.1,31.1,86.1z"/>
<path d="M112.7,64.7c-3.7,0-6.6-2.9-6.6-6.6s2.9-6.6,6.6-6.6c3.7,0,6.6,2.9,6.6,6.6S116.4,64.7,112.7,64.7z M112.7,53.1
	c-2.7,0-5.1,2.3-5.1,5.1c0,2.7,2.3,5.1,5.1,5.1s5.1-2.3,5.1-5.1C117.8,55.4,115.4,53.1,112.7,53.1z"/>
<path d="M52.5,119.1c-2.5,0-4.7-2.1-4.7-4.7c0-2.5,2.1-4.7,4.7-4.7s4.7,2.1,4.7,4.7C57.2,117,55,119.1,52.5,119.1z M52.5,111.4
	c-1.7,0-3.1,1.4-3.1,3.1s1.4,3.1,3.1,3.1s3.1-1.4,3.1-3.1S54.2,111.4,52.5,111.4z"/>
<path d="M5.9,33.6c-2.5,0-4.7-2.1-4.7-4.7s2.1-4.7,4.7-4.7s4.7,2.1,4.7,4.7S8.4,33.6,5.9,33.6z M5.9,25.9c-1.7,0-3.1,1.4-3.1,3.1
	s1.4,3.1,3.1,3.1S9,30.7,9,29S7.6,25.9,5.9,25.9z"/>
</svg>
