<svg xmlns="http://www.w3.org/2000/svg" xmlns:xlink="http://www.w3.org/1999/xlink" version="1.1" width="256" height="256" viewBox="0 0 256 256" xml:space="preserve">

<defs>
</defs>
<g style="stroke: none; stroke-width: 0; stroke-dasharray: none; stroke-linecap: butt; stroke-linejoin: miter; stroke-miterlimit: 10; fill: none; fill-rule: nonzero; opacity: 1;" transform="translate(1.4065934065934016 1.4065934065934016) scale(2.81 2.81)" >
	<path d="M 19.385 16.394 c -0.829 0 -1.5 0.671 -1.5 1.5 c 0 0.497 -0.285 0.814 -0.48 0.814 h -5.81 c -0.196 0 -0.48 -0.317 -0.48 -0.814 v -6.788 c 0 -0.497 0.285 -0.814 0.48 -0.814 h 5.81 c 0.196 0 0.48 0.317 0.48 0.814 c 0 0.829 0.671 1.5 1.5 1.5 s 1.5 -0.671 1.5 -1.5 c 0 -2.104 -1.562 -3.814 -3.48 -3.814 H 16 V 6.444 c 0 -0.829 -0.671 -1.5 -1.5 -1.5 S 13 5.616 13 6.444 v 0.847 h -1.405 c -1.919 0 -3.48 1.711 -3.48 3.814 v 6.788 c 0 2.103 1.562 3.814 3.48 3.814 H 13 v 0.847 c 0 0.829 0.671 1.5 1.5 1.5 s 1.5 -0.671 1.5 -1.5 v -0.847 h 1.405 c 1.919 0 3.48 -1.711 3.48 -3.814 C 20.885 17.066 20.214 16.394 19.385 16.394 z" style="stroke: none; stroke-width: 1; stroke-dasharray: none; stroke-linecap: butt; stroke-linejoin: miter; stroke-miterlimit: 10; fill: rgb(255,87,34); fill-rule: nonzero; opacity: 1;" transform=" matrix(1 0 0 1 0 0) " stroke-linecap="round" />
	<path d="M 80.385 16.394 c -0.828 0 -1.5 0.671 -1.5 1.5 c 0 0.497 -0.284 0.814 -0.48 0.814 h -5.81 c -0.196 0 -0.48 -0.317 -0.48 -0.814 v -6.788 c 0 -0.497 0.284 -0.814 0.48 -0.814 h 5.81 c 0.196 0 0.48 0.317 0.48 0.814 c 0 0.829 0.672 1.5 1.5 1.5 s 1.5 -0.671 1.5 -1.5 c 0 -2.104 -1.562 -3.814 -3.48 -3.814 H 77 V 6.444 c 0 -0.829 -0.672 -1.5 -1.5 -1.5 S 74 5.616 74 6.444 v 0.847 h -1.405 c -1.919 0 -3.48 1.711 -3.48 3.814 v 6.788 c 0 2.103 1.562 3.814 3.48 3.814 H 74 v 0.847 c 0 0.829 0.672 1.5 1.5 1.5 s 1.5 -0.671 1.5 -1.5 v -0.847 h 1.404 c 1.919 0 3.48 -1.711 3.48 -3.814 C 81.885 17.066 81.213 16.394 80.385 16.394 z" style="stroke: none; stroke-width: 1; stroke-dasharray: none; stroke-linecap: butt; stroke-linejoin: miter; stroke-miterlimit: 10; fill: rgb(255,87,34); fill-rule: nonzero; opacity: 1;" transform=" matrix(1 0 0 1 0 0) " stroke-linecap="round" />
	<path d="M 19.385 77.394 c -0.829 0 -1.5 0.672 -1.5 1.5 c 0 0.497 -0.285 0.814 -0.48 0.814 h -5.81 c -0.196 0 -0.48 -0.317 -0.48 -0.814 v -6.788 c 0 -0.496 0.285 -0.813 0.48 -0.813 h 5.81 c 0.196 0 0.48 0.317 0.48 0.813 c 0 0.828 0.671 1.5 1.5 1.5 s 1.5 -0.672 1.5 -1.5 c 0 -2.103 -1.562 -3.813 -3.48 -3.813 H 16 v -0.848 c 0 -0.828 -0.671 -1.5 -1.5 -1.5 s -1.5 0.672 -1.5 1.5 v 0.848 h -1.405 c -1.919 0 -3.48 1.711 -3.48 3.813 v 6.788 c 0 2.104 1.562 3.814 3.48 3.814 H 13 v 0.848 c 0 0.828 0.671 1.5 1.5 1.5 s 1.5 -0.672 1.5 -1.5 v -0.848 h 1.405 c 1.919 0 3.48 -1.711 3.48 -3.814 C 20.885 78.066 20.214 77.394 19.385 77.394 z" style="stroke: none; stroke-width: 1; stroke-dasharray: none; stroke-linecap: butt; stroke-linejoin: miter; stroke-miterlimit: 10; fill: rgb(255,87,34); fill-rule: nonzero; opacity: 1;" transform=" matrix(1 0 0 1 0 0) " stroke-linecap="round" />
	<path d="M 80.385 77.394 c -0.828 0 -1.5 0.672 -1.5 1.5 c 0 0.497 -0.284 0.814 -0.48 0.814 h -5.81 c -0.196 0 -0.48 -0.317 -0.48 -0.814 v -6.788 c 0 -0.496 0.284 -0.813 0.48 -0.813 h 5.81 c 0.196 0 0.48 0.317 0.48 0.813 c 0 0.828 0.672 1.5 1.5 1.5 s 1.5 -0.672 1.5 -1.5 c 0 -2.103 -1.562 -3.813 -3.48 -3.813 H 77 v -0.848 c 0 -0.828 -0.672 -1.5 -1.5 -1.5 s -1.5 0.672 -1.5 1.5 v 0.848 h -1.405 c -1.919 0 -3.48 1.711 -3.48 3.813 v 6.788 c 0 2.104 1.562 3.814 3.48 3.814 H 74 v 0.848 c 0 0.828 0.672 1.5 1.5 1.5 s 1.5 -0.672 1.5 -1.5 v -0.848 h 1.404 c 1.919 0 3.48 -1.711 3.48 -3.814 C 81.885 78.066 81.213 77.394 80.385 77.394 z" style="stroke: none; stroke-width: 1; stroke-dasharray: none; stroke-linecap: butt; stroke-linejoin: miter; stroke-miterlimit: 10; fill: rgb(255,87,34); fill-rule: nonzero; opacity: 1;" transform=" matrix(1 0 0 1 0 0) " stroke-linecap="round" />
	<path d="M 49.885 46.894 c -0.828 0 -1.5 0.671 -1.5 1.5 c 0 0.497 -0.284 0.814 -0.48 0.814 h -5.81 c -0.196 0 -0.48 -0.317 -0.48 -0.814 v -6.788 c 0 -0.497 0.285 -0.814 0.48 -0.814 h 5.81 c 0.196 0 0.48 0.317 0.48 0.814 c 0 0.829 0.672 1.5 1.5 1.5 s 1.5 -0.671 1.5 -1.5 c 0 -2.104 -1.562 -3.814 -3.48 -3.814 H 46.5 v -0.847 c 0 -0.829 -0.671 -1.5 -1.5 -1.5 s -1.5 0.671 -1.5 1.5 v 0.847 h -1.405 c -1.919 0 -3.48 1.711 -3.48 3.814 v 6.788 c 0 2.103 1.562 3.814 3.48 3.814 H 43.5 v 0.848 c 0 0.828 0.671 1.5 1.5 1.5 s 1.5 -0.672 1.5 -1.5 v -0.848 h 1.405 c 1.919 0 3.48 -1.711 3.48 -3.814 C 51.385 47.566 50.713 46.894 49.885 46.894 z" style="stroke: none; stroke-width: 1; stroke-dasharray: none; stroke-linecap: butt; stroke-linejoin: miter; stroke-miterlimit: 10; fill: rgb(255,87,34); fill-rule: nonzero; opacity: 1;" transform=" matrix(1 0 0 1 0 0) " stroke-linecap="round" />
	<path d="M 75.5 61 c -3.464 0 -6.641 1.218 -9.135 3.245 l -10.11 -10.111 C 58.282 51.64 59.5 48.464 59.5 45 c 0 -3.386 -1.17 -6.493 -3.115 -8.961 l 10.154 -10.154 C 69.007 27.83 72.114 29 75.5 29 C 83.508 29 90 22.508 90 14.5 C 90 6.492 83.508 0 75.5 0 S 61 6.492 61 14.5 c 0 3.541 1.273 6.783 3.382 9.301 L 54.301 33.882 C 51.783 31.773 48.541 30.5 45 30.5 c -3.464 0 -6.64 1.218 -9.134 3.244 l -10.11 -10.11 C 27.782 21.14 29 17.964 29 14.5 C 29 6.492 22.508 0 14.5 0 S 0 6.492 0 14.5 C 0 22.508 6.492 29 14.5 29 c 3.464 0 6.641 -1.218 9.135 -3.245 l 10.11 10.11 C 31.718 38.359 30.5 41.536 30.5 45 c 0 3.541 1.273 6.783 3.382 9.301 l -10.08 10.081 C 21.283 62.273 18.041 61 14.5 61 C 6.492 61 0 67.492 0 75.5 C 0 83.508 6.492 90 14.5 90 S 29 83.508 29 75.5 c 0 -3.386 -1.17 -6.493 -3.114 -8.96 l 10.154 -10.154 C 38.507 58.33 41.614 59.5 45 59.5 c 3.464 0 6.641 -1.218 9.134 -3.245 l 10.11 10.111 C 62.218 68.86 61 72.036 61 75.5 C 61 83.508 67.492 90 75.5 90 S 90 83.508 90 75.5 C 90 67.492 83.508 61 75.5 61 z M 75.5 3 C 81.841 3 87 8.159 87 14.5 S 81.841 26 75.5 26 S 64 20.841 64 14.5 S 69.159 3 75.5 3 z M 14.5 26 C 8.159 26 3 20.841 3 14.5 S 8.159 3 14.5 3 S 26 8.159 26 14.5 S 20.841 26 14.5 26 z M 14.5 87 C 8.159 87 3 81.841 3 75.5 S 8.159 64 14.5 64 S 26 69.159 26 75.5 S 20.841 87 14.5 87 z M 45 56.5 c -6.341 0 -11.5 -5.159 -11.5 -11.5 c 0 -6.341 5.159 -11.5 11.5 -11.5 S 56.5 38.659 56.5 45 C 56.5 51.341 51.341 56.5 45 56.5 z M 75.5 87 C 69.159 87 64 81.841 64 75.5 S 69.159 64 75.5 64 S 87 69.159 87 75.5 S 81.841 87 75.5 87 z" style="stroke: none; stroke-width: 1; stroke-dasharray: none; stroke-linecap: butt; stroke-linejoin: miter; stroke-miterlimit: 10; fill: rgb(255,87,34); fill-rule: nonzero; opacity: 1;" transform=" matrix(1 0 0 1 0 0) " stroke-linecap="round" />
	<path d="M 14.5 56.946 c -0.829 0 -1.5 -0.672 -1.5 -1.5 V 34.554 c 0 -0.829 0.671 -1.5 1.5 -1.5 s 1.5 0.671 1.5 1.5 v 20.893 C 16 56.275 15.329 56.946 14.5 56.946 z" style="stroke: none; stroke-width: 1; stroke-dasharray: none; stroke-linecap: butt; stroke-linejoin: miter; stroke-miterlimit: 10; fill: rgb(255,87,34); fill-rule: nonzero; opacity: 1;" transform=" matrix(1 0 0 1 0 0) " stroke-linecap="round" />
	<path d="M 75.5 56.946 c -0.828 0 -1.5 -0.672 -1.5 -1.5 V 34.554 c 0 -0.829 0.672 -1.5 1.5 -1.5 s 1.5 0.671 1.5 1.5 v 20.893 C 77 56.275 76.329 56.946 75.5 56.946 z" style="stroke: none; stroke-width: 1; stroke-dasharray: none; stroke-linecap: butt; stroke-linejoin: miter; stroke-miterlimit: 10; fill: rgb(255,87,34); fill-rule: nonzero; opacity: 1;" transform=" matrix(1 0 0 1 0 0) " stroke-linecap="round" />
	<path d="M 55.446 77 H 34.554 c -0.829 0 -1.5 -0.672 -1.5 -1.5 s 0.671 -1.5 1.5 -1.5 h 20.892 c 0.828 0 1.5 0.672 1.5 1.5 S 56.274 77 55.446 77 z" style="stroke: none; stroke-width: 1; stroke-dasharray: none; stroke-linecap: butt; stroke-linejoin: miter; stroke-miterlimit: 10; fill: rgb(255,87,34); fill-rule: nonzero; opacity: 1;" transform=" matrix(1 0 0 1 0 0) " stroke-linecap="round" />
	<path d="M 55.446 16 H 34.554 c -0.829 0 -1.5 -0.671 -1.5 -1.5 s 0.671 -1.5 1.5 -1.5 h 20.892 c 0.828 0 1.5 0.671 1.5 1.5 S 56.274 16 55.446 16 z" style="stroke: none; stroke-width: 1; stroke-dasharray: none; stroke-linecap: butt; stroke-linejoin: miter; stroke-miterlimit: 10; fill: rgb(255,87,34); fill-rule: nonzero; opacity: 1;" transform=" matrix(1 0 0 1 0 0) " stroke-linecap="round" />
</g>
</svg>