<?xml
version="1.0" encoding="utf-8"?>
<!-- Generator: Adobe Illustrator 22.0.1, SVG Export Plug-In . SVG Version: 6.00 Build 0)  -->
<svg version="1.1" id="Слой_1" xmlns="http://www.w3.org/2000/svg" xmlns:xlink="http://www.w3.org/1999/xlink" x="0px" y="0px" viewBox="0 0 120 120" style="enable-background:new 0 0 120 120;" xml:space="preserve">
    <style type="text/css">
        .st0 {
            fill: #4572C4;
        }
    </style>
    <path class="st0" d="M114.4,120H5.6c-2.8,0-5-2.2-5-5v-5.1h118.8v5.1C119.4,117.8,117.1,120,114.4,120z"/>
    <path d="M5.4,120c-3.1,0-5.5-2.4-5.5-5.5v-4.7c0-0.3,0.3-0.6,0.6-0.6h6.2V51.3c0-3.1,2.4-5.5,5.5-5.5h4.1v-10c0-0.3,0.3-0.6,0.6-0.6
        	H103c0.3,0,0.6,0.3,0.6,0.6v10h4.1c2.9,0,5.5,2.4,5.5,5.5v57.9h6.2c0.3,0,0.6,0.3,0.6,0.6v4.7c0,3.1-2.4,5.5-5.5,5.5
        	C114.5,120,5.4,120,5.4,120z M1.4,114.7c0,2.3,1.8,4.1,4.1,4.1h109.2c2.3,0,4.1-1.8,4.1-4.1v-4.1H1.4V114.7z M12.2,47.1
        	c-2.3,0-4.1,1.8-4.1,4.1V109H112V51.3c0-2.3-1.8-4.1-4.1-4.1h-4.2v51.9c0,0.3-0.3,0.6-0.6,0.6h-86c-0.3,0-0.6-0.3-0.6-0.6V47.2h-4.2
        	v-0.1H12.2z M17.7,98.4h84.8V47.1H17.7V98.4z M17.7,45.8h84.8v-9.4H17.7V45.8z"/>
    <path d="M37.8,90.2c-0.3,0-0.6-0.3-0.6-0.6V86H33v3.6c0,0.3-0.3,0.6-0.6,0.6s-0.6-0.3-0.6-0.6V86h-4.9c-0.3,0-0.6-0.3-0.6-0.6
        	s0.3-0.6,0.6-0.6h3.6V73.5h-3.6c-0.3,0-0.6-0.3-0.6-0.6c0-0.3,0.3-0.6,0.6-0.6h3.6V61h-3.6c-0.3,0-0.6-0.3-0.6-0.6s0.3-0.6,0.6-0.6
        	h4.9v-3.6c0-0.3,0.3-0.6,0.6-0.6s0.6,0.3,0.6,0.6v3.6h4.2v-3.6c0-0.3,0.3-0.6,0.6-0.6s0.6,0.3,0.6,0.6v3.6l0.8,0.3
        	c2.9,1,4.9,3.6,4.9,6.6c0,2.1-1,4.1-2.6,5.3l-1.3,0.8l1.1,0.8C43,74.9,44,76.9,44,79c0,3.1-1.9,5.7-4.9,6.6L38.3,86v3.6
        	C38.5,89.9,38.2,90.2,37.8,90.2z M31.5,84.7h5.7c3.1,0,5.7-2.6,5.7-5.7s-2.6-5.7-5.7-5.7h-5.7V84.7z M31.5,72.2h5.7
        	c3.1,0,5.7-2.6,5.7-5.7s-2.6-5.7-5.7-5.7h-5.7V72.2z"/>
    <path d="M52.9,76.2c-0.2,0-0.3-0.2-0.5-0.3s-0.2-0.3-0.2-0.5s0.2-0.3,0.3-0.5l14.7-11.3c0.2-0.2,0.3-0.2,0.3-0.2
        	c0.2,0,0.3,0,0.5,0.2l5.5,5.3L92,58.2l-4.5-1.6c-0.3-0.2-0.5-0.5-0.5-0.8c0.2-0.3,0.3-0.5,0.6-0.5h0.2l5.8,2.1
        	c0.3,0.2,0.5,0.5,0.5,0.8l-1.3,6c0,0.3-0.3,0.5-0.6,0.5c-0.5-0.2-0.6-0.5-0.6-0.8l1-4.5L73.8,70.6c-0.2,0-0.2,0.2-0.3,0.2
        	c-0.2,0-0.3,0-0.5-0.2l-5.5-5.3L53.2,76.1C53.2,76.2,53.1,76.2,52.9,76.2z"/>
    <path d="M62.5,90.2c-0.3,0-0.6-0.3-0.6-0.6s0.3-0.6,0.6-0.6h7.1c0.3,0,0.6,0.3,0.6,0.6s-0.3,0.6-0.6,0.6H62.5z"/>
    <path d="M77.4,90.2c-0.3,0-0.6-0.3-0.6-0.6s0.3-0.6,0.6-0.6h16.2c0.3,0,0.6,0.3,0.6,0.6s-0.3,0.6-0.6,0.6H77.4z"/>
    <path d="M69.6,80.6c-0.3,0-0.6-0.3-0.6-0.6s0.3-0.6,0.6-0.6h23.8c0.3,0,0.6,0.3,0.6,0.6s-0.3,0.6-0.6,0.6H69.6z"/>
    <path d="M84,41.7c-0.3,0-0.6-0.3-0.6-0.6s0.2-0.6,0.6-0.6h2.4c0.3,0,0.6,0.3,0.6,0.6s-0.3,0.6-0.6,0.6H84z"/>
    <path d="M93.6,41.7c-0.3,0-0.6-0.3-0.6-0.6s0.2-0.6,0.6-0.6H96c0.3,0,0.6,0.3,0.6,0.6s-0.3,0.6-0.6,0.6H93.6z"/>
</svg>
