<?xml
version="1.0" encoding="utf-8"?>
<!-- Generator: Adobe Illustrator 22.0.1, SVG Export Plug-In . SVG Version: 6.00 Build 0)  -->
<svg version="1.1" id="Слой_1" xmlns="http://www.w3.org/2000/svg" xmlns:xlink="http://www.w3.org/1999/xlink" x="0px" y="0px" viewBox="0 0 120 120" style="enable-background:new 0 0 120 120;" xml:space="preserve">
    <style type="text/css">
        .st0 {
            fill: #4572C4;
        }
    </style>
    <circle class="st0" cx="76.5" cy="69.3" r="5.8"/>
    <circle class="st0" cx="66.4" cy="24.1" r="24.1"/>
    <path d="M30.8,120c-3.5,0-7-1.2-9.7-3.3l-3.9-2.7c-0.4-0.2-0.4-0.8-0.2-1.2c0.2-0.2,0.4-0.4,0.6-0.4s0.4,0,0.4,0.2l3.7,2.7
        	c2.5,1.9,5.6,2.9,8.9,2.9h48c4.3,0,8.3-1.7,11.1-5l7.6-8.7c0.8-0.8,1.2-1.9,1.2-2.9V101c0-2.5-1.9-4.5-4.5-4.5
        	c-0.6,0-1.4,0.2-1.9,0.4c-0.2,0-0.2,0-0.4,0c-0.4,0-0.6-0.2-0.8-0.4c0-0.2,0-0.4,0-0.6c0-0.2,0.2-0.4,0.4-0.4C92,95.1,93,95,93.7,95
        	c3.3,0,6,2.7,6,6v0.6c0,1.6-0.6,2.9-1.6,4.1l-7.6,8.7c-3.1,3.5-7.6,5.6-12.2,5.6H30.8z"/>
    <path d="M2.3,120c-0.4,0-0.8-0.4-0.8-0.8V88.2c0-0.4,0.4-0.8,0.8-0.8h15.5c0.4,0,0.8,0.4,0.8,0.8v31.1c0,0.4-0.4,0.8-0.8,0.8H2.3z
        	 M3.1,118.4h14V88.9h-14V118.4z"/>
    <path d="M41.1,100.6c-0.4,0-0.8-0.4-0.8-0.8s0.4-0.8,0.8-0.8h15.5c2.7,0,5-2.3,5-5c0-2.7-2.3-5-5-5H42.3c-4.5,0-8.7,1.4-12.4,3.7
        	c-0.2,0-0.2,0.2-0.4,0.2H17.8c-0.4,0-0.8-0.4-0.8-0.8s0.4-0.8,0.8-0.8h11.5l0.2-0.2c3.9-2.3,8.2-3.7,12.8-3.7h14.4
        	c3.7,0,6.6,2.9,6.6,6.6s-2.9,6.6-6.6,6.6H41.1z"/>
    <path d="M66.4,36.5c-3.7,0-6.6-2.9-6.6-6.6c0-0.4,0.4-0.8,0.8-0.8c0.4,0,0.8,0.4,0.8,0.8c0,2.7,2.3,5,5,5c2.7,0,5-2.3,5-5
        	s-2.3-5-5-5c-3.7,0-6.6-2.9-6.6-6.6s2.9-6.6,6.6-6.6s6.6,2.9,6.6,6.6c0,0.4-0.4,0.8-0.8,0.8s-0.8-0.4-0.8-0.8c0-2.7-2.3-5-5-5
        	c-2.7,0-5,2.3-5,5s2.3,5,5,5c3.7,0,6.6,2.9,6.6,6.6S70.1,36.5,66.4,36.5z"/>
    <path d="M66.4,13.2c-0.4,0-0.8-0.4-0.8-0.8V8.5c0-0.4,0.4-0.8,0.8-0.8s0.8,0.4,0.8,0.8v3.9C67.1,12.8,66.8,13.2,66.4,13.2z"/>
    <path d="M66.4,40.4c-0.4,0-0.8-0.4-0.8-0.8v-3.9c0-0.4,0.4-0.8,0.8-0.8s0.8,0.4,0.8,0.8v3.9C67.1,40,66.8,40.4,66.4,40.4z"/>
    <circle cx="81.9" cy="24.1" r="0.8"/>
    <circle cx="50.8" cy="24.1" r="0.8"/>
    <path d="M76.1,75.3c-3.7,0-6.6-2.9-6.6-6.6s2.9-6.6,6.6-6.6s6.6,2.9,6.6,6.6S79.8,75.3,76.1,75.3z M76.1,63.7c-2.7,0-5,2.3-5,5
        	c0,2.7,2.3,5,5,5c2.7,0,5-2.3,5-5C81.1,66,78.8,63.7,76.1,63.7z"/>
    <path d="M70.2,90.9c-0.2,0-0.4,0-0.6-0.2c-0.2-0.2-0.2-0.4-0.2-0.6c0-0.2,0-0.4,0.2-0.6c3.7-3.7,5.6-8.3,5.6-13.6v-1.6
        	c0-0.4,0.4-0.8,0.8-0.8s0.8,0.4,0.8,0.8v1.6c0,5.4-2.1,10.7-6,14.6C70.6,90.7,70.4,90.9,70.2,90.9z"/>
    <path d="M91.6,69.5c-0.2,0-0.4,0-0.4-0.2c-0.4-0.2-0.4-0.8-0.2-1.2l6.6-8.2c0.6-0.8,1-1.9,1-2.9v-0.4c0-2.5-2.1-4.7-4.7-4.7
        	c-1.2,0-2.5,0.6-3.3,1.4l-4.3,4.3c-0.2,0.2-0.4,0.2-0.6,0.2c-0.2,0-0.2,0-0.4,0C85,57.7,85,57.5,85,57.1c0-4.9-4.1-8.9-8.9-8.9
        	s-8.9,4.1-8.9,8.9c0,0.4-0.4,0.8-0.8,0.8s-0.8-0.4-0.8-0.8c0-4.9-4.1-8.9-8.9-8.9s-8.9,4.1-8.9,8.9c0,0.4-0.2,0.6-0.4,0.8
        	c-0.2,0-0.2,0-0.4,0s-0.4,0-0.6-0.2l-4.3-4.3c-1-1-2.1-1.4-3.3-1.4c-2.5,0-4.7,2.1-4.7,4.7v0.4c0,1,0.4,2.1,1,2.9l6.6,8.2
        	c0.2,0.4,0.2,0.8-0.2,1.2c-0.2,0.2-0.4,0.2-0.4,0.2c-0.2,0-0.4-0.2-0.6-0.4L33.9,61c-1-1.2-1.4-2.5-1.4-3.9v-0.4
        	c0-3.5,2.7-6.2,6.2-6.2c1.7,0,3.3,0.6,4.5,1.7l2.9,2.9l0.6-1.7c1.6-4.1,5.4-7,9.9-7c3.5,0,6.8,1.7,8.7,4.7l1,1.6l1-1.6
        	c1.9-2.9,5.2-4.7,8.7-4.7c4.5,0,8.3,2.7,9.9,7l0.6,1.7l2.9-2.9c1.2-1.2,2.7-1.7,4.5-1.7c3.5,0,6.2,2.7,6.2,6.2v0.4
        	c0,1.4-0.6,2.7-1.4,3.9l-6.6,8.2C92,69.3,91.8,69.5,91.6,69.5z"/>
    <path d="M66.4,112.2c-9.5,0-18.3-4.3-23.9-12c-0.2-0.4-0.2-0.8,0.2-1.2c0.2-0.2,0.4-0.2,0.4-0.2c0.2,0,0.4,0.2,0.6,0.4
        	c5.4,7.2,13.6,11.3,22.7,11.3c15.7,0,28.3-12.6,28.3-28.3c0-3.7-1-7.8-3.3-12.2L91,69.3h-9.3c-0.4,0-0.8-0.4-0.8-0.8
        	s0.4-0.8,0.8-0.8h9.7c0.2,0,0.6,0.2,0.8,0.4c2.7,5,3.9,9.7,3.9,14C96.3,98.8,82.9,112.2,66.4,112.2z"/>
    <path d="M37.8,89.3c-0.4,0-0.6-0.2-0.8-0.6c-0.4-2.1-0.8-4.3-0.8-6.4c0-4.3,1.4-8.9,3.9-14c0.2-0.2,0.4-0.4,0.8-0.4h29.1
    	c0.4,0,0.8,0.4,0.8,0.8s-0.4,0.8-0.8,0.8H41.5l-0.4,0.6c-2.1,4.5-3.3,8.3-3.3,12.2c0,2.1,0.2,4.1,0.6,6c0,0.2,0,0.4-0.2,0.6
    	C38,89.1,38.2,89.1,37.8,89.3L37.8,89.3z"/>
</svg>
