<svg xmlns="http://www.w3.org/2000/svg" xmlns:xlink="http://www.w3.org/1999/xlink" version="1.1" width="256" height="256" viewBox="0 0 256 256" xml:space="preserve">

<defs>
</defs>
<g style="stroke: none; stroke-width: 0; stroke-dasharray: none; stroke-linecap: butt; stroke-linejoin: miter; stroke-miterlimit: 10; fill: none; fill-rule: nonzero; opacity: 1;" transform="translate(1.4065934065934016 1.4065934065934016) scale(2.81 2.81)" >
	<path d="M 87.069 61.757 c -3.791 -6.294 -10.139 -8.813 -15.808 -6.264 l -13.927 6.473 c -1.362 -2.039 -4.155 -5.104 -9.167 -4.243 l -13.156 2.382 c -1.88 0.132 -3.582 -0.661 -5.382 -1.5 c -2.072 -0.966 -4.219 -1.967 -6.845 -1.73 l -1.452 0.129 v -1.043 c 0 -2.13 -1.733 -3.863 -3.863 -3.863 H 6.243 c -2.13 0 -3.863 1.733 -3.863 3.863 v 30.175 C 2.38 88.267 4.113 90 6.243 90 h 11.226 c 2.002 0 3.633 -1.536 3.825 -3.488 l 4.926 -0.437 c 2.854 -0.255 5.669 0.792 8.647 1.899 c 2.685 0.998 5.451 2.025 8.293 2.025 c 0.331 0 0.663 -0.014 0.996 -0.043 c 6.047 -0.527 19.931 -9.228 36.007 -19.302 c 1.833 -1.149 3.687 -2.311 5.547 -3.471 C 87.565 66.027 88.174 63.593 87.069 61.757 z M 17.469 86.983 H 6.243 c -0.466 0 -0.846 -0.38 -0.846 -0.846 V 55.961 c 0 -0.466 0.38 -0.846 0.846 -0.846 h 11.226 c 0.466 0 0.846 0.38 0.846 0.846 v 1.311 v 28.864 C 18.315 86.603 17.935 86.983 17.469 86.983 z M 84.113 64.624 c -1.862 1.162 -3.717 2.323 -5.552 3.474 C 63.47 77.554 49.216 86.486 43.89 86.951 c -2.513 0.225 -5.166 -0.762 -7.973 -1.805 c -2.818 -1.047 -5.721 -2.126 -8.822 -2.126 c -0.378 0 -0.759 0.016 -1.143 0.05 l -4.621 0.41 V 60.034 l 1.719 -0.153 c 1.825 -0.161 3.515 0.627 5.305 1.459 c 2 0.933 4.27 1.987 6.97 1.768 l 13.366 -2.414 c 2.897 -0.497 4.851 0.65 6.75 3.959 l 0.688 1.201 l 0 0 l 0.251 0.438 c -6.54 3.652 -12.178 5.922 -17.198 6.925 c -0.817 0.163 -1.346 0.957 -1.183 1.775 c 0.143 0.717 0.773 1.213 1.477 1.213 c 0.098 0 0.197 -0.009 0.298 -0.029 c 5.678 -1.135 12.03 -3.756 19.421 -8.011 c 0.722 -0.415 0.97 -1.336 0.556 -2.057 l -0.877 -1.529 l 13.639 -6.34 c 4.191 -1.885 9.004 0.155 11.969 5.078 C 84.74 63.739 84.57 64.338 84.113 64.624 z" style="stroke: none; stroke-width: 1; stroke-dasharray: none; stroke-linecap: butt; stroke-linejoin: miter; stroke-miterlimit: 10; fill: rgb(255,87,34); fill-rule: nonzero; opacity: 1;" transform=" matrix(1 0 0 1 0 0) " stroke-linecap="round" />
	<path d="M 51.478 3.017 c 11.332 0 20.552 9.22 20.552 20.552 s -9.22 20.552 -20.552 20.552 s -20.552 -9.22 -20.552 -20.552 S 40.146 3.017 51.478 3.017 M 51.478 0 C 38.461 0 27.909 10.552 27.909 23.569 s 10.552 23.569 23.569 23.569 s 23.569 -10.552 23.569 -23.569 S 64.495 0 51.478 0 L 51.478 0 z" style="stroke: none; stroke-width: 1; stroke-dasharray: none; stroke-linecap: butt; stroke-linejoin: miter; stroke-miterlimit: 10; fill: rgb(255,87,34); fill-rule: nonzero; opacity: 1;" transform=" matrix(1 0 0 1 0 0) " stroke-linecap="round" />
	<path d="M 59.419 27.577 c -0.833 0 -1.508 0.675 -1.508 1.508 c 0 1.222 -0.784 2.253 -1.711 2.253 h -9.443 c -0.928 0 -1.711 -1.032 -1.711 -2.253 V 18.052 c 0 -1.222 0.784 -2.253 1.711 -2.253 H 56.2 c 0.927 0 1.711 1.032 1.711 2.253 c 0 0.833 0.676 1.508 1.508 1.508 s 1.508 -0.675 1.508 -1.508 c 0 -2.906 -2.121 -5.27 -4.727 -5.27 h -3.213 v -2.307 c 0 -0.833 -0.676 -1.508 -1.508 -1.508 c -0.833 0 -1.508 0.675 -1.508 1.508 v 2.307 h -3.213 c -2.607 0 -4.728 2.364 -4.728 5.27 v 11.033 c 0 2.906 2.121 5.27 4.728 5.27 h 3.213 v 2.307 c 0 0.833 0.676 1.508 1.508 1.508 c 0.833 0 1.508 -0.675 1.508 -1.508 v -2.307 H 56.2 c 2.606 0 4.727 -2.364 4.727 -5.27 C 60.927 28.252 60.252 27.577 59.419 27.577 z" style="stroke: none; stroke-width: 1; stroke-dasharray: none; stroke-linecap: butt; stroke-linejoin: miter; stroke-miterlimit: 10; fill: rgb(255,87,34); fill-rule: nonzero; opacity: 1;" transform=" matrix(1 0 0 1 0 0) " stroke-linecap="round" />
</g>
</svg>