<?xml version="1.0" encoding="utf-8"?>
<!-- Generator: Adobe Illustrator 27.0.0, SVG Export Plug-In . SVG Version: 6.00 Build 0)  -->
<svg version="1.1" id="Слой_1" xmlns="http://www.w3.org/2000/svg" xmlns:xlink="http://www.w3.org/1999/xlink" x="0px" y="0px"
	 viewBox="0 0 100 100" style="enable-background:new 0 0 100 100;" xml:space="preserve">
<style type="text/css">
	.st0{fill:#EB5A2E;}
	.st1{fill:#020203;}
	.st2{fill:none;stroke:#010202;stroke-width:0.4;stroke-linecap:round;stroke-miterlimit:10;}
	.st3{fill:none;stroke:#010202;stroke-width:0.4;stroke-miterlimit:10;}
</style>
<circle class="st0" cx="50" cy="49.5" r="23.38"/>
<path class="st1" d="M50,73.54c-13.23,0-24.04-10.9-24.04-24.04S36.86,25.46,50,25.46s24.04,10.9,24.04,24.04S63.23,73.54,50,73.54z
	 M50,26.79c-12.56,0-22.71,10.23-22.71,22.71S37.52,72.21,50,72.21S72.71,61.98,72.71,49.5S62.56,26.79,50,26.79z"/>
<path class="st1" d="M35.94,59.73c-2.16-3-3.33-6.49-3.33-10.23c0-9.57,7.82-17.39,17.39-17.39c3.66,0,7.15,1.16,10.23,3.33l-0.83,1
	c-2.66-2-5.99-3-9.4-3c-8.9,0-16.06,7.15-16.06,16.06c0,3.33,1,6.66,3,9.4L35.94,59.73z"/>
<path class="st1" d="M50,66.89c-3.66,0-7.15-1.16-10.23-3.33l0.83-1c2.66,2,5.99,3,9.4,3c8.9,0,16.06-7.15,16.06-16.06
	c0-3.33-1-6.66-3-9.4l1-0.83c2.16,3,3.33,6.49,3.33,10.23C67.39,59.07,59.48,66.89,50,66.89z"/>
<path class="st1" d="M31.61,77.95c-7.74-3.91-12.4-11.56-12.4-20.05V37.1h1.33v20.72c0,7.99,4.49,15.22,11.73,18.89L50,85.61
	l17.72-8.9c3-1.5,5.66-3.83,7.65-6.66l1.16,0.67c-2,3-4.83,5.49-8.15,7.15L50,87.1L31.61,77.95z"/>
<polygon class="st1" points="79.45,55.16 79.45,23.21 50,16.72 29.45,21.21 29.12,20.05 50,15.39 80.78,22.21 80.78,55.16 "/>
<polygon class="st1" points="0,54.99 22.55,32.45 22.55,13.73 26.71,13.73 16.56,2 6.32,13.73 10.48,13.73 10.48,20.05 9.15,20.05 
	9.15,15.06 3.33,15.06 16.56,0 29.78,15.06 23.88,15.06 23.88,33.11 1,55.99 "/>
<polygon class="st1" points="70.22,83.94 76.04,83.94 76.04,65.89 99,43.01 100,44.01 77.45,66.56 77.45,85.27 73.21,85.27 
	83.44,97 93.68,85.27 89.43,85.27 89.43,78.95 90.77,78.95 90.77,83.94 96.67,83.94 83.44,99 "/>
<rect x="89.43" y="75.62" class="st1" width="1.33" height="1.33"/>
<rect x="89.43" y="72.21" class="st1" width="1.33" height="1.33"/>
<rect x="89.43" y="68.89" class="st1" width="1.33" height="1.33"/>
<rect x="9.15" y="28.79" class="st1" width="1.33" height="1.33"/>
<rect x="9.15" y="25.46" class="st1" width="1.33" height="1.33"/>
<rect x="9.15" y="22.05" class="st1" width="1.33" height="1.33"/>
<g>
	<line class="st2" x1="49.28" y1="40.81" x2="49.28" y2="63.28"/>
	<path class="st3" d="M51.39,61.2c-0.57,0.69-2.1,0.93-2.1,0.93c-0.22-0.36-0.02-1.25,0.42-2.03c0.62-1.1,4.6-3.01,3.96-2.38
		C52.23,59.15,51.96,60.51,51.39,61.2z"/>
	<path class="st3" d="M51.39,58.06c-0.57,0.69-2.1,0.93-2.1,0.93c-0.22-0.36-0.02-1.25,0.42-2.03c0.62-1.1,4.6-3.01,3.96-2.38
		C52.23,56,51.96,57.36,51.39,58.06z"/>
	<path class="st3" d="M51.39,54.91c-0.57,0.69-2.1,0.93-2.1,0.93c-0.22-0.36-0.02-1.25,0.42-2.03c0.62-1.1,4.6-3.01,3.96-2.38
		C52.23,52.86,51.96,54.22,51.39,54.91z"/>
	<path class="st3" d="M51.39,51.76c-0.57,0.69-2.1,0.93-2.1,0.93c-0.22-0.36-0.02-1.25,0.42-2.03c0.62-1.1,4.6-3.01,3.96-2.38
		C52.23,49.71,51.96,51.07,51.39,51.76z"/>
	<path class="st3" d="M51.39,48.61c-0.57,0.69-2.1,0.93-2.1,0.93c-0.22-0.36-0.02-1.25,0.42-2.03c0.62-1.1,4.6-3.01,3.96-2.38
		C52.23,46.56,51.96,47.92,51.39,48.61z"/>
	<path class="st3" d="M51.39,45.47c-0.57,0.69-2.1,0.93-2.1,0.93c-0.22-0.36-0.02-1.25,0.42-2.03c0.62-1.1,4.6-3.01,3.96-2.38
		C52.23,43.42,51.96,44.77,51.39,45.47z"/>
	<path class="st3" d="M50.5,40.01c-0.05,0.9-1.13,2-1.13,2c-0.39-0.15-0.76-0.99-0.87-1.88c-0.16-1.25,1.9-5.16,1.77-4.27
		C49.96,37.85,50.55,39.11,50.5,40.01z"/>
	<path class="st3" d="M47.45,60.59c0.59,0.68,1.5,0.58,1.5,0.58c0.51-0.44,0.44-1.35-0.15-2.03s-4.67-2.9-4.02-2.28
		C46.24,58.25,46.86,59.91,47.45,60.59z"/>
	<path class="st3" d="M47.45,57.21c0.59,0.68,1.5,0.58,1.5,0.58c0.51-0.44,0.44-1.35-0.15-2.03s-4.67-2.9-4.02-2.28
		C46.24,54.87,46.86,56.53,47.45,57.21z"/>
	<path class="st3" d="M47.45,53.83c0.59,0.68,1.5,0.58,1.5,0.58c0.51-0.44,0.44-1.35-0.15-2.03s-4.67-2.9-4.02-2.28
		C46.24,51.49,46.86,53.15,47.45,53.83z"/>
	<path class="st3" d="M47.45,50.45c0.59,0.68,1.5,0.58,1.5,0.58c0.51-0.44,0.44-1.35-0.15-2.03s-4.67-2.9-4.02-2.28
		C46.24,48.11,46.86,49.77,47.45,50.45z"/>
	<path class="st3" d="M47.45,47.07c0.59,0.68,1.5,0.58,1.5,0.58c0.51-0.44,0.44-1.35-0.15-2.03s-4.67-2.9-4.02-2.28
		C46.24,44.73,46.86,46.39,47.45,47.07z"/>
	<path class="st3" d="M47.45,43.69c0.59,0.68,1.5,0.58,1.5,0.58c0.51-0.44,0.44-1.35-0.15-2.03s-4.67-2.9-4.02-2.28
		C46.24,41.35,46.86,43.01,47.45,43.69z"/>
</g>
</svg>
