<?xml
version="1.0" encoding="utf-8"?>
<!-- Generator: Adobe Illustrator 27.0.0, SVG Export Plug-In . SVG Version: 6.00 Build 0)  -->
<svg version="1.1" id="Слой_1" xmlns="http://www.w3.org/2000/svg" xmlns:xlink="http://www.w3.org/1999/xlink" x="0px" y="0px" viewBox="0 0 120 120" style="enable-background:new 0 0 120 120;" xml:space="preserve">
    <style type="text/css">
        .st0 {
            fill: #4572C4;
        }
        .st1 {
            fill: none;
            stroke: #000000;
            stroke-miterlimit: 10;
        }
        .st2 {
            fill: none;
            stroke: #000000;
            stroke-width: 0.75;
            stroke-miterlimit: 10;
        }
    </style>
    <rect x="39.29" y="13.8" transform="matrix(0.8424 -0.5388 0.5388 0.8424 -8.2072 25.9366)" width="1.9" height="26.4"/>
    <circle class="st0" cx="60.3" cy="60.1" r="27.2"/>
    <path d="M60.3,88c-15.3,0-28-12.6-28-28s12.6-28,28-28s28,12.6,28,28S75.6,88,60.3,88z M60.3,33.6c-14.6,0-26.4,11.9-26.4,26.4
        	s11.9,26.4,26.4,26.4S86.7,74.5,86.7,60S74.8,33.6,60.3,33.6z"/>
    <path d="M43.9,71.9C41.4,68.4,40,64.3,40,60c0-11.1,9.1-20.2,20.2-20.2c4.3,0,8.4,1.4,11.9,3.9l-1,1.2c-3.1-2.3-7-3.5-10.9-3.5
        	c-10.3,0-18.7,8.4-18.7,18.7c0,3.9,1.2,7.8,3.5,10.9L43.9,71.9z"/>
    <path d="M60.3,80.3c-4.3,0-8.4-1.4-11.9-3.9l1-1.2c3.1,2.3,7,3.5,10.9,3.5C70.6,78.7,79,70.3,79,60c0-3.9-1.2-7.8-3.5-10.9l1.2-1
        	c2.5,3.5,3.9,7.6,3.9,11.9C80.5,71.1,71.3,80.3,60.3,80.3z"/>
    <rect x="87.5" y="57.9" transform="matrix(0.9992 -0.0399 0.0399 0.9992 -2.2675 3.9265)" width="19.4" height="1.7"/>
    <rect x="95.57" y="23.16" transform="matrix(0.7281 -0.6854 0.6854 0.7281 -1.7419 77.1343)" width="1.6" height="35.2"/>
    <rect x="76.62" y="9.62" transform="matrix(0.9286 -0.371 0.371 0.9286 -0.2457 29.8537)" width="1.7" height="11.9"/>
    <rect x="35.2" y="7.6" transform="matrix(0.9916 -0.1294 0.1294 0.9916 -0.6443 6.8773)" width="34.8" height="1.6"/>
    <rect x="17.64" y="26.31" transform="matrix(0.1322 -0.9912 0.9912 0.1322 -3.373 50.465)" width="19" height="1.7"/>
    <rect x="30.7" y="40.25" transform="matrix(0.4856 -0.8742 0.8742 0.4856 -22.9206 50.8546)" width="2.1" height="9.3"/>
    <polygon points="35,86.1 40.8,79.3 42,80.5 36.2,87.3 "/>
    <polygon points="9.7,84.2 10.3,82.6 26.1,88 25.5,89.6 "/>
    <polygon points="5.9,76.8 23.9,43.7 25.7,44.5 7.6,77.6 "/>
    <rect x="70.88" y="30.74" transform="matrix(0.53 -0.848 0.848 0.53 8.7779 79.4102)" width="10.3" height="2.1"/>
    <rect x="85.5" y="22.2" transform="matrix(0.9839 -0.179 0.179 0.9839 -2.6375 16.8755)" width="13.4" height="1.7"/>
    <rect x="107.11" y="24.91" transform="matrix(0.9637 -0.2671 0.2671 0.9637 -6.4438 30.2461)" width="1.7" height="27.8"/>
    <rect x="5.1" y="31.7" width="1.6" height="45.9"/>
    <rect x="7.6" y="19.61" transform="matrix(0.8 -0.6 0.6 0.8 -8.8345 14.4127)" width="19.2" height="1.7"/>
    <rect x="72.69" y="85.69" transform="matrix(0.9451 -0.3268 0.3268 0.9451 -28.1029 29.4165)" width="1.6" height="25.3"/>
    <rect x="93.82" y="75.4" transform="matrix(0.3688 -0.9295 0.9295 0.3688 -3.6211 147.0588)" width="25.3" height="1.6"/>
    <rect x="78.59" y="102.06" transform="matrix(0.6757 -0.7371 0.7371 0.6757 -46.531 99.9489)" width="23.5" height="1.6"/>
    <rect x="56.4" y="113.7" width="20.2" height="1.6"/>
    <polygon points="35,96.2 36.2,95 50.6,111.6 49.4,112.7 "/>
    <rect x="89.36" y="72.76" transform="matrix(0.6287 -0.7776 0.7776 0.6287 -30.5695 100.6888)" width="1.6" height="19.2"/>
    <rect x="14.37" y="27.04" transform="matrix(0.5145 -0.8575 0.8575 0.5145 -22.7857 30.135)" width="1.7" height="16.3"/>
    <path d="M73.9,10.3c-2.5,0-4.7-2.1-4.7-4.7S71.3,1,73.9,1c2.5,0,4.7,2.1,4.7,4.7S76.4,10.3,73.9,10.3z M73.9,2.6
        	c-1.7,0-3.1,1.4-3.1,3.1s1.4,3.1,3.1,3.1S77,7.4,77,5.7S75.6,2.6,73.9,2.6z"/>
    <path d="M25.3,45.3c-2.5,0-4.7-2.1-4.7-4.7s2.1-4.7,4.7-4.7S30,38,30,40.6S27.8,45.3,25.3,45.3z M25.3,37.5c-1.7,0-3.1,1.4-3.1,3.1
        	s1.4,3.1,3.1,3.1s3.1-1.4,3.1-3.1S27,37.5,25.3,37.5z"/>
    <path d="M103,25.9c-2.5,0-4.7-2.1-4.7-4.7s2.1-4.7,4.7-4.7c2.5,0,4.7,2.1,4.7,4.7S105.5,25.9,103,25.9z M103,18.1
        	c-1.7,0-3.1,1.4-3.1,3.1s1.4,3.1,3.1,3.1s3.1-1.4,3.1-3.1S104.8,18.1,103,18.1z"/>
    <path d="M5.9,86.1c-2.5,0-4.7-2.1-4.7-4.7c0-2.5,2.1-4.7,4.7-4.7s4.7,2.1,4.7,4.7C10.5,84,8.4,86.1,5.9,86.1z M5.9,78.3
        	c-1.7,0-3.1,1.4-3.1,3.1s1.4,3.1,3.1,3.1S9,83.2,9,81.4S7.6,78.3,5.9,78.3z"/>
    <path d="M79.7,119.1c-2.5,0-4.7-2.1-4.7-4.7c0-2.5,2.1-4.7,4.7-4.7c2.5,0,4.7,2.1,4.7,4.7C84.4,117,82.2,119.1,79.7,119.1z
        	 M79.7,111.4c-1.7,0-3.1,1.4-3.1,3.1s1.4,3.1,3.1,3.1s3.1-1.4,3.1-3.1S81.4,111.4,79.7,111.4z"/>
    <path d="M101.1,95.8c-2.5,0-4.7-2.1-4.7-4.7c0-2.5,2.1-4.7,4.7-4.7c2.5,0,4.7,2.1,4.7,4.7C105.7,93.7,103.6,95.8,101.1,95.8z
        	 M101.1,88c-1.7,0-3.1,1.4-3.1,3.1s1.4,3.1,3.1,3.1s3.1-1.4,3.1-3.1S102.8,88,101.1,88z"/>
    <path d="M81.6,29.8c-2.5,0-4.7-2.1-4.7-4.7s2.1-4.7,4.7-4.7c2.5,0,4.7,2.1,4.7,4.7S84.2,29.8,81.6,29.8z M81.6,22
        	c-1.7,0-3.1,1.4-3.1,3.1s1.4,3.1,3.1,3.1s3.1-1.4,3.1-3.1C84.7,23.3,83.4,22,81.6,22z"/>
    <path d="M29.2,18.1c-3.7,0-6.6-2.9-6.6-6.6s2.9-6.6,6.6-6.6s6.6,2.9,6.6,6.6S32.9,18.1,29.2,18.1z M29.2,6.4c-2.7,0-5.1,2.3-5.1,5.1
        	s2.3,5.1,5.1,5.1s5.1-2.3,5.1-5.1S31.9,6.4,29.2,6.4z"/>
    <path d="M31.1,97.8c-3.7,0-6.6-2.9-6.6-6.6s2.9-6.6,6.6-6.6s6.6,2.9,6.6,6.6C37.7,94.8,34.8,97.8,31.1,97.8z M31.1,86.1
        	c-2.7,0-5.1,2.3-5.1,5.1s2.3,5.1,5.1,5.1s5.1-2.3,5.1-5.1S33.8,86.1,31.1,86.1z"/>
    <path d="M112.7,64.7c-3.7,0-6.6-2.9-6.6-6.6s2.9-6.6,6.6-6.6s6.6,2.9,6.6,6.6S116.4,64.7,112.7,64.7z M112.7,53.1
        	c-2.7,0-5.1,2.3-5.1,5.1c0,2.7,2.3,5.1,5.1,5.1s5.1-2.3,5.1-5.1C117.8,55.4,115.4,53.1,112.7,53.1z"/>
    <path d="M52.5,119.1c-2.5,0-4.7-2.1-4.7-4.7c0-2.5,2.1-4.7,4.7-4.7s4.7,2.1,4.7,4.7S55,119.1,52.5,119.1z M52.5,111.4
        	c-1.7,0-3.1,1.4-3.1,3.1s1.4,3.1,3.1,3.1s3.1-1.4,3.1-3.1S54.2,111.4,52.5,111.4z"/>
    <path d="M5.9,33.6c-2.5,0-4.7-2.1-4.7-4.7s2.1-4.7,4.7-4.7s4.7,2.1,4.7,4.7S8.4,33.6,5.9,33.6z M5.9,25.9c-1.7,0-3.1,1.4-3.1,3.1
        	s1.4,3.1,3.1,3.1S9,30.7,9,29S7.6,25.9,5.9,25.9z"/>
    <polygon class="st1" points="70.2,53.07 70.2,49.26 66.58,49.26 66.58,47.1 54.02,47.1 54.02,49.26 50.4,49.26 50.4,53.07
        	51.7,53.07 51.7,58.15 50.4,58.15 50.4,61.96 51.7,61.96 51.7,67.05 50.4,67.05 50.4,70.86 70.2,70.86 70.2,67.05 68.9,67.05
        	68.9,61.96 70.2,61.96 70.2,58.15 68.9,58.15 68.9,53.07 "/>
    <circle class="st2" cx="60.3" cy="59.72" r="5.1"/>
    <path class="st2" d="M60.3,55.92l-0.4,0.39c-0.09,0.09-2.31,2.3-2.31,4.27c0,1.49,1.21,2.7,2.7,2.7s2.7-1.21,2.7-2.7
    	c0-1.88-2.07-4.03-2.3-4.27L60.3,55.92z"/>
</svg>
