<?xml version="1.0" encoding="utf-8"?>
<!-- Generator: Adobe Illustrator 26.0.1, SVG Export Plug-In . SVG Version: 6.00 Build 0)  -->
<svg version="1.1" id="Layer_1" xmlns="http://www.w3.org/2000/svg" xmlns:xlink="http://www.w3.org/1999/xlink" x="0px" y="0px"
	 viewBox="0 0 700 700" style="enable-background:new 0 0 700 700;" xml:space="preserve">
<style type="text/css">
	.st0{fill:#759D59;}
	.st1{fill:#7F5E39;}
	.st2{fill:#6B4B2C;}
</style>
<path class="st0" d="M427,87l-2.9-0.7l-2.8-0.4h-1.1c-17.9-2.5-35.9-4.1-53.9-4.7c-4.5-5.7-9.6-10.8-15.2-15.3
	c0.5,2.2,8.8,12.8,9.2,15.2h-9.1h-24.9h0c-4.3-6.8-9.8-12.6-16.4-17.2c-0.4,0,10.3,17.6,10.3,17.6s-11.2,1.4-16.4,2l0,0
	c-6.4,0.7-12.7,1.9-18.9,3.5c-6.5-4.8-10.5-16.8-16.8-22.4c1.5,6.8,7.3,16.8,8.2,24.7c-11.2,3.4-22.1,7.8-32.5,13.1
	c-8.4-7.1-11.5-17.9-21.4-26l14.2,29.8c-8.7,4.7-17.1,9.9-25.1,15.7c-3.1-1.3-22.9-32.1-25.1-32.6v0c4.6,11.7,9.9,23,15.9,34
	c-12.2,1.7-21.2,1.9-32.5,4.3c-2.5-1.5-5.2-11.2-13.3-19.4c7.3,14.6,6.5,19.7,6.5,19.7s-36.8,5.6-52,11.2c9.2,0,39.2-4.5,54.4-6.4
	c0.4,7.5-8.5,18.7-8.1,18.7c6.3-4.7,11.1-11,14.1-18.3H197c-3.8,3.1-7.4,6.4-11.2,9.9c-0.6,0.4-1.1,1-1.6,1.5v0
	c-13,12.3-24.3,26.2-33.6,41.5c-20.6-5.1-24.4-9.1-67.9-35.2h0c19.1-30.9,45.4-56.6,76.7-75c31.3-18.4,66.5-29,102.8-30.8
	c102.5-4.6,147.4,27.1,164.3,41.7L427,87z"/>
<path class="st0" d="M197,132.9l-11.2,9.9C189.6,139.3,193.2,136,197,132.9z"/>
<path class="st0" d="M532.7,112.9l-53.9,1.6c-4.1,4.3-1.8,7.1-3.2,10.8c-13.9,4.4-14.2,14.2-17.2,25.9h0c-0.7,2.9-2,5.6-3.8,7.9
	c-3.4-2.3-7.6-3.4-11.7-3.1c-4.3,0-8.5,0.6-12.7,1.8c0-8.5,2.1-26.8,2.5-29.5c0-0.1,0-0.2,0-0.3h1.5c4.8-1.1,19.5-4.5,16.8-7.9h0
	c-0.9-0.4-1.9-0.5-2.9-0.4c-5.5,0.6-10.9,1.7-16.2,3.3c-1.9-1.2-20.7-12.7-31.8-14.7v0c8.3,5.5,16.2,11.5,23.7,18
	c-7.2,2.9-16,6.7-26.7,11.5h-0.7c-10.8-7.7-20.4-21.6-46.5-32c13,11.6,32.1,24.2,39.2,35.3l-0.5,0.6c-7.5,3.4-15.6,7.2-24.5,11.5
	c-2.6,0.9-5.1,2-7.5,3.2c-2.1-0.7-30.9-29.6-58.6-45.6c0,0,44.3,42.8,51.3,49.6c-8.6,4.3-18,8.9-28,13.9v0
	c-20.5-21.9-46.6-37.8-75.4-46c12.3,4.9,59,37.5,66.2,49.5c-1.4,1.2-2.8,2.3-4.2,3.4c-6.8,3.5-13.8,7.2-21.1,11.2l-11.2,6.2
	c-17.7-20-40.3-35.2-65.6-44c0,0.3,39.2,26,45.5,33.6c2.5,3.1,12.8,12.9,11.8,14.6l-0.3,0.4c-10.9,6.2-20.9,12.3-30.2,18.1l-8.1-6.2
	c-15.7-10.3-32.6-18.5-50.4-24.4c10.6,6.4,46.7,28.8,52.8,34.3c-11.2,7.5-21.6,14.7-30.7,21.7c-8.5-4.8-34.2-18.6-45.8-19
	c8.2,1.5,38.3,20.2,41.2,22.4c-3.4,2.3-6.7,4.9-9.8,7.6l-0.4,0.4l-13.7,12h0c-9-4.2-18.4-7.7-28-10.2c0.7,0.9,20.2,11.2,23.3,14.4
	c-29,28.2-35.4,49.2-35.4,49.2c-0.4,1-0.7,1.6-0.8,1.8l1.2-1.7c10.1-14.6,21.7-28.2,34.5-40.5c3,9.1,5.3,18.5,6.6,28l-1.6-32.9
	c7.2-7,15.8-14.4,25.9-22.4c1.2,18.2,4,48.5,4,47.6l0,0c1.8-17.1,2.1-34.3,0.8-51.4c9.1-7.1,18.1-13.6,29.8-21.3
	c2.2,17.6,4.5,59,4.5,59c2.7-20.7,2.9-41.6,0.5-62.3c9.3-6,22.4-14.2,33.6-20.5c5,21.7,11.5,49.4,10.4,73.4
	c3.6-18.9-0.6-60.5-4.6-75.8c0.6-0.6,1.3-1.1,2-1.5c3.5-2,7.1-3.9,10.8-5.6c8.6-4.5,16.7-8.8,24.6-12.8h0
	c5.4,22.6,7.9,45.9,7.2,69.2c3.8-24.1,3.8-48.7,0-72.8c11.7-5.9,22.4-11.2,32.4-16.2c2.2,13.2,6.1,48.1,7.3,65.4
	c-3.8,2.7-7.8,5.6-12.1,8.2c-25.9,16.7-48.4,38.1-66.4,63.2c-18.6,7.8-37.8,14.1-57.4,18.8c-68.6,15.8-94,22-107.6,22
	c0.4-11.8,14.3-83.3,18.3-103.4C154,153,245,95.5,304.6,88.9c90.8-10.1,168.6,13.3,176,14.3c11.2,5.6,37.5-2.6,52.9-5.6
	C536.5,107.3,536,112.9,532.7,112.9L532.7,112.9z"/>
<path class="st0" d="M400.1,189.1c-9.6,15.4-22.1,28.8-37,39.2c-2.5-12.8-0.9-48-4.5-66.8c11.9-5.6,22.4-10.8,31.8-15.1
	C393.5,153,397.7,176.5,400.1,189.1L400.1,189.1z"/>
<path class="st0" d="M426.5,130.6V158l-0.8,1.1c-8.8,2.6-16,8.9-19.7,17.2c-1.2,3.4-2.7,6.8-4.4,10c-0.7-14.3-2.2-28.6-4.5-42.8
	C408.3,138.5,419.2,133.7,426.5,130.6L426.5,130.6z"/>
<path class="st1" d="M530.3,191c0,7.2-7.2,13.1-16,13.1c-8.8,0-16-5.9-16-13.1s7.2-13.1,16-13.1C523.1,177.9,530.3,183.8,530.3,191"
	/>
<path class="st1" d="M560,206.6c0,5.9-5.6,10.7-12.6,10.7c-7,0-12.6-4.8-12.6-10.7c0-5.9,5.6-10.7,12.6-10.7
	C554.3,195.9,560,200.7,560,206.6"/>
<path class="st1" d="M489.4,452.9c8.8,0.8,15.5,6.4,15,12.5c-0.5,6.1-8.1,10.5-16.9,9.7s-15.5-6.4-15-12.5
	C473,456.5,480.6,452.2,489.4,452.9"/>
<path class="st1" d="M557.3,221.6c7.5,0.6,13.2,5.3,12.8,10.4c-0.4,5.1-6.9,8.7-14.4,8c-7.5-0.7-13.2-5.3-12.8-10.4
	C543.4,224.6,549.8,221,557.3,221.6"/>
<path class="st1" d="M515.8,208.5c11,1,19.5,5.8,19.1,10.9c-0.4,5.1-9.7,8.4-20.7,7.5c-11-1-19.5-5.8-19.1-10.9
	C495.6,210.9,504.8,207.5,515.8,208.5"/>
<path class="st1" d="M559.5,244.4c11.3,2.1,19.3,10.3,17.8,18.2c-1.5,7.9-11.9,12.6-23.2,10.5c-11.3-2.1-19.3-10.3-17.8-18.2
	C537.7,246.9,548.1,242.2,559.5,244.4"/>
<path class="st1" d="M510.2,228.7c13.1,0.7,23.4,7.9,23,16.2c-0.4,8.3-11.4,14.5-24.5,13.9c-13.1-0.7-23.4-7.9-23-16.2
	C486.1,234.3,497,228.1,510.2,228.7"/>
<path class="st1" d="M531.3,277c-1.5,8.7-12.2,15.1-25.8,14.6s-24.3-8.2-24.3-16.8c0-18.5,11.2-10.2,25.3-9.7
	C520.6,265.6,533.7,261,531.3,277L531.3,277z"/>
<path class="st1" d="M531.8,307.6c-1.5,7.3-13.1,12.6-28.7,12.2c-15.6-0.4-27.2-7.3-27.2-15.1c0-15.6,12.2-8.7,27.7-7.8
	C519.1,297.9,534.8,294.5,531.8,307.6L531.8,307.6z"/>
<path class="st1" d="M535.2,334.8c-1,7.3-13.1,14.1-29.6,15.1c-16.5,1-30.1-4.9-31.1-12.2c-2-15.6,12.6-9.7,29.1-10.7
	S536.6,321.2,535.2,334.8L535.2,334.8z"/>
<path class="st1" d="M532.8,364c-0.5,8.2-11.6,16.5-28,18s-29.6-3.4-31.1-11.6c-2.9-16.8,11.6-11.6,27.7-13.6
	C517.4,354.8,533.3,349.4,532.8,364L532.8,364z"/>
<path class="st1" d="M530.3,394.1c-0.5,8.2-11.6,16.5-28,18s-29.6-3.4-31.1-11.6c-2.9-16.8,11.6-11.6,27.7-13.6
	C515.3,385.8,530.8,379.5,530.3,394.1L530.3,394.1z"/>
<path class="st1" d="M519.2,426.1c0,8.2-8.7,16-20.9,17.5c-12.2,1.5-22.8-4.4-24.3-12.4c-2.9-16.8,8.7-11.2,20.9-12.6
	C507,417.2,518.7,411,519.2,426.1L519.2,426.1z"/>
<path class="st1" d="M559.5,277.2c11.3,2.1,19.5,9.2,18.3,15.8c-1.2,6.6-11.4,10.2-22.8,8.1c-11.3-2.1-19.5-9.2-18.3-15.8
	C538,278.7,548.2,275,559.5,277.2"/>
<path class="st1" d="M564.4,305.6c10.3,1.9,17.6,8.8,16.4,15.4c-1.2,6.6-10.6,10.4-20.8,8.4c-10.3-1.9-17.6-8.8-16.4-15.4
	C544.8,307.5,554.1,303.7,564.4,305.6"/>
<path class="st1" d="M553.9,366c9,1.7,15.3,8.2,14.1,14.5c-1.2,6.3-9.4,10.1-18.4,8.4c-9-1.7-15.3-8.2-14.1-14.5
	C536.7,368.1,544.9,364.3,553.9,366"/>
<path class="st1" d="M560.3,334.5c9,1.7,15,9.5,13.6,17.4c-1.5,7.9-10,12.9-18.9,11.3c-9-1.7-15-9.5-13.5-17.4
	C542.9,337.9,551.4,332.8,560.3,334.5"/>
<path class="st1" d="M553,396c7.7,5,10.7,13.9,6.8,20c-3.9,6.1-13.3,7-21,2c-7.7-4.9-10.7-13.9-6.8-20
	C535.9,391.9,545.3,391,553,396"/>
<path class="st1" d="M469.4,380.4c2.2,6.9-3.2,14.7-11.9,17.4c-8.7,2.7-17.5-0.7-19.7-7.6c-2.1-6.9,3.2-14.7,11.9-17.4
	S467.2,373.5,469.4,380.4"/>
<path class="st1" d="M473.1,348.3c2.2,6.9-4.6,15.2-15.1,18.4c-10.5,3.3-20.8,0.3-22.9-6.6c-2.1-6.9,4.6-15.2,15.1-18.4
	C460.7,338.4,471,341.3,473.1,348.3"/>
<path class="st1" d="M472.6,317.7c2.2,6.9-4.6,15.2-15.1,18.4c-10.5,3.3-20.8,0.3-22.9-6.6s4.6-15.2,15.1-18.4
	C460.2,307.8,470.5,310.8,472.6,317.7"/>
<path class="st1" d="M476,254.9c4.4,6.1,1.4,15.7-6.6,21.5c-8.1,5.8-18.1,5.6-22.5-0.5c-4.4-6.1-1.4-15.7,6.6-21.5
	C461.6,248.6,471.6,248.8,476,254.9"/>
<path class="st1" d="M481.2,225.7c3.5,4.8,1.3,12.2-4.8,16.6c-6.1,4.4-13.8,4.1-17.3-0.7c-3.5-4.8-1.3-12.2,4.8-16.6
	C470,220.6,477.8,220.9,481.2,225.7"/>
<path class="st1" d="M493.9,201.6c3.4,4.8,1.3,12.2-4.8,16.6c-6.1,4.4-13.8,4.1-17.3-0.7c-3.4-4.8-1.3-12.2,4.8-16.6
	C482.7,196.4,490.5,196.8,493.9,201.6"/>
<path class="st1" d="M472.3,290c1.8,5.6-3.9,12.4-12.6,15.1c-8.7,2.7-17.2,0.3-19-5.3c-1.8-5.6,3.9-12.4,12.6-15.1
	C462,282,470.5,284.4,472.3,290"/>
<path class="st1" d="M474.8,436.5c5.2,5.8,6,13.6,1.8,17.4c-4.2,3.8-11.9,2.1-17.1-3.8c-5.2-5.8-6-13.6-1.8-17.4
	C461.9,429,469.6,430.7,474.8,436.5"/>
<path class="st1" d="M543.5,423.6c5.4,3.5,7,10.7,3.5,16.1c-3.5,5.4-10.7,6.9-16.1,3.5c-5.4-3.5-7-10.7-3.5-16.1
	C530.9,421.7,538.1,420.2,543.5,423.6"/>
<path class="st1" d="M525.1,443c5.4,3.5,7,10.7,3.5,16.1c-3.5,5.4-10.7,7-16.1,3.5c-5.4-3.5-7-10.7-3.5-16.1
	C512.5,441.1,519.7,439.5,525.1,443"/>
<path class="st1" d="M462.4,405.4c5.4,3.5,7,10.7,3.5,16.1c-3.5,5.4-10.7,7-16.1,3.5c-5.4-3.5-7-10.7-3.5-16.1
	C449.8,403.4,457,401.9,462.4,405.4"/>
<path class="st2" d="M266,505.3c-12.2,8.2-26.2-0.5-8.7-48.6v0c21.7-57.1,51.7-110.6,89-158.9c23.8-31.1,75.3-76.3,75.3-76.3l0,0
	c-29,46.5-39.7,102-30.1,156C391.4,377.6,312.8,473.2,266,505.3L266,505.3z"/>
<path class="st2" d="M412.3,447c0,0-4.4-13.1-11.6-29.6c-4.4-9.9-7.7-20.3-9.7-31c0,0-51.5,59.8-78.4,86.9l0,0
	c-15.1,15.4-32.2,28.6-51,39.2C347.3,512.6,412.3,447,412.3,447L412.3,447z"/>
<path class="st2" d="M422.8,464l-7.6-12.6c0,0-17.5,15.1-24.8,19.9c-8.2,5.6-36.4,19.9-36.4,19.9C384.7,480.5,422.8,464,422.8,464
	L422.8,464z"/>
<path class="st2" d="M580.4,166.8c1-7.3-6.8-50-48.1-41.8h0c0.4-7.7,2.5-15.2,6.3-21.8c8.7-16.8,15.1-26.2-4.9-30.6
	c-19.9-4.4-18.5,5.6-18.5,29.1v0c0,7.8-2,15.5-5.6,22.4c-17.5-1.5-43.7,0-46.1,23.8c-4.1,37.8-80.8,92.2-66.2,221.7
	c10.2,93.4,70.9,153.6,105.9,153.6c29.1,0,85.5-52,107.8-172.9C626.5,266.3,577.9,187.2,580.4,166.8L580.4,166.8z M590.8,333.8
	c-9,91.8-53.6,162.2-100.3,157.9c-46.6-4.4-76.7-82.6-67.7-174.4c9-91.8,53.9-162.4,100.1-157.9C569,164,599.8,242,590.8,333.8
	L590.8,333.8z"/>
<path class="st2" d="M418.1,215.3c13.1-14.1,26.2-38.4,32-46.6c6.3-9.7-31.1-6.8-37.4,10.2c-6.8,19-22.8,41.8-60.2,65.6
	c-37.4,23.8-61.2,53.4-87.9,96.2C237.9,383.3,249.6,462,249.6,462C312.3,303.2,368.6,267.8,418.1,215.3L418.1,215.3z"/>
</svg>
