<?xml version="1.0" encoding="utf-8"?>
<!-- Generator: Adobe Illustrator 26.0.1, SVG Export Plug-In . SVG Version: 6.00 Build 0)  -->
<svg version="1.1" id="Layer_1" xmlns="http://www.w3.org/2000/svg" xmlns:xlink="http://www.w3.org/1999/xlink" x="0px" y="0px"
	 viewBox="0 0 512 512" style="enable-background:new 0 0 512 512;" xml:space="preserve">
<style type="text/css">
	.st0{fill:#CFE8CC;}
</style>
<path class="st0" d="M146.5,115.1c9.6,5.3,18.6,12.9,26,21.4c10.8,12.3,28.6,45.2,16.5,56.2c-4.7-13.9-21.1-34.2-30-44.3
	s-21.6-18.9-52.7-28.6c-31.2-9.7-69.1,19.9-76.5,51.5c-2.9,12.5,0.5,28.9,8.5,46.3s20.2,35.8,33,52.3c3.1,4,6.2,7.9,9.4,11.8
	c19,4.3,37.4,15.4,55.8,26.6c21,12.8,41.9,25.9,61.1,31.9c5.5-36.4,27.1-69.3,61.5-98l11.2-9.3l3.4,14.2
	c7.2,30.5,11.4,65.1-1.4,99.9c40.2-3.2,90.2-3.2,131.7,10.7c15-13.3,25.3-26,17.3-43.8c-51.4,12.8-96.6-21.7-110.3-43.1
	c35.9,22.2,58.9,35.1,96.4,27.5c29.4-7.4,56.7-9.4,65.9-39.4c16.5-53.9,14.4-125.7-21-166.3c-17.6-20.2-39.9-35.8-62.8-41
	c-22.9-5.2-46.4-0.9-66.6,16.1c-20.2,17-30,33.4-33.6,48c-3.7,14.7,8.2,45.2,10,52.9c-19-15.6-32.5-37.5-27.5-57.3
	c4.5-17.7,15.9-34.6,30.9-47.7c-7-14.4-19.9-23.3-34.7-28.5C206.4,18.5,133.5,41.2,146.5,115.1L146.5,115.1z M259.2,266.3
	c-27.9,26.5-43.1,55-45,85.7l-0.6,10.2l-10-1.9c-27.1-5-52.4-22-76.5-36.7c-16.3-9.9-31.8-18.5-45.7-22.8
	c10.7,15.8,22.7,33.3,38.1,49c21.2,21.6,46.7,37.6,79.8,35.8l14.3-0.8c-13.7,31.5-22.9,66.2-22.8,94l15.4,3
	c6.8-36.1,13.4-62.1,29.9-86.9c52.3,7.4,107.3-4.6,147.5-24.2c-39.9-9.6-88.3-8.3-124.7-4.5l-16.4,1.7l7.5-14.7
	C264.7,324.2,264.4,294.8,259.2,266.3L259.2,266.3z"/>
</svg>
