<?xml version="1.0" encoding="utf-8"?>
<!-- Generator: Adobe Illustrator 26.0.1, SVG Export Plug-In . SVG Version: 6.00 Build 0)  -->
<svg version="1.1" id="Layer_1" xmlns="http://www.w3.org/2000/svg" xmlns:xlink="http://www.w3.org/1999/xlink" x="0px" y="0px"
	 viewBox="0 0 511.9 511.9" style="enable-background:new 0 0 511.9 511.9;" xml:space="preserve">
<style type="text/css">
	.st0{fill:#8C959D;}
	.st1{fill:#B2B6BA;}
</style>
<polygon class="st0" points="350.2,176.6 278.4,158.6 37,264.1 0,338.2 125.8,374.3 386.1,258.5 "/>
<polygon class="st1" points="350.2,176.6 107.8,284.3 125.8,374.3 386.1,258.5 "/>
<polygon class="st0" points="107.8,284.3 37,264.1 0,338.2 125.8,374.3 "/>
<polygon class="st0" points="476,212.7 404.1,194.7 162.8,300.2 125.8,374.3 251.5,410.4 511.9,294.6 "/>
<polygon class="st1" points="476,212.7 233.5,320.4 251.5,410.4 511.9,294.6 "/>
<polygon class="st0" points="233.5,320.4 162.8,300.2 125.8,374.3 251.5,410.4 "/>
<polygon class="st0" points="396.3,119.4 324.5,101.5 103.9,198.4 66.8,272.5 192.6,308.6 432.2,201.4 "/>
<polygon class="st1" points="396.3,119.4 174.6,218.6 192.6,308.6 432.2,201.4 "/>
<polygon class="st0" points="174.6,218.6 103.9,198.4 66.8,272.5 192.6,308.6 "/>
</svg>
