<svg xmlns="http://www.w3.org/2000/svg" viewBox="0 0 511.88 308.94"><defs><style>.cls-1{fill:#b2b6ba;}.cls-2{fill:#d4d8d3;}</style></defs><g id="Layer_2" data-name="Layer 2"><g id="Layer_1-2" data-name="Layer 1"><polygon class="cls-1" points="350.22 75.1 278.37 57.14 37.04 162.65 0 236.73 125.75 272.85 386.13 157.06 350.22 75.1"/><polygon class="cls-2" points="350.22 75.1 107.76 182.87 125.75 272.85 386.13 157.06 350.22 75.1"/><polygon class="cls-1" points="107.76 182.87 37.04 162.65 0.01 236.73 125.75 272.85 107.76 182.87"/><polygon class="cls-1" points="475.97 111.21 404.13 93.24 162.79 198.76 125.75 272.85 251.5 308.94 511.88 193.15 475.97 111.21"/><polygon class="cls-2" points="475.97 111.21 233.51 218.96 251.5 308.94 511.88 193.15 475.97 111.21"/><polygon class="cls-1" points="233.51 218.96 162.79 198.76 125.75 272.85 251.5 308.94 233.51 218.96"/><polygon class="cls-1" points="396.32 17.96 324.49 0 103.87 96.96 66.84 171.05 192.6 207.15 432.25 99.91 396.32 17.96"/><polygon class="cls-2" points="396.32 17.96 174.6 117.17 192.6 207.15 432.25 99.91 396.32 17.96"/><polygon class="cls-1" points="174.6 117.17 103.87 96.96 66.84 171.05 192.6 207.15 174.6 117.17"/></g></g></svg>