<?xml version="1.0" encoding="utf-8"?>
<!-- Generator: Adobe Illustrator 26.0.1, SVG Export Plug-In . SVG Version: 6.00 Build 0)  -->
<svg version="1.1" id="Layer_1" xmlns="http://www.w3.org/2000/svg" xmlns:xlink="http://www.w3.org/1999/xlink" x="0px" y="0px"
	 viewBox="0 0 700 700" style="enable-background:new 0 0 700 700;" xml:space="preserve">
<style type="text/css">
	.st0{fill:#5D8F76;}
</style>
<path class="st0" d="M279.5,458.2c0,43.9,3.1,73.9-10.2,107.3c-2.7,6.8,3.6,13.8,10.6,11.6c52.3-15.8,54.6-13.2,93.3-15.4
	c39.5-1.8,65.9-14.9,82.8-36.4c15.6-19.9,21.8-45.5,23.8-71.9c48.7-35.5,58.6-67.8,58.1-96.3c-0.3-13.5-2.6-24.9-2.8-33
	c-0.2-8.1,1.3-12.2,6.1-15.6c41.8-29.6,51.7-78.4,41.7-119.7c-3.7-15.4-10.6-24.3-18.4-40.9c-0.8-1.7-1-4.4,0.4-8.7
	c1.4-4.3,4.4-9.7,8.6-15.1c8.4-10.8,21.6-21.9,34.4-28.8c2.8-1.5,4.6-4.5,4.6-7.7c0-6.4-2.7-14.2-6.5-20.7c-1.9-3.3-4-6.4-6.7-9
	c-2.8-2.6-6.7-5.3-12-5.3c-26.1,1.7-45.4,14.3-58.7,27.9c-10.6,11-16.6,20.8-20.3,27.7c-0.4-0.1-1.3-0.3-1.8-0.4
	c-2-1.7-4.4-3.4-7.5-5.3c-20.8-12.9-44.1-20.1-66.8-19.4c-23.2,0.8-45,9.9-62.1,28.8c-8.7,9.6-12.9,19.9-16.4,28.7
	s-6.2,16.1-11,21.8c-5.5,6.5-11.8,9.3-19.7,10.8c-7.9,1.5-17.5,1.6-28.2,3.8c-10.7,2.2-22.1,6.7-33,17.8
	c-9.8,10.1-18.2,24.4-25.8,45.8c-22-0.3-39.7,3.8-54.7,13.4c-15.4,9.9-25.6,24.5-32.2,40.8c-17.2,43.6-31.4,64.6-58.4,86.3
	c-5.5,4.5-3.7,13.3,3.2,15.2c52.4,14.1,60.5,22.5,103.2,42.8c28.6,13.2,60.9,14.7,82.4,10.3C279.5,452.2,279.4,455,279.5,458.2
	L279.5,458.2z M297,458.2c0-20.3,1.8-34.7,8-46.4c6.1-11.5,17.2-21.9,38.2-33.1c3.1-1.6,5-5,4.7-8.5c-2.7-28.4-1.2-47.1,2.3-59.5
	c3.4-12.4,8.7-18.7,14.3-23.4c6.6-5.6,13.2-8.6,20.7-14.4c7.4-5.8,14.3-14,17.2-28.1c2.3-11.3,0.7-21.3-0.5-30.6
	c-1.1-9.2-1.9-17.7,0.3-27.4c9.9-42.3,48.4-63,89.9-62.9c6.4,0,12.5,1,18.3,2.8c4.2,1.3,8.6-0.7,10.5-4.6c2.5-5.3,9.2-18,20.3-29.3
	c10.9-11.1,25.7-20.9,45.8-22.6c1.2,1.1,2.7,3.2,4,5.3c1.7,3.1,2.4,5,3.2,7.5c-12.6,7.7-25.4,18.6-34.4,30.4
	c-5.1,6.5-9.2,13.2-11.5,20.2c-2.3,7-2.9,14.7,0.3,21.6c8.3,18,14.4,25.9,17.2,37.7c8.5,34.8,0.7,76.2-34.8,101.3
	c-11.7,8.4-13.8,19.6-13.5,30.3c0.3,10.7,2.6,21.4,2.9,32.9c0.4,23.1-7.1,51.1-54.1,84.1c-2.2,1.5-3.5,4-3.7,6.6
	c-1.6,26.2-7.3,49.6-20.4,66.4c-13.2,16.8-34.3,28-69.9,29.7c-33.9,1.8-44.1,0.7-81.4,11.4C299.6,523.7,297,495.8,297,458.2
	L297,458.2z M241.7,258.3c4,0.3,7.7-2.2,8.9-6.1c7.6-23.4,15.8-37.2,23.8-45.3c7.7-7.9,15.5-11.2,24-12.9c8.5-1.7,17.8-1.8,27.9-3.7
	c10.1-1.9,20.6-5.8,29.9-16.7c7.4-8.7,10.7-18.2,14-26.8c3.3-8.6,6.6-16.2,13-23.3c14.1-15.5,31.6-22.5,49.8-23.1
	c12.5-0.4,25.7,2.2,38.6,7.4c-41.1,6.3-76.1,31.5-86.3,74.9c-2.9,12.6-1.8,23.4-0.7,32.8c-7.8-3.6-16.6-5.7-25.7-5.7
	c-33.7,0-61.2,27.4-61.2,61.3c0,23.4,13.3,43.7,32.3,54c-1.1,11.6-1.1,24.4,0.2,40.8c-20.4,11.5-32.9,23.3-40.4,37.5
	c-4.4,8.4-7.2,17.9-8.5,27.4c-19,5.1-49.9,4.4-76.5-7.9c-36.7-17.4-50.5-27.5-90.4-39.3c23.1-21.3,37-46.6,51.3-82.6
	c5.7-13.9,13.6-25,25.3-32.5C202.6,261,218.7,256.8,241.7,258.3L241.7,258.3z M385.8,236.8c-0.1,1.4-0.4,3-0.7,4.4
	c-1.9,9.6-5.9,13.9-10.9,17.8c-6.3,5-13.2,8.1-21.1,14.8c-7.7,6.5-15.3,15.5-20.1,32.8c-10.9-7.9-18.1-20.8-18.1-35.4
	c0-24.3,19.9-43.8,43.7-43.8C368.7,227.4,378.3,231,385.8,236.8L385.8,236.8z M236.2,288.7c-34.1,0-61.2,27.5-61.2,61.2
	c0,33.7,27.3,61.2,61.2,61.2c33.9,0,61.2-27.5,61.2-61.2C297.5,316.2,270.3,288.7,236.2,288.7L236.2,288.7z M236.2,306.2
	c24.1,0,43.7,19.5,43.7,43.8s-19.6,43.7-43.7,43.7s-43.7-19.4-43.7-43.7S212.1,306.2,236.2,306.2L236.2,306.2z M425.9,464
	c-3.5-0.1-6.7,1.8-8.2,5.1c-17.5,37.3-62,37.6-62,37.6c-11.9,0.4-11.4,17.2,0,17.5c0,0,55.3,0.2,77.8-47.7
	C436.4,470.8,432.3,464.2,425.9,464L425.9,464z"/>
</svg>
