<?xml
version="1.0" encoding="utf-8"?>
<!-- Generator: Adobe Illustrator 22.0.1, SVG Export Plug-In . SVG Version: 6.00 Build 0)  -->
<svg version="1.1" id="Слой_1" xmlns="http://www.w3.org/2000/svg" xmlns:xlink="http://www.w3.org/1999/xlink" x="0px" y="0px" viewBox="0 0 100 100" style="enable-background:new 0 0 100 100;" xml:space="preserve">
    <style type="text/css">
        .st0 {
            fill: #4572C4;
        }
    </style>
    <path class="st0" d="M53.3,70.6H46V12.1h7c0.2,0,0.3,0.1,0.3,0.3V70.6z"/>
    <path d="M49.9,13.1c-3.6,0-6.5-2.9-6.5-6.5s2.9-6.5,6.5-6.5s6.5,2.9,6.5,6.5S53.4,13.1,49.9,13.1z M49.9,1.8C47.2,1.8,45,4,45,6.7
        	s2.2,4.9,4.9,4.9s4.9-2.2,4.9-4.9S52.5,1.8,49.9,1.8z"/>
    <rect y="5.9" width="43.1" height="1.6"/>
    <rect x="56.6" y="5.9" width="43.1" height="1.6"/>
    <path d="M26.4,86.7v-0.8c0-4.6,3.7-8.3,8.3-8.3h30.2c4.6,0,8.3,3.7,8.3,8.3v0.8H26.4z M34.8,79.2c-2.9,0-5.4,1.8-6.4,4.5l-0.5,1.5
        	h44l-0.5-1.5c-1-2.7-3.5-4.5-6.4-4.5H34.8z"/>
    <polygon points="64.2,77.3 64.2,71.6 35.5,71.6 35.5,77.3 34,77.3 34,70 65.7,70 65.7,77.3 "/>
    <rect x="45.3" y="10.8" width="1.6" height="59.7"/>
    <rect x="52.8" y="10.6" width="1.6" height="59.8"/>
    <rect x="79.3" y="5.9" width="1.6" height="20.3"/>
    <path d="M76.3,54.6c-2.1,0-3.9-1.5-4.4-3.5h1.7c0.4,1.1,1.5,1.9,2.8,1.9h7.5c1.6,0,3-1.3,3-3v-1.9c0-1.6-1.3-3-3-3h-7.5
        	c-2.5,0-4.6-2-4.6-4.6v-1.9c0-2.5,2-4.6,4.6-4.6h7.5c2.1,0,3.9,1.5,4.4,3.5h-1.7c-0.4-1.1-1.5-1.9-2.8-1.9h-7.5c-1.6,0-3,1.3-3,3
        	v1.9c0,1.6,1.3,3,3,3h7.5c2.5,0,4.6,2,4.6,4.6v1.9c0,2.5-2,4.6-4.6,4.6H76.3z"/>
    <rect x="79.3" y="32.3" width="1.6" height="1.6"/>
    <rect x="79.3" y="54.9" width="1.6" height="1.6"/>
    <path d="M80,64.1c-10.8,0-19.7-8.8-19.7-19.7c0-10.8,8.8-19.7,19.7-19.7s19.7,8.8,19.7,19.7C99.7,55.2,90.9,64.1,80,64.1z M80,26.3
        	c-10,0-18.1,8.1-18.1,18.1c0,10,8.1,18.1,18.1,18.1s18.1-8.1,18.1-18.1C98.1,34.4,90,26.3,80,26.3z"/>
    <rect x="18.9" y="5.9" width="1.6" height="20.3"/>
    <path d="M15.9,54.6c-2.1,0-3.9-1.5-4.4-3.5h1.7c0.4,1.1,1.5,1.9,2.8,1.9h7.5c1.6,0,3-1.3,3-3v-1.9c0-1.6-1.3-3-3-3h-7.5
        	c-2.5,0-4.6-2-4.6-4.6v-1.9c0-2.5,2-4.6,4.6-4.6h7.5c2.1,0,3.9,1.5,4.4,3.5h-1.7c-0.4-1.1-1.5-1.9-2.8-1.9h-7.5c-1.6,0-3,1.3-3,3
        	v1.9c0,1.6,1.3,3,3,3h7.5c2.5,0,4.6,2,4.6,4.6v1.9c0,2.5-2,4.6-4.6,4.6H15.9z"/>
    <rect x="18.9" y="32.3" width="1.6" height="1.6"/>
    <rect x="18.9" y="54.9" width="1.6" height="1.6"/>
    <path d="M19.7,64.1C8.8,64.1,0,55.2,0,44.4c0-10.8,8.8-19.7,19.7-19.7s19.7,8.8,19.7,19.7C39.3,55.2,30.5,64.1,19.7,64.1z
    	 M19.7,26.3c-10,0-18.1,8.1-18.1,18.1c0,10,8.1,18.1,18.1,18.1s18.1-8.1,18.1-18.1C37.7,34.4,29.6,26.3,19.7,26.3z"/>
</svg>
