<?xml version="1.0" encoding="utf-8"?>
<!-- Generator: Adobe Illustrator 22.0.1, SVG Export Plug-In . SVG Version: 6.00 Build 0)  -->
<svg version="1.1" id="Слой_1" xmlns="http://www.w3.org/2000/svg" xmlns:xlink="http://www.w3.org/1999/xlink" x="0px" y="0px"
	 viewBox="0 0 100 100" style="enable-background:new 0 0 100 100;" xml:space="preserve">
<style type="text/css">
	.st0{fill:#FF5722;}
</style>
<rect x="35.2" y="72.5" class="st0" width="28.8" height="6.4"/>
<rect x="35.2" y="29.3" class="st0" width="28.8" height="6.4"/>
<g>
	<g>
		<path d="M49.6,99.7c-26,0-47.1-21.1-47.1-47.1c0-25.5,20-46.2,45.4-47l0.9,0V0l16.9,11.2L48.9,22.5v-5.6l-1,0
			c-19.1,0.9-34,16.6-34,35.7c0,19.7,16,35.7,35.7,35.7c19.4,0,35.2-15.5,35.7-34.8h1.4c-0.5,20-17,36.2-37.1,36.2
			c-20.5,0-37.1-16.7-37.1-37.1s16.7-37.1,37.1-37.1h0.7v4.4l13-8.6l-13-8.6V7h-0.7C24.5,7,4,27.5,4,52.6s20.5,45.7,45.7,45.7
			c24.9,0,45.1-20,45.7-44.7h1.4C96.2,79.1,75.3,99.7,49.6,99.7z"/>
	</g>
	<g>
		<path d="M36.4,36.8c-1.3,0-2.4-1.1-2.4-2.4v-3.3c0-1.3,1.1-2.4,2.4-2.4h26.5c1.3,0,2.4,1.1,2.4,2.4v3.3c0,1.3-1.1,2.4-2.4,2.4
			H36.4z M35.4,35.4h28.4l0-5.2H35.4V35.4z"/>
	</g>
	<g>
		<path d="M36.4,79.8c-1.3,0-2.4-1.1-2.4-2.4v-3.3c0-1.3,1.1-2.4,2.4-2.4h26.5c1.3,0,2.4,1.1,2.4,2.4v3.3c0,1.3-1.1,2.4-2.4,2.4
			H36.4z M35.4,78.4h28.4l0-5.2H35.4V78.4z"/>
	</g>
	<g>
		<path d="M60.5,71.5v-4c0-4.2-2.5-8.1-6.2-9.9c-1.2-0.6-2-1.8-2-3.2c0-1.3,0.8-2.6,2-3.2c3.8-1.8,6.2-5.7,6.2-9.9v-4h1.4v4
			c0,4.7-2.8,9.1-7,11.1c-0.8,0.4-1.2,1.1-1.2,1.9c0,0.8,0.5,1.5,1.2,1.9c4.3,2,7,6.4,7,11.1v4H60.5z"/>
	</g>
	<g>
		<path d="M37.4,71.5v-4c0-4.7,2.8-9.1,7-11.1c0.8-0.4,1.2-1.1,1.2-1.9c0-0.8-0.5-1.5-1.2-1.9c-4.3-2-7-6.4-7-11.1v-4h1.4v4
			c0,4.2,2.5,8.1,6.2,9.9c1.2,0.6,2,1.8,2,3.2c0,1.3-0.8,2.6-2,3.2c-3.8,1.8-6.2,5.7-6.2,9.9v4H37.4z"/>
	</g>
	<g>
		<rect x="84.1" y="42.5" transform="matrix(0.966 -0.2584 0.2584 0.966 -8.2824 23.3846)" width="1.4" height="1.4"/>
	</g>
	<g>
		<rect x="80.5" y="33.7" transform="matrix(0.8666 -0.499 0.499 0.8666 -6.3436 45.1121)" width="1.4" height="1.4"/>
	</g>
	<g>
		<polygon points="74.4,26.9 75.4,25.9 76.4,26.9 75.4,27.9 		"/>
	</g>
	<g>
		<rect x="67.2" y="20.4" transform="matrix(0.5004 -0.8658 0.8658 0.5004 15.6487 69.2875)" width="1.4" height="1.4"/>
	</g>
	<g>
		<rect x="94.4" y="42.9" transform="matrix(0.9806 -0.1959 0.1959 0.9806 -6.696 19.4786)" width="1.4" height="1.4"/>
	</g>
	<g>
		<rect x="91.8" y="34.2" transform="matrix(0.9244 -0.3814 0.3814 0.9244 -6.3169 37.913)" width="1.4" height="1.4"/>
	</g>
	<g>
		<rect x="87.5" y="26.2" transform="matrix(0.831 -0.5563 0.5563 0.831 -4.542285e-02 53.601)" width="1.4" height="1.4"/>
	</g>
	<g>
		<polygon points="81.4,19.8 82.4,18.9 83.4,19.8 82.4,20.8 		"/>
	</g>
	<g>
		<rect x="74.7" y="13.4" transform="matrix(0.556 -0.8312 0.8312 0.556 21.7747 68.9269)" width="1.4" height="1.4"/>
	</g>
</g>
</svg>
