<?xml version="1.0" encoding="utf-8"?>
<!-- Generator: Adobe Illustrator 22.0.1, SVG Export Plug-In . SVG Version: 6.00 Build 0)  -->
<svg version="1.1" id="Слой_1" xmlns="http://www.w3.org/2000/svg" xmlns:xlink="http://www.w3.org/1999/xlink" x="0px" y="0px"
	 viewBox="0 0 100 100" style="enable-background:new 0 0 100 100;" xml:space="preserve">
<style type="text/css">
	.st0{fill:#FF5722;}
</style>
<path class="st0" d="M62.1,45.7c0,10-8.1,18.1-18.1,18.1s-18.1-8.1-18.1-18.1S34,27.6,44,27.6c3.9,0,8.8-0.5,7.9,1.8
	c-0.7,1.8-0.7,4.7,6.3,5.2C58.9,34.7,62.1,39.9,62.1,45.7z"/>
<path d="M14.4,89.9c-3.1,0-5.7-2.5-5.7-5.7v-5.7H79v5.7c0,3.1-2.5,5.7-5.7,5.7H14.4z M10.3,84.2c0,2.3,1.9,4.1,4.1,4.1h58.9
	c2.3,0,4.1-1.9,4.1-4.1v-4.1H10.3V84.2z"/>
<path d="M8.7,78.4V36.8c0-2.2,1.8-4,4-4h16.3v1.5H12.8c-1.4,0-2.5,1.1-2.5,2.5v41.7H8.7z"/>
<path d="M77.4,78.4V36.8c0-1.4-1.1-2.5-2.5-2.5H61.1v-1.5h13.9c2.2,0,4,1.8,4,4v41.7H77.4z"/>
<rect x="61.1" y="90" width="1.5" height="8.1"/>
<rect x="25.1" y="90" width="1.5" height="8.1"/>
<rect x="18.5" y="98.2" width="50.6" height="1.5"/>
<polygon points="70.9,78.4 70.9,40.8 62,40.8 62,39.3 72.4,39.3 72.4,78.4 "/>
<polygon points="15.3,78.4 15.3,39.3 25.7,39.3 25.7,40.8 16.8,40.8 16.8,78.4 "/>
<path d="M85.6,24.4V0h8.1v24.4H85.6z M87.2,22.9h5V1.5h-5V22.9z"/>
<path d="M56.7,35.9c-3,0-5.4-2.4-5.4-5.4c0-1.4,0.6-2.8,1.6-3.8l6.5-6.5c1.1-1.1,1.7-2.5,1.7-4.1v-3h1.5v3c0,2-0.8,3.8-2.1,5.2
	l-6.5,6.5c-0.7,0.7-1.1,1.7-1.1,2.7c0,2.1,1.7,3.9,3.9,3.9c1,0,2-0.4,2.7-1.1l11.2-11.2c2.6-2.6,6.1-4.1,9.8-4.1h5.2v1.5h-5.2
	c-3.3,0-6.4,1.3-8.7,3.6L60.5,34.3C59.5,35.3,58.1,35.9,56.7,35.9z"/>
<path d="M27.2,26.1c-3,0-5.4-2.4-5.4-5.4c0-1.4,0.6-2.8,1.6-3.8L31.3,9c2.1-2.1,4.7-3.4,7.6-3.9l9.8-1.6c1-0.2,2.1-0.2,3.2-0.2h33.6
	v1.5H51.9c-1,0-2,0.1-2.9,0.2l-9.8,1.6c-2.6,0.4-4.9,1.6-6.8,3.5L24.5,18c-0.7,0.7-1.1,1.7-1.1,2.7c0,2.1,1.7,3.9,3.9,3.9
	c1,0,2-0.4,2.7-1.1l5.6-5.6c2-2,4.7-3.1,7.5-3.1h8.3c1.6,0,3.3,0.4,4.7,1.1l3.7,1.8l-0.7,1.4l-3.7-1.8c-1.2-0.6-2.6-1-4-1H43
	c-2.4,0-4.7,0.9-6.4,2.7L31,24.5C30,25.5,28.7,26.1,27.2,26.1z"/>
<path d="M38.2,27.7c-1.8,0-3.4-1.2-3.8-3l-0.8-3.3l1.5-0.4l0.8,3.3c0.3,1.1,1.2,1.8,2.4,1.8c1.1,0,2-0.7,2.3-1.8l2.4-8.3l1.5,0.4
	L42,24.8C41.5,26.5,39.9,27.7,38.2,27.7z"/>
<path d="M61.1,44.1c-0.1-2.9-1-5.8-2.6-8.2l1.3-0.9c1.7,2.7,2.7,5.9,2.9,9.1H61.1z"/>
<path d="M25.1,44.1c0.5-9.9,8.7-17.9,18.7-17.9c2.8,0,5.5,0.6,8,1.8l-0.7,1.4c-2.3-1.1-4.8-1.6-7.3-1.6c-9.2,0-16.8,7.3-17.2,16.4
	H25.1z"/>
<path d="M38.2,52.3V37.6h7.3c2.2,0,4,1.8,4,4c0,1-0.4,2-1,2.7L48,44.9l0.5,0.6c0.7,0.7,1,1.7,1,2.7c0,2.2-1.8,4-4,4H38.2z
	 M39.7,50.7h5.8c1.4,0,2.5-1.1,2.5-2.5c0-1.4-1.1-2.5-2.5-2.5h-5.8V50.7z M39.7,44.2h5.8c1.4,0,2.5-1.1,2.5-2.5
	c0-1.4-1.1-2.5-2.5-2.5h-5.8V44.2z"/>
<rect x="43.1" y="34.4" width="1.5" height="3.2"/>
<rect x="43.1" y="52.4" width="1.5" height="3.2"/>
<path d="M43.9,63.7c-10.1,0-18.3-8-18.7-17.9h1.5c0.5,9.1,8,16.4,17.2,16.4c9.2,0,16.8-7.3,17.2-16.4h1.5
	C62.1,55.8,53.9,63.7,43.9,63.7z"/>
<path d="M21.8,70.3v-8.1h44.1v8.1H21.8z M23.4,68.7h41v-5h-41V68.7z"/>
</svg>
