<?xml
version="1.0" encoding="utf-8"?>
<!-- Generator: Adobe Illustrator 22.0.1, SVG Export Plug-In . SVG Version: 6.00 Build 0)  -->
<svg version="1.1" id="Слой_1" xmlns="http://www.w3.org/2000/svg" xmlns:xlink="http://www.w3.org/1999/xlink" x="0px" y="0px" viewBox="0 0 150 150" style="enable-background:new 0 0 150 150;" xml:space="preserve">
    <style type="text/css">
        .st0 {
            fill: #4572C4;
        }
    </style>
    <circle class="st0" cx="113.5" cy="113.5" r="23.5"/>
    <path d="M113.2,150c-11.7,0-22.4-5.4-29.4-14.7l-0.6-0.9l-0.8,0.7c-7.2,6.1-15.3,11.1-24.1,14.8c-0.1,0.1-0.3,0.1-0.5,0.1
        	c-0.2,0-0.3,0-0.5-0.1c-17-7.2-31.3-19.1-41.5-34.4C5.7,100.1,0.3,82.3,0.3,63.8V16.1c0-0.5,0.4-1,0.9-1.2L57.5,0c0.1,0,0.2,0,0.3,0
        	c0.1,0,0.2,0,0.3,0l56.3,14.8c0.5,0.1,0.9,0.6,0.9,1.2v47.8c0,3.8-0.2,7.6-0.7,11.4l-0.1,1.1l1.1,0.1c19.3,1.2,34.4,17.4,34.4,36.8
        	C150,133.5,133.5,150,113.2,150z M113.2,78.7c-18.9,0-34.4,15.4-34.4,34.4s15.4,34.4,34.4,34.4s34.4-15.4,34.4-34.4
        	S132.2,78.7,113.2,78.7z M2.7,17v46.8c0,36.3,21.5,69.1,54.7,83.5l0.4,0.2l0.4-0.2c8.4-3.6,16.1-8.5,23-14.4l0.6-0.6l-0.4-0.7
        	c-1.3-2.2-2.3-4.5-3.1-6.9l-0.5-1.5l-1.2,1c-5.5,5-11.7,9.2-18.3,12.5c-0.2,0.1-0.4,0.1-0.5,0.1c-0.2,0-0.4,0-0.5-0.1
        	c-12.7-6.3-23.7-16-31.5-27.9c-8.9-13.4-13.6-29-13.6-45.1V25.2c0-0.5,0.4-1,0.9-1.2l44.5-11.7c0.1,0,0.2,0,0.3,0c0.1,0,0.2,0,0.3,0
        	L102.6,24c0.5,0.1,0.9,0.6,0.9,1.2v38.6c0,4.2-0.3,8.4-1,12.6l-0.2,1.5l1.5-0.4c2.4-0.6,4.9-1,7.5-1.2l0.8,0l0.1-0.8
        	c0.5-3.9,0.7-7.8,0.7-11.7V17L57.8,2.5L2.7,17z M14.6,26.1v37.7c0,15.6,4.6,30.7,13.2,43.8c7.4,11.2,17.7,20.4,29.6,26.6l0.5,0.2
        	l0.5-0.2c6.8-3.5,13-8,18.5-13.3l0.4-0.4l-0.1-0.5c-0.4-2.2-0.6-4.5-0.6-6.8c0-14.9,8.9-28.3,22.6-34l0.5-0.2l0.1-0.5
        	c0.9-4.8,1.4-9.7,1.4-14.6V26.1L57.8,14.7L14.6,26.1z"/>
    <path d="M113.2,138.1c-13.7,0-24.9-11.2-24.9-25s11.2-25,24.9-25c13.7,0,24.9,11.2,24.9,25S127,138.1,113.2,138.1z M113.2,90.6
        	c-12.4,0-22.5,10.1-22.5,22.5s10.1,22.5,22.5,22.5s22.5-10.1,22.5-22.5S125.6,90.6,113.2,90.6z"/>
    <path d="M110.1,121.8c-0.3,0-0.6-0.1-0.9-0.4l-8.7-8.6c-0.5-0.5-0.5-1.2,0-1.7c0.2-0.2,0.5-0.4,0.9-0.4c0.3,0,0.6,0.1,0.9,0.4
    	l7.9,7.8l14.1-14c0.2-0.2,0.5-0.4,0.9-0.4c0.3,0,0.6,0.1,0.9,0.4c0.2,0.2,0.4,0.5,0.4,0.9c0,0.3-0.1,0.6-0.4,0.9l-15,14.8
    	C110.7,121.7,110.4,121.8,110.1,121.8z"/>
</svg>
