<?xml
version="1.0" encoding="utf-8"?>
<!-- Generator: Adobe Illustrator 22.0.1, SVG Export Plug-In . SVG Version: 6.00 Build 0)  -->
<svg version="1.1" id="Слой_1" xmlns="http://www.w3.org/2000/svg" xmlns:xlink="http://www.w3.org/1999/xlink" x="0px" y="0px" viewBox="0 0 100 100" style="enable-background:new 0 0 100 100;" xml:space="preserve">
    <style type="text/css">
        .st0 {
            fill: #4572C4;
        }
        .st1 {
            fill: none;
            stroke: #000000;
            stroke-width: 1.3;
            stroke-miterlimit: 10;
        }
    </style>
    <g>
        <g>
            <path class="st0" d="M79.6,70.4c-11.3,0-20.4-9.2-20.4-20.4s9.2-20.4,20.4-20.4c11.3,0,20.4,9.2,20.4,20.4S90.8,70.4,79.6,70.4z"/>
        </g>
        <g>
            <path d="M79.6,60.6c-2.6,0-4.8-1.8-5.5-4.3L74,55.9h1.4l0.1,0.2c0.5,1.8,2.2,3.1,4.1,3.1c2.3,0,4.2-1.9,4.2-4.2s-1.9-4.2-4.2-4.2
            			c-3.1,0-5.6-2.5-5.6-5.6s2.5-5.6,5.6-5.6c2.6,0,4.8,1.8,5.5,4.3l0.1,0.4h-1.4l-0.1-0.2c-0.5-1.8-2.2-3.1-4.1-3.1
            			c-2.3,0-4.2,1.9-4.2,4.2s1.9,4.2,4.2,4.2c3.1,0,5.6,2.5,5.6,5.6S82.7,60.6,79.6,60.6z"/>
        </g>
        <g>
            <rect x="78.9" y="36.2" width="1.4" height="3"/>
        </g>
        <g>
            <rect x="78.9" y="60.8" width="1.4" height="3"/>
        </g>
        <g>
            <polygon points="10.8,89.9 22.1,80.3 33.3,89.9 32.4,91 22.1,82.1 11.7,91 		"/>
        </g>
        <g>
            <path class="st1" d="M36.9,46.5c-0.9-1.4-2.3-2.4-4-2.7l-0.2,0l-0.1-0.2c-0.5-1.9-2.2-3.2-4.1-3.2H15.5c-1.9,0-3.6,1.3-4.1,3.2
            			l-0.1,0.2l-0.2,0C9.5,44,8,45,7.2,46.5l-0.6,1v-6.1c0-8.5,6.9-15.5,15.5-15.5s15.5,6.9,15.5,15.5v6.1L36.9,46.5z"/>
        </g>
        <g>
            <path d="M22.1,60.6c-5.8,0-10.6-4.7-10.6-10.6v-6.6c0-2.2,1.8-4,4-4h13.2c2.2,0,4,1.8,4,4V50C32.6,55.8,27.9,60.6,22.1,60.6z
            			 M15.5,40.8c-1.4,0-2.6,1.2-2.6,2.6V50c0,5.1,4.1,9.2,9.2,9.2s9.2-4.1,9.2-9.2v-6.6c0-1.4-1.2-2.6-2.6-2.6H15.5z"/>
        </g>
        <g>
            <path d="M10.8,53.8c-2.5-0.6-4.3-2.9-4.3-5.5c0-2.6,1.8-4.8,4.3-5.5l0.4-0.1v1.4L11,44.3C9.2,44.8,8,46.5,8,48.4s1.3,3.6,3.1,4.1
            			l0.2,0.1v1.4L10.8,53.8z"/>
        </g>
        <g>
            <path d="M32.9,52.5l0.2-0.1c1.8-0.5,3.1-2.2,3.1-4.1s-1.3-3.6-3.1-4.1l-0.2-0.1v-1.4l0.4,0.1c2.5,0.6,4.3,2.9,4.3,5.5
            			c0,2.6-1.8,4.8-4.3,5.5l-0.4,0.1V52.5z"/>
        </g>
        <g>
            <polygon points="16.5,63.5 16.4,59.2 17.8,59.2 17.8,63 22.1,67.1 26.4,62.8 26.3,59.2 27.7,59.2 27.7,63.3 22.1,69.1 		"/>
        </g>
        <g>
            <path d="M0,75.3v-3.5c0-3.5,2.5-6.4,5.8-7.1l10.2-2l0.3,1.3l-10.2,2c-2.7,0.5-4.7,3-4.7,5.8V74h41.4v-2.1c0-2.8-2-5.2-4.7-5.8
            			l-10.2-2l0.3-1.3l10.2,2c3.4,0.7,5.8,3.7,5.8,7.1v3.5H0z"/>
        </g>
        <g>
            <path d="M25.3,100c-2.2,0-4-1.8-4-4V82.2h1.4V96c0,1.4,1.2,2.6,2.6,2.6h51c1.4,0,2.6-1.2,2.6-2.6V75.6h1.4V96c0,2.2-1.8,4-4,4
            			H25.3z"/>
        </g>
        <g>
            <polygon points="68.4,15 69.3,13.9 79.6,22.8 89.9,13.9 90.8,15 79.6,24.6 		"/>
        </g>
        <g>
            <path d="M78.9,22.7V4c0-1.4-1.2-2.6-2.6-2.6h-51c-1.4,0-2.6,1.2-2.6,2.6v15.5h-1.4V4c0-2.2,1.8-4,4-4h51c2.2,0,4,1.8,4,4v18.8
            			H78.9z"/>
        </g>
        <g>
            <rect x="90.4" y="49.3" width="1.4" height="1.4"/>
        </g>
        <g>
            <rect x="67.4" y="49.3" width="1.4" height="1.4"/>
        </g>
        <g>
            <rect x="55.9" y="6.6" width="1.4" height="1.4"/>
        </g>
        <g>
            <rect x="49.3" y="6.6" width="1.4" height="1.4"/>
        </g>
        <g>
            <rect x="42.7" y="6.6" width="1.4" height="1.4"/>
        </g>
        <g>
            <rect x="55.9" y="92" width="1.4" height="1.4"/>
        </g>
        <g>
            <rect x="49.3" y="92" width="1.4" height="1.4"/>
        </g>
        <g>
            <rect x="42.7" y="92" width="1.4" height="1.4"/>
        </g>
    </g>
</svg>
