<svg width="24" height="24" viewBox="0 0 24 24" fill="none" xmlns="http://www.w3.org/2000/svg">
<path d="M6 9L12 12L18 9" stroke="#FF5722" stroke-width="1.5" stroke-linecap="round" stroke-linejoin="round"/>
<path d="M3 12C3 9.19108 3 7.78661 3.67412 6.77772C3.96596 6.34096 4.34096 5.96596 4.77772 5.67412C5.78661 5 7.19108 5 10 5H14C16.8089 5 18.2134 5 19.2223 5.67412C19.659 5.96596 20.034 6.34096 20.3259 6.77772C21 7.78661 21 9.19108 21 12C21 14.8089 21 16.2134 20.3259 17.2223C20.034 17.659 19.659 18.034 19.2223 18.3259C18.2134 19 16.8089 19 14 19H10C7.19108 19 5.78661 19 4.77772 18.3259C4.34096 18.034 3.96596 17.659 3.67412 17.2223C3 16.2134 3 14.8089 3 12Z" stroke="#FF5722" stroke-width="1.5"/>
</svg>
