<svg width="24" height="24" viewBox="0 0 24 24" fill="none" xmlns="http://www.w3.org/2000/svg">
    <path d="M3 13C3 9.22876 3 7.34315 4.17157 6.17157C5.34315 5 7.22876 5 11 5H14.2031C16.8189 5 18.1268 5 19.0879 5.58816C19.6277 5.91852 20.0815 6.37226 20.4118 6.9121C21 7.87321 21 9.1811 21 11.7969C21 14.4127 21 15.7205 20.4118 16.6817C20.0815 17.2215 19.6277 17.6752 19.0879 18.0056C18.1268 18.5937 16.8189 18.5938 14.2031 18.5938H7.91319C7.35539 18.5938 7.07649 18.5938 6.80211 18.6319C6.67556 18.6496 6.54993 18.6732 6.42564 18.7029C6.15617 18.7671 5.89638 18.8686 5.37682 19.0716C4.46719 19.4269 4.01238 19.6045 3.65782 19.4754C3.50042 19.4181 3.35994 19.3222 3.24927 19.1964C3 18.9131 3 18.4248 3 17.4483V13Z" stroke="#4572C4" stroke-width="1.5"/>
    <circle opacity="0.5" cx="7" cy="12" r="1" fill="#B0B0BA"/>
    <circle opacity="0.5" cx="12" cy="12" r="1" fill="#B0B0BA"/>
    <circle opacity="0.5" cx="17" cy="12" r="1" fill="#B0B0BA"/>
</svg>
