<?xml
version="1.0" encoding="utf-8"?>
<!-- Generator: Adobe Illustrator 22.0.1, SVG Export Plug-In . SVG Version: 6.00 Build 0)  -->
<svg version="1.1" id="Слой_1" xmlns="http://www.w3.org/2000/svg" xmlns:xlink="http://www.w3.org/1999/xlink" x="0px" y="0px" viewBox="0 0 100 100" style="enable-background:new 0 0 100 100;" xml:space="preserve">
    <style type="text/css">
        .st0 {
            fill: #4572C4;
        }
    </style>
    <polygon class="st0" points="96.5,98 61.1,98 60,96.6 60,85 98,85 98,96.6 "/>
    <polygon class="st0" points="60,56 4.3,56 3,56 2,54.5 2,47 60,47 "/>
    <path d="M62.9,98.9c-2.1,0-3.7-1.7-3.7-3.7V37.1c0-2.1,1.7-3.7,3.7-3.7h32.3c2.1,0,3.7,1.7,3.7,3.7v58.1c0,2.1-1.7,3.7-3.7,3.7H62.9
        	z M62.9,34.4c-1.5,0-2.7,1.2-2.7,2.7v58.1c0,1.5,1.2,2.7,2.7,2.7h32.3c1.5,0,2.7-1.2,2.7-2.7V37.1c0-1.5-1.2-2.7-2.7-2.7H62.9z"/>
    <path d="M59.7,44.1c-0.3,0-0.5-0.2-0.5-0.5s0.2-0.5,0.5-0.5h38.7c0.3,0,0.5,0.2,0.5,0.5s-0.2,0.5-0.5,0.5H59.7z"/>
    <path d="M59.7,86c-0.3,0-0.5-0.2-0.5-0.5c0-0.3,0.2-0.5,0.5-0.5h38.7c0.3,0,0.5,0.2,0.5,0.5c0,0.3-0.2,0.5-0.5,0.5H59.7z"/>
    <path d="M74.2,92.4c-0.3,0-0.5-0.2-0.5-0.5s0.2-0.5,0.5-0.5h9.7c0.3,0,0.5,0.2,0.5,0.5s-0.2,0.5-0.5,0.5H74.2z"/>
    <path d="M4.8,57c-2.1,0-3.7-1.7-3.7-3.7V4.8c0-2.1,1.7-3.7,3.7-3.7h64.5c2.1,0,3.7,1.7,3.7,3.7v29c0,0.3-0.2,0.5-0.5,0.5
        	c-0.3,0-0.5-0.2-0.5-0.5v-29c0-1.5-1.2-2.7-2.7-2.7H4.8c-1.5,0-2.7,1.2-2.7,2.7v48.4c0,1.5,1.2,2.7,2.7,2.7h54.8
        	c0.3,0,0.5,0.2,0.5,0.5c0,0.3-0.2,0.5-0.5,0.5H4.8z"/>
    <path d="M25.8,66.6c-0.3,0-0.5-0.2-0.5-0.5v-9.7c0-0.3,0.2-0.5,0.5-0.5c0.3,0,0.5,0.2,0.5,0.5v9.7C26.3,66.4,26.1,66.6,25.8,66.6z"/>
    <path d="M21,66.6c-0.3,0-0.5-0.2-0.5-0.5c0-0.3,0.2-0.5,0.5-0.5h32.3c0.3,0,0.5,0.2,0.5,0.5c0,0.3-0.2,0.5-0.5,0.5H21z"/>
    <path d="M48.4,66.6c-0.3,0-0.5-0.2-0.5-0.5v-9.7c0-0.3,0.2-0.5,0.5-0.5s0.5,0.2,0.5,0.5v9.7C48.9,66.4,48.7,66.6,48.4,66.6z"/>
    <path d="M1.6,47.3c-0.3,0-0.5-0.2-0.5-0.5c0-0.3,0.2-0.5,0.5-0.5h58.1c0.3,0,0.5,0.2,0.5,0.5c0,0.3-0.2,0.5-0.5,0.5H1.6z"/>
    <circle cx="91.9" cy="79" r="0.5"/>
    <circle cx="22.6" cy="14.5" r="0.5"/>
    <circle cx="29" cy="14.5" r="0.5"/>
    <path d="M35.5,15c-0.3,0-0.5-0.2-0.5-0.5s0.2-0.5,0.5-0.5h29c0.3,0,0.5,0.2,0.5,0.5S64.8,15,64.5,15H35.5z"/>
    <path d="M61.3,19.9c-0.1,0-0.2,0-0.4-0.1c-0.1-0.1-0.2-0.3-0.2-0.4s0-0.2,0.2-0.4l4.5-4.5L60.9,10c-0.1-0.1-0.2-0.3-0.2-0.4
        	s0-0.2,0.2-0.4c0.1-0.1,0.3-0.2,0.4-0.2c0.1,0,0.2,0,0.4,0.1l4.8,4.8c0.2,0.2,0.2,0.5,0,0.7l-4.8,4.8C61.6,19.8,61.4,19.9,61.3,19.9
        	z"/>
    <path d="M51.6,31.2c-0.3,0-0.5-0.2-0.5-0.5c0-0.3,0.2-0.5,0.5-0.5c0.3,0,0.5,0.2,0.5,0.5C52.1,30.9,51.9,31.2,51.6,31.2z"/>
    <path d="M45.2,31.2c-0.3,0-0.5-0.2-0.5-0.5c0-0.3,0.2-0.5,0.5-0.5c0.3,0,0.5,0.2,0.5,0.5C45.7,30.9,45.4,31.2,45.2,31.2z"/>
    <path d="M9.7,31.2c-0.3,0-0.5-0.2-0.5-0.5c0-0.3,0.2-0.5,0.5-0.5h29c0.3,0,0.5,0.2,0.5,0.5c0,0.3-0.2,0.5-0.5,0.5H9.7z"/>
    <path d="M12.9,36c-0.1,0-0.3-0.1-0.4-0.2L7.7,31c-0.1-0.1-0.2-0.3-0.2-0.4s0-0.2,0.1-0.4l4.8-4.8c0.1-0.1,0.3-0.2,0.4-0.2
        	c0.1,0,0.2,0,0.4,0.2s0.2,0.3,0.2,0.4c0,0.1,0,0.2-0.1,0.4l-4.5,4.5l4.5,4.5c0.1,0.1,0.2,0.3,0.2,0.4s0,0.2-0.1,0.4
        	C13.1,36,13,36,12.9,36z"/>
    <path d="M91.9,73.1c-0.3,0-0.5-0.2-0.5-0.5V50c0-0.3,0.2-0.5,0.5-0.5s0.5,0.2,0.5,0.5v22.6C92.4,72.9,92.2,73.1,91.9,73.1z"/>
</svg>
