<?xml
version="1.0" encoding="utf-8"?>
<!-- Generator: Adobe Illustrator 22.0.1, SVG Export Plug-In . SVG Version: 6.00 Build 0)  -->
<svg version="1.1" id="Слой_1" xmlns="http://www.w3.org/2000/svg" xmlns:xlink="http://www.w3.org/1999/xlink" x="0px" y="0px" viewBox="0 0 120 120" style="enable-background:new 0 0 120 120;" xml:space="preserve">
    <style type="text/css">
        .st0 {
            fill: #4572C4;
        }
    </style>
    <path class="st0" d="M55.7,48.4c0-10.6,5.3-19.8,13.4-25.4c-6-7-14.9-11.5-24.9-11.5c-18.3,0-33,14.7-33,33s14.7,33,33,33
        	c7.7,0,15.1-2.6,20.7-7.3C59.2,64.6,55.7,56.9,55.7,48.4z"/>
    <path d="M44.2,88.2c-0.2,0-0.4,0-0.4-0.2c-0.9-0.6-23.7-12.2-23.7-43.5S42.9,1.3,43.8,0.9c0.2,0,0.2-0.2,0.4-0.2
        	c0.4,0,0.8,0.2,0.9,0.6c0.2,0.6,0,1.1-0.4,1.3C43.8,3,21.9,14.5,21.9,44.5c0,30.1,22.6,41.6,22.8,41.8c0.6,0.2,0.8,0.8,0.4,1.3
        	C44.7,88,44.5,88.2,44.2,88.2z"/>
    <path d="M11.2,72.7c-0.2,0-0.4,0-0.4-0.2c-0.6-0.2-0.8-0.8-0.4-1.3C10.6,70.6,16.8,59,44.4,59c5.5,0,10.4,0.4,14.7,1.3
        	c0.2,0,0.6,0.2,0.6,0.4c0.2,0.2,0.2,0.6,0.2,0.8c0,0.4-0.6,0.8-0.9,0.8h-0.2c-4.3-0.9-9-1.3-14.3-1.3c-26,0-32,10.9-32.2,11.1
        	C11.8,72.5,11.4,72.7,11.2,72.7z"/>
    <path d="M1.4,45.6c-0.6,0-0.9-0.4-0.9-0.9c0-0.6,0.4-0.9,0.9-0.9h54.3c0.6,0,0.9,0.4,0.9,0.9c0,0.6-0.4,0.9-0.9,0.9H1.4z"/>
    <path d="M44.2,88.2c-0.4,0-0.8-0.2-0.9-0.6c-0.2-0.6,0-1.1,0.4-1.3c0,0,11.1-5.7,17.7-19.2c0.2-0.4,0.6-0.6,0.9-0.6
        	c0.2,0,0.4,0,0.4,0.2c0.6,0.2,0.8,0.8,0.4,1.3c-7,14.1-18.3,20-18.7,20.2H44.2z"/>
    <path d="M64.5,27.7c-0.4,0-0.8-0.2-0.9-0.6c-6-17.5-19.8-24.3-20-24.5c-0.2,0-0.4-0.2-0.4-0.6c0-0.2,0-0.6,0-0.8
        	c0.2-0.4,0.6-0.6,0.9-0.6c0.2,0,0.4,0,0.4,0.2c0.6,0.4,14.7,7.5,20.9,25.4c0.2,0.6,0,1.1-0.6,1.3C64.7,27.7,64.7,27.7,64.5,27.7z"/>
    <path d="M44.2,88.2c-0.6,0-0.9-0.4-0.9-0.9V3.8c0-0.6,0.4-0.9,0.9-0.9c0.6,0,0.9,0.4,0.9,0.9v83.5C45.1,87.8,44.7,88.2,44.2,88.2z"/>
    <path d="M87.3,80.3c-17.7,0-32.2-14.5-32.2-32.2s14.3-32.4,32.2-32.4s32.2,14.5,32.2,32.2S105,80.3,87.3,80.3z M87.3,18.3
        	c-16.4,0-29.8,13.4-29.8,29.8s13.4,29.8,29.8,29.8s29.8-13.4,29.8-29.8S103.7,18.3,87.3,18.3z"/>
    <path d="M44.2,88.2c-24.1,0-43.7-19.6-43.7-43.7S20.1,0.7,44.2,0.7c13.8,0,26.4,6.2,34.7,17.1c0.4,0.4,0.2,0.9-0.2,1.3
        	c-0.2,0.2-0.4,0.2-0.6,0.2c-0.4,0-0.6-0.2-0.8-0.4C69.4,8.7,57.4,2.6,44.2,2.6c-23,0-41.6,18.7-41.6,41.6s18.7,41.6,41.6,41.6
        	c10.4,0,20.4-3.8,28.1-10.9c0.2-0.2,0.4-0.2,0.6-0.2c0.2,0,0.6,0.2,0.8,0.4s0.2,0.4,0.2,0.8c0,0.2-0.2,0.6-0.4,0.8
        	C65.5,84.2,55.1,88.2,44.2,88.2z"/>
    <path d="M44.2,29.9c-27.5,0-33.5-11.7-33.9-12.2c-0.2-0.2-0.2-0.6,0-0.8c0-0.2,0.2-0.4,0.6-0.6c0.2,0,0.2-0.2,0.4-0.2
        	c0.4,0,0.8,0.2,0.9,0.6c0.2,0.6,6.4,11.1,32.2,11.1c8.5,0,15.6-1.1,21.3-3.4c0.2,0,0.2,0,0.4,0c0.4,0,0.8,0.2,0.9,0.6
        	c0,0.2,0,0.6,0,0.8c-0.2,0.2-0.4,0.4-0.6,0.6C60.2,28.8,52.8,29.9,44.2,29.9z"/>
    <path d="M86.8,80.4c-17.7,0-32-14.3-32-32s14.3-32,32-32s32,14.3,32,32S104.5,80.4,86.8,80.4z M86.8,18.3
        	c-16.6,0-30.1,13.6-30.1,30.1s13.6,30.1,30.1,30.1s30.1-13.6,30.1-30.1S103.3,18.3,86.8,18.3z"/>
    <path d="M86.8,119.3c-4.9,0-8.7-4-8.7-8.7V79.5c0-0.6,0.4-0.9,0.9-0.9c0.6,0,0.9,0.4,0.9,0.9v31.1c0,3.8,3,6.8,6.8,6.8
        	c3.8,0,6.8-3,6.8-6.8V79.5c0-0.6,0.4-0.9,0.9-0.9c0.6,0,0.9,0.4,0.9,0.9v31.1C95.6,115.3,91.7,119.3,86.8,119.3z"/>
    <path d="M75.1,88.2c-0.6,0-0.9-0.4-0.9-0.9c0-0.6,0.4-0.9,0.9-0.9h23.4c0.6,0,0.9,0.4,0.9,0.9c0,0.6-0.4,0.9-0.9,0.9H75.1z"/>
    <path d="M66.6,71.2c-0.8,0-1.3-0.6-1.3-1.3v-22c0-0.8,0.6-1.3,1.3-1.3s1.3,0.6,1.3,1.3v22C67.9,70.6,67.3,71.2,66.6,71.2z"/>
    <path d="M77,77.8c-0.8,0-1.3-0.6-1.3-1.3V44.1c0-0.8,0.6-1.3,1.3-1.3c0.8,0,1.3,0.6,1.3,1.3v32.4C78.3,77.2,77.7,77.8,77,77.8z"/>
    <path d="M87.3,80.3c-0.8,0-1.3-0.6-1.3-1.3V51.6c0-0.8,0.6-1.3,1.3-1.3c0.8,0,1.3,0.6,1.3,1.3v27.3C88.6,79.7,88.1,80.3,87.3,80.3z"/>
    <path d="M97.7,77.6c-0.8,0-1.3-0.6-1.3-1.3V37.7c0-0.8,0.6-1.3,1.3-1.3s1.3,0.6,1.3,1.3v38.8C99,77.1,98.3,77.6,97.7,77.6z"/>
    <path d="M108,71.2c-0.8,0-1.3-0.6-1.3-1.3V42.8c0-0.8,0.6-1.3,1.3-1.3c0.8,0,1.3,0.6,1.3,1.3v27.1C109.2,70.6,108.6,71.2,108,71.2z"/>
    <path d="M87.3,51.8c-0.2,0-0.6,0-0.8-0.2L77,44.3l-9.6,4.9c-0.2,0-0.4,0.2-0.6,0.2c-0.2,0-0.2,0-0.4,0L56,46.7
    	c-0.4,0-0.6-0.4-0.8-0.6c-0.2-0.4-0.2-0.6-0.2-0.9c0.2-0.6,0.6-0.9,1.3-0.9c0.2,0,0.2,0,0.4,0l9.8,2.4l10-4.9c0.2,0,0.4-0.2,0.6-0.2
    	c0.2,0,0.6,0,0.8,0.2l9.2,7l9.6-14.3c0.2-0.4,0.6-0.6,0.9-0.6c0,0,0,0,0.2,0c0.4,0,0.6,0,0.9,0.2l9.6,7.2l7-4.7
    	c0.2-0.2,0.4-0.2,0.8-0.2c0.4,0,0.8,0.2,1.1,0.6c0.4,0.6,0.2,1.3-0.4,1.9l-8.3,5.1c-0.2,0.2-0.4,0.2-0.8,0.2c-0.4,0-0.6,0-0.8-0.2
    	l-9.2-7l-9.4,14.3c-0.2,0.4-0.6,0.6-0.9,0.6H87.3z"/>
</svg>
