<?xml
version="1.0" encoding="utf-8"?>
<!-- Generator: Adobe Illustrator 22.0.1, SVG Export Plug-In . SVG Version: 6.00 Build 0)  -->
<svg version="1.1" id="Слой_1" xmlns="http://www.w3.org/2000/svg" xmlns:xlink="http://www.w3.org/1999/xlink" x="0px" y="0px" viewBox="0 0 100 100" style="enable-background:new 0 0 100 100;" xml:space="preserve">
    <style type="text/css">
        .st0 {
            fill: #4572C4;
        }
    </style>
    <path d="M94.8,66.6c2-5.3,3-10.9,3-16.6C97.8,23.7,76.3,2.2,50,2.2c-8.7,0-17.2,2.4-24.6,6.8l-0.7-1C32.3,3.4,41.1,1,50,1
        	c27,0,49,22,49,49c0,5.9-1,11.6-3,17L94.8,66.6z"/>
    <path d="M50,99C23,99,1,77,1,50c0-10.4,3.2-20.2,9.2-28.6l1,0.7c-5.9,8.2-9,17.8-9,27.9c0,26.3,21.4,47.8,47.8,47.8
        	c5.6,0,11.1-1,16.2-2.8l0.4,1.1C61.4,98,55.7,99,50,99z"/>
    <rect x="49.4" y="2.6" width="1.2" height="93.2"/>
    <rect x="2.6" y="49.4" width="94.8" height="1.2"/>
    <rect x="18" y="68.7" transform="matrix(0.7071 -0.7071 0.7071 0.7071 -40.0654 41.9829)" width="25.4" height="1.2"/>
    <path d="M37.1,79.6c-2.1,0-3.8-1.7-3.8-3.8S35,72,37.1,72s3.8,1.7,3.8,3.8S39.2,79.6,37.1,79.6z M37.1,73.2c-1.4,0-2.6,1.2-2.6,2.6
        	c0,1.4,1.2,2.6,2.6,2.6s2.6-1.2,2.6-2.6C39.7,74.4,38.5,73.2,37.1,73.2z"/>
    <path d="M24.2,66.7c-2.1,0-3.8-1.7-3.8-3.8s1.7-3.8,3.8-3.8s3.8,1.7,3.8,3.8S26.3,66.7,24.2,66.7z M24.2,60.3
        	c-1.4,0-2.6,1.2-2.6,2.6s1.2,2.6,2.6,2.6s2.6-1.2,2.6-2.6S25.6,60.3,24.2,60.3z"/>
    <circle class="st0" cx="79" cy="79" r="20"/>
    <rect x="76.7" y="41.3" transform="matrix(0.7071 -0.7071 0.7071 0.7071 -4.1565 73.8649)" width="20.8" height="1.2"/>
    <rect x="64.5" y="47" transform="matrix(0.7071 -0.7071 0.7071 0.7071 -14.0397 61.2667)" width="4.8" height="1.2"/>
    <rect x="68.9" y="32.9" transform="matrix(0.7071 -0.7071 0.7071 0.7071 5.102386e-02 67.1012)" width="24.3" height="1.2"/>
    <rect x="44" y="32.4" transform="matrix(0.7071 -0.7071 0.7071 0.7071 -3.7347 57.0327)" width="46" height="1.2"/>
    <rect x="46.8" y="24.8" transform="matrix(0.7071 -0.7071 0.7071 0.7071 -0.4088 49.906)" width="26.4" height="1.2"/>
    <rect x="72.3" y="10.7" transform="matrix(0.7071 -0.7071 0.7071 0.7071 13.7032 55.7513)" width="3.7" height="1.2"/>
    <rect x="47.6" y="12.1" transform="matrix(0.7071 -0.7071 0.7071 0.7071 8.0574 44.91)" width="21.3" height="1.2"/>
    <polygon class="st0" points="11.3,40.3 11.3,1.6 17.7,1.6 17.7,8.1 24.2,8.1 24.2,14.5 30.6,14.5 30.6,21 37.1,21 37.1,27.4
        	43.5,27.4 43.5,40.3 "/>
    <polygon class="st0" points="12.3,39.3 12.3,2.6 16.7,2.6 16.7,9.1 23.2,9.1 23.2,15.5 29.6,15.5 29.6,22 36.1,22 36.1,28.4
        	42.5,28.4 42.5,39.3 "/>
    <path d="M10.7,40.9V1h7.7v39.9H10.7z M11.9,39.7h5.2V2.2h-5.2V39.7z"/>
    <path d="M17.1,40.9V7.5h7.7v33.5H17.1z M18.4,39.7h5.2v-31h-5.2V39.7z"/>
    <path d="M23.6,40.9v-27h7.7v27H23.6z M24.8,39.7H30V15.1h-5.2V39.7z"/>
    <path d="M30,40.9V20.4h7.7v20.6H30z M31.3,39.7h5.2V21.6h-5.2V39.7z"/>
    <path d="M36.5,40.9V26.8h7.7v14.1H36.5z M37.7,39.7h5.2V28h-5.2V39.7z"/>
    <path d="M79,89.3c-2.7,0-4.9-1.9-5.4-4.5h1.3c0.5,1.8,2.1,3.2,4.1,3.2c2.3,0,4.2-1.9,4.2-4.2s-1.9-4.2-4.2-4.2c-3,0-5.5-2.4-5.5-5.5
        	s2.4-5.5,5.5-5.5c2.7,0,4.9,1.9,5.4,4.5h-1.3C82.7,71.3,81,70,79,70c-2.3,0-4.2,1.9-4.2,4.2s1.9,4.2,4.2,4.2c3,0,5.5,2.4,5.5,5.5
        	S82,89.3,79,89.3z"/>
    <rect x="78.4" y="65.5" width="1.2" height="2.8"/>
    <rect x="78.4" y="89.7" width="1.2" height="2.8"/>
    <rect x="91.3" y="78.4" width="1.2" height="1.2"/>
    <rect x="65.5" y="78.4" width="1.2" height="1.2"/>
</svg>
