<?xml
version="1.0" encoding="utf-8"?>
<!-- Generator: Adobe Illustrator 22.0.1, SVG Export Plug-In . SVG Version: 6.00 Build 0)  -->
<svg version="1.1" id="Слой_1" xmlns="http://www.w3.org/2000/svg" xmlns:xlink="http://www.w3.org/1999/xlink" x="0px" y="0px" viewBox="0 0 150 150" style="enable-background:new 0 0 150 150;" xml:space="preserve">
    <style type="text/css">
        .st0 {
            fill: #4572C4;
        }
    </style>
    <path class="st0" d="M75,61.4c-13.8,0-25.1-11.3-25.1-25.1S61.2,11.2,75,11.2s25.1,11.3,25.1,25.1S88.8,61.4,75,61.4z"/>
    <path d="M12.1,114.6c-5.8,0-10.6-4.8-10.6-10.6V26.6C1.5,20.8,6.3,16,12.1,16H46c0.5,0,0.9,0.4,0.9,0.9s-0.4,0.9-0.9,0.9H12.1
        	c-4.8,0-8.8,3.9-8.8,8.8V104c0,4.8,3.9,8.8,8.8,8.8h125.8c4.8,0,8.8-3.9,8.8-8.8V26.6c0-4.8-3.9-8.8-8.8-8.8H104
        	c-0.5,0-0.9-0.4-0.9-0.9s0.4-0.9,0.9-0.9h33.9c5.8,0,10.6,4.8,10.6,10.6V104c0,5.8-4.8,10.6-10.6,10.6H12.1z"/>
    <path d="M2.4,95.3c-0.5,0-0.9-0.4-0.9-0.9s0.4-0.9,0.9-0.9h145.2c0.5,0,0.9,0.4,0.9,0.9s-0.4,0.9-0.9,0.9H2.4z"/>
    <path d="M60.5,138.8c-0.5,0-0.9-0.4-0.9-0.9c0-6.2-1.5-12.4-4.2-17.9l-2.9-5.9c-0.2-0.5,0-1,0.4-1.2c0.1-0.1,0.3-0.1,0.4-0.1
        	c0.4,0,0.7,0.2,0.8,0.5l2.9,5.9c2.5,5.1,4,10.7,4.4,16.4l0.1,1.4h27.2l0.1-1.4c0.3-5.7,1.8-11.3,4.4-16.4l2.9-5.9
        	c0.2-0.3,0.5-0.5,0.8-0.5c0.1,0,0.3,0,0.4,0.1c0.4,0.2,0.6,0.8,0.4,1.2l-2.9,5.9c-2.8,5.5-4.2,11.7-4.2,17.9c0,0.5-0.4,0.9-0.9,0.9
        	H60.5z"/>
    <path d="M16.9,148.5c-0.5,0-0.9-0.4-0.9-0.9v-9.7c0-0.4,0.3-0.8,0.8-0.9l41.1-7.3c0.1,0,0.1,0,0.2,0c0.4,0,0.8,0.3,0.9,0.8
        	c0,0.2,0,0.5-0.2,0.7c-0.1,0.2-0.4,0.3-0.6,0.4l-40.4,7.1v8h114.3v-8l-40.4-7.1c-0.2,0-0.5-0.2-0.6-0.4c-0.1-0.2-0.2-0.4-0.2-0.7
        	c0.1-0.4,0.5-0.8,0.9-0.8c0.1,0,0.1,0,0.2,0l41.1,7.3c0.4,0.1,0.8,0.5,0.8,0.9v9.7c0,0.5-0.4,0.9-0.9,0.9H16.9z"/>
    <path d="M16.9,105c-0.5,0-0.9-0.4-0.9-0.9s0.4-0.9,0.9-0.9s0.9,0.4,0.9,0.9S17.4,105,16.9,105z"/>
    <path d="M26.6,105c-0.5,0-0.9-0.4-0.9-0.9s0.4-0.9,0.9-0.9s0.9,0.4,0.9,0.9S27.1,105,26.6,105z"/>
    <path d="M75,71.1c-19.2,0-34.8-15.6-34.8-34.8S55.8,1.5,75,1.5s34.8,15.6,34.8,34.8S94.2,71.1,75,71.1z M75,3.3
        	c-18.2,0-33,14.8-33,33s14.8,33,33,33s33-14.8,33-33S93.2,3.3,75,3.3z"/>
    <path d="M75,71.1c-0.5,0-0.9-0.4-0.9-0.9V2.4c0-0.5,0.4-0.9,0.9-0.9s0.9,0.4,0.9,0.9v67.7C75.9,70.7,75.5,71.1,75,71.1z"/>
    <path d="M41.1,37.2c-0.5,0-0.9-0.4-0.9-0.9s0.4-0.9,0.9-0.9h67.7c0.5,0,0.9,0.4,0.9,0.9s-0.4,0.9-0.9,0.9H41.1z"/>
    <path d="M75,71.1c-0.3,0-0.6-0.1-0.7-0.4c-0.3-0.4-0.2-1,0.2-1.3C74.6,69.3,91,57.2,91,36.3c0-21-16.4-33-16.5-33.1
        	c-0.2-0.1-0.3-0.4-0.4-0.6c0-0.2,0-0.5,0.2-0.7c0.2-0.2,0.4-0.4,0.8-0.4c0.1,0,0.3,0,0.5,0.2c0.7,0.5,17.3,12.6,17.3,34.6
        	c0,22-16.6,34.1-17.3,34.6C75.3,71.1,75.1,71.1,75,71.1z"/>
    <path d="M75,20.3c-14.7,0-22.1-7.2-22.4-7.5c-0.2-0.2-0.3-0.4-0.3-0.7s0.1-0.5,0.3-0.6c0.2-0.2,0.4-0.3,0.7-0.3
        	c0.2,0,0.5,0.1,0.6,0.3c0.3,0.3,7.4,7,21.1,7c13.7,0,20.8-6.7,21.1-7c0.2-0.2,0.4-0.3,0.7-0.3c0.2,0,0.5,0.1,0.7,0.3
        	c0.4,0.4,0.4,0.9,0,1.3C97.1,13.1,89.7,20.3,75,20.3z"/>
    <path d="M75,71.1c-0.1,0-0.3,0-0.5-0.2c-0.7-0.5-17.3-12.6-17.3-34.6c0-22,16.6-34.1,17.3-34.6c0.2-0.1,0.4-0.2,0.5-0.2
        	c0.3,0,0.6,0.1,0.7,0.4c0.3,0.4,0.2,1-0.2,1.3C75.4,3.3,59,15.3,59,36.3c0,21,16.4,33,16.5,33.1c0.2,0.1,0.3,0.4,0.4,0.6
        	c0,0.2,0,0.5-0.2,0.7C75.6,70.9,75.3,71.1,75,71.1z"/>
    <path d="M96.8,61.4c-0.2,0-0.5-0.1-0.6-0.3c-0.3-0.3-7.5-7-21.1-7c-13.8,0-20.8,6.7-21.1,7c-0.2,0.2-0.4,0.3-0.7,0.3
        	c-0.2,0-0.5-0.1-0.7-0.3c-0.4-0.4-0.4-0.9,0-1.3c0.3-0.3,7.7-7.5,22.4-7.5c14.7,0,22.1,7.2,22.4,7.5c0.4,0.4,0.4,0.9,0,1.3
        	C97.3,61.3,97,61.4,96.8,61.4z"/>
    <path d="M75,71.1c-19.2,0-34.8-15.6-34.8-34.8S55.8,1.5,75,1.5s34.8,15.6,34.8,34.8S94.2,71.1,75,71.1z M75,3.3
        	c-18.2,0-33,14.8-33,33s14.8,33,33,33s33-14.8,33-33S93.2,3.3,75,3.3z"/>
    <path d="M75,71.1c-0.5,0-0.9-0.4-0.9-0.9V2.4c0-0.5,0.4-0.9,0.9-0.9s0.9,0.4,0.9,0.9v67.7C75.9,70.7,75.5,71.1,75,71.1z"/>
    <path d="M41.1,37.2c-0.5,0-0.9-0.4-0.9-0.9s0.4-0.9,0.9-0.9h67.7c0.5,0,0.9,0.4,0.9,0.9s-0.4,0.9-0.9,0.9H41.1z"/>
    <path d="M75,71.1c-0.3,0-0.6-0.1-0.7-0.4c-0.3-0.4-0.2-1,0.2-1.3C74.6,69.3,91,57.2,91,36.3c0-21-16.4-33-16.5-33.1
        	c-0.2-0.1-0.3-0.4-0.4-0.6c0-0.2,0-0.5,0.2-0.7c0.2-0.2,0.4-0.4,0.8-0.4c0.1,0,0.3,0,0.5,0.2c0.7,0.5,17.3,12.6,17.3,34.6
        	c0,22-16.6,34.1-17.3,34.6C75.3,71.1,75.1,71.1,75,71.1z"/>
    <path d="M75,20.3c-14.7,0-22.1-7.2-22.4-7.5c-0.2-0.2-0.3-0.4-0.3-0.7s0.1-0.5,0.3-0.6c0.2-0.2,0.4-0.3,0.7-0.3
        	c0.2,0,0.5,0.1,0.6,0.3c0.3,0.3,7.4,7,21.1,7c13.7,0,20.8-6.7,21.1-7c0.2-0.2,0.4-0.3,0.7-0.3c0.2,0,0.5,0.1,0.7,0.3
        	c0.4,0.4,0.4,0.9,0,1.3C97.1,13.1,89.7,20.3,75,20.3z"/>
    <path d="M75,71.1c-0.1,0-0.3,0-0.5-0.2c-0.7-0.5-17.3-12.6-17.3-34.6c0-22,16.6-34.1,17.3-34.6c0.2-0.1,0.4-0.2,0.5-0.2
        	c0.3,0,0.6,0.1,0.7,0.4c0.3,0.4,0.2,1-0.2,1.3C75.4,3.3,59,15.3,59,36.3c0,21,16.4,33,16.5,33.1c0.2,0.1,0.3,0.4,0.4,0.6
        	c0,0.2,0,0.5-0.2,0.7C75.6,70.9,75.3,71.1,75,71.1z"/>
    <path d="M96.8,61.4c-0.2,0-0.5-0.1-0.6-0.3c-0.3-0.3-7.5-7-21.1-7c-13.8,0-20.8,6.7-21.1,7c-0.2,0.2-0.4,0.3-0.7,0.3
        	c-0.2,0-0.5-0.1-0.7-0.3c-0.4-0.4-0.4-0.9,0-1.3c0.3-0.3,7.7-7.5,22.4-7.5c14.7,0,22.1,7.2,22.4,7.5c0.4,0.4,0.4,0.9,0,1.3
        	C97.3,61.3,97,61.4,96.8,61.4z"/>
    <path d="M12.1,66.2c-0.5,0-0.9-0.4-0.9-0.9v-9.7c0-0.5,0.4-0.9,0.9-0.9h24.2c0.5,0,0.9,0.4,0.9,0.9v9.7c0,0.5-0.4,0.9-0.9,0.9H12.1z
        	 M13,64.4h22.4v-7.8H13V64.4z"/>
    <path d="M12.1,75.9c-0.5,0-0.9-0.4-0.9-0.9s0.4-0.9,0.9-0.9h24.2c0.5,0,0.9,0.4,0.9,0.9s-0.4,0.9-0.9,0.9H12.1z"/>
    <path d="M12.1,85.6c-0.5,0-0.9-0.4-0.9-0.9s0.4-0.9,0.9-0.9h24.2c0.5,0,0.9,0.4,0.9,0.9s-0.4,0.9-0.9,0.9H12.1z"/>
    <path d="M123.4,66.2c-0.5,0-0.9-0.4-0.9-0.9v-9.7c0-0.5,0.4-0.9,0.9-0.9h14.5c0.5,0,0.9,0.4,0.9,0.9v9.7c0,0.5-0.4,0.9-0.9,0.9
        	H123.4z M124.3,64.4H137v-7.8h-12.7V64.4z"/>
    <path d="M99.2,85.6c-0.5,0-0.9-0.4-0.9-0.9V75c0-0.5,0.4-0.9,0.9-0.9h14.5c0.5,0,0.9,0.4,0.9,0.9v9.7c0,0.5-0.4,0.9-0.9,0.9H99.2z
        	 M100.1,83.8h12.7v-7.8h-12.7V83.8z"/>
    <path d="M123.2,85.6c-0.5,0-0.9-0.4-0.9-0.9V75c0-0.5,0.4-0.9,0.9-0.9h14.5c0.5,0,0.9,0.4,0.9,0.9v9.7c0,0.5-0.4,0.9-0.9,0.9H123.2z
        	 M124.1,83.8h12.7v-7.8h-12.7V83.8z"/>
    <path d="M123.2,46.6c-0.5,0-0.9-0.4-0.9-0.9V36c0-0.5,0.4-0.9,0.9-0.9h14.5c0.5,0,0.9,0.4,0.9,0.9v9.7c0,0.5-0.4,0.9-0.9,0.9H123.2z
    	 M124.1,44.8h12.7v-7.8h-12.7V44.8z"/>
</svg>
