<?xml version="1.0" encoding="utf-8"?>
<svg viewBox="0 0 500 500" xmlns="http://www.w3.org/2000/svg">
  <path d="M 65.457 500.499 L 65.457 454.549 L 401.708 454.549 L 401.708 500.499 L 65.457 500.499 Z M 73.616 491.48 L 393.548 491.48 L 393.548 463.566 L 73.616 463.566 L 73.616 491.48 Z" style=""/>
  <path d="M 352.322 454.549 L 352.322 385.839 C 352.322 368.66 339.01 354.059 323.551 354.059 L 143.185 354.059 C 127.726 354.059 114.413 367.802 114.413 385.839 L 114.413 454.549 L 106.254 454.549 L 106.254 385.839 C 106.254 363.078 122.573 345.042 143.185 345.042 L 323.551 345.042 C 344.163 345.042 360.482 363.078 360.482 385.839 L 360.482 454.549 L 352.322 454.549 Z" style=""/>
  <polygon points="319.685 427.494 319.685 390.561 147.48 390.561 147.48 427.494 139.32 427.494 139.32 381.544 327.844 381.544 327.844 427.494" style=""/>
  <rect x="171.958" y="418.476" width="90.182" height="9.019" style=""/>
  <rect x="287.047" y="418.476" width="8.159" height="9.019" style=""/>
  <rect x="196.865" y="299.521" width="8.159" height="45.95" style=""/>
  <rect x="262.14" y="299.521" width="8.159" height="45.95" style=""/>
  <path class="st0" d="M 233.798 258.724 C 219.197 258.724 205.884 257.006 194.289 247.129 L 135.027 200.32 L 135.885 198.602 C 146.622 178.848 151.344 156.947 151.344 134.615 C 151.344 111.855 150.486 85.23 140.609 66.334 L 135.885 55.599 L 154.781 38.421 L 310.667 38.421 L 332.139 53.022 L 327.844 61.181 C 317.109 80.935 314.532 109.708 314.532 131.609 C 314.532 154.37 320.115 176.701 329.992 195.596 L 330.851 197.313 L 269.871 245.411 C 259.993 257.864 249.257 258.724 233.798 258.724 Z" style="fill: rgb(255, 87, 34);"/>
  <path d="M 233.798 295.656 C 211.466 295.656 190.423 288.355 172.387 275.043 L 88.217 210.197 L 93.8 201.179 C 107.112 178.848 114.413 153.512 114.413 127.316 C 114.413 101.12 107.112 75.782 93.8 53.452 L 89.076 44.433 L 142.756 0.201 L 326.557 0.201 L 379.807 44.433 L 373.365 53.452 C 360.053 75.782 352.753 101.12 352.753 127.316 C 352.753 153.512 360.053 178.848 373.365 201.179 L 378.949 210.197 L 295.207 275.043 C 277.17 287.926 255.699 295.656 233.798 295.656 Z M 98.953 46.151 L 100.672 49.586 C 114.413 73.206 122.144 100.26 122.144 127.316 C 122.144 154.37 114.842 181.425 100.672 205.044 L 98.953 208.479 L 177.111 268.601 C 193.43 281.055 213.184 287.497 233.798 287.497 C 254.41 287.497 273.735 280.625 290.054 268.601 L 368.212 208.479 L 366.494 205.044 C 352.753 181.425 345.023 154.37 345.023 127.316 C 345.023 99.402 352.322 73.206 366.494 49.586 L 368.212 46.151 L 323.12 8.36 L 144.904 8.36 L 98.953 46.151 Z" style=""/>
  <path d="M 233.798 262.588 C 219.197 262.588 204.166 257.864 193.001 248.847 L 131.161 202.037 L 132.879 198.602 C 142.756 175.841 147.48 151.794 147.48 127.316 C 147.48 101.978 142.756 77.929 132.021 55.17 L 130.303 52.593 L 153.063 33.697 L 312.814 33.697 L 335.575 52.593 L 333.857 55.17 C 323.12 77.929 318.398 102.838 318.398 127.316 C 318.398 151.794 323.12 175.841 332.997 198.602 L 334.716 202.037 L 274.595 248.847 C 263 257.864 248.399 262.588 233.798 262.588 Z M 141.038 54.31 L 141.898 56.888 C 150.915 79.218 155.639 102.838 155.639 126.456 C 155.639 150.076 151.344 173.266 142.327 195.167 L 141.467 198.602 L 197.296 241.976 C 207.173 249.276 220.055 254.429 233.369 254.429 C 246.681 254.429 259.564 250.135 269.441 241.976 L 325.268 198.602 L 324.838 195.596 C 315.82 173.266 311.526 150.505 311.526 126.885 C 311.526 103.267 316.25 79.218 325.268 57.317 L 326.127 54.739 L 310.667 40.998 L 156.499 40.998 L 141.038 54.31 Z" style=""/>
  <polygon points="229.503 213.632 229.503 90.383 196.865 90.383 196.865 82.224 237.662 82.224 237.662 213.632" style=""/>
</svg>