<?xml version="1.0" encoding="UTF-8" standalone="no"?>
<!-- Created with Inkscape (http://www.inkscape.org/) -->

<svg
   width="52.916679mm"
   height="52.916672mm"
   viewBox="0 0 52.916679 52.916672"
   version="1.1"
   id="svg5"
   xml:space="preserve"
   inkscape:export-filename="bitmap.svg"
   inkscape:export-xdpi="1.3"
   inkscape:export-ydpi="1.3"
   inkscape:version="1.2.1 (9c6d41e410, 2022-07-14)"
   sodipodi:docname="drawing.svg"
   xmlns:inkscape="http://www.inkscape.org/namespaces/inkscape"
   xmlns:sodipodi="http://sodipodi.sourceforge.net/DTD/sodipodi-0.dtd"
   xmlns="http://www.w3.org/2000/svg"
   xmlns:svg="http://www.w3.org/2000/svg"><sodipodi:namedview
     id="namedview7"
     pagecolor="#ffffff"
     bordercolor="#111111"
     borderopacity="1"
     inkscape:showpageshadow="0"
     inkscape:pageopacity="0"
     inkscape:pagecheckerboard="1"
     inkscape:deskcolor="#d1d1d1"
     inkscape:document-units="mm"
     showgrid="false"
     inkscape:zoom="2.8284271"
     inkscape:cx="476.23642"
     inkscape:cy="625.43595"
     inkscape:window-width="1920"
     inkscape:window-height="1017"
     inkscape:window-x="-8"
     inkscape:window-y="-8"
     inkscape:window-maximized="1"
     inkscape:current-layer="layer1" /><defs
     id="defs2"><clipPath
       clipPathUnits="userSpaceOnUse"
       id="clipPath1077"><ellipse
         style="fill:#666666;stroke-width:0.387368"
         id="ellipse1079"
         cx="8.9999723"
         cy="8.9999638"
         rx="8.9999962"
         ry="9.0000248" /></clipPath></defs><g
     inkscape:label="Layer 1"
     inkscape:groupmode="layer"
     id="layer1"
     transform="translate(-90.542139,-152.15101)"><g
       id="g109"
       transform="matrix(2.93982,0,0,2.9398167,90.542139,152.15101)"
       clip-path="url(#clipPath1077)"
       inkscape:export-filename="FOREX\AUS.svg"
       inkscape:export-xdpi="1.3"
       inkscape:export-ydpi="1.3"><path
         d="M 0,0 H 18 V 18 H 0 Z"
         fill="#0d47a1"
         id="path85" /><path
         d="M 9,4 V 0 H 0 V 9 H 4 V 6 L 7,9 H 9 V 7 L 6,4 Z"
         fill="#f8f9fd"
         id="path87" /><path
         d="M 3,1 V 0 H 1 V 1 H 0 V 3 H 1 V 9 H 3 V 3 H 9 V 1 Z"
         fill="#ef5350"
         id="path89" /><path
         d="M 9,8 5,4 H 4 l 5,5 z"
         fill="#ef5350"
         id="path91" /><path
         d="M 7,13 6,13.5 V 14 H 5.5 L 5,15 4.5,14 H 4 V 13.5 L 3,13 4,12.5 V 12 H 4.5 L 5,11 5.5,12 H 6 v 0.5 z"
         fill="#f8f9fd"
         id="path93" /><path
         d="m 13.06,12.62 0.25,0.52 0.56,-0.13 -0.25,0.51 0.45,0.36 -0.56,0.12 v 0.58 l -0.45,-0.36 -0.44,0.36 V 14 l -0.56,-0.12 0.45,-0.36 -0.25,-0.51 0.56,0.13 z M 10.77,7.14 11.01,7.66 11.57,7.53 11.32,8.04 11.77,8.4 11.21,8.53 V 9.1 L 10.77,8.74 10.32,9.1 V 8.53 L 9.76,8.4 10.21,8.04 9.96,7.53 10.52,7.66 Z m 2.29,-3.13 0.25,0.52 0.56,-0.13 -0.25,0.51 0.45,0.36 -0.56,0.12 V 5.97 L 13.06,5.61 12.62,5.97 V 5.39 L 12.06,5.27 12.51,4.91 12.26,4.4 12.82,4.53 Z m 2.01,2.35 0.25,0.52 0.56,-0.13 -0.25,0.51 0.44,0.36 -0.55,0.12 V 8.32 L 15.07,7.96 14.62,8.32 V 7.74 L 14.07,7.62 14.52,7.26 14.27,6.75 14.82,6.88 Z m -1.43,2.74 0.2,0.6 h 0.62 l -0.5,0.37 0.19,0.6 -0.51,-0.38 -0.51,0.37 0.2,-0.6 -0.52,-0.36 h 0.63 z"
         fill="#f8f9fd"
         id="path95" /></g></g></svg>
