<?xml version="1.0" encoding="UTF-8" standalone="no"?>
<!-- Created with Inkscape (http://www.inkscape.org/) -->

<svg
   width="52.916664mm"
   height="52.916656mm"
   viewBox="0 0 52.916664 52.916656"
   version="1.1"
   id="svg5"
   xml:space="preserve"
   inkscape:export-filename="bitmap.svg"
   inkscape:export-xdpi="1.3"
   inkscape:export-ydpi="1.3"
   inkscape:version="1.2.1 (9c6d41e410, 2022-07-14)"
   sodipodi:docname="drawing.svg"
   xmlns:inkscape="http://www.inkscape.org/namespaces/inkscape"
   xmlns:sodipodi="http://sodipodi.sourceforge.net/DTD/sodipodi-0.dtd"
   xmlns="http://www.w3.org/2000/svg"
   xmlns:svg="http://www.w3.org/2000/svg"><sodipodi:namedview
     id="namedview7"
     pagecolor="#ffffff"
     bordercolor="#111111"
     borderopacity="1"
     inkscape:showpageshadow="0"
     inkscape:pageopacity="0"
     inkscape:pagecheckerboard="1"
     inkscape:deskcolor="#d1d1d1"
     inkscape:document-units="mm"
     showgrid="false"
     inkscape:zoom="2.8284271"
     inkscape:cx="476.23642"
     inkscape:cy="625.43595"
     inkscape:window-width="1920"
     inkscape:window-height="1017"
     inkscape:window-x="-8"
     inkscape:window-y="-8"
     inkscape:window-maximized="1"
     inkscape:current-layer="layer1"
     showguides="true"><sodipodi:guide
       position="138.99532,176.35856"
       orientation="0,-1"
       id="guide3428"
       inkscape:locked="false" /></sodipodi:namedview><defs
     id="defs2"><clipPath
       clipPathUnits="userSpaceOnUse"
       id="clipPath1049"><ellipse
         style="fill:#666666;stroke-width:0.387368"
         id="ellipse1051"
         cx="9.0000143"
         cy="8.999979"
         rx="8.9999962"
         ry="9.0000248" /></clipPath></defs><g
     inkscape:label="Layer 1"
     inkscape:groupmode="layer"
     id="layer1"
     transform="translate(-78.459101,-207.57113)"><g
       id="g123"
       transform="matrix(2.9398178,0,0,2.9398148,78.459044,207.57113)"
       clip-path="url(#clipPath1049)"><path
         d="M 4,18 H 14 V 0 H 4 Z"
         fill="#f8f9fd"
         id="path111" /><path
         d="m 14,18 h 4 V 0 H 14 Z M 0,18 H 4 V 0 H 0 Z M 11,10 13,9 12,8.5 v -1 L 10,8.5 11,7 H 10 L 9,5 8,7 H 7 l 1,1.5 -2,-1 v 1 L 5,9 7,10 6.5,11 h 2 v 1 h 1 v -1 h 2 z"
         fill="#ef5350"
         id="path113" /></g></g></svg>
