<?xml version="1.0" encoding="UTF-8" standalone="no"?>
<!-- Created with Inkscape (http://www.inkscape.org/) -->

<svg
   width="52.916649mm"
   height="52.916664mm"
   viewBox="0 0 52.916649 52.916664"
   version="1.1"
   id="svg5"
   xml:space="preserve"
   inkscape:export-filename="bitmap.svg"
   inkscape:export-xdpi="1.3"
   inkscape:export-ydpi="1.3"
   inkscape:version="1.2.1 (9c6d41e410, 2022-07-14)"
   sodipodi:docname="drawing.svg"
   xmlns:inkscape="http://www.inkscape.org/namespaces/inkscape"
   xmlns:sodipodi="http://sodipodi.sourceforge.net/DTD/sodipodi-0.dtd"
   xmlns="http://www.w3.org/2000/svg"
   xmlns:svg="http://www.w3.org/2000/svg"><sodipodi:namedview
     id="namedview7"
     pagecolor="#ffffff"
     bordercolor="#111111"
     borderopacity="1"
     inkscape:showpageshadow="0"
     inkscape:pageopacity="0"
     inkscape:pagecheckerboard="1"
     inkscape:deskcolor="#d1d1d1"
     inkscape:document-units="mm"
     showgrid="false"
     inkscape:zoom="2.8284271"
     inkscape:cx="476.23642"
     inkscape:cy="625.43595"
     inkscape:window-width="1920"
     inkscape:window-height="1017"
     inkscape:window-x="-8"
     inkscape:window-y="-8"
     inkscape:window-maximized="1"
     inkscape:current-layer="layer1" /><defs
     id="defs2"><clipPath
       clipPathUnits="userSpaceOnUse"
       id="clipPath1033"><ellipse
         style="fill:#666666;stroke-width:0.387368"
         id="ellipse1035"
         cx="8.9999857"
         cy="8.9999847"
         rx="8.9999962"
         ry="9.0000248" /></clipPath></defs><g
     inkscape:label="Layer 1"
     inkscape:groupmode="layer"
     id="layer1"
     transform="translate(-120.66685,-80.249014)"><g
       id="g52"
       transform="matrix(2.9398178,0,0,2.9398148,120.66685,80.249013)"
       clip-path="url(#clipPath1033)"><path
         d="M 0,0 H 18 V 18 H 0 Z"
         fill="#1565c0"
         id="path40" /><path
         d="m 8.95,2 0.37,1.14 h 1.2 L 9.55,3.84 9.92,4.98 8.95,4.28 7.99,4.98 8.35,3.85 7.39,3.15 h 1.2 L 8.94,2 Z M 4.04,4.04 5.11,4.58 5.95,3.74 5.77,4.92 6.83,5.46 5.65,5.65 5.46,6.83 4.92,5.77 3.74,5.95 4.58,5.11 Z M 2,8.95 3.14,8.58 V 7.38 L 3.84,8.35 4.99,8 4.29,8.96 4.99,9.93 3.86,9.56 3.16,10.53 v -1.2 z m 2.04,4.91 0.54,-1.06 -0.84,-0.85 1.18,0.19 0.54,-1.07 0.19,1.19 1.18,0.18 -1.06,0.55 0.18,1.18 -0.84,-0.85 z M 8.95,15.9 8.58,14.76 H 7.38 L 8.35,14.06 8,12.92 l 0.96,0.7 0.97,-0.7 -0.37,1.14 0.97,0.7 H 9.33 L 8.96,15.9 Z m 4.91,-2.04 -1.06,-0.54 -0.85,0.85 0.19,-1.18 -1.07,-0.55 1.19,-0.18 0.18,-1.19 0.55,1.07 1.18,-0.19 -0.85,0.85 z M 15.9,8.95 14.76,9.32 v 1.2 l -0.7,-0.97 -1.14,0.37 0.7,-0.97 -0.7,-0.96 1.14,0.36 0.7,-0.96 v 1.2 z M 13.86,4.04 13.32,5.11 14.17,5.95 12.99,5.77 12.44,6.83 12.26,5.65 11.07,5.46 12.14,4.92 11.95,3.74 12.8,4.58 Z"
         fill="#fdd835"
         id="path42" /></g></g></svg>
