<?xml version="1.0" encoding="UTF-8" standalone="no"?>
<!-- Created with Inkscape (http://www.inkscape.org/) -->

<svg
   width="52.91666mm"
   height="52.916672mm"
   viewBox="0 0 52.91666 52.916672"
   version="1.1"
   id="svg5"
   xml:space="preserve"
   inkscape:export-filename="bitmap.svg"
   inkscape:export-xdpi="1.3"
   inkscape:export-ydpi="1.3"
   inkscape:version="1.2.1 (9c6d41e410, 2022-07-14)"
   sodipodi:docname="drawing.svg"
   xmlns:inkscape="http://www.inkscape.org/namespaces/inkscape"
   xmlns:sodipodi="http://sodipodi.sourceforge.net/DTD/sodipodi-0.dtd"
   xmlns="http://www.w3.org/2000/svg"
   xmlns:svg="http://www.w3.org/2000/svg"><sodipodi:namedview
     id="namedview7"
     pagecolor="#ffffff"
     bordercolor="#111111"
     borderopacity="1"
     inkscape:showpageshadow="0"
     inkscape:pageopacity="0"
     inkscape:pagecheckerboard="1"
     inkscape:deskcolor="#d1d1d1"
     inkscape:document-units="mm"
     showgrid="false"
     inkscape:zoom="2.8284271"
     inkscape:cx="476.23642"
     inkscape:cy="625.43595"
     inkscape:window-width="1920"
     inkscape:window-height="1017"
     inkscape:window-x="-8"
     inkscape:window-y="-8"
     inkscape:window-maximized="1"
     inkscape:current-layer="layer1"
     showguides="true"><sodipodi:guide
       position="181.55614,56.521159"
       orientation="0,-1"
       id="guide3428"
       inkscape:locked="false" /></sodipodi:namedview><defs
     id="defs2"><clipPath
       clipPathUnits="userSpaceOnUse"
       id="clipPath1045"><ellipse
         style="fill:#666666;stroke-width:0.387368"
         id="ellipse1047"
         cx="9.0000105"
         cy="9.0000067"
         rx="8.9999962"
         ry="9.0000248" /></clipPath></defs><g
     inkscape:label="Layer 1"
     inkscape:groupmode="layer"
     id="layer1"
     transform="translate(-35.898282,-87.733716)"><g
       id="g38"
       transform="matrix(2.9398172,0,0,2.9398148,35.898238,87.733721)"
       clip-path="url(#clipPath1045)"><path
         d="M 0,0 H 18 V 18 H 0 Z"
         fill="#ef5350"
         id="path26" /><path
         d="M 6.64,5.9 2.49,8.97 4.07,4 5.66,9 1.5,5.93 H 6.64 Z M 8.09,3.21 9.67,3.88 8,4.26 9.12,3 8.97,4.68 Z M 9.99,5 11.19,6.21 9.5,5.94 11.04,5.21 10.24,6.72 Z m 0.34,2.5 0.59,1.6 -1.42,-1 h 1.71 l -1.35,1 z M 9.07,9.5 8.99,11.24 8.05,9.78 9.65,10.38 8,10.83 Z"
         fill="#ffeb3b"
         id="path28" /></g></g></svg>
