<?xml version="1.0" encoding="UTF-8" standalone="no"?>
<!-- Created with Inkscape (http://www.inkscape.org/) -->

<svg
   width="52.916672mm"
   height="52.916656mm"
   viewBox="0 0 52.916672 52.916656"
   version="1.1"
   id="svg5"
   xml:space="preserve"
   inkscape:export-filename="bitmap.svg"
   inkscape:export-xdpi="1.3"
   inkscape:export-ydpi="1.3"
   inkscape:version="1.2.1 (9c6d41e410, 2022-07-14)"
   sodipodi:docname="drawing.svg"
   xmlns:inkscape="http://www.inkscape.org/namespaces/inkscape"
   xmlns:sodipodi="http://sodipodi.sourceforge.net/DTD/sodipodi-0.dtd"
   xmlns="http://www.w3.org/2000/svg"
   xmlns:svg="http://www.w3.org/2000/svg"><sodipodi:namedview
     id="namedview7"
     pagecolor="#ffffff"
     bordercolor="#111111"
     borderopacity="1"
     inkscape:showpageshadow="0"
     inkscape:pageopacity="0"
     inkscape:pagecheckerboard="1"
     inkscape:deskcolor="#d1d1d1"
     inkscape:document-units="mm"
     showgrid="false"
     inkscape:zoom="2.8284271"
     inkscape:cx="476.23642"
     inkscape:cy="625.43595"
     inkscape:window-width="1920"
     inkscape:window-height="1017"
     inkscape:window-x="-8"
     inkscape:window-y="-8"
     inkscape:window-maximized="1"
     inkscape:current-layer="layer1"
     showguides="true"><sodipodi:guide
       position="111.50258,99.404338"
       orientation="0,-1"
       id="guide3428"
       inkscape:locked="false" /></sodipodi:namedview><defs
     id="defs2"><clipPath
       clipPathUnits="userSpaceOnUse"
       id="clipPath1041"><ellipse
         style="fill:#666666;stroke-width:0.387368"
         id="ellipse1043"
         cx="9.000001"
         cy="8.9999886"
         rx="8.9999962"
         ry="9.0000248" /></clipPath></defs><g
     inkscape:label="Layer 1"
     inkscape:groupmode="layer"
     id="layer1"
     transform="translate(-105.95185,-130.61691)"><g
       id="g69"
       transform="matrix(2.9398161,0,0,2.9398067,105.95183,130.61701)"
       clip-path="url(#clipPath1041)"><path
         d="M 0,0 H 18 V 18 H 0 Z"
         fill="#ffffff"
         id="path54" /><path
         d="M 7,0 H 1 l 6,5.5 z m 4,0 V 6 L 17.5,0 Z M 18,4.5 15,7 h 3 z m 0,6.5 h -4 l 4,3.5 z m -1,7 -6,-5.5 V 18 Z M 7,18 V 12 L 0.5,18 Z M 0,13.5 3,11 H 0 Z M 0,7 H 4 L 0,3.5 Z"
         fill="#0d47a1"
         id="path56" /><path
         d="M 7,7 -6.5,-5 v 2.3 L 5,7 Z M 8,8 V 0 h 2 v 8 h 8 v 2 h -8 v 8 H 8 V 10 H 0 V 8 Z M -9,23 5,11 H 7 L -6.5,23 Z M 11,7 23,-4 h 2.2 L 13,7 Z m 2,4 h -2 l 11.5,10 v -2 z"
         fill="#ef5350"
         id="path58" /></g></g></svg>
