<?xml version="1.0" encoding="UTF-8" standalone="no"?>
<!-- Created with Inkscape (http://www.inkscape.org/) -->

<svg
   width="52.916664mm"
   height="52.916672mm"
   viewBox="0 0 52.916664 52.916672"
   version="1.1"
   id="svg5"
   xml:space="preserve"
   inkscape:export-filename="bitmap.svg"
   inkscape:export-xdpi="1.3"
   inkscape:export-ydpi="1.3"
   inkscape:version="1.2.1 (9c6d41e410, 2022-07-14)"
   sodipodi:docname="drawing.svg"
   xmlns:inkscape="http://www.inkscape.org/namespaces/inkscape"
   xmlns:sodipodi="http://sodipodi.sourceforge.net/DTD/sodipodi-0.dtd"
   xmlns="http://www.w3.org/2000/svg"
   xmlns:svg="http://www.w3.org/2000/svg"><sodipodi:namedview
     id="namedview7"
     pagecolor="#ffffff"
     bordercolor="#111111"
     borderopacity="1"
     inkscape:showpageshadow="0"
     inkscape:pageopacity="0"
     inkscape:pagecheckerboard="1"
     inkscape:deskcolor="#d1d1d1"
     inkscape:document-units="mm"
     showgrid="false"
     inkscape:zoom="2.8284271"
     inkscape:cx="476.23642"
     inkscape:cy="625.43595"
     inkscape:window-width="1920"
     inkscape:window-height="1017"
     inkscape:window-x="-8"
     inkscape:window-y="-8"
     inkscape:window-maximized="1"
     inkscape:current-layer="layer1" /><defs
     id="defs2"><clipPath
       clipPathUnits="userSpaceOnUse"
       id="clipPath1029"><ellipse
         style="fill:#666666;stroke-width:0.387368"
         id="ellipse1031"
         cx="9.000001"
         cy="9.0000162"
         rx="8.9999962"
         ry="9.0000248" /></clipPath></defs><g
     inkscape:label="Layer 1"
     inkscape:groupmode="layer"
     id="layer1"
     transform="translate(-77.721353,-155.50886)"><g
       id="g599"
       transform="matrix(2.9398161,0,0,2.9398148,77.721341,155.50885)"
       clip-path="url(#clipPath1029)"><path
         d="m 13,0 h 5 v 18 h -5 z"
         fill="#ef5350"
         id="path581" /><path
         d="m 5,0 h 8 V 18 H 5 Z"
         fill="#f8f9fd"
         id="path583" /><path
         d="M 12,7.75 H 9.75 a 0.75,0.75 0 0 0 -1.5,0 H 6 C 6,8.16 6.36,8.5 6.77,8.5 H 6.75 c 0,0.41 0.34,0.75 0.75,0.75 0,0.41 0.34,0.75 0.75,0.75 h 1.5 c 0.41,0 0.75,-0.34 0.75,-0.75 0.41,0 0.75,-0.34 0.75,-0.75 H 11.22 C 11.64,8.5 12,8.16 12,7.75 Z"
         fill="#ff9800"
         id="path585"
         sodipodi:insensitive="true" /><path
         d="M 0,0 H 5 V 18 H 0 Z"
         fill="#4caf50"
         id="path587" /></g></g></svg>
