<?xml version="1.0" encoding="UTF-8" standalone="no"?>
<!-- Created with Inkscape (http://www.inkscape.org/) -->

<svg
   width="52.916664mm"
   height="52.916672mm"
   viewBox="0 0 52.916664 52.916672"
   version="1.1"
   id="svg5"
   xml:space="preserve"
   inkscape:export-filename="bitmap.svg"
   inkscape:export-xdpi="1.3"
   inkscape:export-ydpi="1.3"
   inkscape:version="1.2.1 (9c6d41e410, 2022-07-14)"
   sodipodi:docname="drawing.svg"
   xmlns:inkscape="http://www.inkscape.org/namespaces/inkscape"
   xmlns:sodipodi="http://sodipodi.sourceforge.net/DTD/sodipodi-0.dtd"
   xmlns="http://www.w3.org/2000/svg"
   xmlns:svg="http://www.w3.org/2000/svg"><sodipodi:namedview
     id="namedview7"
     pagecolor="#ffffff"
     bordercolor="#111111"
     borderopacity="1"
     inkscape:showpageshadow="0"
     inkscape:pageopacity="0"
     inkscape:pagecheckerboard="1"
     inkscape:deskcolor="#d1d1d1"
     inkscape:document-units="mm"
     showgrid="false"
     inkscape:zoom="2.8284271"
     inkscape:cx="476.23642"
     inkscape:cy="625.43595"
     inkscape:window-width="1920"
     inkscape:window-height="1017"
     inkscape:window-x="-8"
     inkscape:window-y="-8"
     inkscape:window-maximized="1"
     inkscape:current-layer="layer1" /><defs
     id="defs2"><clipPath
       clipPathUnits="userSpaceOnUse"
       id="clipPath1085"><ellipse
         style="fill:#666666;stroke-width:0.387368"
         id="ellipse1087"
         cx="9.0000019"
         cy="9.0000772"
         rx="8.9999962"
         ry="9.0000248" /></clipPath></defs><g
     inkscape:label="Layer 1"
     inkscape:groupmode="layer"
     id="layer1"
     transform="translate(-70.048441,-169.79638)"><g
       id="g645"
       transform="matrix(2.9398161,0,0,2.9398234,70.048422,169.79621)"
       clip-path="url(#clipPath1085)"><path
         d="M 0,18 H 18 V 0 H 0 Z"
         fill="#0d47a1"
         id="path624" /><path
         d="m 11,8.13 0.25,0.52 0.56,-0.13 -0.25,0.51 0.45,0.36 -0.56,0.12 v 0.58 L 11,9.73 10.56,10.09 V 9.5 L 10,9.4 10.45,9.04 10.2,8.53 10.76,8.66 11,8.14 Z m 2,4 0.25,0.52 0.56,-0.13 -0.25,0.51 0.45,0.36 -0.56,0.12 v 0.58 L 13,13.73 12.56,14.09 V 13.51 L 12,13.4 12.45,13.04 12.2,12.53 12.76,12.66 13,12.14 Z M 13.3,5 13.55,5.52 14.11,5.39 13.86,5.9 14.3,6.26 13.75,6.38 V 6.96 L 13.3,6.6 12.85,6.96 V 6.38 L 12.3,6.26 12.75,5.9 12.5,5.39 13.05,5.52 Z m 2,3.35 0.25,0.51 0.56,-0.12 -0.25,0.51 0.45,0.36 -0.56,0.12 V 10.3 L 15.31,9.95 14.86,10.3 V 9.73 L 14.3,9.61 14.75,9.25 14.5,8.74 15.06,8.86 15.31,8.35 Z"
         fill="#ef5350"
         id="path626" /><path
         d="M 9,4 V 0 H 0 V 9 H 4 V 6 L 7,9 H 9 V 7 L 6,4 Z"
         fill="#f8f9fd"
         id="path628" /><path
         d="M 3,1 V 0 H 1 V 1 H 0 V 3 H 1 V 9 H 3 V 3 H 9 V 1 Z"
         fill="#ef5350"
         id="path630" /><path
         d="M 9,8 5,4 H 4 l 5,5 z"
         fill="#ef5350"
         id="path632" /></g></g></svg>
