<?xml version="1.0" encoding="UTF-8" standalone="no"?>
<!-- Created with Inkscape (http://www.inkscape.org/) -->

<svg
   width="52.916672mm"
   height="52.916672mm"
   viewBox="0 0 52.916672 52.916672"
   version="1.1"
   id="svg5"
   xml:space="preserve"
   inkscape:export-filename="bitmap.svg"
   inkscape:export-xdpi="1.3"
   inkscape:export-ydpi="1.3"
   inkscape:version="1.2.1 (9c6d41e410, 2022-07-14)"
   sodipodi:docname="drawing.svg"
   xmlns:inkscape="http://www.inkscape.org/namespaces/inkscape"
   xmlns:sodipodi="http://sodipodi.sourceforge.net/DTD/sodipodi-0.dtd"
   xmlns="http://www.w3.org/2000/svg"
   xmlns:svg="http://www.w3.org/2000/svg"><sodipodi:namedview
     id="namedview7"
     pagecolor="#ffffff"
     bordercolor="#111111"
     borderopacity="1"
     inkscape:showpageshadow="0"
     inkscape:pageopacity="0"
     inkscape:pagecheckerboard="1"
     inkscape:deskcolor="#d1d1d1"
     inkscape:document-units="mm"
     showgrid="false"
     inkscape:zoom="2.8284271"
     inkscape:cx="476.23642"
     inkscape:cy="625.43595"
     inkscape:window-width="1920"
     inkscape:window-height="1017"
     inkscape:window-x="-8"
     inkscape:window-y="-8"
     inkscape:window-maximized="1"
     inkscape:current-layer="layer1"
     showguides="true"><sodipodi:guide
       position="130.47265,134.35047"
       orientation="0,-1"
       id="guide3428"
       inkscape:locked="false" /></sodipodi:namedview><defs
     id="defs2"><clipPath
       clipPathUnits="userSpaceOnUse"
       id="clipPath1081"><ellipse
         style="fill:#666666;stroke-width:0.387368"
         id="ellipse1083"
         cx="8.999999"
         cy="8.9999418"
         rx="8.9999962"
         ry="9.0000248" /></clipPath></defs><g
     inkscape:label="Layer 1"
     inkscape:groupmode="layer"
     id="layer1"
     transform="translate(-86.981768,-165.56303)"><g
       id="g516"
       transform="matrix(2.9398161,0,0,2.9398203,86.981763,165.56302)"
       clip-path="url(#clipPath1081)"><path
         d="M 18,0 V 18 H 0 V 0 Z"
         fill="#f8f9fd"
         id="path498" /><path
         d="M 0,0 H 18 V 9 H 0 Z"
         fill="#ef5350"
         id="path500" /><path
         d="M 4.6,5.29 C 4.87,6.49 5.87,7.23 7,7.5 5.4,8.07 3.57,7.36 3.03,5.67 A 3.26,3.26 0 0 1 7,1.51 3.25,3.25 0 0 0 4.6,5.29 Z"
         fill="#f8f9fd"
         id="path502" /><path
         d="M 7.54,2.84 7.08,2.49 H 7.65 L 7.82,1.92 8,2.49 H 8.57 L 8.11,2.84 8.29,3.41 7.82,3.06 7.35,3.41 Z M 9.18,4.13 8.72,3.78 H 9.24 L 9.41,3.21 9.64,3.77 h 0.55 L 9.73,4.12 9.93,4.69 9.47,4.35 9,4.7 9.17,4.13 Z M 8.56,6.13 8.11,5.71 H 8.67 L 8.84,5.14 9.02,5.71 H 9.59 L 9.14,6.06 9.31,6.63 8.84,6.28 8.39,6.63 Z m -2.07,0 -0.46,-0.4 H 6.59 L 6.76,5.16 6.95,5.72 H 7.52 L 7.06,6.07 7.23,6.64 6.77,6.3 6.31,6.65 Z M 5.86,4.13 5.41,3.78 H 5.97 L 6.14,3.2 6.32,3.77 H 6.89 L 6.4,4.12 6.6,4.69 6.14,4.34 5.69,4.69 Z"
         fill="#f8f9fd"
         id="path504" /></g></g></svg>
