<?xml version="1.0" encoding="UTF-8" standalone="no"?>
<!-- Created with Inkscape (http://www.inkscape.org/) -->

<svg
   width="52.916656mm"
   height="52.916672mm"
   viewBox="0 0 52.916656 52.916672"
   version="1.1"
   id="svg5"
   xml:space="preserve"
   inkscape:export-filename="bitmap.svg"
   inkscape:export-xdpi="1.3"
   inkscape:export-ydpi="1.3"
   inkscape:version="1.2.1 (9c6d41e410, 2022-07-14)"
   sodipodi:docname="drawing.svg"
   xmlns:inkscape="http://www.inkscape.org/namespaces/inkscape"
   xmlns:sodipodi="http://sodipodi.sourceforge.net/DTD/sodipodi-0.dtd"
   xmlns="http://www.w3.org/2000/svg"
   xmlns:svg="http://www.w3.org/2000/svg"><sodipodi:namedview
     id="namedview7"
     pagecolor="#ffffff"
     bordercolor="#111111"
     borderopacity="1"
     inkscape:showpageshadow="0"
     inkscape:pageopacity="0"
     inkscape:pagecheckerboard="1"
     inkscape:deskcolor="#d1d1d1"
     inkscape:document-units="mm"
     showgrid="false"
     inkscape:zoom="2.8284271"
     inkscape:cx="476.23642"
     inkscape:cy="625.43595"
     inkscape:window-width="1920"
     inkscape:window-height="1017"
     inkscape:window-x="-8"
     inkscape:window-y="-8"
     inkscape:window-maximized="1"
     inkscape:current-layer="layer1" /><defs
     id="defs2"><clipPath
       clipPathUnits="userSpaceOnUse"
       id="clipPath1057"><ellipse
         style="fill:#666666;stroke-width:0.387368"
         id="ellipse1059"
         cx="8.9999847"
         cy="9.0000286"
         rx="8.9999962"
         ry="9.0000248" /></clipPath></defs><g
     inkscape:label="Layer 1"
     inkscape:groupmode="layer"
     id="layer1"
     transform="translate(-128.65366,-169.26719)"><g
       id="g533"
       transform="matrix(2.9398179,0,0,2.9398154,128.65365,169.26717)"
       clip-path="url(#clipPath1057)"
       inkscape:export-filename="FOREX\TRY.svg"
       inkscape:export-xdpi="1.3"
       inkscape:export-ydpi="1.3"><path
         d="M 0,0 H 18 V 18 H 0 Z"
         fill="#ef5350"
         id="path518" /><path
         d="M 11.4,5.35 A 4.07,4.07 0 0 0 10,5.1 4,4 0 0 0 6.3,7.52 a 3.81,3.81 0 0 0 0.9,4.24 4.08,4.08 0 0 0 4.22,0.87 4.97,4.97 0 0 1 -7.76,-1.14 5.03,5.03 0 0 1 0,-5 4.95,4.95 0 0 1 7.74,-1.15 z"
         fill="#f8f9fd"
         id="path520" /><path
         d="M 12.55,7 V 8.66 L 11,9.08 12.53,9.62 v 1.52 l 1,-1.19 1.51,0.52 -0.95,-1.26 1.06,-1.27 -1.63,0.45 -1,-1.39 z"
         fill="#f8f9fd"
         id="path522" /></g></g></svg>
