<?xml version="1.0" encoding="UTF-8" standalone="no"?>
<!-- Created with Inkscape (http://www.inkscape.org/) -->

<svg
   width="52.916672mm"
   height="52.916672mm"
   viewBox="0 0 52.916672 52.916672"
   version="1.1"
   id="svg5"
   xml:space="preserve"
   inkscape:export-filename="bitmap.svg"
   inkscape:export-xdpi="1.3"
   inkscape:export-ydpi="1.3"
   inkscape:version="1.2.1 (9c6d41e410, 2022-07-14)"
   sodipodi:docname="drawing.svg"
   xmlns:inkscape="http://www.inkscape.org/namespaces/inkscape"
   xmlns:sodipodi="http://sodipodi.sourceforge.net/DTD/sodipodi-0.dtd"
   xmlns="http://www.w3.org/2000/svg"
   xmlns:svg="http://www.w3.org/2000/svg"><sodipodi:namedview
     id="namedview7"
     pagecolor="#ffffff"
     bordercolor="#111111"
     borderopacity="1"
     inkscape:showpageshadow="0"
     inkscape:pageopacity="0"
     inkscape:pagecheckerboard="1"
     inkscape:deskcolor="#d1d1d1"
     inkscape:document-units="mm"
     showgrid="false"
     inkscape:zoom="2.8284271"
     inkscape:cx="476.23642"
     inkscape:cy="625.43595"
     inkscape:window-width="1920"
     inkscape:window-height="1017"
     inkscape:window-x="-8"
     inkscape:window-y="-8"
     inkscape:window-maximized="1"
     inkscape:current-layer="layer1" /><defs
     id="defs2"><clipPath
       clipPathUnits="userSpaceOnUse"
       id="clipPath1089"><ellipse
         style="fill:#666666;stroke-width:0.387368"
         id="ellipse1091"
         cx="9.0000019"
         cy="8.9999609"
         rx="8.9999962"
         ry="9.0000248" /></clipPath></defs><g
     inkscape:label="Layer 1"
     inkscape:groupmode="layer"
     id="layer1"
     transform="translate(-151.1267,-153.50795)"><g
       id="g553"
       transform="matrix(2.9398161,0,0,2.9398172,151.12667,153.50794)"
       clip-path="url(#clipPath1089)"><path
         fill="#f8f9fd"
         d="M 0,0 H 18 V 18 H 0 Z"
         id="path535" /><path
         d="m 11,4 h 7 V 0 H 11 Z M 0,18 H 18 V 14 H 0 Z m 11,-7 h 7 V 7 h -7 z"
         fill="#ef5350"
         id="path537" /><path
         fill="#1e88e5"
         d="M 0,0 H 11 V 11 H 0 Z"
         id="path539" /><path
         d="m 2.42,1.22 a 0.09,0.09 0 0 1 0.16,0 L 2.85,1.93 C 2.86,1.97 2.9,1.99 2.93,1.99 l 0.76,0.04 c 0.08,0 0.11,0.1 0.05,0.16 l -0.6,0.47 a 0.09,0.09 0 0 0 -0.02,0.1 l 0.2,0.72 A 0.09,0.09 0 0 1 3.18,3.58 L 2.55,3.17 a 0.09,0.09 0 0 0 -0.1,0 L 1.82,3.58 A 0.09,0.09 0 0 1 1.68,3.48 L 1.88,2.75 A 0.09,0.09 0 0 0 1.85,2.65 L 1.26,2.19 A 0.09,0.09 0 0 1 1.31,2.03 L 2.07,1.99 c 0.03,0 0.07,-0.02 0.08,-0.06 l 0.27,-0.7 z m 0,3 a 0.09,0.09 0 0 1 0.16,0 L 2.85,4.93 C 2.86,4.97 2.9,4.99 2.93,4.99 l 0.76,0.04 c 0.08,0 0.11,0.1 0.05,0.16 l -0.6,0.47 a 0.09,0.09 0 0 0 -0.02,0.1 l 0.2,0.72 A 0.09,0.09 0 0 1 3.18,6.58 L 2.55,6.17 a 0.09,0.09 0 0 0 -0.1,0 L 1.82,6.58 A 0.09,0.09 0 0 1 1.68,6.48 L 1.88,5.75 A 0.09,0.09 0 0 0 1.85,5.65 L 1.26,5.19 A 0.09,0.09 0 0 1 1.31,5.03 L 2.07,4.99 c 0.03,0 0.07,-0.02 0.08,-0.06 l 0.27,-0.7 z m 0,3 a 0.09,0.09 0 0 1 0.16,0 L 2.85,7.93 C 2.86,7.97 2.9,7.99 2.93,7.99 l 0.76,0.04 c 0.08,0 0.11,0.1 0.05,0.16 l -0.6,0.47 a 0.09,0.09 0 0 0 -0.02,0.1 l 0.2,0.72 A 0.09,0.09 0 0 1 3.18,9.58 L 2.55,9.17 a 0.09,0.09 0 0 0 -0.1,0 L 1.82,9.58 A 0.09,0.09 0 0 1 1.68,9.48 L 1.88,8.75 A 0.09,0.09 0 0 0 1.85,8.65 L 1.26,8.19 A 0.09,0.09 0 0 1 1.31,8.03 L 2.07,7.99 c 0.03,0 0.07,-0.02 0.08,-0.06 l 0.27,-0.7 z m 3,-6 a 0.09,0.09 0 0 1 0.16,0 L 5.85,1.93 C 5.86,1.97 5.9,1.99 5.93,1.99 l 0.76,0.04 c 0.08,0 0.11,0.1 0.05,0.16 l -0.6,0.47 a 0.09,0.09 0 0 0 -0.02,0.1 l 0.2,0.72 A 0.09,0.09 0 0 1 6.18,3.58 L 5.55,3.17 a 0.09,0.09 0 0 0 -0.1,0 L 4.82,3.58 A 0.09,0.09 0 0 1 4.68,3.48 L 4.88,2.75 A 0.09,0.09 0 0 0 4.85,2.65 L 4.26,2.19 A 0.09,0.09 0 0 1 4.31,2.03 L 5.07,1.99 c 0.03,0 0.07,-0.02 0.08,-0.06 l 0.27,-0.7 z m 0,3 a 0.09,0.09 0 0 1 0.16,0 L 5.85,4.93 C 5.86,4.97 5.9,4.99 5.93,4.99 l 0.76,0.04 c 0.08,0 0.11,0.1 0.05,0.16 l -0.6,0.47 a 0.09,0.09 0 0 0 -0.02,0.1 l 0.2,0.72 A 0.09,0.09 0 0 1 6.18,6.58 L 5.55,6.17 a 0.09,0.09 0 0 0 -0.1,0 L 4.82,6.58 A 0.09,0.09 0 0 1 4.68,6.48 L 4.88,5.75 A 0.09,0.09 0 0 0 4.85,5.65 L 4.26,5.19 A 0.09,0.09 0 0 1 4.31,5.03 L 5.07,4.99 c 0.03,0 0.07,-0.02 0.08,-0.06 l 0.27,-0.7 z m 0,3 a 0.09,0.09 0 0 1 0.16,0 L 5.85,7.93 C 5.86,7.97 5.9,7.99 5.93,7.99 l 0.76,0.04 c 0.08,0 0.11,0.1 0.05,0.16 l -0.6,0.47 a 0.09,0.09 0 0 0 -0.02,0.1 l 0.2,0.72 A 0.09,0.09 0 0 1 6.18,9.58 L 5.55,9.17 a 0.09,0.09 0 0 0 -0.1,0 L 4.82,9.58 A 0.09,0.09 0 0 1 4.68,9.48 L 4.88,8.75 A 0.09,0.09 0 0 0 4.85,8.65 L 4.26,8.19 A 0.09,0.09 0 0 1 4.31,8.03 L 5.07,7.99 c 0.03,0 0.07,-0.02 0.08,-0.06 l 0.27,-0.7 z m 3,-6 a 0.09,0.09 0 0 1 0.16,0 L 8.85,1.93 C 8.86,1.97 8.9,1.99 8.93,1.99 l 0.76,0.04 c 0.08,0 0.11,0.1 0.05,0.16 l -0.6,0.47 a 0.09,0.09 0 0 0 -0.02,0.1 l 0.2,0.72 A 0.09,0.09 0 0 1 9.18,3.58 L 8.55,3.17 a 0.09,0.09 0 0 0 -0.1,0 L 7.82,3.58 A 0.09,0.09 0 0 1 7.68,3.48 L 7.88,2.75 A 0.09,0.09 0 0 0 7.85,2.65 L 7.26,2.19 A 0.09,0.09 0 0 1 7.31,2.03 L 8.07,1.99 c 0.03,0 0.07,-0.02 0.08,-0.06 l 0.27,-0.7 z m 0,3 a 0.09,0.09 0 0 1 0.16,0 L 8.85,4.93 C 8.86,4.97 8.9,4.99 8.93,4.99 l 0.76,0.04 c 0.08,0 0.11,0.1 0.05,0.16 l -0.6,0.47 a 0.09,0.09 0 0 0 -0.02,0.1 l 0.2,0.72 A 0.09,0.09 0 0 1 9.18,6.58 L 8.55,6.17 a 0.09,0.09 0 0 0 -0.1,0 L 7.82,6.58 A 0.09,0.09 0 0 1 7.68,6.48 L 7.88,5.75 A 0.09,0.09 0 0 0 7.85,5.65 L 7.26,5.19 A 0.09,0.09 0 0 1 7.31,5.03 L 8.07,4.99 c 0.03,0 0.07,-0.02 0.08,-0.06 l 0.27,-0.7 z m 0,3 a 0.09,0.09 0 0 1 0.16,0 L 8.85,7.93 C 8.86,7.97 8.9,7.99 8.93,7.99 l 0.76,0.04 c 0.08,0 0.11,0.1 0.05,0.16 l -0.6,0.47 a 0.09,0.09 0 0 0 -0.02,0.1 l 0.2,0.72 A 0.09,0.09 0 0 1 9.18,9.58 L 8.55,9.17 a 0.09,0.09 0 0 0 -0.1,0 L 7.82,9.58 A 0.09,0.09 0 0 1 7.68,9.48 L 7.88,8.75 A 0.09,0.09 0 0 0 7.85,8.65 L 7.26,8.19 A 0.09,0.09 0 0 1 7.31,8.03 L 8.07,7.99 c 0.03,0 0.07,-0.02 0.08,-0.06 l 0.27,-0.7 z"
         fill="#f8f9fd"
         id="path541" /></g></g></svg>
