<svg xmlns="http://www.w3.org/2000/svg" version="1.2" baseProfile="tiny-ps" viewBox="0 0 124 124" width="124" height="124">
    <title>Layer 1</title>
    <style>
        tspan {
            white-space: pre
        }
        .shp0 {
            fill: #4572C4
        }
    </style>
    <g id="Layer 1">
        <g id="exchange">
            <g id="&lt;Group&gt;">
                <path id="&lt;Path&gt;" class="shp0" d="M122 86C122 105.88 105.88 122 86 122C66.12 122 50 105.88 50 86C50 80.41 51.31 75.13 53.59 70.41C48.87 72.69 43.59 74 38 74C18.12 74 2 57.88 2 38C2 18.12 18.12 2 38 2C57.88 2 74 18.12 74 38C74 43.59 72.69 48.87 70.41 53.59C75.13 51.31 80.41 50 86 50C105.88 50 122 66.12 122 86Z"/>
            </g>
            <g id="&lt;Group&gt;">
                <path id="&lt;Compound Path&gt;" fill-rule="evenodd" class="shp1" d="M86 124C65.05 124 48 106.95 48 86C48 65.05 65.05 48 86 48C106.95 48 124 65.05 124 86C124 106.95 106.95 124 86 124ZM86 52C67.25 52 52 67.25 52 86C52 104.75 67.25 120 86 120C104.75 120 120 104.75 120 86C120 67.25 104.75 52 86 52Z"/>
            </g>
            <g id="&lt;Group&gt;">
                <path id="&lt;Path&gt;" class="shp2" d="M102 38L102 30L82 30L82 26L106 26L106 30L116.67 22L106 14L106 18L82 18L82 14L102 14L102 6L123.33 22L102 38Z"/>
            </g>
            <g id="&lt;Group&gt;">
                <path id="&lt;Path&gt;" class="shp2" d="M22 118L0.67 102L22 86L22 94L42 94L42 98L18 98L18 94L7.33 102L18 110L18 106L42 106L42 110L22 110L22 118Z"/>
            </g>
            <g id="&lt;Group&gt;">
                <path id="&lt;Compound Path&gt;" fill-rule="evenodd" class="shp1" d="M90 104L72 104L72 68L90 68C95.51 68 100 72.49 100 78C100 81.27 98.42 84.17 95.99 86C98.42 87.83 100 90.73 100 94C100 99.51 95.51 104 90 104ZM76 100L90 100C93.31 100 96 97.31 96 94C96 90.69 93.31 88 90 88L76 88L76 100ZM76 84L90 84C93.31 84 96 81.31 96 78C96 74.69 93.31 72 90 72L76 72L76 84Z"/>
            </g>
            <g id="&lt;Group&gt;">
                <path id="&lt;Path&gt;" class="shp1" d="M80 70L76 70L76 64L80 64L80 70Z"/>
            </g>
            <g id="&lt;Group&gt;">
                <path id="&lt;Path&gt;" class="shp1" d="M92 70L88 70L88 64L92 64L92 70Z"/>
            </g>
            <g id="&lt;Group&gt;">
                <path id="&lt;Path&gt;" class="shp1" d="M80 108L76 108L76 102L80 102L80 108Z"/>
            </g>
            <g id="&lt;Group&gt;">
                <path id="&lt;Path&gt;" class="shp1" d="M92 108L88 108L88 102L92 102L92 108Z"/>
            </g>
            <g id="&lt;Group&gt;">
                <path id="&lt;Path&gt;" class="shp1" d="M63.35 105.63C58.61 100.17 56 93.2 56 86C56 69.46 69.46 56 86 56C93.2 56 100.17 58.61 105.63 63.35L103.01 66.37C98.27 62.26 92.23 60 86 60C71.66 60 60 71.66 60 86C60 92.23 62.26 98.27 66.37 103.01L63.35 105.63Z"/>
            </g>
            <g id="&lt;Group&gt;">
                <path id="&lt;Path&gt;" class="shp1" d="M86 116C78.8 116 71.83 113.39 66.37 108.65L68.99 105.63C73.73 109.74 79.77 112 86 112C100.34 112 112 100.34 112 86C112 79.77 109.74 73.73 105.63 68.99L108.65 66.37C113.39 71.83 116 78.8 116 86C116 102.54 102.54 116 86 116Z"/>
            </g>
            <g id="&lt;Group&gt;">
                <path id="&lt;Path&gt;" class="shp1" d="M42 56L34 56C28.49 56 24 51.51 24 46L24 44L28 44L28 46C28 49.31 30.69 52 34 52L42 52C45.31 52 48 49.31 48 46C48 42.69 45.31 40 42 40L34 40C28.49 40 24 35.51 24 30C24 24.49 28.49 20 34 20L42 20C47.51 20 52 24.49 52 30L52 32L48 32L48 30C48 26.69 45.31 24 42 24L34 24C30.69 24 28 26.69 28 30C28 33.31 30.69 36 34 36L42 36C47.51 36 52 40.49 52 46C52 51.51 47.51 56 42 56Z"/>
            </g>
            <g id="&lt;Group&gt;">
                <path id="&lt;Path&gt;" class="shp1" d="M40 22L36 22L36 16L40 16L40 22Z"/>
            </g>
            <g id="&lt;Group&gt;">
                <path id="&lt;Path&gt;" class="shp1" d="M40 60L36 60L36 54L40 54L40 60Z"/>
            </g>
            <g id="&lt;Group&gt;">
                <path id="&lt;Path&gt;" class="shp1" d="M15.35 57.63C10.61 52.17 8 45.2 8 38C8 21.46 21.46 8 38 8C45.2 8 52.17 10.61 57.63 15.35L55.01 18.37C50.27 14.26 44.23 12 38 12C23.66 12 12 23.66 12 38C12 44.23 14.26 50.27 18.37 55.01L15.35 57.63Z"/>
            </g>
            <g id="&lt;Group&gt;">
                <path id="&lt;Path&gt;" class="shp1" d="M38 68C30.8 68 23.83 65.39 18.37 60.65L20.99 57.63C25.73 61.74 31.77 64 38 64C52.34 64 64 52.34 64 38C64 31.77 61.74 25.73 57.63 20.99L60.65 18.37C65.39 23.83 68 30.8 68 38C68 54.54 54.54 68 38 68Z"/>
            </g>
            <g id="&lt;Group&gt;">
                <path id="&lt;Path&gt;" class="shp1" d="M38 76C17.05 76 0 58.95 0 38C0 17.05 17.05 0 38 0C58.95 0 76 17.05 76 38C76 40.77 75.67 43.63 75.01 46.5L71.12 45.61C71.7 43.03 72 40.47 72 38C72 19.25 56.75 4 38 4C19.25 4 4 19.25 4 38C4 56.75 19.25 72 38 72C40.47 72 43.03 71.7 45.61 71.12L46.5 75.01C43.63 75.67 40.77 76 38 76Z"/>
            </g>
            <g id="&lt;Group&gt;">
                <path id="&lt;Path&gt;" class="shp1" d="M98 38L94 38L94 34L98 34L98 38Z"/>
            </g>
            <g id="&lt;Group&gt;">
                <path id="&lt;Path&gt;" class="shp1" d="M90 38L86 38L86 34L90 34L90 38Z"/>
            </g>
            <g id="&lt;Group&gt;">
                <path id="&lt;Path&gt;" class="shp1" d="M38 90L34 90L34 86L38 86L38 90Z"/>
            </g>
            <g id="&lt;Group&gt;">
                <path id="&lt;Path&gt;" class="shp1" d="M30 90L26 90L26 86L30 86L30 90Z"/>
            </g>
        </g>
    </g>
</svg>
