<svg xmlns="http://www.w3.org/2000/svg" xmlns:xlink="http://www.w3.org/1999/xlink" version="1.1" width="256" height="256" viewBox="0 0 256 256" xml:space="preserve">

<defs>
</defs>
<g style="stroke: none; stroke-width: 0; stroke-dasharray: none; stroke-linecap: butt; stroke-linejoin: miter; stroke-miterlimit: 10; fill: none; fill-rule: nonzero; opacity: 1;" transform="translate(1.4065934065934016 1.4065934065934016) scale(2.81 2.81)" >
	<path d="M 45 22.075 c 8.9 0 16.141 7.241 16.141 16.141 c 0 8.9 -7.241 16.141 -16.141 16.141 s -16.141 -7.241 -16.141 -16.141 C 28.859 29.315 36.1 22.075 45 22.075 M 45 19.075 c -10.571 0 -19.141 8.57 -19.141 19.141 S 34.429 57.356 45 57.356 s 19.141 -8.57 19.141 -19.141 S 55.571 19.075 45 19.075 L 45 19.075 z" style="stroke: none; stroke-width: 1; stroke-dasharray: none; stroke-linecap: butt; stroke-linejoin: miter; stroke-miterlimit: 10; fill: rgb(255,87,34); fill-rule: nonzero; opacity: 1;" transform=" matrix(1 0 0 1 0 0) " stroke-linecap="round" />
	<path d="M 51.449 41.195 c -0.828 0 -1.5 0.671 -1.5 1.5 c 0 0.843 -0.511 1.555 -1.114 1.555 h -7.669 c -0.604 0 -1.114 -0.712 -1.114 -1.555 v -8.96 c 0 -0.843 0.51 -1.555 1.114 -1.555 h 7.669 c 0.604 0 1.114 0.712 1.114 1.555 c 0 0.829 0.672 1.5 1.5 1.5 s 1.5 -0.671 1.5 -1.5 c 0 -2.511 -1.846 -4.555 -4.114 -4.555 H 46.5 v -1.599 c 0 -0.829 -0.671 -1.5 -1.5 -1.5 s -1.5 0.671 -1.5 1.5 v 1.599 h -2.334 c -2.269 0 -4.114 2.043 -4.114 4.555 v 8.96 c 0 2.511 1.846 4.555 4.114 4.555 H 43.5 v 1.599 c 0 0.828 0.671 1.5 1.5 1.5 s 1.5 -0.672 1.5 -1.5 V 47.25 h 2.335 c 2.269 0 4.114 -2.043 4.114 -4.555 C 52.949 41.867 52.277 41.195 51.449 41.195 z" style="stroke: none; stroke-width: 1; stroke-dasharray: none; stroke-linecap: butt; stroke-linejoin: miter; stroke-miterlimit: 10; fill: rgb(255,87,34); fill-rule: nonzero; opacity: 1;" transform=" matrix(1 0 0 1 0 0) " stroke-linecap="round" />
	<path d="M 85.384 9.325 H 4.616 C 2.071 9.325 0 11.396 0 13.941 v 49.653 c 0 2.545 2.071 4.616 4.616 4.616 h 28.732 v 1.973 c -3.2 1.138 -5.276 3.631 -5.276 6.471 v 3.359 c 0 0.828 0.671 1.5 1.5 1.5 h 30.856 c 0.828 0 1.5 -0.672 1.5 -1.5 v -3.359 c 0 -2.84 -2.076 -5.333 -5.276 -6.472 V 68.21 h 28.732 c 2.545 0 4.616 -2.071 4.616 -4.616 V 13.941 C 90 11.396 87.929 9.325 85.384 9.325 z M 54.809 72.763 c 2.425 0.57 4.119 2.17 4.119 3.891 v 1.859 H 31.072 v -1.859 c 0 -1.721 1.694 -3.32 4.119 -3.891 c 0.678 -0.159 1.157 -0.764 1.157 -1.46 V 68.21 h 17.304 v 3.093 C 53.652 71.999 54.131 72.604 54.809 72.763 z M 87 63.594 c 0 0.892 -0.725 1.616 -1.616 1.616 H 55.152 H 34.848 H 4.616 C 3.725 65.21 3 64.485 3 63.594 V 13.941 c 0 -0.891 0.725 -1.616 1.616 -1.616 h 80.768 c 0.892 0 1.616 0.725 1.616 1.616 V 63.594 z" style="stroke: none; stroke-width: 1; stroke-dasharray: none; stroke-linecap: butt; stroke-linejoin: miter; stroke-miterlimit: 10; fill: rgb(255,87,34); fill-rule: nonzero; opacity: 1;" transform=" matrix(1 0 0 1 0 0) " stroke-linecap="round" />
</g>
</svg>